<svg fill="none" height="280" viewBox="0 0 280 280" width="280" xmlns="http://www.w3.org/2000/svg" xmlns:xlink="http://www.w3.org/1999/xlink"><linearGradient id="a" gradientUnits="userSpaceOnUse" x1="190.203" x2="88.7287" y1="202.824" y2="63.4377"><stop offset="0" stop-color="#2b7fff"/><stop offset=".371895" stop-color="#8722fb"/><stop offset=".4717" stop-color="#9810fa"/><stop offset=".580367" stop-color="#8722fb"/><stop offset=".671535" stop-color="#6c3dfc"/><stop offset=".89302" stop-color="#2b7fff"/></linearGradient><clipPath id="b"><path d="m0 0h280v280h-280z"/></clipPath><g clip-path="url(#b)"><g fill="#020202" opacity=".375"><path d="m216.915 149.45c35.911 4.402 40.313 23.018 37.483 29.81-1.824 4.465-9.559 7.673-18.804 10.125-7.295 1.824-15.66 3.585-23.773 5.409-15.534 3.522-24.087 6.666-41.256-1.321-1.95-.817-4.088-1.824-6.478-3.019-5.534-2.767-11.006-4.402-16.666-5.094-7.924-1.006-15.722.629-22.955 2.83-7.169 2.202-14.213 5.283-20.691 7.17-5.9116 1.698-14.842 1.446-23.3322 0-19.3075-3.459-42.7657-11.446-44.2122-11.886-4.7796-3.774-7.7984-7.296-9.3078-10.629-.7547-1.635-1.0062-3.144-.9433-4.591.6918-16.1 49.5578-21.886 104.9015-22.2 38.741-.252 75.783 2.138 86.034 3.396z" opacity=".1"/><path d="m216.915 149.513c35.659 4.339 40.124 22.829 37.42 29.621-1.824 4.465-9.434 7.673-18.616 10.126-7.232 1.823-15.471 3.521-23.646 5.408-15.472 3.522-24.276 6.729-41.257-1.195-1.949-.817-4.088-1.761-6.477-2.956-5.472-2.767-10.943-4.402-16.666-5.094-7.925-1.006-15.723.566-22.956 2.767-7.106 2.139-14.213 5.22-20.753 7.107-5.9751 1.761-14.9055 1.509-23.3329 0-19.2445-3.396-42.7027-11.383-44.275-11.886-4.7797-3.774-7.8613-7.296-9.3078-10.566-.7547-1.635-1.0062-3.144-.9433-4.528.6918-15.974 49.1175-21.76 104.839-22.075 38.74-.251 75.72 2.139 85.971 3.397z" opacity=".1"/><path d="m216.852 149.576c35.471 4.339 39.936 22.64 37.294 29.432-1.76 4.466-9.307 7.673-18.364 10.063-7.106 1.824-15.345 3.522-23.458 5.346-15.345 3.459-24.464 6.729-41.319-1.07-1.95-.817-4.088-1.761-6.478-2.955-5.471-2.768-10.943-4.403-16.666-5.157-7.924-1.07-15.722.503-22.955 2.641-7.106 2.138-14.213 5.22-20.754 7.107-6.0372 1.76-15.0305 1.572-23.3321.125-19.1188-3.396-42.577-11.32-44.3379-11.886-4.7797-3.711-7.8613-7.232-9.3707-10.566-.7547-1.635-1.0062-3.144-.9434-4.528.7547-15.785 48.7403-21.697 104.7761-22.011 38.74-.252 75.657 2.138 85.908 3.396z" opacity=".1"/><path d="m216.853 149.638c35.218 4.277 39.746 22.452 37.168 29.245-1.698 4.465-9.182 7.672-18.113 10.062-7.043 1.761-15.156 3.522-23.269 5.346-15.22 3.459-24.653 6.792-41.382-1.006-1.95-.818-4.088-1.761-6.478-2.956-5.471-2.705-10.943-4.403-16.666-5.157-7.924-1.069-15.723.44-22.955 2.578-7.107 2.138-14.213 5.157-20.754 7.107-6.1003 1.761-15.0937 1.698-23.3952.188-19.0559-3.333-42.5141-11.257-44.4008-11.823-4.7797-3.71-7.8613-7.232-9.3707-10.503-.7547-1.635-1.0063-3.144-.9434-4.528.7547-15.66 48.3-21.634 104.7761-21.886 38.677-.251 75.594 2.139 85.845 3.396z" opacity=".1"/><path d="m216.789 149.764c34.967 4.277 39.558 22.264 37.106 28.993-1.635 4.465-8.994 7.672-17.861 10.062-6.981 1.761-15.031 3.522-23.144 5.346-15.157 3.459-24.842 6.792-41.382-.88-1.95-.818-4.088-1.761-6.541-2.956-5.471-2.705-10.88-4.403-16.666-5.22-7.861-1.132-15.722.377-23.018 2.515-7.106 2.076-14.213 5.157-20.816 7.044-6.1637 1.824-15.22 1.761-23.3957.315-18.993-3.334-42.577-10.88-44.4008-11.824-5.2828-2.767-7.8613-7.169-9.3707-10.503-.7547-1.635-1.0063-3.144-.9434-4.528.8176-15.471 47.8598-21.508 104.7126-21.823 38.678-.251 75.532 2.139 85.72 3.396z" opacity=".1"/><path d="m216.789 149.827c34.716 4.214 39.37 22.075 36.98 28.804-1.572 4.465-8.867 7.735-17.672 10.062-6.855 1.761-14.842 3.459-22.955 5.346-15.031 3.459-25.031 6.855-41.445-.755-1.95-.817-4.088-1.698-6.541-2.893-5.408-2.704-10.88-4.402-16.666-5.219-7.861-1.195-15.722.314-23.018 2.389-7.044 2.076-14.213 5.095-20.817 7.044-6.2257 1.824-15.282 1.824-23.3949.377-18.8672-3.27-42.4511-10.817-44.4636-11.823-5.2829-2.767-7.8614-7.107-9.3707-10.44-.7547-1.635-1.0063-3.144-.9434-4.528.8176-15.282 47.4195-21.446 104.6496-21.697 38.615-.189 75.469 2.138 85.657 3.396z" opacity=".2"/><path d="m216.79 149.89c34.464 4.214 39.18 21.886 36.853 28.615-1.509 4.465-8.741 7.736-17.42 10-6.792 1.698-14.717 3.459-22.83 5.345-14.905 3.397-25.219 6.856-41.507-.628-1.95-.755-4.088-1.698-6.541-2.893-5.409-2.642-10.88-4.403-16.666-5.283-7.861-1.195-15.723.188-23.018 2.327-7.044 2.012-14.213 5.094-20.88 7.043-6.2887 1.824-15.345 1.887-23.395.504-18.8043-3.271-42.3883-10.692-44.5265-11.824-5.2829-2.767-7.8614-7.106-9.3708-10.44-.7546-1.635-1.0062-3.144-.9433-4.528.8805-15.156 46.9793-21.32 104.5876-21.634 38.614-.189 75.405 2.138 85.594 3.396z" opacity=".2"/><path d="m216.726 149.953c34.213 4.151 39.055 21.697 36.791 28.426-1.446 4.466-8.616 7.736-17.169 10-6.729 1.698-14.527 3.459-22.64 5.283-14.843 3.396-25.471 6.918-41.508-.503-1.95-.755-4.088-1.698-6.541-2.893-5.408-2.642-10.817-4.403-16.666-5.283-7.861-1.258-15.785.126-23.081 2.201-7.043 2.013-14.213 5.031-20.879 6.981-6.3523 1.887-15.4714 1.95-23.3956.566-18.7414-3.27-42.3254-10.629-44.5266-11.823-5.2828-2.768-7.8613-7.044-9.4336-10.377-.7547-1.636-1.0062-3.145-.9433-4.529.8804-14.968 46.539-21.257 104.5871-21.508 38.552-.189 75.343 2.138 85.531 3.396z" opacity=".2"/><path d="m216.726 150.079c33.961 4.151 38.867 21.508 36.666 28.238-1.384 4.465-8.491 7.735-16.981 9.999-6.666 1.698-14.402 3.396-22.515 5.283-14.716 3.396-25.659 6.918-41.57-.377-1.95-.755-4.151-1.635-6.541-2.83-5.346-2.642-10.817-4.403-16.666-5.346-7.861-1.321-15.786.063-23.081 2.138-6.981 1.95-14.213 5.031-20.942 6.981-6.4153 1.887-15.5344 2.013-23.3957.692-18.6785-3.208-42.2625-10.566-44.5895-11.761-5.2828-2.704-7.8613-7.043-9.4336-10.377-.7547-1.635-1.0062-3.144-.9433-4.528.8804-14.779 46.0988-21.194 104.5241-21.445 38.552-.189 75.28 2.138 85.468 3.396z" opacity=".2"/><path d="m216.664 150.142c33.709 4.088 38.677 21.32 36.602 28.049-1.384 4.465-8.364 7.735-16.729 9.999-6.54 1.636-14.213 3.397-22.326 5.283-14.654 3.396-25.848 6.981-41.634-.251-1.949-.755-4.15-1.635-6.603-2.83-5.346-2.642-10.817-4.34-16.666-5.346-7.861-1.321-15.786 0-23.081 2.075-6.981 1.95-14.213 4.969-20.943 6.918-6.4773 1.887-15.6593 2.076-23.3949.755-18.5527-3.207-42.1367-10.503-44.6523-11.761-5.2828-2.704-7.8613-6.98-9.4336-10.314-.7547-1.635-1.0063-3.144-.9434-4.528.9434-14.653 45.7215-21.068 104.4612-21.383 38.552-.188 75.217 2.139 85.343 3.397z" opacity=".2"/><path d="m216.664 150.204c33.521 4.088 38.489 21.132 36.477 27.861-1.321 4.465-8.176 7.736-16.478 10-6.478 1.635-14.087 3.396-22.137 5.282-14.528 3.397-26.037 6.981-41.634-.125-1.95-.755-4.151-1.635-6.603-2.83-5.346-2.579-10.755-4.34-16.729-5.409-7.862-1.384-15.786 0-23.081 1.95-6.981 1.886-14.213 4.968-20.943 6.918-6.5404 1.949-15.7225 2.138-23.458.817-18.4898-3.144-42.0738-10.44-44.7152-11.76-5.22-2.705-7.8614-6.981-9.4336-10.252-.7547-1.635-1.0063-3.144-.9434-4.528.9434-14.465 45.2813-21.005 104.3982-21.257 38.489-.188 75.155 2.139 85.28 3.396z" opacity=".2"/><path d="m216.601 150.267c33.269 4.088 38.3 20.943 36.351 27.609-1.258 4.466-8.05 7.736-16.226 9.937-6.415 1.635-13.899 3.333-22.012 5.22-14.402 3.333-26.225 7.044-41.696 0-2.013-.755-4.151-1.635-6.604-2.83-5.345-2.579-10.754-4.34-16.729-5.409-7.861-1.383-15.785-.125-23.143 1.887-6.981 1.887-14.214 4.906-21.006 6.918-6.6033 1.95-15.8482 2.201-23.458.943-18.427-3.144-42.0109-10.377-44.7152-11.76-5.22-2.704-7.9243-6.918-9.4336-10.251-.7547-1.635-1.0063-3.145-.9434-4.528 1.0063-14.34 44.841-20.943 104.3352-21.195 38.489-.188 75.092 2.139 85.217 3.397z" opacity=".2"/><path d="m216.601 150.393c33.017 4.025 38.112 20.754 36.288 27.42-1.195 4.403-7.924 7.736-16.037 9.937-6.289 1.572-13.711 3.333-21.823 5.22-14.339 3.333-26.414 7.044-41.76.063-2.012-.692-4.151-1.572-6.603-2.767-5.283-2.579-10.755-4.34-16.729-5.472-7.799-1.446-15.786-.188-23.144 1.761-6.918 1.887-14.213 4.906-21.005 6.855-6.7297 2.013-15.9118 2.327-23.4586 1.007-18.3641-3.082-41.8852-10.252-44.7782-11.761-5.2199-2.641-7.9242-6.918-9.4335-10.188-.7547-1.635-1.0063-3.145-.9434-4.528 1.0062-14.151 44.4008-20.817 104.3357-21.069 38.426-.188 75.028 2.139 85.154 3.396z" opacity=".2"/><path d="m216.538 150.456c32.766 4.025 37.923 20.565 36.162 27.232-1.132 4.402-7.798 7.735-15.785 9.936-6.227 1.573-13.585 3.334-21.698 5.22-14.213 3.333-26.602 7.044-41.759.189-2.013-.692-4.151-1.572-6.604-2.767-5.282-2.516-10.691-4.34-16.729-5.472-7.798-1.509-15.785-.251-23.143 1.698-6.918 1.824-14.214 4.843-21.069 6.855-6.7918 2.013-15.9739 2.39-23.4578 1.132-18.2383-3.081-41.8223-10.188-44.8411-11.697-5.2199-2.642-7.9242-6.855-9.4964-10.189-.7547-1.635-1.0063-3.144-.9434-4.528 1.0062-13.961 43.9605-20.754 104.2727-21.005 38.426-.189 74.966 2.138 85.091 3.396z" opacity=".2"/><path d="m216.538 150.519c32.515 3.962 37.735 20.376 36.1 27.043-1.07 4.402-7.673 7.735-15.534 9.937-6.164 1.572-13.396 3.333-21.509 5.22-14.088 3.333-26.791 7.106-41.822.314-2.013-.692-4.151-1.572-6.667-2.767-5.283-2.516-10.691-4.34-16.729-5.535-7.798-1.509-15.785-.314-23.206 1.636-6.918 1.823-14.214 4.842-21.069 6.855-6.8548 2.012-16.0997 2.452-23.4579 1.195-18.1754-3.019-41.7594-10.126-44.841-11.698-5.2199-2.641-7.9242-6.792-9.4965-10.125-.7547-1.636-1.0062-3.145-.9433-4.466 1.0691-13.836 43.5203-20.628 104.2097-20.879 38.363-.189 74.84 2.138 84.965 3.396z" opacity=".2"/><path d="m216.538 150.582c32.263 3.962 37.546 20.188 35.974 26.854-1.069 4.402-7.547 7.736-15.346 9.874-6.1 1.509-13.27 3.27-21.382 5.22-14.025 3.27-26.981 7.106-41.886.44-2.012-.692-4.15-1.509-6.666-2.704-5.283-2.516-10.691-4.34-16.729-5.535-7.798-1.572-15.848-.377-23.207 1.51-6.918 1.761-14.213 4.779-21.131 6.792-6.9178 2.075-16.1627 2.516-23.458 1.321-18.1125-3.019-41.6336-10.063-44.9039-11.698-5.2199-2.578-7.9242-6.792-9.4965-10.125-.7547-1.636-1.0062-3.145-.9433-4.466 1.0691-13.647 43.08-20.565 104.1467-20.816 38.363-.189 74.777 2.138 84.902 3.396z" opacity=".3"/><path d="m216.475 150.708c32.011 3.899 37.357 19.999 35.848 26.665-1.007 4.403-7.358 7.736-15.094 9.874-5.975 1.51-13.081 3.27-21.194 5.157-13.899 3.27-27.169 7.17-41.885.566-2.013-.692-4.151-1.509-6.667-2.704-5.22-2.453-10.628-4.34-16.729-5.597-7.798-1.573-15.848-.441-23.206 1.446-6.855 1.761-14.214 4.78-21.132 6.792-6.9804 2.076-16.2882 2.579-23.5206 1.384-17.9867-2.956-41.5707-10-44.9668-11.698-5.157-2.578-7.9242-6.729-9.4965-10.062-.7547-1.635-1.0062-3.145-.9434-4.466 1.1321-13.458 42.6399-20.502 104.1473-20.753 38.3-.189 74.714 2.138 84.839 3.396z" opacity=".3"/><path d="m216.475 150.77c31.76 3.9 37.168 19.811 35.785 26.477-.943 4.403-7.233 7.736-14.842 9.874-5.912 1.51-12.956 3.271-21.069 5.157-13.773 3.271-27.357 7.17-41.948.692-2.012-.692-4.15-1.509-6.666-2.704-5.22-2.453-10.629-4.34-16.729-5.598-7.798-1.635-15.848-.503-23.207 1.384-6.855 1.698-14.213 4.717-21.131 6.729-7.0437 2.076-16.3515 2.642-23.521 1.447-17.9238-2.956-41.5078-9.937-45.0297-11.698-5.157-2.578-7.9242-6.729-9.4965-10.062-.7547-1.635-1.0062-3.145-.8804-4.466 1.132-13.332 42.2625-20.376 104.0836-20.628 38.301-.188 74.652 2.139 84.777 3.396z" opacity=".3"/><path d="m216.412 150.833c31.571 3.837 36.98 19.622 35.659 26.226-.881 4.402-7.107 7.735-14.591 9.874-5.848 1.446-12.766 3.207-20.879 5.157-13.711 3.27-27.546 7.232-42.011.817-2.013-.692-4.151-1.509-6.667-2.641-5.22-2.453-10.628-4.34-16.729-5.66-7.798-1.635-15.848-.566-23.269 1.257-6.855 1.699-14.276 4.717-21.194 6.73-7.1069 2.138-16.4776 2.704-23.5214 1.572-17.8609-2.893-41.382-9.874-45.0296-11.635-5.1571-2.578-7.9242-6.666-9.5594-9.999-.8176-1.635-1.0063-3.145-.8805-4.466 1.1321-13.144 41.8223-20.313 104.0209-20.565 38.301-.188 74.588 2.138 84.714 3.396z" opacity=".3"/><path d="m216.412 150.896c31.32 3.837 36.791 19.433 35.533 26.037-.817 4.402-6.981 7.735-14.402 9.874-5.723 1.446-12.641 3.207-20.691 5.157-13.584 3.207-27.734 7.232-42.074.943-2.012-.629-4.15-1.446-6.729-2.641-5.157-2.453-10.565-4.34-16.729-5.66-7.798-1.698-15.848-.629-23.269 1.195-6.792 1.698-14.276 4.653-21.194 6.729-7.1699 2.138-16.5406 2.767-23.5215 1.635-17.798-2.893-41.3191-9.811-45.0925-11.635-5.1571-2.515-7.9243-6.666-9.5594-9.999-.8176-1.636-1.0063-3.145-.8805-4.466 1.1949-13.018 41.382-20.188 103.9579-20.439 38.238-.189 74.526 2.138 84.588 3.396z" opacity=".3"/><path d="m216.349 151.022c31.068 3.774 36.603 19.245 35.471 25.848-.755 4.402-6.855 7.736-14.151 9.811-5.66 1.447-12.452 3.207-20.565 5.094-13.459 3.208-27.986 7.296-42.074 1.006-2.012-.628-4.151-1.446-6.729-2.641-5.157-2.39-10.566-4.339-16.792-5.723-7.735-1.761-15.848-.692-23.269 1.069-6.793 1.635-14.277 4.654-21.257 6.667-7.2329 2.138-16.6036 2.83-23.5216 1.76-17.6722-2.83-41.2562-9.685-45.1555-11.634-5.157-2.516-7.9242-6.604-9.5593-9.937-.8176-1.635-1.0063-3.145-.8805-4.465 1.1949-12.83 40.9418-20.125 103.8949-20.377 38.238-.188 74.463 2.138 84.525 3.396z" opacity=".3"/><path d="m216.349 151.085c30.816 3.773 36.414 19.056 35.345 25.659-.692 4.403-6.73 7.736-13.899 9.811-5.597 1.384-12.327 3.145-20.377 5.094-13.395 3.208-28.175 7.296-42.136 1.132-2.013-.629-4.151-1.446-6.73-2.641-5.157-2.39-10.565-4.339-16.792-5.723-7.735-1.761-15.848-.755-23.332 1.006-6.792 1.635-14.276 4.591-21.257 6.667-7.2953 2.201-16.7289 2.955-23.5211 1.823-17.6094-2.83-41.1305-9.622-45.1555-11.634-5.157-2.516-7.9871-6.541-9.5594-9.937-.8175-1.635-1.0062-3.145-.8804-4.465 1.1949-12.641 40.5015-20.062 103.8954-20.251 38.174-.189 74.399 2.138 84.462 3.396z" opacity=".3"/><path d="m216.287 151.148c30.564 3.71 36.225 18.867 35.281 25.471-.692 4.402-6.54 7.735-13.71 9.81-5.534 1.384-12.138 3.145-20.251 5.095-13.27 3.207-28.363 7.358-42.199 1.257-2.013-.628-4.151-1.383-6.73-2.578-5.157-2.39-10.502-4.34-16.791-5.786-7.736-1.824-15.849-.818-23.333.943-6.792 1.573-14.276 4.591-21.32 6.667-7.3579 2.201-16.7915 3.018-23.5837 1.949-17.5465-2.767-41.0676-9.559-45.2184-11.572-5.157-2.515-7.9871-6.54-9.5594-9.873-.8175-1.636-1.0062-3.145-.8804-4.466 1.1949-12.515 40.0613-19.936 103.8319-20.187 38.175-.189 74.337 2.138 84.4 3.396z" opacity=".3"/><path d="m216.286 151.274c30.314 3.71 36.1 18.678 35.156 25.282-.629 4.402-6.415 7.735-13.458 9.811-5.409 1.383-11.95 3.144-20.062 5.094-13.207 3.144-28.553 7.358-42.2 1.383-2.013-.629-4.151-1.383-6.729-2.578-5.094-2.327-10.503-4.277-16.792-5.786-7.736-1.824-15.911-.881-23.333.817-6.729 1.573-14.276 4.529-21.319 6.604-7.422 2.201-16.9181 3.082-23.5845 2.012-17.4836-2.767-41.0046-9.496-45.2812-11.571-5.0942-2.453-7.9871-6.478-9.6223-9.874-.8176-1.635-1.0062-3.145-.8804-4.465 1.2578-12.327 39.621-19.874 103.7694-20.125 38.112-.189 74.274 2.138 84.336 3.396z" opacity=".3"/><path d="m216.286 151.336c30.062 3.648 35.911 18.49 35.03 25.094-.566 4.402-6.289 7.735-13.207 9.748-5.346 1.383-11.823 3.082-19.936 5.031-13.081 3.145-28.741 7.421-42.263 1.51-2.012-.629-4.15-1.384-6.729-2.579-5.094-2.327-10.503-4.277-16.792-5.849-7.735-1.887-15.911-.943-23.332.755-6.729 1.572-14.276 4.465-21.32 6.603-7.484 2.264-16.9806 3.145-23.5841 2.076-17.3578-2.767-40.8789-9.434-45.3441-11.572-5.0942-2.453-7.9871-6.478-9.6223-9.811-.8176-1.635-1.0062-3.145-.8805-4.465 1.2579-12.138 39.2438-19.811 103.707-19.999 38.111-.189 74.211 2.138 84.21 3.396z" opacity=".3"/><path d="m216.223 151.399c29.81 3.648 35.722 18.239 34.967 24.905-.503 4.402-6.163 7.736-12.955 9.748-5.283 1.321-11.635 3.082-19.748 5.031-12.955 3.145-28.929 7.421-42.325 1.636-2.012-.629-4.151-1.384-6.792-2.516-5.094-2.327-10.44-4.277-16.792-5.849-7.736-1.887-15.911-1.006-23.395.629-6.73 1.509-14.276 4.465-21.383 6.541-7.547 2.264-17.1064 3.207-23.5841 2.201-17.2949-2.705-40.816-9.371-45.3441-11.572-5.0942-2.453-7.9871-6.415-9.6223-9.811-.8176-1.635-1.0063-3.145-.8805-4.465 1.2578-12.012 38.8035-19.685 103.707-19.937 38.111-.188 74.148 2.139 84.147 3.396z" opacity=".4"/><path d="m216.224 151.462c29.621 3.585 35.533 18.05 34.841 24.653-.44 4.403-6.038 7.736-12.767 9.749-5.157 1.32-11.509 3.081-19.559 5.031-12.892 3.144-29.118 7.421-42.325 1.761-2.013-.566-4.151-1.321-6.792-2.516-5.094-2.327-10.44-4.276-16.792-5.912-7.736-1.949-15.911-1.069-23.395.566-6.667 1.51-14.277 4.403-21.383 6.541-7.61 2.264-17.1694 3.27-23.5842 2.264-17.2321-2.704-40.7532-9.308-45.4071-11.572-5.0941-2.453-7.9871-6.415-9.6222-9.748-.8176-1.635-1.0063-3.144-.8805-4.465 1.3207-11.824 38.3633-19.622 103.644-19.811 38.049-.188 74.085 2.139 84.084 3.396z" opacity=".4"/><path d="m216.161 151.588c29.37 3.585 35.344 17.861 34.715 24.465-.377 4.402-5.911 7.735-12.515 9.748-5.094 1.32-11.32 3.081-19.433 5.031-12.767 3.082-29.307 7.484-42.388 1.887-2.013-.566-4.214-1.321-6.793-2.516-5.031-2.264-10.377-4.277-16.791-5.912-7.736-1.949-15.912-1.132-23.396.503-6.666 1.447-14.276 4.403-21.445 6.541-7.673 2.327-17.2953 3.333-23.5843 2.39-17.1692-2.642-40.6274-9.245-45.47-11.509-5.0941-2.39-7.9871-6.352-9.6222-9.748-.8176-1.635-1.0063-3.145-.8805-4.403 1.3207-11.634 37.923-19.496 103.581-19.747 38.049-.189 74.022 2.138 84.022 3.396z" opacity=".4"/><path d="m216.16 151.651c29.119 3.522 35.156 17.672 34.653 24.276-.314 4.402-5.723 7.798-12.264 9.748-5.031 1.258-11.194 3.019-19.244 5.031-12.641 3.082-29.496 7.484-42.451 1.95-2.013-.566-4.214-1.321-6.792-2.516-5.032-2.264-10.377-4.276-16.792-5.974-7.673-2.013-15.912-1.195-23.458.377-6.667 1.446-14.277 4.339-21.446 6.478-7.736 2.327-17.3579 3.396-23.647 2.452-17.0433-2.641-40.5644-9.182-45.4699-11.509-5.0941-2.39-7.9871-6.352-9.6851-9.685-.8176-1.635-1.0063-3.144-.8805-4.402 1.3207-11.509 37.4828-19.433 103.5175-19.622 37.986-.189 73.96 2.138 83.959 3.396z" opacity=".4"/><path d="m216.098 151.714c28.866 3.522 34.967 17.483 34.527 24.087-.252 4.339-5.598 7.798-12.075 9.685-4.969 1.258-11.006 3.019-19.119 4.969-12.578 3.081-29.685 7.546-42.451 2.075-2.013-.566-4.214-1.321-6.793-2.453-5.031-2.264-10.377-4.276-16.791-5.974-7.673-2.076-15.912-1.321-23.459.314-6.666 1.384-14.276 4.339-21.508 6.478-7.799 2.327-17.4209 3.522-23.6471 2.578-16.9804-2.578-40.5015-9.119-45.5328-11.509-5.0312-2.39-7.9871-6.289-9.6851-9.622-.8176-1.635-1.0063-3.145-.8805-4.402 1.3207-11.321 37.0426-19.371 103.5175-19.559 37.986-.189 73.897 2.138 83.834 3.396z" opacity=".4"/><path d="m216.098 151.777c28.615 3.522 34.778 17.295 34.464 23.898-.252 4.34-5.472 7.799-11.824 9.685-4.842 1.258-10.88 3.019-18.93 4.969-12.452 3.081-29.873 7.547-42.514 2.201-2.012-.566-4.213-1.258-6.855-2.453-4.968-2.201-10.314-4.276-16.855-6.037-7.672-2.076-15.911-1.384-23.458.251-6.603 1.384-14.276 4.277-21.508 6.478-7.862 2.39-17.5468 3.585-23.6472 2.641-16.9176-2.578-40.3758-9.056-45.5957-11.509-5.0313-2.39-7.9871-6.226-9.6852-9.622-.8175-1.635-1.0062-3.144-.8804-4.402 1.3836-11.195 36.6023-19.245 103.4555-19.433 37.923-.126 73.833 2.138 83.77 3.396z" opacity=".4"/><path d="m216.035 151.902c28.364 3.459 34.59 17.107 34.338 23.71-.188 4.34-5.345 7.799-11.572 9.685-4.779 1.195-10.691 2.956-18.804 4.969-12.326 3.018-30.062 7.61-42.577 2.327-2.012-.566-4.214-1.258-6.855-2.453-4.968-2.201-10.314-4.277-16.855-6.038-7.672-2.138-15.974-1.446-23.458.126-6.603 1.384-14.276 4.277-21.508 6.415-7.925 2.39-17.6098 3.648-23.6473 2.704-16.8547-2.515-40.3129-8.993-45.6586-11.509-5.0313-2.327-8.05-6.226-9.6852-9.559-.8176-1.635-1.0062-3.144-.8805-4.402 1.3836-11.006 36.1622-19.182 103.3926-19.371 37.923-.125 73.77 2.139 83.707 3.396z" opacity=".4"/><path d="m216.035 151.965c28.112 3.459 34.401 16.918 34.212 23.522-.126 4.339-5.22 7.798-11.32 9.685-4.717 1.195-10.566 2.956-18.616 4.968-12.263 3.019-30.25 7.61-42.577 2.453-2.012-.566-4.213-1.258-6.855-2.39-4.968-2.201-10.314-4.277-16.854-6.1-7.673-2.139-15.975-1.51-23.522 0-6.603 1.32-14.276 4.213-21.571 6.414-7.987 2.39-17.7351 3.711-23.6469 2.83-16.7289-2.515-40.1871-8.93-45.6585-11.446-5.0313-2.327-8.05-6.163-9.6852-9.559-.8176-1.635-1.0063-3.145-.8805-4.402 1.3836-10.818 35.7848-19.119 103.3291-19.308 37.86-.126 73.708 2.139 83.645 3.396z" opacity=".4"/><path d="m216.035 152.028c27.86 3.396 34.212 16.729 34.15 23.27-.063 4.339-5.095 7.798-11.132 9.622-4.591 1.195-10.377 2.956-18.427 4.906-12.138 3.018-30.502 7.672-42.64 2.578-2.012-.503-4.214-1.195-6.855-2.39-4.968-2.201-10.251-4.276-16.855-6.1-7.672-2.201-15.974-1.572-23.521 0-6.54 1.321-14.276 4.214-21.571 6.415-8.05 2.452-17.7983 3.773-23.6471 2.893-16.666-2.453-40.1242-8.868-45.7215-11.446-5.0312-2.327-8.05-6.164-9.748-9.497-.8176-1.635-1.0063-3.144-.8805-4.402 1.3836-10.692 35.3445-18.993 103.2661-19.182 37.86-.126 73.645 2.138 83.582 3.396z" opacity=".4"/><path d="m215.972 152.091c27.672 3.396 34.024 16.54 34.024 23.081 0 4.34-4.906 7.799-10.88 9.622-4.528 1.132-10.189 2.893-18.301 4.906-12.013 3.019-30.691 7.672-42.703 2.704-2.013-.503-4.214-1.195-6.855-2.39-4.906-2.138-10.251-4.213-16.855-6.163-7.673-2.201-15.974-1.635-23.521-.126-6.541 1.258-14.276 4.151-21.634 6.352-8.113 2.453-17.9243 3.836-23.7102 3.019-16.6031-2.453-40.0613-8.805-45.7844-11.446-5.0312-2.327-8.05-6.101-9.748-9.497-.8176-1.635-1.0063-3.144-.8805-4.402 1.3836-10.503 34.9043-18.93 103.2661-19.119 37.86-.126 73.582 2.139 83.456 3.396z" opacity=".4"/><path d="m215.972 152.217c27.42 3.333 33.835 16.352 33.961 22.892 0 4.34-4.78 7.799-10.629 9.622-4.465 1.133-10.062 2.893-18.112 4.906-11.949 2.956-30.879 7.735-42.703 2.83-2.012-.503-4.214-1.195-6.918-2.39-4.905-2.138-10.251-4.213-16.855-6.163-7.672-2.264-15.974-1.698-23.584-.189-6.54 1.258-14.276 4.151-21.634 6.352-8.176 2.516-17.9866 3.899-23.7097 3.082-16.4773-2.39-39.9355-8.742-45.7843-11.446-5.0313-2.264-8.05-6.101-9.7481-9.434-.8176-1.635-1.0062-3.144-.8176-4.402 1.3836-10.314 34.4641-18.805 103.2037-18.993 37.797-.126 73.519 2.138 83.393 3.396z" opacity=".5"/><path d="m215.909 152.28c27.169 3.333 33.709 16.163 33.835 22.703.126 4.34-4.654 7.799-10.44 9.623-4.402 1.132-9.873 2.893-17.986 4.905-11.824 2.956-31.068 7.736-42.766 2.893-2.012-.503-4.214-1.195-6.918-2.327-4.905-2.138-10.188-4.213-16.855-6.226-7.609-2.264-15.974-1.761-23.584-.314-6.54 1.257-14.276 4.087-21.634 6.289-8.239 2.515-18.0496 4.025-23.7098 3.207-16.4144-2.39-39.8726-8.679-45.8472-11.383-4.9684-2.264-8.05-6.038-9.7481-9.434-.8176-1.635-1.0062-3.144-.8176-4.402 1.4465-10.188 34.0239-18.742 103.1407-18.93 37.797-.126 73.456 2.201 83.33 3.396z" opacity=".5"/><path d="m215.909 152.343c26.917 3.27 33.52 15.974 33.709 22.515.126 4.339-4.528 7.798-10.188 9.559-4.277 1.069-9.748 2.83-17.798 4.905-11.761 2.956-31.257 7.799-42.829 3.019-2.012-.503-4.213-1.132-6.918-2.327-4.842-2.138-10.188-4.213-16.854-6.226-7.61-2.327-15.975-1.824-23.584-.377-6.478 1.195-14.277 4.088-21.698 6.289-8.301 2.515-18.175 4.088-23.7094 3.27-16.3516-2.327-39.7469-8.616-45.9102-11.383-4.9683-2.264-8.05-6.038-9.748-9.371-.8176-1.635-1.0062-3.144-.8176-4.402 1.4465-10 33.5836-18.679 103.0782-18.804 37.734-.126 73.393 2.201 83.267 3.396z" opacity=".5"/><path d="m215.846 152.406c26.666 3.27 33.332 15.785 33.647 22.326.188 4.339-4.403 7.798-9.937 9.559-4.214 1.069-9.559 2.83-17.672 4.843-11.635 2.893-31.446 7.798-42.829 3.144-2.012-.503-4.214-1.132-6.918-2.327-4.842-2.075-10.188-4.213-16.855-6.289-7.609-2.327-15.974-1.886-23.584-.503-6.477 1.195-14.339 4.025-21.697 6.289-8.364 2.579-18.238 4.151-23.7095 3.333-16.2887-2.326-39.684-8.553-45.9731-11.383-4.9683-2.264-8.05-5.974-9.748-9.37-.8176-1.698-1.0063-3.145-.8176-4.403 1.4465-9.811 33.1434-18.553 103.0782-18.741 37.734-.126 73.33 2.201 83.204 3.396z" opacity=".5"/><path d="m215.846 152.531c26.414 3.208 33.144 15.597 33.521 22.138.252 4.339-4.277 7.798-9.685 9.559-4.151 1.07-9.434 2.83-17.484 4.843-11.509 2.893-31.634 7.798-42.891 3.27-2.013-.503-4.214-1.132-6.918-2.264-4.843-2.075-10.126-4.213-16.855-6.289-7.61-2.39-16.037-1.949-23.647-.566-6.477 1.132-14.339 4.025-21.76 6.226-8.427 2.579-18.364 4.214-23.7097 3.459-16.1628-2.264-39.6211-8.49-45.973-11.383-4.9684-2.201-8.05-5.912-9.8109-9.308-.8176-1.698-1.0063-3.144-.8176-4.402 1.4465-9.685 32.766-18.49 103.0152-18.679 37.671-.125 73.267 2.202 83.078 3.396z" opacity=".5"/><path d="m215.784 152.594c26.162 3.208 32.954 15.409 33.395 21.886.314 4.34-4.088 7.799-9.497 9.56-4.088 1.006-9.245 2.767-17.358 4.842-11.446 2.893-31.822 7.862-42.954 3.396-2.013-.44-4.214-1.132-6.981-2.264-4.843-2.075-10.125-4.213-16.918-6.352-7.609-2.39-16.037-2.012-23.646-.629-6.415 1.132-14.339 3.963-21.761 6.227-8.49 2.578-18.4265 4.276-23.7722 3.521-16.1-2.264-39.4954-8.427-46.036-11.383-4.9683-2.201-8.1129-5.911-9.8109-9.308-.8176-1.698-1.0063-3.144-.8176-4.339 1.4465-9.496 32.3258-18.364 102.9517-18.553 37.672-.126 73.205 2.201 83.016 3.396z" opacity=".5"/><path d="m215.783 152.657c25.911 3.145 32.766 15.22 33.332 21.697.377 4.34-3.962 7.799-9.245 9.56-3.962 1.006-9.119 2.767-17.169 4.842-11.32 2.893-32.011 7.862-42.954 3.522-2.013-.44-4.214-1.069-6.981-2.264-4.78-2.012-10.125-4.213-16.918-6.352-7.609-2.452-16.037-2.075-23.647-.754-6.414 1.132-14.339 3.962-21.823 6.226-8.553 2.641-18.5523 4.339-23.7722 3.647-16.0371-2.201-39.4324-8.364-46.0989-11.32-4.9683-2.201-8.1129-5.849-9.8109-9.245-.8805-1.698-1.0062-3.144-.8176-4.339 1.4465-9.371 31.8856-18.301 102.8886-18.49 37.672-.126 73.142 2.201 82.953 3.396z" opacity=".5"/><path d="m215.783 152.72c25.723 3.145 32.578 15.031 33.207 21.509.44 4.339-3.837 7.798-8.994 9.496-3.899 1.006-8.93 2.767-16.98 4.78-11.195 2.83-32.2 7.924-43.017 3.648-2.013-.441-4.214-1.07-6.981-2.265-4.78-2.012-10.063-4.15-16.918-6.414-7.61-2.453-16.037-2.139-23.71-.818-6.414 1.069-14.339 3.899-21.823 6.163-8.679 2.642-18.6152 4.403-23.7723 3.711-15.9742-2.201-39.3066-8.302-46.0988-11.32-4.9055-2.202-8.1129-5.849-9.8109-9.245-.8805-1.698-1.0063-3.145-.8176-4.34 1.4465-9.182 31.4453-18.238 102.8266-18.364 37.608-.126 73.078 2.201 82.889 3.396z" opacity=".5"/><path d="m215.72 152.846c25.471 3.082 32.389 14.842 33.144 21.32.503 4.339-3.711 7.798-8.742 9.496-3.837.944-8.805 2.705-16.855 4.78-11.132 2.83-32.389 7.924-43.08 3.773-2.012-.44-4.214-1.069-6.981-2.201-4.78-2.012-10.062-4.15-16.917-6.415-7.61-2.515-16.038-2.201-23.71-.943-6.415 1.069-14.339 3.899-21.823 6.163-8.742 2.642-18.7416 4.528-23.7729 3.837-15.8484-2.139-39.2437-8.302-46.1617-11.321-4.9055-2.138-8.1129-5.786-9.8109-9.182-.8805-1.698-1.0063-3.144-.8176-4.339 1.4465-8.993 31.0051-18.113 102.8261-18.301 37.609-.126 73.016 2.201 82.827 3.396z" opacity=".5"/><path d="m215.72 152.909c25.219 3.081 32.2 14.653 33.018 21.131.566 4.34-3.585 7.798-8.553 9.497-3.711.943-8.616 2.704-16.666 4.779-11.006 2.83-32.578 7.987-43.08 3.899-2.013-.44-4.214-1.006-6.981-2.201-4.717-2.012-10.063-4.151-16.918-6.477-7.61-2.516-16.037-2.265-23.71-1.007-6.351 1.007-14.339 3.837-21.885 6.101-8.805 2.704-18.8048 4.591-23.7731 3.899-15.7856-2.138-39.1809-8.239-46.2246-11.32-4.9055-2.139-8.1129-5.786-9.8739-9.182-.8804-1.698-1.0062-3.145-.8175-4.34 1.4465-8.867 30.5648-18.05 102.7631-18.175 37.546-.126 72.953 2.201 82.701 3.396z" opacity=".5"/><path d="m215.658 152.972c24.967 3.018 32.011 14.465 32.891 20.942.566 4.34-3.459 7.799-8.301 9.497-3.648.943-8.428 2.704-16.54 4.779-10.881 2.83-32.766 7.988-43.143 3.963-2.013-.441-4.214-1.007-7.044-2.202-4.717-1.949-10-4.15-16.918-6.477-7.547-2.579-16.037-2.327-23.71-1.07-6.351 1.007-14.339 3.837-21.885 6.101-8.868 2.704-18.8677 4.654-23.7731 3.962-15.7227-2.075-39.0551-8.176-46.2246-11.32-4.9055-2.139-8.1129-5.723-9.8739-9.119-.8804-1.699-1.0062-3.145-.8175-4.34 1.5093-8.679 30.1246-17.987 102.7001-18.112 37.546-.126 72.89 2.201 82.639 3.396z" opacity=".6"/><path d="m215.657 153.035c24.716 3.018 31.823 14.276 32.829 20.753.629 4.34-3.27 7.799-8.05 9.434-3.585.943-8.302 2.704-16.352 4.78-10.817 2.767-33.017 8.05-43.205 4.088-2.013-.378-4.214-1.007-7.044-2.139-4.717-1.949-10-4.15-16.918-6.54-7.547-2.579-16.037-2.39-23.772-1.195-6.352 1.006-14.339 3.773-21.949 6.1-8.931 2.704-18.9932 4.717-23.8357 4.088-15.6598-2.075-38.9922-8.113-46.2875-11.257-4.9055-2.139-8.1129-5.661-9.8739-9.057-.8804-1.698-1.0062-3.144-.8175-4.339 1.5093-8.49 29.6843-17.861 102.6376-18.05 37.483-.125 72.827 2.201 82.575 3.334z" opacity=".6"/><path d="m215.595 153.16c24.464 2.956 31.634 14.088 32.703 20.503.692 4.339-3.145 7.798-7.861 9.433-3.522.881-8.113 2.642-16.226 4.717-10.692 2.767-33.206 8.05-43.206 4.214-2.013-.378-4.214-1.007-7.044-2.139-4.717-1.949-9.999-4.15-16.917-6.54-7.547-2.642-16.037-2.453-23.773-1.258-6.289.943-14.339 3.773-21.949 6.037-8.993 2.768-19.0557 4.78-23.8354 4.151-15.534-2.012-38.8664-8.05-46.3504-11.257-4.9054-2.076-8.1129-5.66-9.8738-9.056-.8805-1.698-1.0062-3.145-.8176-4.34 1.5094-8.364 29.3071-17.798 102.6372-17.924 37.483-.125 72.765 2.201 82.513 3.334z" opacity=".6"/><path d="m215.595 153.223c24.212 2.956 31.508 13.899 32.577 20.314.755 4.277-3.019 7.798-7.61 9.434-3.396.88-7.987 2.641-16.037 4.716-10.629 2.768-33.395 8.113-43.269 4.34-2.012-.378-4.276-.944-7.043-2.138-4.654-1.95-10-4.151-16.918-6.604-7.547-2.641-16.1-2.516-23.773-1.321-6.289.944-14.339 3.711-22.011 6.038-9.057 2.767-19.1821 4.842-23.836 4.276-15.4711-2.012-38.8035-7.987-46.4133-11.257-4.9054-2.075-8.1129-5.597-9.8738-8.993-.8805-1.698-1.0063-3.082-.8176-4.34 1.5094-8.176 28.8668-17.672 102.5747-17.861 37.42-.126 72.702 2.201 82.45 3.333z" opacity=".6"/><path d="m215.532 153.286c23.961 2.956 31.319 13.71 32.514 20.125.818 4.277-2.893 7.799-7.358 9.434-3.333.88-7.798 2.641-15.848 4.717-10.503 2.704-33.584 8.112-43.332 4.465-2.012-.378-4.277-.944-7.044-2.139-4.654-1.886-9.936-4.087-16.917-6.603-7.547-2.704-16.1-2.579-23.836-1.447-6.289.944-14.339 3.711-22.012 6.038-9.119 2.767-19.2441 4.905-23.8351 4.339-15.4082-1.949-38.6778-7.924-46.4133-11.257-4.9055-2.075-8.1129-5.597-9.9367-8.993-.8805-1.698-1.0063-3.082-.8176-4.34 1.5094-8.05 28.4266-17.609 102.5117-17.735 37.42-.126 72.639 2.201 82.387 3.333z" opacity=".6"/><path d="m215.531 153.349c23.773 2.893 31.131 13.522 32.389 19.936.881 4.277-2.767 7.799-7.107 9.434-3.27.818-7.672 2.578-15.722 4.717-10.377 2.704-33.772 8.176-43.332 4.591-2.012-.378-4.276-.944-7.106-2.076-4.654-1.886-9.937-4.087-16.981-6.666-7.547-2.704-16.1-2.641-23.835-1.509-6.29.88-14.34 3.647-22.012 5.974-9.182 2.83-19.3705 5.031-23.8357 4.465-15.3453-1.949-38.6149-7.924-46.4762-11.194-4.8426-2.075-8.1758-5.534-9.9367-8.931-.8805-1.698-1.0063-3.081-.8176-4.339 1.5094-7.861 27.9863-17.546 102.4492-17.672 37.42-.126 72.575 2.201 82.261 3.333z" opacity=".6"/><path d="m215.532 153.475c23.521 2.893 30.942 13.333 32.325 19.748.944 4.276-2.641 7.861-6.918 9.37-3.144.818-7.484 2.579-15.534 4.654-10.314 2.704-33.96 8.176-43.394 4.717-2.013-.377-4.277-.943-7.107-2.075-4.591-1.887-9.936-4.088-16.98-6.667-7.547-2.767-16.1-2.704-23.836-1.635-6.226.88-14.339 3.585-22.074 5.975-9.245 2.83-19.4335 5.094-23.8359 4.528-15.2195-1.887-38.5519-7.862-46.539-11.195-4.8426-2.012-8.1758-5.534-9.9367-8.93-.8805-1.698-1.0063-3.082-.8176-4.34 1.5093-7.672 27.5461-17.42 102.4492-17.546 37.357-.126 72.512 2.201 82.198 3.333z" opacity=".6"/><path d="m215.469 153.538c23.269 2.83 30.753 13.144 32.2 19.559.943 4.276-2.453 7.861-6.667 9.37-3.081.818-7.358 2.579-15.408 4.654-10.188 2.705-34.149 8.176-43.457 4.843-2.013-.377-4.277-.881-7.107-2.075-4.591-1.887-9.874-4.088-16.98-6.73-7.547-2.767-16.1-2.767-23.836-1.698-6.226.818-14.339 3.585-22.074 5.912-9.308 2.83-19.4965 5.157-23.8989 4.591-15.1566-1.887-38.4262-7.799-46.539-11.195-4.8426-2.012-8.1758-5.471-9.9368-8.867-.8804-1.698-1.0062-3.082-.8175-4.277 1.5093-7.547 27.1058-17.358 102.3862-17.483 37.357-.126 72.45 2.201 82.135 3.333z" opacity=".6"/><path d="m215.469 153.601c23.018 2.83 30.565 12.955 32.074 19.37 1.006 4.276-2.327 7.861-6.415 9.371-3.019.754-7.169 2.515-15.219 4.653-10.063 2.642-34.339 8.239-43.458 4.906-2.012-.315-4.276-.881-7.106-2.013-4.591-1.823-9.874-4.087-16.981-6.729-7.547-2.83-16.1-2.83-23.898-1.761-6.226.818-14.339 3.522-22.138 5.912-9.37 2.893-19.6217 5.22-23.8982 4.717-15.0938-1.824-38.3633-7.736-46.602-11.195-4.8425-2.012-8.1757-5.471-9.9367-8.867-.8805-1.698-1.0062-3.082-.7547-4.277 1.5094-7.358 26.6656-17.295 102.3226-17.358 37.295-.126 72.388 2.201 82.073 3.333z" opacity=".6"/><path d="m215.406 153.663c22.766 2.768 30.376 12.767 32.011 19.182 1.069 4.277-2.201 7.861-6.226 9.371-2.956.755-7.044 2.515-15.094 4.654-9.999 2.641-34.527 8.238-43.52 5.031-2.012-.314-4.277-.88-7.107-2.013-4.591-1.823-9.873-4.087-16.98-6.792-7.547-2.83-16.1-2.893-23.899-1.886-6.163.817-14.339 3.521-22.137 5.911-9.434 2.893-19.6848 5.283-23.8984 4.78-15.0309-1.761-38.2375-7.673-46.6649-11.195-4.8426-2.012-8.1758-5.408-9.9996-8.804-.8805-1.698-1.0062-3.082-.7547-4.277 1.5094-7.169 26.2883-17.169 102.2606-17.295 37.294-.063 72.324 2.201 82.009 3.333z" opacity=".6"/><path d="m215.406 153.789c22.514 2.767 30.187 12.578 31.885 18.93 1.132 4.277-2.075 7.862-5.974 9.308-2.831.755-6.856 2.516-14.906 4.591-9.873 2.642-34.715 8.302-43.583 5.157-2.012-.314-4.276-.88-7.169-2.012-4.528-1.824-9.811-4.088-16.981-6.792-7.484-2.893-16.1-2.956-23.898-1.95-6.163.755-14.339 3.459-22.201 5.849-9.496 2.893-19.8102 5.345-23.898 4.905-14.9051-1.761-38.1747-7.672-46.7278-11.131-4.8426-2.013-8.1758-5.346-9.9996-8.805-.8805-1.698-1.0062-3.082-.7547-4.277 1.4465-7.043 25.8481-17.106 102.1971-17.232 37.231-.063 72.262 2.201 81.884 3.333z" opacity=".7"/><path d="m215.343 153.852c22.263 2.705 29.999 12.39 31.823 18.742 1.195 4.276-1.95 7.861-5.723 9.307-2.768.692-6.73 2.453-14.717 4.591-9.748 2.579-34.904 8.302-43.646 5.283-2.012-.314-4.276-.817-7.169-1.949-4.529-1.824-9.811-4.025-16.981-6.855-7.484-2.893-16.1-3.019-23.961-2.076-6.164.755-14.339 3.459-22.201 5.849-9.559 2.956-19.8731 5.471-23.8981 4.968-14.8422-1.698-38.0488-7.609-46.7277-11.131-4.8426-1.95-8.1758-5.346-9.9996-8.742-.8805-1.698-1.0063-3.082-.7547-4.277 1.4465-6.855 25.4078-16.98 102.1971-17.106 37.231-.063 72.199 2.201 81.821 3.333z" opacity=".7"/><path d="m215.343 153.915c22.011 2.704 29.81 12.201 31.697 18.553 1.257 4.276-1.824 7.861-5.472 9.308-2.704.691-6.54 2.452-14.59 4.591-9.686 2.578-35.093 8.364-43.647 5.408-2.012-.314-4.276-.817-7.169-1.949-4.528-1.761-9.811-4.025-16.981-6.855-7.484-2.956-16.162-3.082-23.961-2.139-6.1.755-14.339 3.396-22.2 5.849-9.623 2.956-19.9995 5.534-23.8987 5.094-14.7793-1.698-37.9859-7.547-46.7906-11.131-4.7797-1.95-8.1758-5.283-9.9996-8.742-.8805-1.698-1.0063-3.082-.7547-4.277 1.4465-6.729 24.9675-16.917 102.1346-17.043 37.231-.063 72.135 2.201 81.758 3.333z" opacity=".7"/><path d="m215.28 153.978c21.823 2.641 29.622 12.012 31.571 18.364 1.321 4.277-1.635 7.861-5.282 9.308-2.579.692-6.352 2.453-14.402 4.591-9.56 2.578-35.282 8.364-43.709 5.534-2.013-.314-4.277-.817-7.17-1.949-4.465-1.761-9.748-4.025-16.98-6.918-7.484-2.956-16.163-3.145-23.962-2.202-6.1.692-14.339 3.397-22.263 5.786-9.685 2.956-20.0621 5.598-23.9613 5.157-14.7164-1.635-37.8602-7.484-46.8535-11.131-4.7797-1.95-8.1758-5.283-9.9996-8.679-.8805-1.698-1.0063-3.082-.7547-4.277 1.4465-6.54 24.5273-16.854 102.0711-16.917 37.169-.063 72.073 2.201 81.695 3.333z" opacity=".7"/><path d="m215.28 154.104c21.572 2.641 29.433 11.76 31.508 18.175 1.384 4.277-1.509 7.861-5.031 9.308-2.516.629-6.226 2.39-14.276 4.591-9.497 2.516-35.533 8.427-43.772 5.66-2.012-.314-4.276-.818-7.169-1.95-4.466-1.76-9.748-4.025-16.981-6.918-7.484-3.018-16.163-3.207-23.961-2.326-6.101.691-14.402 3.333-22.264 5.785-9.748 3.019-20.1874 5.661-23.9609 5.22-14.6535-1.635-37.7972-7.484-46.8535-11.131-4.7797-1.95-8.1758-5.22-9.9996-8.679-.8804-1.698-1.0062-3.082-.7547-4.277 1.4465-6.352 24.0871-16.729 102.0087-16.854 37.168-.063 72.01 2.201 81.632 3.333z" opacity=".7"/><path d="m215.28 154.167c21.32 2.578 29.307 11.571 31.383 17.986 1.383 4.277-1.384 7.862-4.78 9.245-2.453.629-6.038 2.39-14.088 4.528-9.37 2.516-35.721 8.428-43.771 5.786-2.013-.251-4.277-.754-7.17-1.886-4.465-1.761-9.748-4.025-17.043-6.918-7.484-3.019-16.163-3.271-24.025-2.39-6.1.629-14.402 3.333-22.326 5.723-9.811 3.019-20.2505 5.723-23.9611 5.346-14.5277-1.573-37.6715-7.422-46.9164-11.069-4.7797-1.887-8.2387-5.22-10.0625-8.616-.8804-1.698-1.0062-3.082-.7547-4.277 1.4465-6.226 23.6469-16.666 102.0087-16.729 37.105-.063 71.947 2.201 81.506 3.333z" opacity=".7"/><path d="m215.217 154.229c21.069 2.579 29.119 11.384 31.257 17.799 1.446 4.276-1.258 7.861-4.591 9.244-2.39.629-5.912 2.39-13.962 4.529-9.245 2.515-35.91 8.49-43.835 5.911-2.075-.251-4.276-.754-7.232-1.886-4.465-1.698-9.685-4.025-17.043-6.981-7.484-3.019-16.163-3.333-24.025-2.453-6.037.629-14.402 3.27-22.326 5.723-9.874 3.082-20.3135 5.786-23.9612 5.409-14.4648-1.573-37.6086-7.359-46.9793-11.069-4.7797-1.887-8.2386-5.157-10.0625-8.616-.8804-1.698-1.0062-3.082-.7547-4.277 1.4465-6.037 23.2696-16.54 101.9457-16.666 37.106-.063 71.884 2.201 81.443 3.333z" opacity=".7"/><path d="m215.217 154.292c20.817 2.516 28.93 11.195 31.194 17.547 1.509 4.276-1.132 7.861-4.34 9.245-2.264.566-5.723 2.327-13.773 4.528-9.182 2.516-36.099 8.49-43.897 5.975-2.076-.252-4.277-.755-7.233-1.887-4.402-1.698-9.685-3.962-17.043-6.981-7.484-3.082-16.163-3.333-24.024-2.579-6.038.629-14.402 3.271-22.389 5.723-9.937 3.082-20.4399 5.912-23.9618 5.535-14.402-1.51-37.4828-7.295-47.0422-11.069-4.7797-1.887-8.2387-5.157-10.0625-8.553-.8805-1.698-1.0062-3.082-.7547-4.277 1.4465-5.848 22.8293-16.477 101.8832-16.603 37.042-.063 71.821 2.201 81.38 3.333z" opacity=".7"/><path d="m215.155 154.418c20.565 2.516 28.741 11.006 31.068 17.358 1.572 4.277-1.007 7.861-4.088 9.245-2.202.566-5.598 2.327-13.648 4.528-9.056 2.453-36.287 8.553-43.897 6.1-2.076-.251-4.277-.754-7.233-1.823-4.402-1.698-9.685-3.963-17.043-7.044-7.484-3.082-16.163-3.396-24.087-2.642-6.038.566-14.402 3.208-22.389 5.661-10 3.081-20.5025 5.974-23.9615 5.597-14.3391-1.447-37.42-7.295-47.0422-11.069-4.7797-1.887-8.2387-5.094-10.0625-8.553-.8805-1.698-1.0692-3.082-.7547-4.277 1.3836-5.723 22.389-16.414 101.8199-16.477 37.043-.063 71.758 2.201 81.318 3.333z" opacity=".7"/><path d="m215.155 154.481c20.313 2.453 28.552 10.817 31.005 17.169 1.635 4.277-.818 7.861-3.837 9.182-2.138.566-5.408 2.327-13.458 4.465-8.931 2.453-36.477 8.554-43.961 6.227-2.075-.252-4.276-.692-7.232-1.824-4.403-1.698-9.623-3.962-17.044-7.044-7.484-3.145-16.163-3.459-24.087-2.767-5.974.566-14.402 3.207-22.389 5.66-10.062 3.144-20.6279 6.037-23.9611 5.723-14.2133-1.446-37.2942-7.232-47.1051-11.006-4.7797-1.824-8.2387-5.031-10.0625-8.49-.9434-1.698-1.0692-3.082-.7547-4.277 1.3836-5.534 21.9488-16.288 101.7574-16.414 36.979-.063 71.695 2.201 81.254 3.333z" opacity=".7"/><path d="m215.091 154.544c20.063 2.453 28.364 10.628 30.88 16.98 1.698 4.277-.692 7.862-3.648 9.182-2.012.504-5.283 2.265-13.27 4.466-8.867 2.452-36.665 8.553-44.023 6.352-2.076-.252-4.277-.692-7.233-1.824-4.339-1.635-9.622-3.962-17.043-7.107-7.484-3.144-16.163-3.522-24.087-2.83-5.975.566-14.402 3.145-22.452 5.66-10.126 3.145-20.6911 6.101-24.0244 5.786-14.1503-1.383-37.2312-7.169-47.1679-11.006-4.7168-1.824-8.2387-5.031-10.1254-8.427-.9434-1.698-1.0692-3.082-.7547-4.214 1.3836-5.408 21.5086-16.225 101.7574-16.288 36.979-.063 71.632 2.201 81.129 3.333z" opacity=".8"/><path d="m215.091 154.67c19.811 2.452 28.175 10.439 30.754 16.791 1.761 4.214-.566 7.862-3.396 9.182-1.95.504-5.094 2.265-13.144 4.466-8.742 2.39-36.854 8.616-44.024 6.477-2.075-.251-4.276-.691-7.295-1.823-4.34-1.636-9.623-3.963-17.044-7.107-7.421-3.207-16.225-3.585-24.087-2.893-5.974.503-14.402 3.145-22.452 5.597-10.188 3.145-20.8165 6.164-24.0239 5.849-14.0875-1.384-37.1054-7.169-47.1679-11.006-4.7168-1.824-8.2387-4.968-10.1254-8.427-.9434-1.698-1.0692-3.082-.7547-4.214 1.3836-5.22 21.0683-16.163 101.6939-16.226 36.98 0 71.57 2.202 81.066 3.334z" opacity=".8"/><path d="m215.028 154.733c19.622 2.389 27.987 10.251 30.691 16.603 1.824 4.213-.44 7.861-3.144 9.182-1.887.503-4.969 2.201-12.956 4.465-8.679 2.39-37.043 8.616-44.086 6.603-2.076-.188-4.277-.628-7.296-1.76-4.339-1.636-9.622-3.963-17.043-7.17s-16.226-3.648-24.15-3.019c-5.975.503-14.402 3.082-22.515 5.598-10.251 3.207-20.8795 6.289-24.024 5.974-14.0246-1.321-37.0426-7.107-47.2309-11.006-4.7168-1.824-8.2386-4.968-10.1254-8.364-.9433-1.698-1.0691-3.082-.7546-4.214 1.3836-5.031 20.6281-16.037 101.6309-16.1 36.917 0 71.507 2.201 81.003 3.333z" opacity=".8"/><path d="m215.029 154.795c19.37 2.39 27.797 10.063 30.564 16.415 1.824 4.214-.314 7.861-2.955 9.182-1.824.44-4.78 2.201-12.83 4.465-8.553 2.39-37.231 8.679-44.149 6.729-2.076-.188-4.277-.628-7.296-1.76-4.276-1.636-9.559-3.9-17.043-7.17-7.421-3.27-16.226-3.711-24.15-3.082-5.912.503-14.402 3.082-22.515 5.535-10.314 3.207-21.0054 6.352-24.0241 6.037-13.8988-1.258-36.9168-7.044-47.2938-11.006-4.7168-1.761-8.2386-4.905-10.1254-8.364-.9433-1.698-1.0691-3.082-.7546-4.214 1.3207-4.905 20.1878-15.974 101.5679-16.037 36.917 0 71.444 2.201 80.941 3.333z" opacity=".8"/><path d="m214.966 154.858c19.119 2.327 27.672 9.874 30.439 16.163 1.887 4.214-.189 7.862-2.704 9.119-1.698.441-4.654 2.202-12.641 4.403-8.428 2.327-37.42 8.679-44.15 6.855-2.075-.189-4.276-.629-7.295-1.761-4.276-1.572-9.559-3.899-17.043-7.233-7.421-3.27-16.226-3.773-24.15-3.207-5.912.44-14.402 3.019-22.578 5.534-10.377 3.208-21.0684 6.415-24.0242 6.164-13.836-1.258-36.854-7.044-47.3567-10.943-4.7168-1.761-8.2387-4.906-10.1254-8.302-.9433-1.698-1.0691-3.081-.7547-4.214 1.3207-4.716 19.8106-15.848 101.568-15.974 36.854 0 71.381 2.201 80.878 3.333z" opacity=".8"/><path d="m214.965 154.984c18.868 2.327 27.484 9.685 30.377 15.974 1.949 4.214 0 7.862-2.453 9.119-1.635.441-4.465 2.139-12.515 4.403-8.365 2.327-37.609 8.742-44.212 6.918-2.076-.189-4.277-.629-7.296-1.698-4.276-1.573-9.559-3.9-17.106-7.233-7.421-3.333-16.226-3.836-24.213-3.27-5.912.44-14.402 3.019-22.578 5.534-10.439 3.271-21.1309 6.478-24.0239 6.227-13.773-1.195-36.7281-6.981-47.3566-10.943-4.7168-1.761-8.3016-4.843-10.1883-8.302-.9433-1.698-1.0691-3.082-.7547-4.214 1.3207-4.591 19.3703-15.785 101.5055-15.848 36.854 0 71.318 2.201 80.752 3.333z" opacity=".8"/><path d="m214.966 155.047c18.615 2.264 27.294 9.497 30.25 15.786 2.012 4.213.126 7.861-2.201 9.119-1.572.44-4.34 2.138-12.327 4.402-8.238 2.327-37.797 8.742-44.275 7.044-2.075-.189-4.276-.566-7.358-1.698-4.277-1.572-9.496-3.899-17.106-7.296-7.421-3.333-16.226-3.899-24.213-3.333-5.849.378-14.402 2.956-22.578 5.472-10.503 3.27-21.2569 6.54-24.087 6.352-13.7101-1.132-36.6652-6.981-47.4195-10.943-4.7168-1.761-8.3016-4.843-10.1883-8.239-.9434-1.698-1.0691-3.082-.7547-4.214 1.3207-4.402 18.9301-15.722 101.4425-15.785 36.791 0 71.255 2.201 80.689 3.333z" opacity=".8"/><path d="m214.903 155.11c18.364 2.264 27.106 9.308 30.187 15.597 2.076 4.213.252 7.861-2.012 9.119-1.447.377-4.151 2.138-12.138 4.402-8.113 2.264-38.049 8.805-44.275 7.17-2.076-.189-4.34-.566-7.358-1.698-4.214-1.572-9.497-3.899-17.107-7.296-7.421-3.396-16.225-3.962-24.212-3.459-5.849.378-14.402 2.956-22.641 5.472-10.629 3.27-21.32 6.666-24.0872 6.415-13.5844-1.132-36.5395-6.918-47.4825-10.943-4.7167-1.698-8.3015-4.78-10.1882-8.239-.9434-1.698-1.0692-3.081-.6918-4.214 1.2578-4.276 18.4898-15.596 101.3797-15.659 36.791 0 71.192 2.201 80.626 3.333z" opacity=".8"/><path d="m214.903 155.173c18.112 2.201 26.917 9.119 30.061 15.408 2.139 4.214.378 7.924-1.761 9.056-1.383.378-3.962 2.076-12.012 4.34s-38.237 8.804-44.338 7.295c-2.075-.189-4.339-.566-7.358-1.698-4.214-1.509-9.496-3.836-17.106-7.358-7.421-3.396-16.226-4.025-24.213-3.522-5.849.377-14.402 2.893-22.641 5.471-10.691 3.334-21.4454 6.73-24.0868 6.478-13.5214-1.069-36.4765-6.855-47.4824-10.943-4.7168-1.698-8.3015-4.717-10.1883-8.176-.9433-1.698-1.0691-3.081-.6918-4.213 1.2579-4.088 18.0497-15.534 101.3173-15.597 36.728 0 71.129 2.201 80.562 3.333z" opacity=".8"/><path d="m214.84 155.299c17.861 2.201 26.728 8.93 29.936 15.219 2.201 4.214.503 7.924-1.51 9.056-1.32.378-3.836 2.076-11.823 4.34-7.924 2.264-38.426 8.867-44.401 7.421-2.075-.126-4.339-.566-7.358-1.635-4.214-1.51-9.497-3.836-17.106-7.358-7.422-3.396-16.226-4.088-24.276-3.648-5.849.314-14.402 2.893-22.704 5.409-10.754 3.333-21.5084 6.792-24.0869 6.603-13.4586-1.006-36.3507-6.855-47.5453-10.88-4.6539-1.698-8.3015-4.717-10.1883-8.176-.9433-1.698-1.0691-3.081-.6918-4.213 1.2579-3.9 17.6094-15.409 101.3173-15.472 36.728 0 71.066 2.202 80.5 3.334z" opacity=".8"/><path d="m214.84 155.361c17.672 2.139 26.54 8.742 29.873 15.031 2.264 4.214.629 7.924-1.321 9.057-1.258.314-3.647 2.075-11.697 4.339-7.862 2.264-38.615 8.868-44.401 7.547-2.076-.126-4.34-.566-7.358-1.635-4.151-1.51-9.434-3.837-17.107-7.421-7.421-3.459-16.288-4.151-24.275-3.711-5.786.315-14.402 2.83-22.704 5.409-10.817 3.333-21.6344 6.855-24.0871 6.666-13.3957-1.006-36.2879-6.792-47.6082-10.88-4.6539-1.698-8.3016-4.654-10.2512-8.113-.9433-1.698-1.0691-3.082-.6918-4.214 1.1949-3.773 17.1692-15.345 101.2543-15.408 36.728 0 71.003 2.201 80.374 3.333z" opacity=".9"/><path d="m214.777 155.424c17.421 2.139 26.351 8.554 29.747 14.78 2.327 4.213.818 7.924-1.069 9.056-1.132.314-3.522 2.012-11.509 4.339-7.735 2.202-38.803 8.931-44.463 7.673-2.076-.126-4.34-.503-7.422-1.635-4.15-1.51-9.433-3.836-17.106-7.421-7.421-3.459-16.288-4.214-24.276-3.774-5.786.315-14.402 2.83-22.703 5.346-10.88 3.396-21.6974 6.918-24.0872 6.792-13.3328-.943-36.1621-6.792-47.6711-10.88-4.6539-1.698-8.3016-4.654-10.2512-8.113-.9434-1.698-1.0691-3.081-.6918-4.213 1.1949-3.585 16.7918-15.283 101.1913-15.283 36.665 0 70.94 2.201 80.311 3.333z" opacity=".9"/><path d="m214.777 155.487c17.169 2.076 26.163 8.365 29.685 14.591 2.326 4.214.943 7.924-.818 9.056-1.069.315-3.333 2.013-11.383 4.277-7.61 2.201-38.992 8.93-44.527 7.798-2.075-.126-4.339-.503-7.421-1.572-4.151-1.447-9.434-3.836-17.106-7.484-7.421-3.522-16.289-4.277-24.339-3.899-5.786.251-14.402 2.767-22.766 5.345-10.943 3.396-21.8233 7.044-24.1502 6.855-13.2071-.88-36.0993-6.729-47.6711-10.88-4.6539-1.635-8.3016-4.591-10.2512-8.05-.9434-1.698-1.0691-3.081-.6918-4.213 1.1949-3.459 16.3516-15.157 101.1283-15.22 36.665 0 70.878 2.201 80.248 3.333z" opacity=".9"/><path d="m214.714 155.613c16.918 2.076 25.974 8.176 29.559 14.402 2.389 4.214 1.069 7.924-.566 8.993-1.007.252-3.208 2.013-11.195 4.277-7.547 2.201-39.181 8.93-44.526 7.861-2.076-.125-4.34-.503-7.422-1.572-4.15-1.446-9.37-3.773-17.106-7.484-7.358-3.522-16.288-4.339-24.338-3.962-5.724.252-14.402 2.704-22.767 5.346-11.006 3.396-21.8858 7.106-24.1499 6.981-13.1441-.818-35.9734-6.73-47.734-10.818-4.6539-1.635-8.3015-4.591-10.2511-8.05-.9434-1.698-1.0692-3.081-.6918-4.15 1.132-3.271 15.9113-15.094 101.1278-15.157 36.603 0 70.815 2.201 80.186 3.333z" opacity=".9"/><path d="m214.714 155.676c16.666 2.012 25.785 7.987 29.433 14.213 2.453 4.214 1.195 7.924-.377 8.994-.944.251-3.019 1.949-11.006 4.276-7.421 2.138-39.37 8.993-44.59 7.987-2.075-.126-4.339-.503-7.421-1.572-4.088-1.447-9.37-3.774-17.106-7.547-7.358-3.585-16.289-4.402-24.339-4.025-5.723.252-14.465 2.704-22.829 5.283-11.069 3.459-22.0117 7.169-24.15 7.044-13.0812-.755-35.9105-6.667-47.7969-10.818-4.6539-1.635-8.3015-4.528-10.2511-7.987-.9434-1.698-1.0692-3.081-.6918-4.15 1.132-3.145 15.4711-15.031 101.0648-15.031 36.603 0 70.752 2.201 80.123 3.333z" opacity=".9"/><path d="m214.714 155.739c16.414 2.012 25.596 7.798 29.37 14.024 2.515 4.214 1.321 7.925-.126 8.994-.818.251-2.893 1.949-10.88 4.276-7.295 2.139-39.558 8.994-44.652 8.113-2.076-.063-4.34-.44-7.421-1.572-4.088-1.447-9.371-3.774-17.17-7.547-7.358-3.585-16.288-4.465-24.338-4.151-5.723.189-14.465 2.642-22.83 5.283-11.131 3.459-22.0742 7.232-24.1496 7.107-13.0184-.755-35.7848-6.667-47.7969-10.817-4.6539-1.636-8.3644-4.466-10.3141-7.988-.9433-1.698-1.0691-3.081-.6917-4.15 1.132-2.956 15.0308-14.905 101.0023-14.968 36.539 0 70.689 2.201 79.997 3.333z" opacity=".9"/><path d="m214.651 155.802c16.163 1.949 25.408 7.609 29.244 13.836 2.579 4.213 1.447 7.924.126 8.993-.755.189-2.704 1.887-10.691 4.277-7.233 2.138-39.747 9.056-44.653 8.238-2.075-.063-4.339-.44-7.484-1.509-4.088-1.384-9.308-3.774-17.169-7.61-7.358-3.648-16.289-4.528-24.401-4.214-5.723.189-14.465 2.642-22.893 5.283-11.194 3.459-22.1371 7.358-24.1496 7.233-12.8926-.692-35.659-6.604-47.8598-10.818-4.6539-1.572-8.3644-4.465-10.314-7.924-.9434-1.698-1.1321-3.081-.6918-4.151 1.0691-2.83 14.5906-14.842 100.9392-14.842 36.54 0 70.626 2.201 79.934 3.333z" opacity=".9"/><path d="m214.651 155.927c15.912 1.95 25.282 7.422 29.119 13.648 2.641 4.213 1.635 7.924.377 8.93-.692.189-2.579 1.887-10.566 4.214-7.106 2.075-39.935 9.056-44.715 8.364-2.075-.063-4.339-.44-7.484-1.509-4.025-1.384-9.308-3.773-17.169-7.61-7.358-3.647-16.289-4.528-24.402-4.339-5.66.188-14.464 2.578-22.892 5.22-11.257 3.522-22.263 7.421-24.1498 7.295-12.8296-.629-35.596-6.604-47.9226-10.817-4.6539-1.572-8.3645-4.403-10.3141-7.862-.9433-1.698-1.132-3.081-.6918-4.15 1.0692-2.642 14.1504-14.717 100.9393-14.78 36.54 0 70.563 2.202 79.871 3.334z" opacity=".9"/><path d="m214.589 155.99c15.722 1.887 25.093 7.233 29.055 13.459 2.704 4.151 1.761 7.924.566 8.93-.566.189-2.39 1.887-10.377 4.214-7.044 2.076-40.124 9.119-44.778 8.49-2.075-.063-4.34-.44-7.484-1.509-4.025-1.384-9.308-3.711-17.169-7.673-7.358-3.71-16.352-4.591-24.402-4.402-5.66.126-14.465 2.579-22.892 5.22-11.32 3.522-22.3261 7.484-24.2129 7.421-12.7668-.566-35.4703-6.541-47.9855-10.754-4.6539-1.573-8.3645-4.403-10.3141-7.862-.9433-1.698-1.132-3.081-.6918-4.15 1.0063-2.516 13.7102-14.654 100.8763-14.654 36.477 0 70.501 2.201 79.809 3.333z" opacity=".9"/><path d="m214.588 156.053c15.471 1.887 24.905 7.044 28.93 13.207 2.704 4.151 1.887 7.925.817 8.931-.503.126-2.264 1.824-10.251 4.213-6.918 2.076-40.313 9.12-44.778 8.616-2.075 0-4.339-.377-7.484-1.446-4.025-1.384-9.308-3.711-17.169-7.673-7.358-3.71-16.352-4.654-24.464-4.465-5.661.126-14.465 2.516-22.955 5.157-11.384 3.522-22.4524 7.547-24.2134 7.484-12.7039-.503-35.4074-6.541-47.9855-10.754-4.591-1.572-8.3645-4.34-10.3141-7.799-.9433-1.698-1.132-3.081-.6918-4.15 1.0063-2.327 13.3328-14.591 100.8138-14.591 36.476 0 70.437 2.201 79.745 3.333z" opacity=".9"/><path d="m214.526 156.116c15.219 1.887 24.716 6.855 28.866 13.019 2.768 4.15 2.013 7.924 1.07 8.93-.441.126-2.076 1.824-10.063 4.214-6.792 2.012-40.564 9.182-44.841 8.741-2.075 0-4.339-.377-7.484-1.446-3.962-1.321-9.245-3.711-17.169-7.736-7.358-3.71-16.352-4.716-24.465-4.591-5.597.126-14.464 2.516-22.955 5.157-11.446 3.585-22.5145 7.61-24.2125 7.61-12.641-.44-35.2817-6.478-48.0485-10.754-4.591-1.509-8.3644-4.34-10.314-7.799-.9434-1.698-1.1321-3.081-.6918-4.15.9433-2.201 12.8926-14.465 100.7508-14.528 36.414 0 70.375 2.201 79.62 3.333z"/><path d="m214.525 156.242c14.968 1.824 24.528 6.666 28.741 12.83 2.831 4.15 2.139 7.924 1.258 8.93-.377.126-1.949 1.761-9.936 4.151-6.73 2.012-40.754 9.182-44.904 8.868-2.076 0-4.34-.378-7.547-1.447-3.962-1.321-9.245-3.711-17.169-7.736-7.359-3.773-16.352-4.779-24.465-4.653-5.597.062-14.465 2.452-23.018 5.157-11.509 3.584-22.6405 7.735-24.2127 7.672-12.5153-.314-35.2188-6.477-48.1113-10.754-4.5911-1.509-8.3645-4.277-10.377-7.736-.9434-1.698-1.132-3.081-.6918-4.15.9434-2.013 12.4524-14.402 100.6878-14.402 36.414 0 70.312 2.201 79.557 3.333z"/><path d="m214.463 156.305c14.716 1.824 24.338 6.415 28.615 12.641 2.893 4.151 2.264 7.924 1.509 8.867-.251.063-1.761 1.761-9.748 4.151-6.603 1.95-40.942 9.245-44.904 8.931-2.075 0-4.339-.378-7.547-1.447-3.962-1.32-9.245-3.71-17.169-7.798-7.358-3.774-16.351-4.843-24.464-4.78-5.597 0-14.465 2.453-23.018 5.094-11.572 3.648-22.7037 7.799-24.2131 7.736-12.4523-.252-35.0929-6.478-48.1113-10.755-4.591-1.509-8.3644-4.276-10.3769-7.735-1.0063-1.698-1.195-3.082-.6918-4.151.9433-1.887 12.0121-14.339 100.6881-14.339 36.351 0 70.249 2.201 79.493 3.333z"/><path d="m214.462 156.368c14.465 1.761 24.15 6.226 28.553 12.452 2.955 4.151 2.452 7.924 1.761 8.868-.189.063-1.636 1.761-9.56 4.15-6.54 1.95-41.13 9.245-44.967 9.057-2.075 0-4.339-.315-7.546-1.384-3.963-1.321-9.245-3.648-17.17-7.798-7.358-3.837-16.351-4.906-24.527-4.843-5.597 0-14.465 2.39-23.081 5.094-11.635 3.648-22.8291 7.862-24.2127 7.862-12.3894-.189-35.0301-6.415-48.1742-10.692-4.591-1.509-8.3645-4.214-10.377-7.673-1.0062-1.698-1.1949-3.081-.6918-4.15.8805-1.761 11.5719-14.214 100.6247-14.214 36.351 0 70.186 2.202 79.431 3.334z"/><path d="m214.462 156.431c14.214 1.761 23.962 6.037 28.427 12.263 3.019 4.151 2.578 7.925 2.012 8.868-.125 0-1.446 1.698-9.433 4.151-6.415 1.949-41.319 9.307-45.03 9.182-2.075 0-4.339-.315-7.547-1.384-3.899-1.321-9.182-3.648-17.169-7.861-7.358-3.837-16.351-4.969-24.527-4.906-5.535 0-14.465 2.39-23.081 5.094-11.698 3.648-22.8922 7.988-24.2758 7.925-12.3266-.126-34.9043-6.415-48.2371-10.692-4.591-1.509-8.3645-4.151-10.377-7.672-1.0062-1.698-1.1949-3.145-.6918-4.151.8805-1.572 11.1317-14.151 100.5617-14.151 36.288 0 70.123 2.202 79.368 3.334z"/><path d="m190.627 190.895c-4.591 0-10.125-1.51-24.779-9.245-7.358-3.9-16.351-5.032-24.527-5.032-13.081 0-45.1557 13.082-47.3568 13.082-12.2008 0-34.7786-6.352-48.3-10.692-4.5911-1.446-8.4274-4.15-10.377-7.609-1.0062-1.699-1.2578-3.145-.6289-4.151.8176-1.447 10.6914-14.025 100.4997-14.025 89.807 0 70.06 2.201 79.242 3.333 13.961 1.698 23.772 5.849 28.3 12.075 3.082 4.151 2.705 7.925 2.202 8.868 0 0-1.321 1.698-9.245 4.151-6.289 1.949-41.508 9.308-45.03 9.308z"/></g><path d="m241.38 97.7236c-2.327-7.2324-8.113-13.207-15.723-16.1629-22.892-8.9933-52.136-14.339-83.959-14.339-31.822 0-63.2677 5.7859-86.5373 15.4082-7.4839 3.0816-13.0812 8.9933-15.3453 16.1629-4.8425 15.4712-7.5468 32.3882-7.5468 49.9982 0 17.609 0 4.213.1257 6.289.3145 9.182 5.9118 17.609 14.7793 21.886 12.7668 6.163 28.0493 11.131 45.0926 14.402 8.3648 1.635 16.8548-1.447 22.6408-7.987 7.044-7.862 15.974-12.578 25.785-12.578s18.93 4.779 25.974 12.829c5.723 6.478 14.15 9.622 22.515 8.05 16.603-3.081 31.571-7.672 44.212-13.458 9.182-4.214 15.156-12.578 15.534-21.886.126-2.516.188-5.032.188-7.61 0-18.05-2.767-35.282-7.861-51.0673z" fill="url(#a)"/><g fill="#000"><path d="m225.028 89.2963c-55.092-16.5403-113.832-16.5403-168.9242 0-1.0062.3144-2.0754-.2516-2.3269-1.195-.3145-.9433.2515-2.0125 1.2578-2.3269 55.7843-16.7918 115.2783-16.7918 171.0623 0 1.006.3144 1.572 1.3836 1.258 2.3269-.314.9434-1.384 1.5094-2.327 1.195z"/><path d="m245.918 117.735-1.568.12c-1.385.107-2.422 1.316-2.315 2.702l1.505 19.564c.107 1.385 1.316 2.422 2.701 2.315l1.568-.121c1.385-.106 2.422-1.316 2.315-2.701l-1.505-19.564c-.107-1.385-1.316-2.422-2.701-2.315z"/><path d="m35.9899 119.648-1.5714-.052c-1.3885-.046-2.5515 1.042-2.5976 2.431l-.6506 19.611c-.046 1.389 1.0423 2.552 2.4309 2.598l1.5714.052c1.3885.046 2.5515-1.042 2.5976-2.431l.6506-19.611c.046-1.389-1.0423-2.552-2.4309-2.598z"/></g></g></svg>