<svg width="1024" height="1024" viewBox="0 0 1024 1024" fill="none" xmlns="http://www.w3.org/2000/svg">
<g clip-path="url(#clip0_69_2076)">
<g opacity="0.4">
<path opacity="0.1" d="M817.75 493.5C960.5 511 978 585 966.75 612C959.5 629.75 928.75 642.5 892 652.25C863 659.5 829.75 666.5 797.5 673.75C735.75 687.75 701.75 700.25 633.5 668.5C625.75 665.25 617.25 661.25 607.75 656.5C585.75 645.5 564 639 541.5 636.25C510 632.25 479 638.75 450.25 647.5C421.75 656.25 393.75 668.5 368 676C344.5 682.75 309 681.75 275.25 676C198.5 662.25 105.25 630.5 99.5001 628.75C80.5001 613.75 68.5001 599.75 62.5001 586.5C59.5001 580 58.5001 574 58.7501 568.25C61.5001 504.25 255.75 481.25 475.75 480C629.75 479 777 488.5 817.75 493.5Z" fill="#020202"/>
<path opacity="0.1" d="M817.75 493.75C959.5 511 977.25 584.5 966.5 611.5C959.25 629.25 929 642 892.5 651.75C863.75 659 831 665.75 798.5 673.25C737 687.25 702 700 634.5 668.5C626.75 665.25 618.25 661.5 608.75 656.75C587 645.75 565.25 639.25 542.5 636.5C511 632.5 480 638.75 451.25 647.5C423 656 394.75 668.25 368.75 675.75C345 682.75 309.5 681.75 276 675.75C199.5 662.25 106.25 630.5 100 628.5C81.0002 613.5 68.7502 599.5 63.0002 586.5C60.0002 580 59.0002 574 59.2502 568.5C62.0002 505 254.5 482 476 480.75C630 479.75 777 489.25 817.75 494.25V493.75Z" fill="#020202"/>
<path opacity="0.1" d="M817.5 494C958.5 511.25 976.25 584 965.75 611C958.75 628.75 928.75 641.5 892.75 651C864.5 658.25 831.75 665 799.5 672.25C738.5 686 702.25 699 635.25 668C627.5 664.75 619 661 609.5 656.25C587.75 645.25 566 638.75 543.25 635.75C511.75 631.5 480.75 637.75 452 646.25C423.75 654.75 395.5 667 369.5 674.5C345.5 681.5 309.75 680.75 276.75 675C200.75 661.5 107.5 630 100.5 627.75C81.5 613 69.25 599 63.25 585.75C60.25 579.25 59.25 573.25 59.5 567.75C62.5 505 253.25 481.5 476 480.25C630 479.25 776.75 488.75 817.5 493.75V494Z" fill="#020202"/>
<path opacity="0.1" d="M817.5 494.25C957.5 511.25 975.5 583.5 965.25 610.5C958.5 628.25 928.75 641 893.25 650.5C865.25 657.5 833 664.5 800.75 671.75C740.25 685.5 702.75 698.75 636.25 667.75C628.5 664.5 620 660.75 610.5 656C588.75 645.25 567 638.5 544.25 635.5C512.75 631.25 481.75 637.25 453 645.75C424.75 654.25 396.5 666.25 370.5 674C346.25 681 310.5 680.75 277.5 674.75C201.75 661.5 108.5 630 101 627.75C82.0001 613 69.7501 599 63.7501 586C60.7501 579.5 59.7501 573.5 60.0001 568C63.0001 505.75 252 482 476.5 481C630.25 480 777 489.5 817.75 494.5L817.5 494.25Z" fill="#020202"/>
<path opacity="0.1" d="M817.25 494.75C956.25 511.75 974.5 583.25 964.75 610C958.25 627.75 929 640.5 893.75 650C866 657 834 664 801.75 671.25C741.5 685 703 698.25 637.25 667.75C629.5 664.5 621 660.75 611.25 656C589.5 645.25 568 638.5 545 635.25C513.75 630.75 482.5 636.75 453.5 645.25C425.25 653.5 397 665.75 370.75 673.25C346.25 680.5 310.25 680.25 277.75 674.5C202.25 661.25 108.5 631.25 101.25 627.5C80.25 616.5 70 599 64 585.75C61 579.25 60 573.25 60.25 567.75C63.5 506.25 250.5 482.25 476.5 481C630.25 480 776.75 489.5 817.25 494.5V494.75Z" fill="#020202"/>
<path opacity="0.2" d="M817.25 495C955.25 511.75 973.75 582.75 964.25 609.5C958 627.25 929 640.25 894 649.5C866.75 656.5 835 663.25 802.75 670.75C743 684.5 703.25 698 638 667.75C630.25 664.5 621.75 661 612 656.25C590.5 645.5 568.75 638.75 545.75 635.5C514.5 630.75 483.25 636.75 454.25 645C426.25 653.25 397.75 665.25 371.5 673C346.75 680.25 310.75 680.25 278.5 674.5C203.5 661.5 109.75 631.5 101.75 627.5C80.75 616.5 70.5 599.25 64.5 586C61.5 579.5 60.5 573.5 60.75 568C64 507.25 249.25 482.75 476.75 481.75C630.25 481 776.75 490.25 817.25 495.25V495Z" fill="#020202"/>
<path opacity="0.2" d="M817.25 495.25C954.25 512 973 582.25 963.75 609C957.75 626.75 929 639.75 894.5 648.75C867.5 655.5 836 662.5 803.75 670C744.5 683.5 703.5 697.25 638.75 667.5C631 664.5 622.5 660.75 612.75 656C591.25 645.5 569.5 638.5 546.5 635C515.25 630.25 484 635.75 455 644.25C427 652.25 398.5 664.5 372 672.25C347 679.5 311 679.75 279 674.25C204.25 661.25 110.5 631.75 102 627.25C81.0002 616.25 70.7502 599 64.7502 585.75C61.7502 579.25 60.7502 573.25 61.0002 567.75C64.5002 507.5 247.75 483 476.75 481.75C630.25 481 776.5 490.25 817 495.25H817.25Z" fill="#020202"/>
<path opacity="0.2" d="M817 495.5C953 512 972.25 581.75 963.25 608.5C957.5 626.25 929 639.25 895 648.25C868.25 655 837.25 662 805 669.25C746 682.75 703.75 696.75 640 667.25C632.25 664.25 623.75 660.5 614 655.75C592.5 645.25 571 638.25 547.75 634.75C516.5 629.75 485 635.25 456 643.5C428 651.5 399.5 663.5 373 671.25C347.75 678.75 311.5 679 280 673.5C205.5 660.5 111.75 631.25 103 626.5C82.0002 615.5 71.7502 598.5 65.5002 585.25C62.5002 578.75 61.5002 572.75 61.7502 567.25C65.2502 507.75 246.75 482.75 477.5 481.75C630.75 481 777 490.25 817.5 495.25L817 495.5Z" fill="#020202"/>
<path opacity="0.2" d="M817 496C952 512.5 971.5 581.5 962.75 608.25C957.25 626 929 639 895.25 648C868.75 654.75 838 661.5 805.75 669C747.25 682.5 703.75 696.5 640.5 667.5C632.75 664.5 624 661 614.5 656.25C593.25 645.75 571.5 638.75 548.25 635C517 629.75 485.5 635.25 456.5 643.5C428.75 651.25 400 663.5 373.25 671.25C347.75 678.75 311.5 679.25 280.25 674C206 661.25 112.25 632 103 627.25C82.0002 616.5 71.7502 599.25 65.5002 586C62.5002 579.5 61.5002 573.5 61.7502 568C65.2502 509.25 245 483.75 477.25 482.75C630.5 482 776.5 491.25 817 496.25V496Z" fill="#020202"/>
<path opacity="0.2" d="M816.75 496.25C950.75 512.5 970.5 581 962.25 607.75C956.75 625.5 929 638.5 895.75 647.5C869.75 654 839.25 661 807 668.5C748.75 682 704.25 696.25 641.5 667.5C633.75 664.5 625 661 615.25 656.25C594 645.75 572.25 639 549 635C517.75 629.75 486.25 635 457.25 643.25C429.5 651 400.75 663 374 670.75C348.25 678.25 311.75 679 281 673.75C207.25 661 113.5 632 103.5 627C82.5002 616.25 72.2502 599.25 66.0002 586C63.0002 579.5 62.0002 573.5 62.2502 568C66.0002 509.75 244 484.25 477.5 483C630.75 482.25 776.5 491.5 816.75 496.5V496.25Z" fill="#020202"/>
<path opacity="0.2" d="M816.75 496.5C950 512.75 969.75 580.5 961.75 607.25C956.5 625 929.25 638 896.25 647C870.5 653.5 840.25 660.5 808.25 668C750.5 681.5 704.75 695.75 642.75 667.5C635 664.5 626.25 661 616.5 656.25C595.25 646 573.75 639 550 634.75C518.75 629.25 487.25 634.75 458.25 642.5C430.5 650 401.75 662.25 375 670C349 677.75 312.5 678.5 281.75 673.25C208.25 660.75 114.5 631.75 104 626.5C83.25 615.75 72.75 598.75 66.5 585.75C63.5 579.25 62.5 573.25 62.75 567.75C66.5 510.25 242.75 484.25 477.75 483.25C630.75 482.5 776.5 491.75 816.75 496.75V496.5Z" fill="#020202"/>
<path opacity="0.2" d="M816.5 496.75C948.75 513 968.75 580 961 606.5C956 624.25 929 637.25 896.5 646C871 652.5 841.25 659.25 809 666.75C751.75 680 704.75 694.75 643.25 666.75C635.25 663.75 626.75 660.25 617 655.5C595.75 645.25 574.25 638.25 550.5 634C519.25 628.5 487.75 633.5 458.5 641.5C430.75 649 402 661 375 669C348.75 676.75 312 677.75 281.75 672.75C208.5 660.25 114.75 631.5 104 626C83.25 615.25 72.5 598.5 66.5 585.25C63.5 578.75 62.5 572.75 62.75 567.25C66.75 510.25 241 484 477.5 483C630.5 482.25 776 491.5 816.25 496.5L816.5 496.75Z" fill="#020202"/>
<path opacity="0.2" d="M816.5 497.25C947.75 513.25 968 579.75 960.75 606.25C956 623.75 929.25 637 897 645.75C872 652 842.5 659 810.25 666.5C753.25 679.75 705.25 694.5 644.25 666.75C636.25 664 627.75 660.5 618 655.75C597 645.5 575.25 638.5 551.5 634C520.5 628.25 488.75 633.25 459.5 641C432 648.5 403 660.5 376 668.25C349.25 676.25 312.75 677.5 282.75 672.25C209.75 660 116.25 631.5 104.75 625.5C84.0002 615 73.2502 598 67.2502 585C64.2502 578.5 63.2502 572.5 63.5002 567C67.5002 510.75 240 484.25 478.25 483.25C631 482.5 776.5 491.75 816.75 496.75L816.5 497.25Z" fill="#020202"/>
<path opacity="0.2" d="M816.25 497.5C946.5 513.5 967 579.25 960 605.75C955.5 623.25 929 636.5 897.25 645.25C872.5 651.5 843.25 658.5 811 666C754.5 679.25 705.25 694 645 666.75C637 664 628.5 660.5 618.75 655.75C597.75 645.75 576.25 638.5 552.25 634C521.25 628 489.5 633 460.25 640.75C432.75 648 403.75 660 376.5 668C349.5 676 313 677.5 283.25 672.5C210.75 660.25 117 632 105 626C84.2502 615.5 73.5002 598.75 67.2502 585.5C64.2502 579 63.2502 573 63.5002 567.5C67.5002 512 238.25 485 478 484C630.75 483.25 776 492.5 816.25 497.5Z" fill="#020202"/>
<path opacity="0.2" d="M816.25 497.75C945.5 513.5 966.25 578.75 959.75 605.25C955.5 622.75 929.25 636 898 644.75C873.5 651 844.75 658 812.5 665.5C756.5 678.75 706 693.75 646.25 666.75C638.25 664 629.75 660.5 619.75 655.75C598.75 645.75 577.25 638.5 553.25 633.75C522.25 627.75 490.5 632.5 461 640.25C433.5 647.5 404.5 659.5 377.25 667.5C350 675.5 313.25 677.25 284 672.25C211.75 660.25 118 632 105.75 625.75C85.0002 615.25 74.2502 598.75 68.0002 585.5C65.0002 579 64.0002 573 64.2502 567.75C68.5002 512.75 237.25 485.75 478.5 484.75C631 484 776 493.25 816.25 498.25V497.75Z" fill="#020202"/>
<path opacity="0.3" d="M816.25 498C944.5 513.75 965.5 578.25 959.25 604.75C955 622.25 929.25 635.5 898.25 644C874 650 845.5 657 813.25 664.75C757.5 677.75 706 693 646.75 666.5C638.75 663.75 630.25 660.5 620.25 655.75C599.25 645.75 577.75 638.5 553.75 633.75C522.75 627.5 490.75 632.25 461.5 639.75C434 646.75 405 658.75 377.5 666.75C350 675 313.25 676.75 284.25 672C212.25 660 118.75 632 105.75 625.5C85.0002 615.25 74.2502 598.5 68.0002 585.25C65.0002 578.75 64.0002 572.75 64.2502 567.5C68.5002 513.25 235.5 485.75 478.25 484.75C630.75 484 775.5 493.25 815.75 498.25L816.25 498Z" fill="#020202"/>
<path opacity="0.3" d="M816 498.5C943.25 514 964.5 578 958.5 604.5C954.5 622 929.25 635.25 898.5 643.75C874.75 649.75 846.5 656.75 814.25 664.25C759 677.25 706.25 692.75 647.75 666.5C639.75 663.75 631.25 660.5 621.25 655.75C600.5 646 579 638.5 554.75 633.5C523.75 627.25 491.75 631.75 462.5 639.25C435.25 646.25 406 658.25 378.5 666.25C350.75 674.5 313.75 676.5 285 671.75C213.5 660 119.75 632 106.25 625.25C85.7502 615 74.7502 598.5 68.5002 585.25C65.5002 578.75 64.5002 572.75 64.7502 567.5C69.2502 514 234.25 486 478.75 485C631 484.25 775.75 493.5 816 498.5Z" fill="#020202"/>
<path opacity="0.3" d="M816 498.75C942.25 514.25 963.75 577.5 958.25 604C954.5 621.5 929.5 634.75 899.25 643.25C875.75 649.25 847.75 656.25 815.5 663.75C760.75 676.75 706.75 692.25 648.75 666.5C640.75 663.75 632.25 660.5 622.25 655.75C601.5 646 580 638.5 555.75 633.5C524.75 627 492.75 631.5 463.5 639C436.25 645.75 407 657.75 379.5 665.75C351.5 674 314.5 676.25 286 671.5C214.75 659.75 121 632 107 625C86.5002 614.75 75.5002 598.25 69.2502 585C66.2502 578.5 65.2502 572.5 65.7502 567.25C70.2502 514.25 233.75 486.25 479.5 485.25C631.75 484.5 776.25 493.75 816.5 498.75H816Z" fill="#020202"/>
<path opacity="0.3" d="M815.75 499C941.25 514.25 962.75 577 957.5 603.25C954 620.75 929.25 634 899.5 642.5C876.25 648.25 848.75 655.25 816.5 663C762 676 707 691.75 649.5 666.25C641.5 663.5 633 660.25 623 655.75C602.25 646 580.75 638.5 556.5 633.25C525.5 626.75 493.5 631 464 638.25C436.75 645 407.25 657 379.75 665C351.5 673.5 314.25 675.75 286.25 671.25C215.25 659.75 121.75 632 107.25 625C86.75 614.75 75.75 598.5 69.25 585.25C66 578.75 65.25 572.75 65.75 567.5C70.25 515.25 232 486.75 479.25 485.75C631.5 485 775.75 494.25 816 499.25L815.75 499Z" fill="#020202"/>
<path opacity="0.3" d="M815.75 499.25C940.25 514.5 962 576.5 957 602.75C953.75 620.25 929.25 633.5 899.75 642C877 647.75 849.5 654.75 817.5 662.5C763.5 675.25 707.25 691.25 650.25 666.25C642.25 663.75 633.75 660.5 623.5 655.75C603 646 581.5 638.5 557 633.25C526 626.5 494 630.75 464.5 638C437.5 644.75 407.75 656.5 380.25 664.75C351.75 673.25 314.5 675.75 286.75 671.25C216 659.75 122.5 632.25 107.5 625C87.0001 615 76.0001 598.5 69.5001 585.25C66.2501 578.75 65.5001 572.75 66.0001 567.5C70.7501 515.75 230.5 487.25 479.25 486.25C631.25 485.5 775.5 494.75 815.5 499.75L815.75 499.25Z" fill="#020202"/>
<path opacity="0.3" d="M815.5 499.75C939 514.75 961 576.25 956.5 602.5C953.5 620 929.25 633.25 900.25 641.5C877.75 647.25 850.75 654.25 818.5 661.75C765 674.5 707.25 690.75 651.25 665.75C643.25 663.25 634.75 660 624.5 655.25C604 645.75 582.5 638 557.75 632.5C527 625.5 494.75 629.75 465.25 636.75C438.25 643.25 408.5 655.25 380.75 663.25C352 671.75 314.75 674.5 287.25 670.25C217 659 123.25 631.75 107.75 624C87.25 614 76.25 597.75 69.75 584.5C66.5 578 65.75 572 66.25 566.75C71 515.75 229 486.75 479.25 485.75C631.25 485 775.25 494.25 815.25 499.25L815.5 499.75Z" fill="#020202"/>
<path opacity="0.3" d="M815.5 500C938 515 960.25 575.75 956 602C953.25 619.5 929.25 632.75 900.75 641C878.5 646.5 851.75 653.5 819.75 661.25C766.5 674 707.75 690.25 652.25 665.75C644.25 663.25 635.75 660 625.5 655.25C605 645.75 583.5 638 558.75 632.5C528 625.5 495.75 629.5 466 636.5C439 643 409.25 654.75 381.5 663C352.5 671.75 315 674.75 288 670.25C218 659 124.5 632 108.5 624C88 614 76.75 598 70.5 584.5C67.25 578 66.5 572 67 566.75C71.75 516.5 228 487 480 486.25C631.75 485.5 775.75 494.75 815.75 499.75L815.5 500Z" fill="#020202"/>
<path opacity="0.3" d="M815.25 500.25C936.75 515 959.25 575.25 955.5 601.5C952.75 619 929.5 632.25 901 640.5C879 646 852.75 653 820.5 660.75C767.75 673.5 707.75 690 652.75 665.75C644.75 663.25 636.25 660.25 626 655.5C605.5 646 584.25 638.25 559.25 632.5C528.5 625.25 496.25 629.25 466.5 636.25C439.5 642.5 409.75 654.5 381.75 662.75C352.5 671.5 315 674.75 288 670.5C218.25 659.5 124.75 632.5 108.25 624.5C87.7501 614.5 76.5001 598.5 70.2501 585.25C67.0001 578.75 66.2501 572.75 66.7501 567.5C71.5001 517.75 226 488.25 479.5 487.25C631.25 486.5 775 495.75 815 500.75L815.25 500.25Z" fill="#020202"/>
<path opacity="0.3" d="M815.25 500.75C935.75 515.5 958.75 575 955 601.25C952.5 618.75 929.5 632 901.5 640.25C880 645.75 854 652.75 821.75 660.5C769.25 673 708.25 689.75 654 666C646 663.5 637.5 660.5 627.25 655.75C607 646.5 585.5 638.75 560.5 632.75C529.75 625.5 497.25 629.25 467.75 636C441 642.25 411 654 383 662.25C353.5 671 315.75 674.5 289.25 670.25C219.75 659.25 126.25 632.5 109.25 624.25C89 614.5 77.5 598.5 71 585C67.75 578.5 67 572.5 67.5 567.25C72.5 518.25 225 488.25 480 487.25C631.5 486.5 775.25 495.75 815.25 500.75Z" fill="#020202"/>
<path opacity="0.3" d="M815.25 501C934.75 515.5 958 574.5 954.5 600.75C952.25 618.25 929.5 631.5 902 639.5C880.75 645 855 651.75 822.75 659.5C770.75 672 708.5 689 654.75 665.5C646.75 663 638.25 660 628 655.25C607.75 646 586.25 638.25 561.25 632C530.5 624.5 498 628.25 468.5 635C441.75 641.25 411.75 652.75 383.75 661.25C354 670.25 316.25 673.75 290 669.5C221 658.5 127.5 632 109.75 623.5C89.5001 613.75 78.0001 597.75 71.5001 584.5C68.2501 578 67.5001 572 68.0001 566.75C73.0001 518.5 224 488 480.25 487.25C631.75 486.5 775.25 495.75 815 500.75L815.25 501Z" fill="#020202"/>
<path opacity="0.4" d="M815 501.25C933.5 515.75 957 573.75 954 600.25C952 617.75 929.5 631 902.5 639C881.5 644.25 856.25 651.25 824 659C772.5 671.5 709 688.5 655.75 665.5C647.75 663 639.25 660 628.75 655.5C608.5 646.25 587.25 638.5 562 632.25C531.25 624.75 498.75 628.25 469 634.75C442.25 640.75 412.25 652.5 384 660.75C354 669.75 316 673.5 290.25 669.5C221.5 658.75 128 632.25 110 623.5C89.75 613.75 78.25 598 71.75 584.5C68.5 578 67.75 572 68.25 566.75C73.25 519 222.5 488.5 480.5 487.5C632 486.75 775.25 496 815 501V501.25Z" fill="#020202"/>
<path opacity="0.4" d="M815 501.5C932.75 515.75 956.25 573.25 953.5 599.5C951.75 617 929.5 630.25 902.75 638.25C882.25 643.5 857 650.5 825 658.25C773.75 670.75 709.25 687.75 656.75 665.25C648.75 663 640.25 660 629.75 655.25C609.5 646 588.25 638.25 563 631.75C532.25 624 499.75 627.5 470 634C443.5 640 413.25 651.5 385 660C354.75 669 316.75 673 291.25 669C222.75 658.25 129.25 632 110.75 623C90.5001 613.25 79.0001 597.5 72.5001 584.25C69.2501 577.75 68.5001 571.75 69.0001 566.5C74.2501 519.5 221.5 488.5 481 487.75C632.25 487 775.5 496.25 815.25 501.25L815 501.5Z" fill="#020202"/>
<path opacity="0.4" d="M814.75 502C931.5 516.25 955.25 573 952.75 599.25C951.25 616.75 929.25 630 903 638C882.75 643.25 858 650.25 825.75 658C775 670.25 709.25 687.75 657.25 665.5C649.25 663.25 640.5 660.25 630.25 655.5C610.25 646.5 589 638.5 563.5 632C532.75 624.25 500.25 627.5 470.5 634C444 639.75 413.75 651.5 385.25 660C354.75 669.25 316.5 673.25 291.5 669.5C223.25 659 130 632.75 110.75 623.75C90.5001 614.25 79.0001 598.5 72.5001 585C69.2501 578.5 68.5001 572.5 69.0001 567.5C74.2501 521.25 219.75 490 480.75 489C632 488.25 775 497.5 814.75 502.5V502Z" fill="#020202"/>
<path opacity="0.4" d="M814.75 502.25C930.5 516.25 954.5 572.5 952.5 598.75C951.25 616.25 929.75 629.75 903.75 637.5C883.75 642.5 859.25 649.5 827.25 657.5C777 669.75 710 687.25 658.5 665.25C650.5 663 641.75 660 631.5 655.25C611.5 646.25 590.25 638.25 564.75 631.5C534.25 623.5 501.5 626.75 471.5 633C445 638.75 414.75 650.25 386.25 658.75C355.5 668 317.25 672.25 292.25 668.5C224.5 658 131 632 111.5 622.75C91.25 613.25 79.75 597.5 73 584.25C69.75 577.75 69 571.75 69.5 566.75C74.75 521 218.5 489.5 481 488.75C632 488 775 497.25 814.75 502.25Z" fill="#020202"/>
<path opacity="0.4" d="M814.5 502.5C929.25 516.5 953.5 572 951.75 598.25C950.75 615.5 929.5 629.25 903.75 636.75C884 641.75 860 648.75 827.75 656.5C777.75 668.75 709.75 686.5 659 664.75C651 662.5 642.25 659.5 632 655C612 646 590.75 638 565.25 631.25C534.75 623 502 626 472 632.5C445.5 638 415.25 649.75 386.5 658.25C355.5 667.5 317.25 672.25 292.5 668.5C225 658.25 131.5 632.25 111.5 622.75C91.5 613.25 79.75 597.75 73 584.5C69.75 578 69 572 69.5 567C74.75 522 216.75 490 481 489.25C632 488.5 774.75 497.75 814.25 502.75L814.5 502.5Z" fill="#020202"/>
<path opacity="0.4" d="M814.5 502.75C928.25 516.75 952.75 571.5 951.5 597.75C950.5 615 929.75 628.75 904.5 636.25C885.25 641.25 861.25 648.25 829.25 656C779.75 668.25 710.5 686 660.25 664.75C652.25 662.5 643.5 659.75 633 655C613.25 646.25 592 638 566 631C535.5 622.75 502.75 625.5 472.75 632C446.5 637.5 416 649 387.25 657.75C356 667.25 317.5 672 293.25 668.25C226 658 132.75 632.25 112 622.5C92 613 80.25 597.75 73.5 584.25C70.25 577.75 69.5 571.75 70 566.75C75.5 522.25 215.5 490.25 481.25 489.5C632 489 774.75 498 814.25 503L814.5 502.75Z" fill="#020202"/>
<path opacity="0.4" d="M814.25 503.25C927 517 951.75 571.25 950.75 597.5C950 614.75 929.5 628.5 904.75 636C885.75 640.75 862.25 647.75 830 655.75C781 667.75 710.5 686 660.75 665C652.75 662.75 644 660 633.5 655.25C613.75 646.5 592.5 638.25 566.5 631.25C536 622.75 503 625.5 473.25 631.75C447 637.25 416.5 648.75 387.75 657.25C356.25 666.75 317.75 671.75 293.75 668C226.75 658 133.5 632.25 112.25 622.25C92.2501 613 80.2501 597.5 73.7501 584.25C70.5001 577.75 69.7501 571.75 70.2501 566.75C75.7501 523 214 490.5 481.25 489.75C632 489.25 774.5 498.25 814 503.25H814.25Z" fill="#020202"/>
<path opacity="0.4" d="M814.25 503.5C926 517.25 951 570.75 950.25 597C949.75 614.25 929.5 628 905.25 635.5C886.5 640.25 863.25 647.25 831.25 655.25C782.5 667.25 711 685.5 662 665C654 662.75 645.25 660 634.75 655.5C615 646.75 593.75 638.5 567.75 631.25C537.25 622.75 504.25 625.25 474.25 631.25C448 636.5 417.5 648 388.5 656.75C356.75 666.25 318 671.5 294.5 668C228 658 134.75 632.5 113 622.5C93.0001 613.25 81.0001 598 74.5001 584.5C71.2501 578 70.5001 572 71.0001 567C76.5001 524 213.25 491 481.75 490.25C632.25 489.75 774.75 498.75 814.25 503.75V503.5Z" fill="#020202"/>
<path opacity="0.4" d="M814.25 503.75C925 517.25 950.25 570.25 950 596.25C949.75 613.5 929.75 627.25 905.75 634.5C887.5 639.25 864.5 646.25 832.5 654C784.25 666 711.25 684.5 663 664.25C655 662.25 646.25 659.5 635.75 654.75C616 646 595 637.75 568.75 630.5C538.25 621.75 505.25 624.25 475.25 630.5C449.25 635.75 418.5 647.25 389.5 656C357.5 665.75 318.75 671 295.5 667.5C229.25 657.75 136 632.25 113.75 622C93.7501 612.75 81.7501 597.5 75.0001 584.25C71.7501 577.75 71.0001 571.75 71.5001 566.75C77.0001 524.25 212 491.25 482 490.5C632.5 490 774.75 499 814.25 504V503.75Z" fill="#020202"/>
<path opacity="0.4" d="M814 504C924 517.5 949.25 569.75 949.25 595.75C949.25 613 929.75 626.75 906 634C888 638.5 865.5 645.5 833.25 653.5C785.5 665.5 711.25 684 663.5 664.25C655.5 662.25 646.75 659.5 636.25 654.75C616.75 646.25 595.5 638 569.25 630.25C538.75 621.5 505.75 623.75 475.75 629.75C449.75 634.75 419 646.25 389.75 655C357.5 664.75 318.5 670.25 295.5 667C229.5 657.25 136.25 632 113.5 621.5C93.5 612.25 81.5 597.25 74.75 583.75C71.5 577.25 70.75 571.25 71.25 566.25C76.75 524.5 210 491 481.75 490.25C632.25 489.75 774.25 498.75 813.5 503.75L814 504Z" fill="#020202"/>
<path opacity="0.5" d="M814 504.5C923 517.75 948.5 569.5 949 595.5C949 612.75 930 626.5 906.75 633.75C889 638.25 866.75 645.25 834.75 653.25C787.25 665 712 684 665 664.5C657 662.5 648.25 659.75 637.5 655C618 646.5 596.75 638.25 570.5 630.5C540 621.5 507 623.75 476.75 629.75C450.75 634.75 420 646.25 390.75 655C358.25 665 319.25 670.5 296.5 667.25C231 657.75 137.75 632.5 114.5 621.75C94.5001 612.75 82.5001 597.5 75.7501 584.25C72.5001 577.75 71.7501 571.75 72.5001 566.75C78.0001 525.75 209.5 492 482.75 491.25C633 490.75 775 499.75 814.25 504.75L814 504.5Z" fill="#020202"/>
<path opacity="0.5" d="M813.75 504.75C921.75 518 947.75 569 948.25 595C948.75 612.25 929.75 626 906.75 633.25C889.25 637.75 867.5 644.75 835.25 652.75C788.25 664.5 711.75 683.5 665.25 664.25C657.25 662.25 648.5 659.5 637.75 655C618.25 646.5 597.25 638.25 570.75 630.25C540.5 621.25 507.25 623.25 477 629C451 634 420.25 645.25 391 654C358.25 664 319.25 670 296.75 666.75C231.5 657.25 138.25 632.25 114.5 621.5C94.7501 612.5 82.5001 597.5 75.7501 584C72.5001 577.5 71.7501 571.5 72.5001 566.5C78.2501 526 207.75 492 482.5 491.25C632.75 490.75 774.5 500 813.75 504.75Z" fill="#020202"/>
<path opacity="0.5" d="M813.75 505C920.75 518 947 568.5 947.75 594.5C948.25 611.75 929.75 625.5 907.25 632.5C890.25 636.75 868.5 643.75 836.5 652C789.75 663.75 712.25 683 666.25 664C658.25 662 649.5 659.5 638.75 654.75C619.5 646.25 598.25 638 571.75 630C541.5 620.75 508.25 622.75 478 628.5C452.25 633.25 421.25 644.75 391.75 653.5C358.75 663.5 319.5 669.75 297.5 666.5C232.5 657.25 139.5 632.25 115 621.25C95.2501 612.25 83.0001 597.25 76.2501 584C73.0001 577.5 72.2501 571.5 73.0001 566.5C78.7501 526.75 206.5 492.25 482.75 491.75C632.75 491.25 774.5 500.5 813.75 505.25V505Z" fill="#020202"/>
<path opacity="0.5" d="M813.5 505.25C919.5 518.25 946 568 947.25 594C948 611.25 929.75 625 907.75 632C891 636.25 869.75 643.25 837.5 651.25C791.25 662.75 712.5 682.25 667.25 663.75C659.25 661.75 650.5 659.25 639.75 654.5C620.5 646.25 599.25 637.75 572.75 629.5C542.5 620.25 509.25 622 479 627.5C453.25 632.25 422 643.5 392.75 652.5C359.5 662.75 320.25 669 298.5 665.75C233.75 656.5 140.75 631.75 115.75 620.5C96.0001 611.5 83.7501 596.75 77.0001 583.25C73.7501 576.5 73.0001 570.75 73.7501 565.75C79.5001 526.75 205.5 492 483.5 491.25C633.5 490.75 775 500 814.25 504.75L813.5 505.25Z" fill="#020202"/>
<path opacity="0.5" d="M813.5 505.75C918.5 518.5 945.25 567.75 946.75 593.75C947.75 611 929.75 624.75 908.25 631.75C891.75 636 870.75 643 838.75 651C793 662.5 713 682 668.25 664C660.25 662 651.5 659.5 640.75 655C621.5 646.75 600.5 638.25 573.75 630C543.5 620.5 510 622.25 479.75 627.75C454 632.25 422.75 643.75 393.25 652.5C359.75 662.75 320.25 669.25 299 666.25C234.75 657.25 141.5 632.5 116.25 621C96.5001 612.25 84.2501 597.5 77.2501 584C74.0001 577.25 73.2502 571.5 74.0002 566.5C79.7502 528 204.25 493 483.5 492.25C633.25 491.75 774.75 501 813.75 505.75H813.5Z" fill="#020202"/>
<path opacity="0.5" d="M813.25 506C917.25 518.75 944.25 567.25 946 593C947.25 610.25 929.75 624 908.25 631C892 635 871.5 642 839.25 650.25C793.75 661.75 712.75 681.5 668.5 663.75C660.5 662 651.75 659.25 640.75 654.75C621.5 646.5 600.5 638 573.5 629.5C543.25 620 509.75 621.5 479.5 627C454 631.5 422.5 642.75 393 651.75C359.25 662 319.75 668.75 298.5 665.75C234.5 656.75 141.5 632.25 115.5 620.5C95.75 611.75 83.25 597 76.5 583.5C73.25 576.75 72.5 571 73.25 566.25C79 528.5 201.75 493.25 482.5 492.5C632.25 492 773.5 501.25 812.5 506H813.25Z" fill="#020202"/>
<path opacity="0.5" d="M813.25 506.25C916.25 518.75 943.5 566.75 945.75 592.5C947.25 609.75 930 623.5 909 630.5C893.25 634.5 872.75 641.5 840.75 649.75C795.75 661.25 713.5 681 670 663.75C662 662 653.25 659.5 642.25 654.75C623.25 646.75 602 638 575 629.5C544.75 619.75 511.25 621.25 481 626.5C455.5 631 424 642.25 394.25 651.25C360.25 661.75 320.5 668.5 299.75 665.75C236 657 143 632.5 116.5 620.75C96.7501 612 84.2501 597.5 77.5001 584C74.0001 577.25 73.5001 571.5 74.2501 566.75C80.0001 529.5 201 494 483.25 493.25C633 492.75 774 502 813 506.75L813.25 506.25Z" fill="#020202"/>
<path opacity="0.5" d="M813.25 506.5C915.5 519 942.75 566.25 945.25 592C947 609.25 930 623 909.5 629.75C894 633.75 874 640.75 842 648.75C797.5 660 714 680.25 671 663.25C663 661.5 654.25 659 643.25 654.25C624.25 646.25 603.25 637.75 576 628.75C545.75 619 512.25 620.25 481.75 625.5C456.25 629.75 424.75 641 395 650C360.5 660.5 321 667.5 300.5 664.75C237 656 144.25 631.75 117.25 619.75C97.7501 611 85.0001 596.5 78.2501 583C74.7501 576.25 74.2501 570.5 75.0001 565.75C80.7501 529.25 200 493.25 483.75 492.75C633.25 492.25 774.25 501.5 813.25 506.25V506.5Z" fill="#020202"/>
<path opacity="0.5" d="M813 507C914.25 519.25 941.75 566 944.75 591.75C946.75 609 930 622.75 910 629.5C894.75 633.25 875 640.25 843 648.5C798.75 659.75 714.25 680 671.75 663.5C663.75 661.75 655 659.25 644 654.75C625 646.75 604 638.25 576.75 629.25C546.5 619.25 513 620.5 482.5 625.5C457 629.75 425.5 641 395.75 650C361 660.5 321.25 668 301.25 665.25C238.25 656.75 145.25 632.25 117.75 620.25C98.2501 611.75 85.5001 597.25 78.7501 583.75C75.2501 577 74.7501 571.25 75.5001 566.5C81.2501 530.75 198.75 494.5 484.25 493.75C633.75 493.25 774.5 502.5 813.5 507.25L813 507Z" fill="#020202"/>
<path opacity="0.5" d="M813 507.25C913.25 519.5 941 565.5 944.25 591.25C946.5 608.5 930 622.25 910.25 629C895.5 632.75 876 639.75 844 648C800.25 659.25 714.5 679.75 672.75 663.5C664.75 661.75 656 659.5 645 654.75C626.25 646.75 605 638.25 577.75 629C547.5 619 514 620 483.5 625C458.25 629 426.5 640.25 396.5 649.25C361.5 660 321.75 667.5 302 664.75C239.25 656.25 146.25 632 118.25 619.75C98.75 611.25 86.0001 596.75 79.0001 583.25C75.5001 576.5 75 570.75 75.75 566C81.5 530.75 197.25 494.25 484.25 493.75C633.5 493.25 774.25 502.5 813 507.25Z" fill="#020202"/>
<path opacity="0.6" d="M812.75 507.5C912 519.5 940 565 943.5 590.75C945.75 608 929.75 621.75 910.5 628.5C896 632.25 877 639.25 844.75 647.5C801.5 658.75 714.5 679.25 673.25 663.25C665.25 661.5 656.5 659.25 645.25 654.5C626.5 646.75 605.5 638 578 628.75C548 618.5 514.25 619.5 483.75 624.5C458.5 628.5 426.75 639.75 396.75 648.75C361.5 659.5 321.75 667.25 302.25 664.5C239.75 656.25 147 632 118.5 619.5C99.0001 611 86.2501 596.75 79.2501 583.25C75.7501 576.5 75.2501 570.75 76.0001 566C82.0001 531.5 195.75 494.5 484.25 494C633.5 493.5 774 502.75 812.75 507.5Z" fill="#020202"/>
<path opacity="0.6" d="M812.75 507.75C911 519.75 939.25 564.5 943.25 590.25C945.75 607.5 930.25 621.25 911.25 627.75C897 631.5 878.25 638.5 846.25 646.75C803.25 657.75 715 678.75 674.5 663C666.5 661.5 657.75 659 646.5 654.5C627.75 646.75 606.75 638 579.25 628.5C549.25 618.25 515.5 619 484.75 623.75C459.5 627.75 427.75 638.75 397.5 648C362 658.75 322 666.75 302.75 664.25C240.5 656 147.75 632 118.75 619.5C99.2501 611 86.5001 597 79.5001 583.5C76.0001 576.75 75.5001 571 76.2501 566.25C82.2501 532.5 194.25 495.25 484.25 494.5C633.25 494 773.75 503.25 812.5 507.75H812.75Z" fill="#020202"/>
<path opacity="0.6" d="M812.5 508.25C909.75 520 938.25 564.25 942.5 589.75C945.25 607 930 620.75 911.25 627.25C897.25 630.75 879 637.75 846.75 646C804.25 657 714.75 678 675 662.75C667 661.25 658.25 658.75 647 654.25C628.25 646.5 607.25 637.75 579.75 628.25C549.75 617.75 516 618.5 485.25 623.25C460.25 627 428.25 638.25 398 647.25C362.25 658.25 322.25 666.25 303.25 663.75C241.5 655.75 148.75 631.75 119 619C99.5002 610.75 86.7502 596.5 79.7502 583C76.2502 576.25 75.7502 570.5 76.5002 565.75C82.5002 532.5 193 495 484.5 494.5C633.5 494 773.75 503.25 812.5 507.75V508.25Z" fill="#020202"/>
<path opacity="0.6" d="M812.5 508.5C908.75 520.25 937.75 563.75 942 589.25C945 606.25 930 620.25 911.75 626.75C898.25 630.25 880 637.25 848 645.5C805.75 656.5 715.25 677.75 676 662.75C668 661.25 659 659 648 654.25C629.5 646.5 608.25 637.75 580.75 628C550.75 617.5 516.75 618 486.25 622.75C461.25 626.5 429.25 637.5 398.75 646.75C362.75 657.75 322.5 666 304 663.75C242.5 655.75 149.75 632 119.5 619C100 610.75 87.2501 596.75 80.2501 583.25C76.7501 576.5 76.25 571 77 566C83 533.5 191.75 495.75 484.75 495C633.5 494.5 773.75 503.75 812.5 508.25V508.5Z" fill="#020202"/>
<path opacity="0.6" d="M812.25 508.75C907.5 520.5 936.75 563.25 941.5 588.75C944.75 605.75 930 619.75 912.25 626.25C899 629.75 881.25 636.75 849.25 645C807.5 655.75 715.75 677.25 677 662.75C669 661.25 660 659 649 654.25C630.5 646.75 609.5 638 581.75 628C551.75 617.25 517.75 617.75 487 622.25C462 626 430 637 399.5 646.25C363.25 657.25 323 665.75 304.75 663.5C243.5 655.75 151 632 120.25 618.75C100.75 610.5 88.0001 596.5 80.7501 583C77.2501 576.25 76.7501 570.75 77.5001 565.75C83.5001 533.75 190.5 495.75 485 495.25C633.75 494.75 773.75 504 812.5 508.5L812.25 508.75Z" fill="#020202"/>
<path opacity="0.6" d="M812.25 509C906.75 520.5 936 562.75 941 588.25C944.5 605.25 930 619.25 912.75 625.75C899.75 629 882.25 636 850.25 644.5C809 655.25 716 677 678 662.75C670 661.25 661 659 649.75 654.5C631.25 647 610.25 638.25 582.25 628C552.25 617.25 518.25 617.5 487.5 622C462.5 625.5 430.5 636.5 400 645.75C363.5 657 323 665.75 305.25 663.5C244.25 655.75 151.75 632 120.5 619C101.25 610.75 88.0002 597 81.0002 583.5C77.5002 576.75 77.0002 571.25 77.7502 566.25C83.7502 535 189 496.5 485 496C633.75 495.5 773.5 504.75 812 509.25L812.25 509Z" fill="#020202"/>
<path opacity="0.6" d="M812.25 509.5C905.75 521 935.25 562.5 940.75 588C944.5 605 930.25 619.25 913.25 625.25C900.75 628.5 883.5 635.5 851.5 643.75C810.5 654.5 716.5 676.25 679 662.5C671 661 662 658.75 650.75 654.25C632.5 646.75 611.25 638 583.25 627.75C553.25 616.75 519.25 617 488.5 621.25C463.75 624.75 431.5 635.5 400.75 645C364 656.25 323.5 665.25 306 663C245.5 655.5 152.75 631.75 121 618.5C101.75 610.5 88.5001 596.5 81.5001 583C78.0001 576.25 77.5 570.75 78.25 565.75C84.25 535.25 187.75 496.5 485.5 496C634 495.5 773.75 504.75 812.25 509.25V509.5Z" fill="#020202"/>
<path opacity="0.6" d="M812 509.75C904.5 521 934.25 562 940 587.5C943.75 604.5 930.25 618.75 913.5 624.75C901.25 628 884.25 635 852.25 643.25C811.75 654 716.5 675.75 679.5 662.5C671.5 661 662.5 659 651.25 654.25C633 646.75 612 638 583.75 627.5C553.75 616.5 519.75 616.5 489 620.75C464.25 624 432 635 401.25 644.25C364.25 655.5 323.75 664.75 306.25 662.5C246 655 153.5 631.5 121.25 618C102 610 88.7501 596.25 81.7501 582.75C78.2501 576 77.7501 570.5 78.5001 565.75C84.5001 535.75 186.25 496.75 485.5 496.25C634 495.75 773.5 505 812 509.5V509.75Z" fill="#020202"/>
<path opacity="0.6" d="M812 510C903.5 521.25 933.5 561.5 939.5 587C943.5 604 930.25 618.25 914 624.25C902 627.25 885.5 634.25 853.5 642.75C813.5 653.25 717 675.5 680.75 662.25C672.75 661 663.75 658.75 652.5 654.25C634.25 647 613.25 638 585 627.5C555 616.25 521 616.25 490 620.5C465.25 623.75 433 634.5 402 644C364.75 655.5 324 664.75 307 662.75C247 655.5 154.5 632 121.75 618.25C102.5 610.25 89.2501 596.5 82.2501 583C78.7501 576.25 78.2501 570.75 79.2501 566C85.2501 536.75 185.25 497.25 486 497C634.25 496.5 773.75 505.75 812.25 510.25L812 510Z" fill="#020202"/>
<path opacity="0.6" d="M811.75 510.25C902.25 521.25 932.5 561 939 586.5C943.25 603.5 930.25 617.75 914.25 623.75C902.5 626.75 886.25 633.75 854.25 642.25C814.5 652.75 717 675 681.25 662.25C673.25 661 664.25 658.75 653 654.25C634.75 647 613.75 638 585.5 627.25C555.5 616 521.5 615.75 490.5 619.75C466 623 433.5 633.75 402.5 643.25C365 654.75 324.25 664.25 307.5 662.25C247.75 655.25 155.5 631.75 122 617.75C102.75 609.75 89.5001 596.25 82.2501 582.75C78.7501 576 78.2501 570.5 79.2501 565.75C85.2501 537.25 183.75 497.5 485.75 497C634 496.75 773.25 505.75 811.75 510.25Z" fill="#020202"/>
<path opacity="0.7" d="M811.75 510.75C901.25 521.75 931.75 560.75 938.5 586C943 603 930.25 617.25 914.75 623C903.5 626 887.5 633 855.5 641.25C816.25 651.75 717.5 674.25 682.25 661.75C674.25 660.5 665.25 658.25 653.75 653.75C635.75 646.5 614.75 637.5 586.25 626.75C556.5 615.25 522.25 615 491.25 619C466.75 622 434.25 632.75 403 642.25C365.25 653.75 324.25 663.5 308 661.75C248.75 654.75 156.25 631.25 122.25 617.5C103 609.5 89.75 596.25 82.5 582.5C79 575.75 78.5 570.25 79.5 565.5C85.25 537.5 182.25 497.5 485.75 497C633.75 496.75 773 505.75 811.25 510.25L811.75 510.75Z" fill="#020202"/>
<path opacity="0.7" d="M811.5 511C900 521.75 930.75 560.25 938 585.5C942.75 602.5 930.25 616.75 915.25 622.5C904.25 625.25 888.5 632.25 856.75 640.75C818 651 718 673.75 683.25 661.75C675.25 660.5 666.25 658.5 654.75 654C636.75 646.75 615.75 638 587.25 626.75C557.5 615.25 523.25 614.75 492 618.5C467.5 621.5 435 632.25 403.75 641.75C365.75 653.5 324.75 663.5 308.75 661.5C249.75 654.75 157.5 631.25 123 617.25C103.75 609.5 90.5001 596 83.2501 582.5C79.7501 575.75 79.2501 570.25 80.2501 565.5C86.0001 538.25 181.25 498 486.5 497.5C634.5 497.25 773.5 506.25 811.75 510.75L811.5 511Z" fill="#020202"/>
<path opacity="0.7" d="M811.5 511.25C899 522 930 559.75 937.5 585C942.5 602 930.25 616.25 915.75 622C905 624.75 889.75 631.75 857.75 640.25C819.25 650.5 718.25 673.5 684.25 661.75C676.25 660.5 667.25 658.5 655.75 654C637.75 647 616.75 638 588.25 626.75C558.5 615 524 614.5 493 618.25C468.75 621.25 436 631.75 404.75 641.5C366.5 653.25 325.25 663.5 309.75 661.75C251 655 158.75 631.75 123.75 617.5C104.75 609.75 91.2501 596.5 84.0001 582.75C80.5001 576 80.0001 570.5 81.0001 565.75C86.7501 539 180.25 498.5 487 498C635 497.75 773.75 506.75 812 511.25H811.5Z" fill="#020202"/>
<path opacity="0.7" d="M811.25 511.5C898 522 929 559.25 936.75 584.5C942 601.5 930.25 615.75 915.75 621.5C905.5 624.25 890.5 631.25 858.5 639.75C820.5 650 718.25 673 684.75 661.75C676.75 660.5 667.75 658.5 656.25 654C638.5 647 617.5 638 588.75 626.5C559 614.75 524.5 614 493.5 617.75C469.25 620.5 436.5 631.25 405 640.75C366.5 652.5 325.25 663 309.75 661.25C251.25 654.75 159.25 631.5 123.5 617C104.5 609.25 91 596 83.75 582.5C80.25 575.75 79.75 570.25 80.75 565.5C86.5 539.5 178.25 498.5 486.5 498.25C634.25 498 773 507 811.25 511.5Z" fill="#020202"/>
<path opacity="0.7" d="M811.25 512C897 522.5 928.25 558.75 936.5 584.25C942 601.25 930.5 615.5 916.5 621.25C906.5 623.75 891.75 630.75 859.75 639.5C822 649.5 718.5 673 685.75 662C677.75 660.75 668.75 658.75 657.25 654.25C639.5 647.25 618.5 638.25 589.75 626.75C560 614.75 525.5 614 494.5 617.5C470.25 620.25 437.25 630.75 406 640.5C367.25 652.5 325.75 663 310.75 661.25C252.5 654.75 160.5 631.5 124.5 617C105.5 609.25 92.0001 596.25 84.7501 582.5C81.2501 575.75 80.7501 570.25 81.7501 565.5C87.5001 540.25 177.5 499 487.25 498.5C635 498.25 773.5 507.25 811.75 511.75L811.25 512Z" fill="#020202"/>
<path opacity="0.7" d="M811.25 512.25C896 522.5 927.75 558.25 936 583.75C941.5 600.75 930.5 615 917 620.5C907.25 623 893 630 861 638.5C823.75 648.5 719 672 687 661.5C679 660.5 670 658.5 658.5 654C640.75 647 619.75 638 590.75 626.5C561 614.5 526.5 613.5 495.25 617C471 619.5 438 630.25 406.5 639.75C367.5 651.75 326 662.5 311.25 661C253.5 654.75 161.5 631.5 124.75 617C105.75 609.5 92.0001 596.25 84.7501 582.75C81.2501 576 80.7501 570.5 81.7501 565.75C87.5001 541 175.75 499.5 487.25 499.25C634.75 499 773.25 508 811.25 512.5V512.25Z" fill="#020202"/>
<path opacity="0.7" d="M811 512.5C894.75 522.75 926.75 557.75 935.25 583.25C941 600.25 930.25 614.5 917 620C907.5 622.5 893.5 629.5 861.5 638C824.75 648 718.75 671.75 687.25 661.5C679 660.5 670.25 658.5 658.5 654C640.75 647.25 620 638 590.75 626.25C561 614.25 526.5 613 495.25 616.5C471.25 619 438 629.5 406.5 639.25C367.25 651.5 325.75 662.25 311.25 660.75C253.75 654.5 161.75 631.5 124.5 616.75C105.5 609.25 91.7501 596.25 84.5001 582.5C81.0001 575.75 80.5001 570.25 81.5001 565.5C87.2501 541.5 174 499.75 486.75 499.25C634.25 499 772.5 508 810.5 512.5H811Z" fill="#020202"/>
<path opacity="0.7" d="M811 512.75C893.75 522.75 926 557.25 935 582.5C941 599.5 930.5 613.75 917.75 619.25C908.75 621.5 895 628.5 863 637.25C826.5 647.25 719.5 671 688.5 661C680.25 660 671.5 658 659.75 653.5C642.25 646.75 621.25 637.75 592 625.75C562.25 613.5 527.75 612.5 496.5 615.5C472.5 618 439.25 628.5 407.5 638.25C368 650.5 326.25 661.75 312.25 660.25C255 654.25 163.25 631.25 125.25 616.25C106.25 608.75 92.5001 595.75 85.2501 582.25C81.7501 575.5 81.2501 570 82.2501 565.25C88.0001 542 173 499.75 487.25 499.25C634.5 499 772.75 508 810.75 512.5L811 512.75Z" fill="#020202"/>
<path opacity="0.7" d="M810.75 513.25C892.5 523.25 925 557 934.25 582.25C940.5 599.25 930.25 613.5 918 619C909.25 621.25 895.75 628.25 863.75 637C827.75 646.75 719.5 671 689.25 661.25C681 660.25 672.25 658.25 660.5 654C643 647.25 622 638.25 592.75 626C563 613.75 528.5 612.5 497 615.5C473 617.75 439.75 628.25 408 638C368.25 650.25 326.5 661.75 312.75 660.25C255.75 654.5 164 631.25 125.75 616.25C106.75 608.75 93.0002 596 85.7501 582.25C82.2501 575.5 81.5002 570 82.7502 565.25C88.2502 542.5 171.75 500 487.5 499.75C634.75 499.5 772.75 508.5 810.75 513V513.25Z" fill="#020202"/>
<path opacity="0.7" d="M810.75 513.5C891.5 523.25 924.25 556.5 934 581.75C940.5 598.75 930.75 613 918.75 618.25C910.25 620.5 897.25 627.5 865.25 636C829.75 645.75 720.25 670 690.5 660.75C682.25 659.75 673.5 658 661.75 653.5C644.25 646.75 623.5 637.75 594 625.5C564.25 613 529.75 611.75 498.25 614.5C474.5 616.75 441 627.25 409.25 637C369.25 649.5 327.25 661 314 659.75C257.5 654 165.75 631 126.75 616C107.75 608.75 94.0002 596 86.7502 582.25C83.0002 575.5 82.5002 570 83.7502 565.25C89.2502 543.25 171 500.5 488.25 500C635.25 499.75 773.25 508.75 811.25 513.25L810.75 513.5Z" fill="#020202"/>
<path opacity="0.8" d="M810.5 513.75C890.25 523.5 923.25 556 933.25 581.25C940 598.25 930.5 612.5 918.75 617.75C910.75 619.75 897.75 626.75 866 635.5C830.75 645.25 720.25 669.5 691 660.75C682.75 659.75 674 658 662.25 653.5C645 647 624 637.75 594.5 625.25C564.75 612.75 530.25 611.25 498.75 614C475 616.25 441.5 626.5 409.5 636.5C369.25 649 327.25 660.75 314 659.5C257.75 654 166 631 126.5 615.75C107.75 608.5 93.7501 595.75 86.2501 582.25C82.5001 575.5 82.0001 570 83.2501 565.5C88.7501 544 168.75 501 487.75 500.75C634.75 500.5 772.5 509.5 810.25 514L810.5 513.75Z" fill="#020202"/>
<path opacity="0.8" d="M810.5 514.25C889.25 524 922.5 555.75 932.75 581C939.75 597.75 930.5 612.25 919.25 617.5C911.5 619.5 899 626.5 867 635.25C832.25 644.75 720.5 669.5 692 661C683.75 660 675 658.25 663 653.75C645.75 647.25 624.75 638 595.25 625.5C565.75 612.75 530.75 611.25 499.5 614C475.75 616 442.25 626.5 410.25 636.25C369.75 648.75 327.5 660.75 314.75 659.5C258.75 654 167.25 631 127.25 615.75C108.5 608.5 94.5 596 87 582.25C83.25 575.5 82.75 570 84 565.5C89.5 544.75 167.75 501.25 488.25 501C635.25 501 772.75 509.75 810.5 514.25Z" fill="#020202"/>
<path opacity="0.8" d="M810.25 514.5C888.25 524 921.5 555.25 932.25 580.5C939.5 597.25 930.5 611.75 919.75 617C912.25 619 900 625.75 868.25 634.75C833.75 644.25 721 669 693 661C684.75 660.25 676 658.5 664 654C646.75 647.5 625.75 638.25 596.25 625.5C566.75 612.75 531.75 611 500.25 613.5C476.5 615.5 443 625.75 410.75 635.75C370 648.5 327.75 660.75 315.25 659.5C259.5 654.25 168 631.25 127.5 615.75C108.75 608.5 94.7501 596 87.2501 582.5C83.5001 575.75 83.0002 570.25 84.2502 565.75C89.7502 545.75 166.25 502 488.25 501.75C635 501.75 772.5 510.5 810.25 515V514.5Z" fill="#020202"/>
<path opacity="0.8" d="M810.25 514.75C887.25 524.25 920.75 554.75 931.75 580C939 596.75 930.5 611.25 920 616.5C912.75 618.25 901 625.25 869 634.25C835 643.75 721 668.75 693.5 661C685.25 660.25 676.5 658.5 664.5 654C647.5 647.5 626.5 638.5 596.75 625.5C567.25 612.5 532.25 610.75 500.75 613.25C477.25 615.25 443.5 625.5 411.25 635.25C370.25 648 327.75 660.5 315.75 659.25C260.5 654.25 169 631.25 127.75 615.5C109 608.5 95.0001 596 87.5001 582.25C83.7501 575.5 83.2501 570 84.5001 565.5C89.7501 546 164.75 502 488.25 501.75C635 501.75 772.25 510.5 810 515L810.25 514.75Z" fill="#020202"/>
<path opacity="0.8" d="M810 515C886 524.25 920 554.25 931 579.25C938.5 596 930.25 610.5 920.25 615.5C913.5 617.25 901.75 624.25 870 633C836.5 642.25 721.25 667.5 694.5 660.25C686.25 659.5 677.5 657.75 665.5 653.25C648.5 647 627.5 637.75 597.75 624.5C568.25 611.5 533.25 609.5 501.75 611.75C478.25 613.5 444.5 623.75 412 633.75C370.75 646.5 328.25 659.25 316.5 658.25C261.5 653.25 170 630.25 128.25 614.75C109.5 607.75 95.5002 595.25 88.0002 581.75C84.2502 575 83.7502 569.5 85.0002 565C90.2502 546.25 163.75 502 488.75 501.5C635.25 501.5 772.5 510.25 810.25 514.75L810 515Z" fill="#020202"/>
<path opacity="0.8" d="M810 515.5C885 524.75 919.25 554 930.75 579C938.5 595.75 930.75 610.25 921 615.25C914.5 617 903.25 623.75 871.25 632.75C838 642 721.75 667.5 695.5 660.25C687.25 659.5 678.5 657.75 666.5 653.5C649.5 647.25 628.5 638 598.5 624.75C569 611.5 534 609.5 502.25 611.75C478.75 613.5 445 623.75 412.5 633.75C371 646.75 328.5 659.5 317 658.5C262.25 653.75 171 630.75 128.75 615C110 608 95.75 595.75 88.25 582C84.5 575.25 84 569.75 85.25 565.25C90.5 547 162.25 502.5 488.75 502.25C635.25 502.25 772.25 511 809.75 515.5H810Z" fill="#020202"/>
<path opacity="0.8" d="M810 515.75C884 524.75 918.5 553.5 930.25 578.5C938.25 595.25 930.75 609.75 921.5 614.75C915.25 616.5 904.25 623.25 872.5 632.25C839.75 641.5 722.25 667 696.5 660.25C688.25 659.5 679.5 658 667.25 653.5C650.25 647.25 629.5 638 599.25 624.5C569.75 611.25 534.75 609 503 611.25C479.75 612.75 445.75 623 413.25 633C371.5 646 328.75 659 317.5 658.25C263 653.75 171.75 630.5 129 614.75C110.25 607.75 96.0001 595.5 88.5001 582C84.7501 575.25 84.2502 569.75 85.5002 565.25C90.7502 547.75 160.75 502.75 488.75 502.5C635 502.5 772 511.25 809.5 515.75H810Z" fill="#020202"/>
<path opacity="0.8" d="M809.75 516C882.75 525 917.5 553 929.75 578C938 594.75 930.75 609.25 921.75 614.25C916 615.75 905.25 622.75 873.5 631.75C841.25 640.75 722.25 666.75 697.5 660.25C689.25 659.5 680.25 658 668.25 653.5C651.5 647.25 630.5 638 600.25 624.5C570.75 611 535.75 608.75 504 610.75C480.75 612.25 446.75 622.5 414 632.5C371.75 645.5 329.25 659 318.25 658C264.25 653.5 173 630.5 129.5 614.5C110.75 607.75 96.5002 595.5 89.0002 581.75C85.2502 575 84.7502 569.5 86.2502 565C91.2502 548 159.75 503 489.25 502.75C635.5 502.75 772.25 511.5 809.75 516Z" fill="#020202"/>
<path opacity="0.8" d="M809.75 516.25C881.75 525 916.75 552.5 929.25 577.5C937.75 594.25 930.75 609 922.25 613.5C916.75 615 906.5 621.75 874.5 630.75C842.5 639.75 722.5 665.75 698.25 659.75C690 659 681 657.5 669 653C652.25 647 631.25 637.75 601 623.75C571.5 610.25 536.5 607.75 504.75 609.75C481.5 611.25 447.5 621.25 414.75 631.5C372.25 644.75 329.5 658.25 319 657.25C265.25 653 174 630 130.25 613.75C111.5 607 97.2502 595 89.7502 581.25C86.0002 574.5 85.5002 569 87.0002 564.5C92.0002 548.25 158.75 502.75 489.75 502.5C635.75 502.5 772.5 511.25 810 515.75L809.75 516.25Z" fill="#020202"/>
<path opacity="0.8" d="M809.5 516.75C880.5 525.5 915.75 552.25 928.5 577.25C937.25 594 930.5 608.75 922.5 613.25C917.25 614.75 907.25 621.5 875.5 630.5C844 639.5 722.75 665.75 699 660C690.75 659.5 681.75 657.75 669.75 653.5C653 647.5 632 638.25 601.75 624.25C572.25 610.75 537.25 608 505.25 609.75C482 611 448 621.25 415 631.25C372.25 644.5 329.5 658.25 319.25 657.5C265.75 653.5 174.75 630.25 130.25 614.25C111.75 607.5 97.2502 595.5 89.7502 581.75C86.0002 575 85.5002 569.5 87.0002 565C92.0002 549.5 157 503.75 489.75 503.5C635.75 503.5 772.25 512.25 809.75 516.75H809.5Z" fill="#020202"/>
<path opacity="0.9" d="M809.5 517C879.75 525.5 915 551.75 928.25 576.75C937.25 593.5 930.75 608.25 923 612.75C918 614 908.5 621 876.5 630C845.25 639 723 665.25 700 660C691.75 659.5 682.75 657.75 670.75 653.5C654.25 647.5 633.25 638.25 602.75 624C573.25 610.25 538 607.5 506.25 609.25C483.25 610.5 449 620.5 416 630.75C373 644 330 658 320.25 657.25C267 653.25 176 630.25 131 614C112.5 607.25 98.0002 595.5 90.2502 581.75C86.5002 575 86.0002 569.5 87.5002 565C92.2502 550 155.75 504 490 503.75C636 503.75 772.25 512.5 809.5 517Z" fill="#020202"/>
<path opacity="0.9" d="M809.25 517.25C878.5 525.75 914 551.25 927.5 576C936.75 592.75 930.75 607.5 923.25 612C918.75 613.25 909.25 620 877.5 629.25C846.75 638 723.25 664.75 700.75 659.75C692.5 659.25 683.5 657.75 671.25 653.25C654.75 647.25 633.75 638 603.25 623.75C573.75 610 538.5 607 506.75 608.75C483.75 610 449.5 620 416.5 630C373.25 643.5 330.25 657.5 320.75 657C267.75 653.25 177 630 131.25 613.75C112.75 607 98.2501 595.25 90.5001 581.5C86.7501 574.75 86.2501 569.25 87.7501 564.75C92.5001 550.5 154.5 504 490 504C635.75 504 772 512.75 809.25 517.25Z" fill="#020202"/>
<path opacity="0.9" d="M809.25 517.5C877.5 525.75 913.25 550.75 927.25 575.5C936.5 592.25 931 607 924 611.5C919.75 612.75 910.75 619.5 878.75 628.5C848.5 637.25 723.75 664 701.75 659.5C693.5 659 684.5 657.5 672.25 653.25C655.75 647.5 634.75 638 604.25 623.5C574.75 609.5 539.5 606.5 507.5 608C484.5 609 450.25 619 417 629.25C373.5 642.75 330.25 657.25 321 656.5C268.5 653 177.5 629.75 131.5 613.25C113 606.75 98.5 595 90.75 581.25C87 574.5 86.5 569 88 564.5C92.75 550.75 153 504.25 490 504C635.75 504 771.75 512.75 809 517.25L809.25 517.5Z" fill="#020202"/>
<path opacity="0.9" d="M809 518C876.25 526.25 912.25 550.5 926.5 575.25C936 592 930.75 606.75 924.25 611C920.25 612 911.5 619 879.75 628C849.75 636.75 724 663.5 702.75 659.25C694.5 658.75 685.5 657.25 673.25 653C656.75 647.25 636 638 605.25 623.25C576 609.25 540.5 606 508.5 607.5C485.75 608.5 451.25 618.25 418 628.75C374.25 642.25 331 657 322 656.5C269.75 653.25 179 629.75 132.25 613.5C113.75 607 99.2502 595.25 91.5002 581.5C87.7502 574.75 87.2502 569.25 88.7502 565C93.2502 552 152 505 490.75 504.75C636.25 504.75 772.25 513.5 809.5 518H809Z" fill="#020202"/>
<path opacity="0.9" d="M809 518.25C875.25 526.25 911.5 550 926 574.75C935.75 591.5 930.75 606.25 924.5 610.5C920.75 611.5 912.5 618.25 880.75 627.5C851.25 636 724.25 663.25 703.5 659.25C695.25 658.75 686.25 657.25 674 653C657.75 647.25 636.75 638 606 623C576.75 608.75 541.25 605.5 509.25 607C486.5 608 451.75 617.75 418.5 628C374.5 641.75 331 656.5 322.5 656C270.5 653 179.75 629.5 132.5 613C114 606.5 99.5001 595 91.7501 581.25C88.0001 574.5 87.5001 569 89.0001 564.75C93.5001 552.25 150.5 505 490.75 505C636.25 505 772 513.75 809.25 518.25H809Z" fill="#020202"/>
<path opacity="0.9" d="M809 518.5C874.25 526.5 910.75 549.5 925.75 574.25C935.75 591 931 605.75 925.25 610C922 611 913.75 617.75 882 627C853 635.5 724.75 662.75 704.5 659.25C696.25 659 687.25 657.5 675 653C658.75 647.25 637.75 638 606.75 623C577.5 608.75 542 605.25 510 606.5C487.25 607.25 452.5 617 419.25 627.5C375 641.25 331.5 656.25 323.25 655.75C271.5 652.75 181 629.25 133.25 612.75C114.75 606.25 100 595 92.2502 581C88.5002 574.25 88.0002 568.75 89.5002 564.5C94.0002 552.75 149.25 505.25 491 505C636.25 505 772 513.75 809 518.25V518.5Z" fill="#020202"/>
<path opacity="0.9" d="M808.75 518.75C873 526.5 909.75 549 925 573.75C935.25 590.5 930.75 605.25 925.5 609.5C922.5 610.25 914.75 617 883 626.5C854.25 635 725 662.5 705.5 659.25C697.25 659 688.25 657.5 675.75 653.25C659.5 647.75 638.75 638.25 607.5 623C578.25 608.5 542.75 605 510.5 606.25C487.75 607 453 616.75 419.5 627.25C375 641 331.5 656.5 323.5 656C272.25 653.25 181.75 629.75 133.25 613C114.75 606.75 100 595.25 92.2502 581.5C88.5002 574.75 87.7502 569.25 89.5002 565C93.7502 553.75 147.5 506 490.75 506C636 506 771.5 514.75 808.5 519.25L808.75 518.75Z" fill="#020202"/>
<path opacity="0.9" d="M808.75 519.25C872 527 909.25 548.75 924.5 573.5C935 590.25 931 605 926 609C923.25 609.75 915.75 616.5 884 625.75C855.75 634 725.25 661.75 706.25 659C698 658.75 689 657.25 676.5 653C660.5 647.5 639.5 638 608.25 622.75C579 608.25 543.5 604.75 511.25 605.5C488.75 606.25 453.75 615.75 420.25 626.25C375.5 640.25 331.75 655.75 324.25 655.25C273.25 652.75 182.75 629 133.75 612.25C115.25 606 100.5 594.75 92.7502 581C89.0002 574.25 88.2502 568.75 90.0002 564.5C94.2502 554 146.25 506 491.25 505.75C636.5 505.75 771.75 514.5 808.75 519V519.25Z" fill="#020202"/>
<path opacity="0.9" d="M808.5 519.5C871 527 908.25 548.25 924 573C934.75 589.5 931 604.5 926.25 608.5C924 609.25 916.75 616 885 625.25C857 633.5 725.5 661.5 707 659C698.75 658.75 689.75 657.25 677.25 653C661.25 647.5 640.25 638.25 609 622.5C579.75 607.75 544 604.25 512 605C489.5 605.5 454.5 615.25 421 625.75C376 639.75 332.25 655.5 324.75 655.25C274 653 183.75 629.25 134 612.5C115.5 606.25 100.75 595 93.0001 581.25C89.2501 574.5 88.5001 569 90.2501 564.75C94.2501 554.75 144.75 506.5 491.25 506.5C636.25 506.5 771.5 515.25 808.5 519.75V519.5Z" fill="#020202"/>
<path opacity="0.9" d="M808.5 519.75C870 527.25 907.5 547.75 923.5 572.25C934.25 588.75 931 603.75 926.75 607.75C924.75 608.25 917.75 615 886 624.5C858.5 632.75 725.75 660.75 708 658.75C699.75 658.75 690.75 657.25 678.25 653C662.25 647.5 641.25 638.25 610 622.5C580.75 607.75 545 604 512.75 604.75C490.25 605.25 455.25 614.75 421.5 625.25C376.25 639.25 332.25 655.25 325.25 655C274.75 653 184.5 629 134.5 612.25C116.25 606 101.25 595 93.5002 581.25C89.7502 574.5 89.0002 569 90.7502 564.75C94.7502 555.5 143.75 506.75 491.5 506.75C636.5 506.75 771.5 515.5 808.5 520V519.75Z" fill="#020202"/>
<path d="M808.25 520C868.75 527.5 906.5 547.25 923 571.75C934 588.25 931 603.25 927.25 607.25C925.5 607.75 919 614.5 887.25 624C860.25 632 726 660.5 709 658.75C700.75 658.75 691.75 657.25 679.25 653C663.5 647.75 642.5 638.25 611 622.25C581.75 607.5 546 603.5 513.75 604C491.5 604.5 456.25 614 422.5 624.5C377 638.75 333 654.75 326.25 654.75C276 653 186 629 135.25 612C117 606 102 594.75 94.2501 581C90.5001 574.25 89.7501 568.75 91.5001 564.5C95.2501 555.75 142.75 507 492 506.75C636.75 506.75 771.75 515.5 808.5 520H808.25Z" fill="#020202"/>
<path d="M808.25 520.5C867.75 527.75 905.75 547 922.5 571.5C933.75 588 931 603 927.5 607C926 607.5 919.75 614 888 623.5C861.25 631.5 726 660 709.5 658.75C701.25 658.75 692.25 657.25 679.5 653C663.75 647.75 642.75 638.25 611.25 622.25C582 607.25 546.25 603.25 514 603.75C491.75 604 456.5 613.5 422.5 624.25C376.75 638.5 332.5 655 326.25 654.75C276.5 653.5 186.25 629 135 612C116.75 606 101.75 595 93.75 581.25C90 574.5 89.2501 569 91.0001 564.75C94.7501 556.75 140.5 507.5 491.25 507.5C636 507.5 770.75 516.25 807.5 520.75L808.25 520.5Z" fill="#020202"/>
<path d="M808 520.75C866.5 528 904.75 546.25 921.75 571C933.25 587.5 930.75 602.5 927.75 606.25C926.75 606.5 920.75 613.25 889 622.75C862.75 630.5 726.25 659.5 710.5 658.25C702.25 658.25 693.25 656.75 680.5 652.5C664.75 647.25 643.75 637.75 612.25 621.5C583 606.5 547.25 602.25 515 602.5C492.75 602.5 457.5 612.25 423.5 622.75C377.5 637.25 333.25 653.75 327.25 653.5C277.75 652.5 187.75 627.75 136 610.75C117.75 604.75 102.75 593.75 94.7501 580C90.7501 573.25 90.0001 567.75 92.0001 563.5C95.7501 556 139.75 506.5 492.25 506.5C636.75 506.5 771.5 515.25 808.25 519.75L808 520.75Z" fill="#020202"/>
<path d="M808 521C865.5 528 904 545.75 921.5 570.5C933.25 587 931.25 602 928.5 605.75C927.75 606 922 612.75 890.5 622.25C864.5 630 727 659 711.75 658.25C703.5 658.25 694.5 657 681.75 652.75C666 647.5 645 638.25 613.5 621.75C584.25 606.5 548.5 602.25 516 602.5C493.75 602.5 458.5 612 424.25 622.75C378 637.25 333.5 654 328 654C278.75 653.25 188.75 628.5 136.5 611.5C118.25 605.5 103.25 594.75 95.2501 581C91.2501 574.25 90.5001 568.75 92.5001 564.5C96.0001 557.5 138.5 508 492.5 508C637 508 771.5 516.75 808.25 521.25L808 521Z" fill="#020202"/>
<path d="M808 521.25C864.5 528.25 903.25 545.25 921 570C933 586.5 931.25 601.5 929 605.25C928.5 605.25 923.25 612 891.5 621.75C866 629.5 727.25 658.75 712.5 658.25C704.25 658.25 695.25 657 682.5 652.75C667 647.5 646 638.25 614.25 621.5C585 606.25 549.25 601.75 516.75 602C494.75 602 459.25 611.5 425 622.25C378.5 636.75 334 654 328.5 653.75C279.5 653.25 189.75 628.25 136.75 611.25C118.5 605.25 103.5 594.75 95.5001 580.75C91.5001 574 90.7501 568.25 92.7501 564.25C96.2501 558 137 508 492.5 508C636.75 508 771.25 516.75 808 521.25Z" fill="#020202"/>
<path d="M713.25 658.25C695 658.25 673 652.25 614.75 621.5C585.5 606 549.75 601.5 517.25 601.5C465.25 601.5 337.75 653.5 329 653.5C280.5 653.5 190.75 628.25 137 611C118.75 605.25 103.5 594.5 95.7501 580.75C91.7501 574 90.7501 568.25 93.2501 564.25C96.5001 558.5 135.75 508.5 492.75 508.5C849.75 508.5 771.25 517.25 807.75 521.75C863.25 528.5 902.25 545 920.25 569.75C932.5 586.25 931 601.25 929 605C929 605 923.75 611.75 892.25 621.5C867.25 629.25 727.25 658.5 713.25 658.5V658.25Z" fill="#020202"/>
</g>
<path d="M915 298.75C905.75 270 882.75 246.25 852.5 234.5C761.5 198.75 645.25 177.5 518.75 177.5C392.25 177.5 267.25 200.5 174.75 238.75C145 251 122.75 274.5 113.75 303C94.5 364.5 83.75 431.75 83.75 501.75C83.75 571.75 83.75 518.5 84.25 526.75C85.5 563.25 107.75 596.75 143 613.75C193.75 638.25 254.5 658 322.25 671C355.5 677.5 389.25 665.25 412.25 639.25C440.25 608 475.75 589.25 514.75 589.25C553.75 589.25 590 608.25 618 640.25C640.75 666 674.25 678.5 707.5 672.25C773.5 660 833 641.75 883.25 618.75C919.75 602 943.5 568.75 945 531.75C945.5 521.75 945.75 511.75 945.75 501.5C945.75 429.75 934.75 361.25 914.5 298.5L915 298.75Z" fill="url(#paint0_linear_69_2076)"/>
<path d="M850 265.25C631 199.5 397.5 199.5 178.5 265.25C174.5 266.5 170.25 264.25 169.25 260.5C168 256.75 170.25 252.5 174.25 251.25C396 184.5 632.5 184.5 854.25 251.25C858.25 252.5 860.5 256.75 859.25 260.5C858 264.25 853.75 266.5 850 265.25Z" fill="black"/>
<path d="M933.042 378.297L926.81 378.777C921.304 379.201 917.183 384.008 917.607 389.515L923.591 467.285C924.015 472.791 928.822 476.912 934.329 476.488L940.56 476.009C946.067 475.585 950.187 470.777 949.764 465.271L943.78 387.501C943.356 381.994 938.549 377.874 933.042 378.297Z" fill="black"/>
<path d="M98.5427 385.904L92.2961 385.697C86.7763 385.514 82.1532 389.84 81.9701 395.36L79.384 473.317C79.2009 478.837 83.5271 483.46 89.0469 483.643L95.2935 483.85C100.813 484.034 105.436 479.707 105.62 474.188L108.206 396.23C108.389 390.711 104.063 386.087 98.5427 385.904Z" fill="black"/>
</g>
<defs>
<linearGradient id="paint0_linear_69_2076" x1="711.562" y1="716.542" x2="308.188" y2="162.458" gradientUnits="userSpaceOnUse">
<stop stop-color="#2B7FFF"/>
<stop offset="0.355769" stop-color="#1F56FB"/>
<stop offset="0.528846" stop-color="#3A46FB"/>
<stop offset="0.745192" stop-color="#672CFA"/>
<stop offset="0.9" stop-color="#9810FA"/>
</linearGradient>
<clipPath id="clip0_69_2076">
<rect width="1024" height="1024" fill="white"/>
</clipPath>
</defs>
</svg>
