<svg fill="none" height="1024" viewBox="0 0 1024 1024" width="1024" xmlns="http://www.w3.org/2000/svg" xmlns:xlink="http://www.w3.org/1999/xlink"><clipPath id="a"><path d="m-63-63h1150v1150h-1150z"/></clipPath><g clip-path="url(#a)"><g fill="#020202" opacity=".4"><path d="m793.29 536.559c131.33 16.1 147.43 84.18 137.08 109.02-6.67 16.33-34.96 28.06-68.77 37.03-26.68 6.67-57.27 13.11-86.94 19.78-56.81 12.88-88.09 24.38-150.88-4.83-7.13-2.99-14.95-6.67-23.69-11.04-20.24-10.12-40.25-16.1-60.95-18.63-28.98-3.68-57.5 2.3-83.95 10.35-26.22 8.05-51.98 19.32-75.67 26.22-21.62 6.21-54.28 5.29-85.33 0-70.61-12.65-156.4-41.86-161.69-43.47-17.48-13.8-28.52-26.68-34.0396-38.87-2.76-5.98-3.68-11.5-3.45-16.79 2.53-58.88 181.2396-80.04 383.6396-81.19 141.68-.92 277.15 7.82 314.64 12.42z" opacity=".1"/><path d="m793.29 536.789c130.41 15.87 146.74 83.49 136.85 108.33-6.67 16.33-34.5 28.06-68.08 37.03-26.45 6.67-56.58 12.88-86.48 19.78-56.58 12.88-88.78 24.61-150.88-4.37-7.13-2.99-14.95-6.44-23.69-10.81-20.01-10.12-40.02-16.1-60.95-18.63-28.98-3.68-57.5 2.07-83.95 10.12-25.99 7.82-51.98 19.09-75.9 25.99-21.85 6.44-54.51 5.52-85.33 0-70.38-12.42-156.17-41.63-161.92-43.47-17.48-13.8-28.75-26.68-34.0399-38.64-2.76-5.98-3.68-11.5-3.45-16.56 2.53-58.42 179.6299-79.58 383.4099-80.73 141.68-.92 276.92 7.82 314.41 12.42z" opacity=".1"/><path d="m793.06 537.019c129.72 15.87 146.05 82.8 136.39 107.64-6.44 16.33-34.04 28.06-67.16 36.8-25.99 6.67-56.12 12.88-85.79 19.55-56.12 12.65-89.47 24.61-151.11-3.91-7.13-2.99-14.95-6.44-23.69-10.81-20.01-10.12-40.02-16.1-60.95-18.86-28.98-3.91-57.5 1.84-83.95 9.66-25.99 7.82-51.98 19.09-75.9 25.99-22.08 6.44-54.97 5.75-85.33.46-69.92-12.42-155.71-41.4-162.15-43.47-17.48-13.57-28.75-26.45-34.2699-38.64-2.76-5.98-3.68-11.5-3.45-16.56 2.76-57.73 178.2499-79.35 383.1799-80.5 141.68-.92 276.69 7.82 314.18 12.42z" opacity=".1"/><path d="m793.06 537.249c128.8 15.64 145.36 82.11 135.93 106.95-6.21 16.33-33.58 28.06-66.24 36.8-25.76 6.44-55.43 12.88-85.1 19.55-55.66 12.65-90.16 24.84-151.34-3.68-7.13-2.99-14.95-6.44-23.69-10.81-20.01-9.89-40.02-16.1-60.95-18.86-28.98-3.91-57.5 1.61-83.95 9.43-25.99 7.82-51.98 18.86-75.9 25.99-22.31 6.44-55.2 6.21-85.56.69-69.69-12.19-155.48-41.17-162.38-43.24-17.48-13.57-28.75-26.45-34.2697-38.41-2.76-5.98-3.68-11.5-3.45-16.56 2.76-57.27 176.6397-79.12 383.1797-80.04 141.45-.92 276.46 7.82 313.95 12.42z" opacity=".1"/><path d="m792.83 537.709c127.88 15.64 144.67 81.42 135.7 106.03-5.98 16.33-32.89 28.06-65.32 36.8-25.53 6.44-54.97 12.88-84.64 19.55-55.43 12.65-90.85 24.84-151.34-3.22-7.13-2.99-14.95-6.44-23.92-10.81-20.01-9.89-39.79-16.1-60.95-19.09-28.75-4.14-57.5 1.38-84.18 9.2-25.99 7.59-51.98 18.86-76.13 25.76-22.54 6.67-55.66 6.44-85.56 1.15-69.46-12.19-155.71-39.79-162.38-43.24-19.32-10.12-28.75-26.22-34.27-38.41-2.76-5.98-3.68-11.5-3.45-16.56 2.99-56.58 175.03-78.66 382.95-79.81 141.45-.92 276.23 7.82 313.49 12.42z" opacity=".1"/><path d="m792.83 537.939c126.96 15.41 143.98 80.73 135.24 105.34-5.75 16.33-32.43 28.29-64.63 36.8-25.07 6.44-54.28 12.65-83.95 19.55-54.97 12.65-91.54 25.07-151.57-2.76-7.13-2.99-14.95-6.21-23.92-10.58-19.78-9.89-39.79-16.1-60.95-19.09-28.75-4.37-57.5 1.15-84.18 8.74-25.76 7.59-51.98 18.63-76.13 25.76-22.77 6.67-55.89 6.67-85.56 1.38-69-11.96-155.25-39.56-162.61-43.24-19.32-10.12-28.75-25.99-34.27-38.18-2.76-5.98-3.68-11.5-3.45-16.56 2.99-55.89 173.42-78.43 382.72-79.35 141.22-.69 276 7.82 313.26 12.42z" opacity=".2"/><path d="m792.831 538.169c126.04 15.41 143.29 80.04 134.78 104.65-5.52 16.33-31.97 28.29-63.71 36.57-24.84 6.21-53.82 12.65-83.49 19.55-54.51 12.42-92.23 25.07-151.8-2.3-7.13-2.76-14.951-6.21-23.921-10.58-19.78-9.66-39.79-16.1-60.95-19.32-28.75-4.37-57.499.69-84.179 8.51-25.76 7.36-51.981 18.63-76.361 25.76-23 6.67-56.12 6.9-85.56 1.84-68.77-11.96-155.02-39.1-162.84-43.24-19.32-10.12-28.75-25.99-34.27-38.18-2.7595-5.98-3.6795-11.5-3.4495-16.56 3.2195-55.43 171.8095-77.97 382.4905-79.12 141.22-.69 275.77 7.82 313.03 12.42z" opacity=".2"/><path d="m792.6 538.399c125.12 15.18 142.83 79.35 134.55 103.96-5.29 16.33-31.51 28.29-62.79 36.57-24.61 6.21-53.13 12.65-82.8 19.32-54.28 12.42-93.15 25.3-151.8-1.84-7.13-2.76-14.95-6.21-23.92-10.58-19.78-9.66-39.56-16.1-60.95-19.32-28.75-4.6-57.73.46-84.41 8.05-25.76 7.36-51.98 18.4-76.36 25.53-23.23 6.9-56.58 7.13-85.56 2.07-68.54-11.96-154.79-38.87-162.84-43.24-19.32-10.12-28.75-25.76-34.5-37.95-2.7598-5.98-3.6798-11.5-3.4498-16.56 3.2198-54.74 170.1998-77.74 382.4898-78.66 140.99-.69 275.54 7.82 312.8 12.42z" opacity=".2"/><path d="m792.6 538.859c124.2 15.18 142.14 78.66 134.09 103.27-5.06 16.33-31.05 28.29-62.1 36.57-24.38 6.21-52.67 12.42-82.34 19.32-53.82 12.42-93.84 25.3-152.03-1.38-7.13-2.76-15.18-5.98-23.92-10.35-19.55-9.66-39.56-16.1-60.95-19.55-28.75-4.83-57.73.23-84.41 7.82-25.53 7.13-51.98 18.4-76.59 25.53-23.46 6.9-56.81 7.36-85.56 2.53-68.31-11.73-154.56-38.64-163.07-43.01-19.32-9.89-28.75-25.76-34.5-37.95-2.7598-5.98-3.6798-11.5-3.4498-16.56 3.2198-54.05 168.5898-77.51 382.2598-78.43 140.99-.69 275.31 7.82 312.57 12.42z" opacity=".2"/><path d="m792.37 539.089c123.28 14.95 141.45 77.97 133.86 102.58-5.06 16.33-30.59 28.29-61.18 36.57-23.92 5.98-51.98 12.42-81.65 19.32-53.59 12.42-94.53 25.53-152.26-.92-7.13-2.76-15.18-5.98-24.15-10.35-19.55-9.66-39.56-15.87-60.95-19.55-28.75-4.83-57.73 0-84.41 7.59-25.53 7.13-51.98 18.17-76.59 25.3-23.69 6.9-57.27 7.59-85.56 2.76-67.85-11.73-154.1-38.41-163.3-43.01-19.32-9.89-28.75-25.53-34.5-37.72-2.7596-5.98-3.6796-11.5-3.4496-16.56 3.4496-53.59 167.2096-77.05 382.0296-78.2 140.99-.69 275.08 7.82 312.11 12.42z" opacity=".2"/><path d="m792.37 539.319c122.59 14.95 140.76 77.28 133.4 101.89-4.83 16.33-29.9 28.29-60.26 36.57-23.69 5.98-51.52 12.42-80.96 19.32-53.13 12.42-95.22 25.53-152.26-.46-7.13-2.76-15.18-5.98-24.15-10.35-19.55-9.43-39.33-15.87-61.18-19.78-28.75-5.06-57.73 0-84.41 7.13-25.53 6.9-51.98 18.17-76.59 25.3-23.92 7.13-57.5 7.82-85.79 2.99-67.62-11.5-153.87-38.18-163.53-43.01-19.09-9.89-28.75-25.53-34.5-37.49-2.7599-5.98-3.6799-11.5-3.4499-16.56 3.4499-52.9 165.5999-76.82 381.7999-77.74 140.76-.69 274.85 7.82 311.88 12.42z" opacity=".2"/><path d="m792.14 539.549c121.67 14.95 140.07 76.59 132.94 100.97-4.6 16.33-29.44 28.29-59.34 36.34-23.46 5.98-50.83 12.19-80.5 19.09-52.67 12.19-95.91 25.76-152.49 0-7.36-2.76-15.18-5.98-24.15-10.35-19.55-9.43-39.33-15.87-61.18-19.78-28.75-5.06-57.73-.46-84.64 6.9-25.53 6.9-51.98 17.94-76.82 25.3-24.15 7.13-57.96 8.05-85.79 3.45-67.39-11.5-153.64-37.95-163.53-43.01-19.09-9.89-28.98-25.3-34.5-37.49-2.7599-5.98-3.6799-11.5-3.4499-16.56 3.6799-52.44 163.9899-76.59 381.5699-77.51 140.76-.69 274.62 7.82 311.65 12.42z" opacity=".2"/><path d="m792.14 540.009c120.75 14.72 139.38 75.9 132.71 100.28-4.37 16.1-28.98 28.29-58.65 36.34-23 5.75-50.14 12.19-79.81 19.09-52.44 12.19-96.6 25.76-152.72.23-7.36-2.53-15.18-5.75-24.15-10.12-19.32-9.43-39.33-15.87-61.18-20.01-28.52-5.29-57.73-.69-84.64 6.44-25.3 6.9-51.98 17.94-76.82 25.07-24.61 7.36-58.19 8.51-85.79 3.68-67.16-11.27-153.18-37.49-163.76-43.01-19.09-9.66-28.98-25.3-34.5-37.26-2.76-5.98-3.6797-11.5-3.4497-16.56 3.6797-51.75 162.3797-76.13 381.5697-77.05 140.53-.69 274.39 7.82 311.42 12.42z" opacity=".2"/><path d="m791.91 540.239c119.83 14.72 138.69 75.21 132.25 99.59-4.14 16.1-28.52 28.29-57.73 36.34-22.77 5.75-49.68 12.19-79.35 19.09-51.98 12.19-97.29 25.76-152.72.69-7.36-2.53-15.18-5.75-24.15-10.12-19.32-9.2-39.1-15.87-61.18-20.01-28.52-5.52-57.73-.92-84.64 6.21-25.3 6.67-51.98 17.71-77.05 25.07-24.84 7.36-58.42 8.74-85.79 4.14-66.7-11.27-152.95-37.26-163.99-42.78-19.09-9.66-28.98-25.07-34.73-37.26-2.76-5.98-3.6797-11.5-3.4497-16.56 3.6797-51.06 160.7697-75.9 381.3397-76.82 140.53-.69 274.16 7.82 311.19 12.42z" opacity=".2"/><path d="m791.91 540.469c118.91 14.49 138 74.52 132.02 98.9-3.91 16.1-28.06 28.29-56.81 36.34-22.54 5.75-48.99 12.19-78.66 19.09-51.52 12.19-97.98 25.99-152.95 1.15-7.36-2.53-15.18-5.75-24.38-10.12-19.32-9.2-39.1-15.87-61.18-20.24-28.52-5.52-57.73-1.15-84.87 5.98-25.3 6.67-51.98 17.71-77.05 25.07s-58.88 8.97-85.79 4.37c-66.47-11.04-152.72-37.03-163.99-42.78-19.09-9.66-28.98-24.84-34.73-37.03-2.76-5.98-3.6798-11.5-3.45-16.33 3.91-50.6 159.16-75.44 381.11-76.36 140.3-.69 273.7 7.82 310.73 12.42z" opacity=".2"/><path d="m791.91 540.699c117.99 14.49 137.31 73.83 131.56 98.21-3.91 16.1-27.6 28.29-56.12 36.11-22.31 5.52-48.53 11.96-78.2 19.09-51.29 11.96-98.67 25.99-153.18 1.61-7.36-2.53-15.18-5.52-24.38-9.89-19.32-9.2-39.1-15.87-61.18-20.24-28.52-5.75-57.96-1.38-84.87 5.52-25.3 6.44-51.98 17.48-77.28 24.84-25.3 7.59-59.11 9.2-85.79 4.83-66.24-11.04-152.26-36.8-164.22-42.78-19.09-9.43-28.98-24.84-34.73-37.03-2.76-5.98-3.6798-11.5-3.45-16.33 3.91-49.91 157.55-75.21 380.88-76.13 140.3-.69 273.47 7.82 310.5 12.42z" opacity=".3"/><path d="m791.68 541.159c117.07 14.26 136.62 73.14 131.1 97.52-3.68 16.1-26.91 28.29-55.2 36.11-21.85 5.52-47.84 11.96-77.51 18.86-50.83 11.96-99.36 26.22-153.18 2.07-7.36-2.53-15.18-5.52-24.38-9.89-19.09-8.97-38.87-15.87-61.18-20.47-28.52-5.75-57.96-1.61-84.87 5.29-25.07 6.44-51.98 17.48-77.28 24.84-25.53 7.59-59.57 9.43-86.02 5.06-65.78-10.81-152.03-36.57-164.45-42.78-18.86-9.43-28.98-24.61-34.73-36.8-2.76-5.98-3.68-11.5-3.45-16.33 4.14-49.22 155.94-74.98 380.88-75.9 140.07-.69 273.24 7.82 310.27 12.42z" opacity=".3"/><path d="m791.68 541.389c116.15 14.26 135.93 72.45 130.87 96.83-3.45 16.1-26.45 28.29-54.28 36.11-21.62 5.52-47.38 11.96-77.05 18.86-50.37 11.96-100.05 26.22-153.41 2.53-7.36-2.53-15.18-5.52-24.38-9.89-19.09-8.97-38.87-15.87-61.18-20.47-28.52-5.98-57.96-1.84-84.87 5.06-25.07 6.21-51.98 17.25-77.28 24.61-25.76 7.59-59.8 9.66-86.02 5.29-65.55-10.81-151.8-36.34-164.68-42.78-18.86-9.43-28.98-24.61-34.73-36.8-2.76-5.98-3.68-11.5-3.22-16.33 4.14-48.76 154.56-74.52 380.65-75.44 140.07-.69 273.01 7.82 310.04 12.42z" opacity=".3"/><path d="m791.45 541.619c115.46 14.03 135.24 71.76 130.41 95.91-3.22 16.1-25.99 28.29-53.36 36.11-21.39 5.29-46.69 11.73-76.36 18.86-50.14 11.96-100.74 26.45-153.64 2.99-7.36-2.53-15.18-5.52-24.38-9.66-19.09-8.97-38.87-15.87-61.18-20.7-28.52-5.98-57.96-2.07-85.1 4.6-25.07 6.21-52.21 17.25-77.51 24.61-25.99 7.82-60.26 9.89-86.02 5.75-65.32-10.58-151.34-36.11-164.68-42.55-18.86-9.43-28.98-24.38-34.96-36.57-2.99-5.98-3.68-11.5-3.22-16.33 4.14-48.07 152.95-74.29 380.42-75.21 140.07-.69 272.78 7.82 309.81 12.42z" opacity=".3"/><path d="m791.45 541.849c114.54 14.03 134.55 71.07 129.95 95.22-2.99 16.1-25.53 28.29-52.67 36.11-20.93 5.29-46.23 11.73-75.67 18.86-49.68 11.73-101.43 26.45-153.87 3.45-7.36-2.3-15.18-5.29-24.61-9.66-18.86-8.97-38.64-15.87-61.18-20.7-28.52-6.21-57.96-2.3-85.1 4.37-24.84 6.21-52.21 17.02-77.51 24.61-26.22 7.82-60.49 10.12-86.02 5.98-65.09-10.58-151.11-35.88-164.91-42.55-18.86-9.2-28.98-24.38-34.96-36.57-2.99-5.98-3.68-11.5-3.22-16.33 4.37-47.61 151.34-73.83 380.19-74.75 139.84-.69 272.55 7.82 309.35 12.42z" opacity=".3"/><path d="m791.22 542.309c113.62 13.8 133.86 70.38 129.72 94.53-2.76 16.1-25.07 28.29-51.75 35.88-20.7 5.29-45.54 11.73-75.21 18.63-49.22 11.73-102.35 26.68-153.87 3.68-7.36-2.3-15.18-5.29-24.61-9.66-18.86-8.74-38.64-15.87-61.41-20.93-28.29-6.44-57.96-2.53-85.1 3.91-24.84 5.98-52.21 17.02-77.74 24.38-26.45 7.82-60.72 10.35-86.02 6.44-64.63-10.35-150.88-35.42-165.14-42.55-18.86-9.2-28.98-24.15-34.96-36.34-2.99-5.98-3.68-11.5-3.22-16.33 4.37-46.92 149.73-73.6 379.96-74.52 139.84-.69 272.32 7.82 309.12 12.42z" opacity=".3"/><path d="m791.22 542.539c112.7 13.8 133.17 69.69 129.26 93.84-2.53 16.1-24.61 28.29-50.83 35.88-20.47 5.06-45.08 11.5-74.52 18.63-48.99 11.73-103.04 26.68-154.1 4.14-7.36-2.3-15.18-5.29-24.61-9.66-18.86-8.74-38.64-15.87-61.41-20.93-28.29-6.44-57.96-2.76-85.33 3.68-24.84 5.98-52.21 16.79-77.74 24.38-26.68 8.05-61.18 10.81-86.02 6.67-64.4-10.35-150.42-35.19-165.14-42.55-18.86-9.2-29.21-23.92-34.96-36.34-2.99-5.98-3.68-11.5-3.22-16.33 4.37-46.23 148.12-73.37 379.96-74.06 139.61-.69 272.09 7.82 308.89 12.42z" opacity=".3"/><path d="m790.99 542.769c111.78 13.57 132.48 69 129.03 93.15-2.53 16.1-23.92 28.29-50.14 35.88-20.24 5.06-44.39 11.5-74.06 18.63-48.53 11.73-103.73 26.91-154.33 4.6-7.36-2.3-15.18-5.06-24.61-9.43-18.86-8.74-38.41-15.87-61.41-21.16-28.29-6.67-57.96-2.99-85.33 3.45-24.84 5.75-52.21 16.79-77.97 24.38-26.91 8.05-61.41 11.04-86.25 7.13-64.17-10.12-150.19-34.96-165.37-42.32-18.86-9.2-29.21-23.92-34.96-36.11-2.99-5.98-3.68-11.5-3.22-16.33 4.37-45.77 146.51-72.91 379.73-73.83 139.61-.69 271.86 7.82 308.66 12.42z" opacity=".3"/><path d="m790.99 543.229c110.86 13.57 132.02 68.31 128.57 92.46-2.3 16.1-23.46 28.29-49.22 35.88-19.78 5.06-43.7 11.5-73.37 18.63-48.3 11.5-104.42 26.91-154.33 5.06-7.36-2.3-15.18-5.06-24.61-9.43-18.63-8.51-38.41-15.64-61.41-21.16-28.29-6.67-58.19-3.22-85.33 2.99-24.61 5.75-52.21 16.56-77.97 24.15-27.14 8.05-61.87 11.27-86.25 7.36-63.94-10.12-149.96-34.73-165.6-42.32-18.63-8.97-29.21-23.69-35.19-36.11-2.99-5.98-3.68-11.5-3.22-16.33 4.6-45.08 144.9-72.68 379.5-73.6 139.38-.69 271.63 7.82 308.43 12.42z" opacity=".3"/><path d="m790.99 543.459c109.94 13.34 131.33 67.62 128.11 91.77-2.07 16.1-23 28.29-48.3 35.65-19.55 5.06-43.24 11.27-72.91 18.4-47.84 11.5-105.11 27.14-154.56 5.52-7.36-2.3-15.18-5.06-24.61-9.43-18.63-8.51-38.41-15.64-61.41-21.39-28.29-6.9-58.19-3.45-85.33 2.76-24.61 5.75-52.21 16.33-77.97 24.15-27.37 8.28-62.1 11.5-86.25 7.59-63.48-10.12-149.5-34.5-165.83-42.32-18.63-8.97-29.21-23.69-35.19-35.88-2.99-5.98-3.68-11.5-3.22-16.33 4.6-44.39 143.52-72.45 379.27-73.14 139.38-.69 271.4 7.82 307.97 12.42z" opacity=".3"/><path d="m790.76 543.689c109.02 13.34 130.64 66.7 127.88 91.08-1.84 16.1-22.54 28.29-47.38 35.65-19.32 4.83-42.55 11.27-72.22 18.4-47.38 11.5-105.8 27.14-154.79 5.98-7.36-2.3-15.18-5.06-24.84-9.2-18.63-8.51-38.18-15.64-61.41-21.39-28.29-6.9-58.19-3.68-85.56 2.3-24.61 5.52-52.21 16.33-78.2 23.92-27.6 8.28-62.56 11.73-86.25 8.05-63.25-9.89-149.27-34.27-165.83-42.32-18.63-8.97-29.21-23.46-35.19-35.88-2.99-5.98-3.68-11.5-3.22-16.33 4.6-43.93 141.91-71.99 379.27-72.91 139.38-.69 271.17 7.82 307.74 12.42z" opacity=".4"/><path d="m790.76 543.919c108.33 13.11 129.95 66.01 127.42 90.16-1.61 16.1-22.08 28.29-46.69 35.65-18.86 4.83-42.09 11.27-71.53 18.4-47.15 11.5-106.49 27.14-154.79 6.44-7.36-2.07-15.18-4.83-24.84-9.2-18.63-8.51-38.18-15.64-61.41-21.62-28.29-7.13-58.19-3.91-85.56 2.07-24.38 5.52-52.21 16.1-78.2 23.92-27.83 8.28-62.79 11.96-86.25 8.28-63.02-9.89-149.04-34.04-166.06-42.32-18.63-8.97-29.21-23.46-35.19-35.65-2.99-5.98-3.68-11.5-3.22-16.33 4.83-43.24 140.3-71.76 379.04-72.45 139.15-.69 270.94 7.82 307.51 12.42z" opacity=".4"/><path d="m790.53 544.379c107.41 13.11 129.26 65.32 126.96 89.47-1.38 16.1-21.62 28.29-45.77 35.65-18.63 4.83-41.4 11.27-71.07 18.4-46.69 11.27-107.18 27.37-155.02 6.9-7.36-2.07-15.41-4.83-24.84-9.2-18.4-8.28-37.95-15.64-61.41-21.62-28.29-7.13-58.19-4.14-85.56 1.84-24.38 5.29-52.21 16.1-78.43 23.92-28.06 8.51-63.25 12.19-86.25 8.74-62.79-9.66-148.58-33.81-166.29-42.09-18.63-8.74-29.21-23.23-35.19-35.65-2.99-5.98-3.68-11.5-3.22-16.1 4.83-42.55 138.69-71.3 378.81-72.22 139.15-.69 270.71 7.82 307.28 12.42z" opacity=".4"/><path d="m790.53 544.609c106.49 12.88 128.57 64.63 126.73 88.78-1.15 16.1-20.93 28.52-44.85 35.65-18.4 4.6-40.94 11.04-70.38 18.4-46.23 11.27-107.87 27.37-155.25 7.13-7.36-2.07-15.41-4.83-24.84-9.2-18.4-8.28-37.95-15.64-61.41-21.85-28.06-7.36-58.19-4.37-85.79 1.38-24.38 5.29-52.21 15.87-78.43 23.69-28.29 8.51-63.48 12.42-86.48 8.97-62.33-9.66-148.35-33.58-166.29-42.09-18.63-8.74-29.21-23.23-35.42-35.42-2.99-5.98-3.68-11.5-3.22-16.1 4.83-42.09 137.08-71.07 378.58-71.76 138.92-.69 270.48 7.82 307.05 12.42z" opacity=".4"/><path d="m790.3 544.839c105.57 12.88 127.88 63.94 126.27 88.09-.92 15.87-20.47 28.52-44.16 35.42-18.17 4.6-40.25 11.04-69.92 18.17-46 11.27-108.56 27.6-155.25 7.59-7.36-2.07-15.41-4.83-24.84-8.97-18.4-8.28-37.95-15.64-61.41-21.85-28.06-7.59-58.19-4.83-85.79 1.15-24.38 5.06-52.21 15.87-78.66 23.69-28.52 8.51-63.71 12.88-86.48 9.43-62.1-9.43-148.12-33.35-166.52-42.09s-29.21-23-35.42-35.19c-2.99-5.98-3.68-11.5-3.22-16.1 4.83-41.4 135.47-70.84 378.58-71.53 138.92-.69 270.25 7.82 306.59 12.42z" opacity=".4"/><path d="m790.3 545.069c104.65 12.88 127.19 63.25 126.04 87.4-.92 15.87-20.01 28.52-43.24 35.42-17.71 4.6-39.79 11.04-69.23 18.17-45.54 11.27-109.25 27.6-155.48 8.05-7.36-2.07-15.41-4.6-25.07-8.97-18.17-8.05-37.72-15.64-61.64-22.08-28.06-7.59-58.19-5.06-85.79.92-24.15 5.06-52.21 15.64-78.66 23.69-28.75 8.74-64.17 13.11-86.48 9.66-61.87-9.43-147.66-33.12-166.75-42.09-18.4-8.74-29.21-22.77-35.42-35.19-2.99-5.98-3.68-11.5-3.22-16.1 5.06-40.94 133.86-70.38 378.35-71.07 138.69-.46 270.02 7.82 306.36 12.42z" opacity=".4"/><path d="m790.07 545.529c103.73 12.65 126.5 62.56 125.58 86.71-.69 15.87-19.55 28.52-42.32 35.42-17.48 4.37-39.1 10.81-68.77 18.17-45.08 11.04-109.94 27.83-155.71 8.51-7.36-2.07-15.41-4.6-25.07-8.97-18.17-8.05-37.72-15.64-61.64-22.08-28.06-7.82-58.42-5.29-85.79.46-24.15 5.06-52.21 15.64-78.66 23.46-28.98 8.74-64.4 13.34-86.48 9.89-61.64-9.2-147.43-32.89-166.98-42.09-18.4-8.51-29.44-22.77-35.42-34.96-2.99-5.98-3.68-11.5-3.22-16.1 5.06-40.25 132.25-70.15 378.12-70.84 138.69-.46 269.79 7.82 306.13 12.42z" opacity=".4"/><path d="m790.07 545.759c102.81 12.65 125.81 61.87 125.12 86.02-.46 15.87-19.09 28.52-41.4 35.42-17.25 4.37-38.64 10.81-68.08 18.17-44.85 11.04-110.63 27.83-155.71 8.97-7.36-2.07-15.41-4.6-25.07-8.74-18.17-8.05-37.72-15.64-61.64-22.31-28.06-7.82-58.42-5.52-86.02 0-24.15 4.83-52.21 15.41-78.89 23.46-29.21 8.74-64.86 13.57-86.48 10.35-61.18-9.2-146.97-32.66-166.98-41.86-18.4-8.51-29.44-22.54-35.42-34.96-2.99-5.98-3.68-11.5-3.22-16.1 5.06-39.56 130.87-69.92 377.89-70.61 138.46-.46 269.56 7.82 305.9 12.42z" opacity=".4"/><path d="m790.07 545.989c101.89 12.42 125.12 61.18 124.89 85.1-.23 15.87-18.63 28.52-40.71 35.19-16.79 4.37-37.95 10.81-67.39 17.94-44.39 11.04-111.55 28.06-155.94 9.43-7.36-1.84-15.41-4.37-25.07-8.74-18.17-8.05-37.49-15.64-61.64-22.31-28.06-8.05-58.42-5.75-86.02 0-23.92 4.83-52.21 15.41-78.89 23.46-29.44 8.97-65.09 13.8-86.48 10.58-60.95-8.97-146.74-32.43-167.21-41.86-18.4-8.51-29.44-22.54-35.65-34.73-2.99-5.98-3.68-11.5-3.22-16.1 5.06-39.1 129.26-69.46 377.66-70.15 138.46-.46 269.33 7.82 305.67 12.42z" opacity=".4"/><path d="m789.84 546.219c101.2 12.42 124.43 60.49 124.43 84.41 0 15.87-17.94 28.52-39.79 35.19-16.56 4.14-37.26 10.58-66.93 17.94-43.93 11.04-112.24 28.06-156.17 9.89-7.36-1.84-15.41-4.37-25.07-8.74-17.94-7.82-37.49-15.41-61.64-22.54-28.06-8.05-58.42-5.98-86.02-.46-23.92 4.6-52.21 15.18-79.12 23.23-29.67 8.97-65.55 14.03-86.71 11.04-60.72-8.97-146.51-32.2-167.44-41.86-18.4-8.51-29.44-22.31-35.65-34.73-2.99-5.98-3.68-11.5-3.22-16.1 5.06-38.41 127.65-69.23 377.66-69.92 138.46-.46 269.1 7.82 305.21 12.42z" opacity=".4"/><path d="m789.84 546.679c100.28 12.19 123.74 59.8 124.2 83.72 0 15.87-17.48 28.52-38.87 35.19-16.33 4.14-36.8 10.58-66.24 17.94-43.7 10.81-112.93 28.29-156.17 10.35-7.36-1.84-15.41-4.37-25.3-8.74-17.94-7.82-37.49-15.41-61.64-22.54-28.06-8.28-58.42-6.21-86.25-.69-23.92 4.6-52.21 15.18-79.12 23.23-29.9 9.2-65.78 14.26-86.71 11.27-60.26-8.74-146.05-31.97-167.44-41.86-18.4-8.28-29.44-22.31-35.65-34.5-2.99-5.98-3.68-11.5-2.99-16.1 5.06-37.72 126.04-68.77 377.43-69.46 138.23-.46 268.87 7.82 304.98 12.42z" opacity=".5"/><path d="m789.61 546.909c99.36 12.19 123.28 59.11 123.74 83.03.46 15.87-17.02 28.52-38.18 35.19-16.1 4.14-36.11 10.58-65.78 17.94-43.24 10.81-113.62 28.29-156.4 10.58-7.36-1.84-15.41-4.37-25.3-8.51-17.94-7.82-37.26-15.41-61.64-22.77-27.83-8.28-58.42-6.44-86.25-1.15-23.92 4.6-52.21 14.95-79.12 23-30.13 9.2-66.01 14.72-86.71 11.73-60.03-8.74-145.82-31.74-167.67-41.63-18.17-8.28-29.44-22.08-35.65-34.5-2.99-5.98-3.68-11.5-2.99-16.1 5.29-37.26 124.43-68.54 377.2-69.23 138.23-.46 268.64 8.05 304.75 12.42z" opacity=".5"/><path d="m789.61 547.139c98.44 11.96 122.59 58.42 123.28 82.34.46 15.87-16.56 28.52-37.26 34.96-15.64 3.91-35.65 10.35-65.09 17.94-43.01 10.81-114.31 28.52-156.63 11.04-7.36-1.84-15.41-4.14-25.3-8.51-17.71-7.82-37.26-15.41-61.64-22.77-27.83-8.51-58.42-6.67-86.25-1.38-23.69 4.37-52.21 14.95-79.35 23-30.36 9.2-66.47 14.95-86.71 11.96-59.8-8.51-145.36-31.51-167.9-41.63-18.17-8.28-29.44-22.08-35.65-34.27-2.99-5.98-3.68-11.5-2.99-16.1 5.29-36.57 122.82-68.31 376.97-68.77 138-.46 268.41 8.05 304.52 12.42z" opacity=".5"/><path d="m789.38 547.369c97.52 11.96 121.9 57.73 123.05 81.65.69 15.87-16.1 28.52-36.34 34.96-15.41 3.91-34.96 10.35-64.63 17.71-42.55 10.58-115 28.52-156.63 11.5-7.36-1.84-15.41-4.14-25.3-8.51-17.71-7.59-37.26-15.41-61.64-23-27.83-8.51-58.42-6.9-86.25-1.84-23.69 4.37-52.44 14.72-79.35 23-30.59 9.43-66.7 15.18-86.71 12.19-59.57-8.51-145.13-31.28-168.13-41.63-18.17-8.28-29.44-21.85-35.65-34.27-2.99-6.21-3.68-11.5-2.99-16.1 5.29-35.88 121.21-67.85 376.97-68.54 138-.46 268.18 8.05 304.29 12.42z" opacity=".5"/><path d="m789.38 547.829c96.6 11.73 121.21 57.04 122.59 80.96.92 15.87-15.64 28.52-35.42 34.96-15.18 3.91-34.5 10.35-63.94 17.71-42.09 10.58-115.69 28.52-156.86 11.96-7.36-1.84-15.41-4.14-25.3-8.28-17.71-7.59-37.03-15.41-61.64-23-27.83-8.74-58.65-7.13-86.48-2.07-23.69 4.14-52.44 14.72-79.58 22.77-30.82 9.43-67.16 15.41-86.71 12.65-59.11-8.28-144.9-31.05-168.13-41.63-18.17-8.05-29.44-21.62-35.88-34.04-2.99-6.21-3.68-11.5-2.99-16.1 5.29-35.42 119.83-67.62 376.74-68.31 137.77-.46 267.95 8.05 303.83 12.42z" opacity=".5"/><path d="m789.15 548.059c95.68 11.73 120.52 56.35 122.13 80.04 1.15 15.87-14.95 28.52-34.73 34.96-14.95 3.68-33.81 10.12-63.48 17.71-41.86 10.58-116.38 28.75-157.09 12.42-7.36-1.61-15.41-4.14-25.53-8.28-17.71-7.59-37.03-15.41-61.87-23.23-27.83-8.74-58.65-7.36-86.48-2.3-23.46 4.14-52.44 14.49-79.58 22.77-31.05 9.43-67.39 15.64-86.94 12.88-58.88-8.28-144.44-30.82-168.36-41.63-18.17-8.05-29.67-21.62-35.88-34.04-2.99-6.21-3.68-11.5-2.99-15.87 5.29-34.73 118.22-67.16 376.51-67.85 137.77-.46 267.72 8.05 303.6 12.42z" opacity=".5"/><path d="m789.15 548.289c94.76 11.5 119.83 55.66 121.9 79.35 1.38 15.87-14.49 28.52-33.81 34.96-14.49 3.68-33.35 10.12-62.79 17.71-41.4 10.58-117.07 28.75-157.09 12.88-7.36-1.61-15.41-3.91-25.53-8.28-17.48-7.36-37.03-15.41-61.87-23.23-27.83-8.97-58.65-7.59-86.48-2.76-23.46 4.14-52.44 14.49-79.81 22.77-31.28 9.66-67.85 15.87-86.94 13.34-58.65-8.05-144.21-30.59-168.59-41.4-18.17-8.05-29.67-21.39-35.88-33.81-3.22-6.21-3.68-11.5-2.99-15.87 5.29-34.27 116.61-66.93 376.28-67.62 137.77-.46 267.49 8.05 303.37 12.42z" opacity=".5"/><path d="m789.15 548.519c94.07 11.5 119.14 54.97 121.44 78.66 1.61 15.87-14.03 28.52-32.89 34.73-14.26 3.68-32.66 10.12-62.1 17.48-40.94 10.35-117.76 28.98-157.32 13.34-7.36-1.61-15.41-3.91-25.53-8.28-17.48-7.36-36.8-15.18-61.87-23.46-27.83-8.97-58.65-7.82-86.71-2.99-23.46 3.91-52.44 14.26-79.81 22.54-31.74 9.66-68.08 16.1-86.94 13.57-58.42-8.05-143.75-30.36-168.59-41.4-17.94-8.05-29.67-21.39-35.88-33.81-3.22-6.21-3.68-11.5-2.99-15.87 5.29-33.58 115-66.7 376.05-67.16 137.54-.46 267.26 8.05 303.14 12.42z" opacity=".5"/><path d="m788.92 548.979c93.15 11.27 118.45 54.28 121.21 77.97 1.84 15.87-13.57 28.52-31.97 34.73-14.03 3.45-32.2 9.89-61.64 17.48-40.71 10.35-118.45 28.98-157.55 13.8-7.36-1.61-15.41-3.91-25.53-8.05-17.48-7.36-36.8-15.18-61.87-23.46-27.83-9.2-58.65-8.05-86.71-3.45-23.46 3.91-52.44 14.26-79.81 22.54-31.97 9.66-68.54 16.56-86.94 14.03-57.96-7.82-143.52-30.36-168.82-41.4-17.94-7.82-29.67-21.16-35.88-33.58-3.22-6.21-3.68-11.5-2.99-15.87 5.29-32.89 113.39-66.24 376.05-66.93 137.54-.46 267.03 8.05 302.91 12.42z" opacity=".5"/><path d="m788.92 549.209c92.23 11.27 117.76 53.59 120.75 77.28 2.07 15.87-13.11 28.52-31.28 34.73-13.57 3.45-31.51 9.89-60.95 17.48-40.25 10.35-119.14 29.21-157.55 14.26-7.36-1.61-15.41-3.68-25.53-8.05-17.25-7.36-36.8-15.18-61.87-23.69-27.83-9.2-58.65-8.28-86.71-3.68-23.23 3.68-52.44 14.03-80.04 22.31-32.2 9.89-68.77 16.79-86.94 14.26-57.73-7.82-143.29-30.13-169.05-41.4-17.94-7.82-29.67-21.16-36.11-33.58-3.22-6.21-3.68-11.5-2.99-15.87 5.29-32.43 111.78-66.01 375.82-66.47 137.31-.46 266.8 8.05 302.45 12.42z" opacity=".5"/><path d="m788.69 549.439c91.31 11.04 117.07 52.9 120.29 76.59 2.07 15.87-12.65 28.52-30.36 34.73-13.34 3.45-30.82 9.89-60.49 17.48-39.79 10.35-119.83 29.21-157.78 14.49-7.36-1.61-15.41-3.68-25.76-8.05-17.25-7.13-36.57-15.18-61.87-23.69-27.6-9.43-58.65-8.51-86.71-3.91-23.23 3.68-52.44 14.03-80.04 22.31-32.43 9.89-69 17.02-86.94 14.49-57.5-7.59-142.83-29.9-169.05-41.4-17.94-7.82-29.67-20.93-36.11-33.35-3.22-6.21-3.68-11.5-2.99-15.87 5.52-31.74 110.17-65.78 375.59-66.24 137.31-.46 266.57 8.05 302.22 12.42z" opacity=".6"/><path d="m788.69 549.669c90.39 11.04 116.38 52.21 120.06 75.9 2.3 15.87-11.96 28.52-29.44 34.5-13.11 3.45-30.36 9.89-59.8 17.48-39.56 10.12-120.75 29.44-158.01 14.95-7.36-1.38-15.41-3.68-25.76-7.82-17.25-7.13-36.57-15.18-61.87-23.92-27.6-9.43-58.65-8.74-86.94-4.37-23.23 3.68-52.44 13.8-80.27 22.31-32.66 9.89-69.46 17.25-87.17 14.95-57.27-7.59-142.6-29.67-169.28-41.17-17.94-7.82-29.67-20.7-36.11-33.12-3.22-6.21-3.68-11.5-2.99-15.87 5.52-31.05 108.56-65.32 375.36-66.01 137.08-.46 266.34 8.05 301.99 12.19z" opacity=".6"/><path d="m788.46 550.129c89.47 10.81 115.69 51.52 119.6 74.98 2.53 15.87-11.5 28.52-28.75 34.5-12.88 3.22-29.67 9.66-59.34 17.25-39.1 10.12-121.44 29.44-158.01 15.41-7.36-1.38-15.41-3.68-25.76-7.82-17.25-7.13-36.57-15.18-61.87-23.92-27.6-9.66-58.65-8.97-86.94-4.6-23 3.45-52.44 13.8-80.27 22.08-32.89 10.12-69.69 17.48-87.17 15.18-56.81-7.36-142.14-29.44-169.51-41.17-17.94-7.59-29.67-20.7-36.11-33.12-3.22-6.21-3.68-11.5-2.99-15.87 5.52-30.59 107.18-65.09 375.36-65.55 137.08-.46 266.11 8.05 301.76 12.19z" opacity=".6"/><path d="m788.46 550.359c88.55 10.81 115.23 50.83 119.14 74.29 2.76 15.64-11.04 28.52-27.83 34.5-12.42 3.22-29.21 9.66-58.65 17.25-38.87 10.12-122.13 29.67-158.24 15.87-7.36-1.38-15.64-3.45-25.76-7.82-17.02-7.13-36.57-15.18-61.87-24.15-27.6-9.66-58.88-9.2-86.94-4.83-23 3.45-52.44 13.57-80.5 22.08-33.12 10.12-70.15 17.71-87.17 15.64-56.58-7.36-141.91-29.21-169.74-41.17-17.94-7.59-29.67-20.47-36.11-32.89-3.22-6.21-3.68-11.27-2.99-15.87 5.52-29.9 105.57-64.63 375.13-65.32 136.85-.46 265.88 8.05 301.53 12.19z" opacity=".6"/><path d="m788.23 550.589c87.63 10.81 114.54 50.14 118.91 73.6 2.99 15.64-10.58 28.52-26.91 34.5-12.19 3.22-28.52 9.66-57.96 17.25-38.41 9.89-122.82 29.67-158.47 16.33-7.36-1.38-15.64-3.45-25.76-7.82-17.02-6.9-36.34-14.95-61.87-24.15-27.6-9.89-58.88-9.43-87.17-5.29-23 3.45-52.44 13.57-80.5 22.08-33.35 10.12-70.38 17.94-87.17 15.87-56.35-7.13-141.45-28.98-169.74-41.17-17.94-7.59-29.67-20.47-36.34-32.89-3.22-6.21-3.68-11.27-2.99-15.87 5.52-29.44 103.96-64.4 374.9-64.86 136.85-.46 265.65 8.05 301.3 12.19z" opacity=".6"/><path d="m788.23 550.819c86.94 10.58 113.85 49.45 118.45 72.91 3.22 15.64-10.12 28.52-25.99 34.5-11.96 2.99-28.06 9.43-57.5 17.25-37.95 9.89-123.51 29.9-158.47 16.79-7.36-1.38-15.64-3.45-25.99-7.59-17.02-6.9-36.34-14.95-62.1-24.38-27.6-9.89-58.88-9.66-87.17-5.52-23 3.22-52.44 13.34-80.5 21.85-33.58 10.35-70.84 18.4-87.17 16.33-56.12-7.13-141.22-28.98-169.97-40.94-17.71-7.59-29.9-20.24-36.34-32.66-3.22-6.21-3.68-11.27-2.99-15.87 5.52-28.75 102.35-64.17 374.67-64.63 136.85-.46 265.42 8.05 300.84 12.19z" opacity=".6"/><path d="m788.23 551.279c86.02 10.58 113.16 48.76 118.22 72.22 3.45 15.64-9.66 28.75-25.3 34.27-11.5 2.99-27.37 9.43-56.81 17.02-37.72 9.89-124.2 29.9-158.7 17.25-7.36-1.38-15.64-3.45-25.99-7.59-16.79-6.9-36.34-14.95-62.1-24.38-27.6-10.12-58.88-9.89-87.17-5.98-22.77 3.22-52.44 13.11-80.73 21.85-33.81 10.35-71.07 18.63-87.17 16.56-55.66-6.9-140.99-28.75-170.2-40.94-17.71-7.36-29.9-20.24-36.34-32.66-3.22-6.21-3.68-11.27-2.99-15.87 5.52-28.06 100.74-63.71 374.67-64.17 136.62-.46 265.19 8.05 300.61 12.19z" opacity=".6"/><path d="m788 551.509c85.1 10.35 112.47 48.07 117.76 71.53 3.45 15.64-8.97 28.75-24.38 34.27-11.27 2.99-26.91 9.43-56.35 17.02-37.26 9.89-124.89 29.9-158.93 17.71-7.36-1.38-15.64-3.22-25.99-7.59-16.79-6.9-36.11-14.95-62.1-24.61-27.6-10.12-58.88-10.12-87.17-6.21-22.77 2.99-52.44 13.11-80.73 21.62-34.04 10.35-71.3 18.86-87.4 16.79-55.43-6.9-140.53-28.52-170.2-40.94-17.71-7.36-29.9-20.01-36.34-32.43-3.22-6.21-3.68-11.27-2.99-15.64 5.52-27.6 99.13-63.48 374.44-63.94 136.62-.46 264.96 8.05 300.38 12.19z" opacity=".6"/><path d="m788 551.739c84.18 10.35 111.78 47.38 117.3 70.84 3.68 15.64-8.51 28.75-23.46 34.27-11.04 2.76-26.22 9.2-55.66 17.02-36.8 9.66-125.58 30.13-158.93 17.94-7.36-1.15-15.64-3.22-25.99-7.36-16.79-6.67-36.11-14.95-62.1-24.61-27.6-10.35-58.88-10.35-87.4-6.44-22.77 2.99-52.44 12.88-80.96 21.62-34.27 10.58-71.76 19.09-87.4 17.25-55.2-6.67-140.3-28.29-170.43-40.94-17.71-7.36-29.9-20.01-36.34-32.43-3.22-6.21-3.68-11.27-2.76-15.64 5.52-26.91 97.52-63.25 374.21-63.48 136.39-.46 264.73 8.05 300.15 12.19z" opacity=".6"/><path d="m787.77 551.969c83.26 10.12 111.09 46.69 117.07 70.15 3.91 15.64-8.05 28.75-22.77 34.27-10.81 2.76-25.76 9.2-55.2 17.02-36.57 9.66-126.27 30.13-159.16 18.4-7.36-1.15-15.64-3.22-25.99-7.36-16.79-6.67-36.11-14.95-62.1-24.84-27.6-10.35-58.88-10.58-87.4-6.9-22.54 2.99-52.44 12.88-80.96 21.62-34.5 10.58-71.99 19.32-87.4 17.48-54.97-6.44-139.84-28.06-170.66-40.94-17.71-7.36-29.9-19.78-36.57-32.2-3.22-6.21-3.68-11.27-2.76-15.64 5.52-26.22 96.14-62.79 373.98-63.25 136.39-.23 264.5 8.05 299.92 12.19z" opacity=".6"/><path d="m787.77 552.429c82.34 10.12 110.4 46 116.61 69.23 4.14 15.64-7.59 28.75-21.85 34.04-10.35 2.76-25.07 9.2-54.51 16.79-36.11 9.66-126.96 30.36-159.39 18.86-7.36-1.15-15.64-3.22-26.22-7.36-16.56-6.67-35.88-14.95-62.1-24.84-27.37-10.58-58.88-10.81-87.4-7.13-22.54 2.76-52.44 12.65-81.19 21.39-34.73 10.58-72.45 19.55-87.4 17.94-54.51-6.44-139.61-28.06-170.89-40.71-17.71-7.36-29.9-19.55-36.57-32.2-3.22-6.21-3.68-11.27-2.76-15.64 5.29-25.76 94.53-62.56 373.75-63.02 136.16-.23 264.27 8.05 299.46 12.19z" opacity=".7"/><path d="m787.54 552.659c81.42 9.89 109.71 45.31 116.38 68.54 4.37 15.64-7.13 28.75-20.93 34.04-10.12 2.53-24.61 8.97-53.82 16.79-35.65 9.43-127.65 30.36-159.62 19.32-7.36-1.15-15.64-2.99-26.22-7.13-16.56-6.67-35.88-14.72-62.1-25.07-27.37-10.58-58.88-11.04-87.63-7.59-22.54 2.76-52.44 12.65-81.19 21.39-34.96 10.81-72.68 20.01-87.4 18.17-54.28-6.21-139.15-27.83-170.89-40.71-17.71-7.13-29.9-19.55-36.57-31.97-3.22-6.21-3.68-11.27-2.76-15.64 5.29-25.07 92.92-62.1 373.75-62.56 136.16-.23 264.04 8.05 299.23 12.19z" opacity=".7"/><path d="m787.54 552.889c80.5 9.89 109.02 44.62 115.92 67.85 4.6 15.64-6.67 28.75-20.01 34.04-9.89 2.53-23.92 8.97-53.36 16.79-35.42 9.43-128.34 30.59-159.62 19.78-7.36-1.15-15.64-2.99-26.22-7.13-16.56-6.44-35.88-14.72-62.1-25.07-27.37-10.81-59.11-11.27-87.63-7.82-22.31 2.76-52.44 12.42-81.19 21.39-35.19 10.81-73.14 20.24-87.4 18.63-54.05-6.21-138.92-27.6-171.12-40.71-17.48-7.13-29.9-19.32-36.57-31.97-3.22-6.21-3.68-11.27-2.76-15.64 5.29-24.61 91.31-61.87 373.52-62.33 136.16-.23 263.81 8.05 299 12.19z" opacity=".7"/><path d="m787.31 553.119c79.81 9.66 108.33 43.93 115.46 67.16 4.83 15.64-5.98 28.75-19.32 34.04-9.43 2.53-23.23 8.97-52.67 16.79-34.96 9.43-129.03 30.59-159.85 20.24-7.36-1.15-15.64-2.99-26.22-7.13-16.33-6.44-35.65-14.72-62.1-25.3-27.37-10.81-59.11-11.5-87.63-8.05-22.31 2.53-52.44 12.42-81.42 21.16-35.42 10.81-73.37 20.47-87.63 18.86-53.82-5.98-138.46-27.37-171.35-40.71-17.48-7.13-29.9-19.32-36.57-31.74-3.22-6.21-3.68-11.27-2.76-15.64 5.29-23.92 89.7-61.64 373.29-61.87 135.93-.23 263.58 8.05 298.77 12.19z" opacity=".7"/><path d="m787.31 553.579c78.89 9.66 107.64 43.01 115.23 66.47 5.06 15.64-5.52 28.75-18.4 34.04-9.2 2.3-22.77 8.74-52.21 16.79-34.73 9.2-129.95 30.82-160.08 20.7-7.36-1.15-15.64-2.99-26.22-7.13-16.33-6.44-35.65-14.72-62.1-25.3-27.37-11.04-59.11-11.73-87.63-8.51-22.31 2.53-52.67 12.19-81.42 21.16-35.65 11.04-73.83 20.7-87.63 19.09-53.59-5.98-138.23-27.37-171.35-40.71-17.48-7.13-29.9-19.09-36.57-31.74-3.22-6.21-3.68-11.27-2.76-15.64 5.29-23.23 88.09-61.18 373.06-61.64 135.93-.23 263.35 8.05 298.54 12.19z" opacity=".7"/><path d="m787.31 553.809c77.97 9.43 107.18 42.32 114.77 65.78 5.06 15.64-5.06 28.75-17.48 33.81-8.97 2.3-22.08 8.74-51.52 16.56-34.27 9.2-130.64 30.82-160.08 21.16-7.36-.92-15.64-2.76-26.22-6.9-16.33-6.44-35.65-14.72-62.33-25.3-27.37-11.04-59.11-11.96-87.86-8.74-22.31 2.3-52.67 12.19-81.65 20.93-35.88 11.04-74.06 20.93-87.63 19.55-53.13-5.75-137.77-27.14-171.58-40.48-17.48-6.9-30.13-19.09-36.8-31.51-3.22-6.21-3.68-11.27-2.76-15.64 5.29-22.77 86.48-60.95 373.06-61.18 135.7-.23 263.12 8.05 298.08 12.19z" opacity=".7"/><path d="m787.08 554.039c77.05 9.43 106.49 41.63 114.31 65.09 5.29 15.64-4.6 28.75-16.79 33.81-8.74 2.3-21.62 8.74-51.06 16.56-33.81 9.2-131.33 31.05-160.31 21.62-7.59-.92-15.64-2.76-26.45-6.9-16.33-6.21-35.42-14.72-62.33-25.53-27.37-11.04-59.11-12.19-87.86-8.97-22.08 2.3-52.67 11.96-81.65 20.93-36.11 11.27-74.29 21.16-87.63 19.78-52.9-5.75-137.54-26.91-171.81-40.48-17.48-6.9-30.13-18.86-36.8-31.51-3.22-6.21-3.68-11.27-2.76-15.64 5.29-22.08 85.1-60.49 372.83-60.95 135.7-.23 262.89 8.05 297.85 12.19z" opacity=".7"/><path d="m787.08 554.269c76.13 9.2 105.8 40.94 114.08 64.17 5.52 15.64-4.14 28.75-15.87 33.81-8.28 2.07-20.93 8.51-50.37 16.56-33.58 9.2-132.02 31.05-160.54 21.85-7.59-.92-15.64-2.76-26.45-6.9-16.1-6.21-35.42-14.49-62.33-25.53-27.37-11.27-59.11-12.19-87.86-9.43-22.08 2.3-52.67 11.96-81.88 20.93-36.34 11.27-74.75 21.62-87.63 20.24-52.67-5.52-137.08-26.68-172.04-40.48-17.48-6.9-30.13-18.86-36.8-31.28-3.22-6.21-3.68-11.27-2.76-15.64 5.29-21.39 83.49-60.26 372.6-60.72 135.47-.23 262.66 8.05 297.62 12.19z" opacity=".7"/><path d="m786.851 554.729c75.21 9.2 105.109 40.25 113.619 63.48 5.751 15.64-3.68 28.75-14.95 33.81-8.05 2.07-20.469 8.51-49.909 16.56-33.12 8.97-132.711 31.28-160.541 22.31-7.59-.92-15.64-2.76-26.45-6.67-16.1-6.21-35.42-14.49-62.33-25.76-27.37-11.27-59.11-12.42-88.09-9.66-22.08 2.07-52.67 11.73-81.88 20.7-36.57 11.27-74.98 21.85-87.63 20.47-52.44-5.29-136.85-26.68-172.04-40.48-17.48-6.9-30.13-18.63-36.8-31.28-3.22-6.21-3.91-11.27-2.76-15.64 5.06-20.93 81.88-60.03 372.37-60.26 135.47-.23 262.431 8.05 297.391 12.19z" opacity=".7"/><path d="m786.85 554.959c74.29 8.97 104.42 39.56 113.39 62.79 5.98 15.64-2.99 28.75-14.03 33.58-7.82 2.07-19.78 8.51-49.22 16.33-32.66 8.97-133.4 31.28-160.77 22.77-7.59-.92-15.64-2.53-26.45-6.67-16.1-6.21-35.19-14.49-62.33-25.76-27.37-11.5-59.11-12.65-88.09-10.12-21.85 2.07-52.67 11.73-81.88 20.7-36.8 11.5-75.44 22.08-87.63 20.93-51.98-5.29-136.39-26.45-172.27-40.25-17.48-6.67-30.13-18.4-36.8-31.05-3.45-6.21-3.91-11.27-2.76-15.64 5.06-20.24 80.27-59.57 372.14-60.03 135.24-.23 262.2 8.05 297.16 12.19z" opacity=".7"/><path d="m786.62 555.189c73.37 8.97 103.73 38.87 112.93 62.1 6.21 15.64-2.53 28.75-13.34 33.58-7.36 1.84-19.32 8.28-48.53 16.33-32.43 8.97-134.09 31.28-161 23.23-7.59-.92-15.64-2.53-26.45-6.67-15.87-5.98-35.19-14.49-62.33-25.99-27.37-11.5-59.11-12.88-88.09-10.35-21.85 2.07-52.67 11.5-82.11 20.7-37.03 11.5-75.67 22.31-87.86 21.16-51.75-5.06-136.16-26.22-172.5-40.25-17.25-6.67-30.13-18.4-37.03-30.82-3.45-6.21-3.91-11.27-2.76-15.41 5.06-19.78 78.66-59.34 372.14-59.57 135.24-.23 261.97 8.05 296.7 12.19z" opacity=".8"/><path d="m786.62 555.649c72.45 8.97 103.04 38.18 112.47 61.41 6.44 15.41-2.07 28.75-12.42 33.58-7.13 1.84-18.63 8.28-48.07 16.33-31.97 8.74-134.78 31.51-161 23.69-7.59-.92-15.64-2.53-26.68-6.67-15.87-5.98-35.19-14.49-62.33-25.99-27.14-11.73-59.34-13.11-88.09-10.58-21.85 1.84-52.67 11.5-82.11 20.47-37.26 11.5-76.13 22.54-87.86 21.39-51.52-5.06-135.7-26.22-172.5-40.25-17.25-6.67-30.13-18.17-37.03-30.82-3.45-6.21-3.91-11.27-2.76-15.41 5.06-19.09 77.05-59.11 371.91-59.34 135.24 0 261.74 8.05 296.47 12.19z" opacity=".8"/><path d="m786.39 555.879c71.76 8.74 102.35 37.49 112.24 60.72 6.67 15.41-1.61 28.75-11.5 33.58-6.9 1.84-18.17 8.05-47.38 16.33-31.74 8.74-135.47 31.51-161.23 24.15-7.59-.69-15.64-2.3-26.68-6.44-15.87-5.98-35.19-14.49-62.33-26.22s-59.34-13.34-88.32-11.04c-21.85 1.84-52.67 11.27-82.34 20.47-37.49 11.73-76.36 23-87.86 21.85-51.29-4.83-135.47-25.99-172.73-40.25-17.25-6.67-30.13-18.17-37.03-30.59-3.45-6.21-3.91-11.27-2.76-15.41 5.06-18.4 75.44-58.65 371.68-58.88 135.01 0 261.51 8.05 296.24 12.19z" opacity=".8"/><path d="m786.39 556.109c70.84 8.74 101.66 36.8 111.78 60.03 6.67 15.41-1.15 28.75-10.81 33.58-6.67 1.61-17.48 8.05-46.92 16.33-31.28 8.74-136.16 31.74-161.46 24.61-7.59-.69-15.64-2.3-26.68-6.44-15.64-5.98-34.96-14.26-62.33-26.22-27.14-11.96-59.34-13.57-88.32-11.27-21.62 1.84-52.67 11.27-82.34 20.24-37.72 11.73-76.82 23.23-87.86 22.08-50.83-4.6-135.01-25.76-172.96-40.25-17.25-6.44-30.13-17.94-37.03-30.59-3.45-6.21-3.91-11.27-2.76-15.41 4.83-17.94 73.83-58.42 371.45-58.65 135.01 0 261.28 8.05 296.01 12.19z" opacity=".8"/><path d="m786.16 556.339c69.92 8.51 101.2 36.11 111.32 59.11 6.9 15.41-.69 28.75-9.89 33.35-6.21 1.61-17.02 8.05-46.23 16.1-30.82 8.51-136.85 31.74-161.46 25.07-7.59-.69-15.64-2.3-26.68-6.44-15.64-5.75-34.96-14.26-62.33-26.45-27.14-11.96-59.34-13.8-88.32-11.73-21.62 1.61-52.67 11.04-82.57 20.24-37.95 11.73-77.05 23.46-87.86 22.54-50.6-4.6-134.78-25.76-173.19-40.02-17.25-6.44-30.13-17.94-37.03-30.36-3.45-6.21-3.91-11.27-2.76-15.41 4.83-17.25 72.45-57.96 371.45-58.42 134.78 0 261.05 8.05 295.78 12.19z" opacity=".8"/><path d="m786.16 556.799c69 8.51 100.51 35.42 111.09 58.42 7.13 15.41 0 28.75-8.97 33.35-5.98 1.61-16.33 7.82-45.77 16.1-30.59 8.51-137.54 31.97-161.69 25.3-7.59-.69-15.64-2.3-26.68-6.21-15.64-5.75-34.96-14.26-62.56-26.45-27.14-12.19-59.34-14.03-88.55-11.96-21.62 1.61-52.67 11.04-82.57 20.24-38.18 11.96-77.28 23.69-87.86 22.77-50.37-4.37-134.32-25.53-173.19-40.02-17.25-6.44-30.36-17.71-37.26-30.36-3.45-6.21-3.91-11.27-2.76-15.41 4.83-16.79 70.84-57.73 371.22-57.96 134.78 0 260.82 8.05 295.32 12.19z" opacity=".8"/><path d="m786.16 557.029c68.08 8.28 99.82 34.73 110.63 57.73 7.36 15.41.46 28.75-8.05 33.35-5.75 1.61-15.87 7.82-45.08 16.1-30.13 8.51-138.23 31.97-161.92 25.76-7.59-.69-15.64-2.07-26.91-6.21-15.64-5.75-34.73-14.26-62.56-26.68-27.14-12.19-59.34-14.26-88.55-12.19-21.39 1.38-52.67 10.81-82.57 20.01-38.41 11.96-77.74 23.92-88.09 23.23-50.14-4.14-134.09-25.53-173.42-40.02-17.25-6.44-30.36-17.71-37.26-30.13-3.45-6.21-3.91-11.27-2.76-15.41 4.83-16.1 69.23-57.5 370.99-57.73 134.55 0 260.59 8.05 295.09 12.19z" opacity=".8"/><path d="m785.93 557.259c67.16 8.28 99.13 34.04 110.4 57.04 7.59 15.41.92 28.75-7.36 33.35-5.29 1.38-15.18 7.82-44.39 16.1-29.67 8.28-139.15 32.2-161.92 26.22-7.59-.69-15.87-2.07-26.91-6.21-15.41-5.75-34.73-14.26-62.56-26.68-27.14-12.42-59.34-14.49-88.55-12.65-21.39 1.38-52.67 10.81-82.8 20.01-38.87 11.96-77.97 24.38-88.09 23.46-49.68-4.14-133.63-25.3-173.65-40.02-17.25-6.21-30.36-17.48-37.26-30.13-3.45-6.21-3.91-11.27-2.53-15.41 4.6-15.64 67.62-57.04 370.76-57.27 134.55 0 260.36 8.05 294.86 12.19z" opacity=".8"/><path d="m785.93 557.489c66.24 8.05 98.44 33.35 109.94 56.35 7.82 15.41 1.38 28.98-6.44 33.12-5.06 1.38-14.49 7.59-43.93 15.87s-139.84 32.2-162.15 26.68c-7.59-.69-15.87-2.07-26.91-6.21-15.41-5.52-34.73-14.03-62.56-26.91-27.14-12.42-59.34-14.72-88.55-12.88-21.39 1.38-52.67 10.58-82.8 20.01-39.1 12.19-78.43 24.61-88.09 23.69-49.45-3.91-133.4-25.07-173.65-40.02-17.25-6.21-30.36-17.25-37.26-29.9-3.45-6.21-3.91-11.27-2.53-15.41 4.6-14.95 66.01-56.81 370.53-57.04 134.32 0 260.13 8.05 294.63 12.19z" opacity=".8"/><path d="m785.7 557.949c65.32 8.05 97.75 32.66 109.48 55.66 8.05 15.41 1.84 28.98-5.52 33.12-4.83 1.38-14.03 7.59-43.24 15.87-28.98 8.28-140.53 32.43-162.38 27.14-7.59-.46-15.87-2.07-26.91-5.98-15.41-5.52-34.73-14.03-62.56-26.91-27.14-12.42-59.34-14.95-88.78-13.34-21.39 1.15-52.67 10.58-83.03 19.78-39.33 12.19-78.66 24.84-88.09 24.15-49.22-3.68-132.94-25.07-173.88-39.79-17.02-6.21-30.36-17.25-37.26-29.9-3.45-6.21-3.91-11.27-2.53-15.41 4.6-14.26 64.4-56.35 370.53-56.58 134.32 0 259.9 8.05 294.4 12.19z" opacity=".8"/><path d="m785.7 558.179c64.63 7.82 97.06 31.97 109.25 54.97 8.28 15.41 2.3 28.98-4.83 33.12-4.6 1.15-13.34 7.59-42.78 15.87-28.75 8.28-141.22 32.43-162.38 27.6-7.59-.46-15.87-2.07-26.91-5.98-15.18-5.52-34.5-14.03-62.56-27.14-27.14-12.65-59.57-15.18-88.78-13.57-21.16 1.15-52.67 10.35-83.03 19.78-39.56 12.19-79.12 25.07-88.09 24.38-48.99-3.68-132.71-24.84-174.11-39.79-17.02-6.21-30.36-17.02-37.49-29.67-3.45-6.21-3.91-11.27-2.53-15.41 4.37-13.8 62.79-56.12 370.3-56.35 134.32 0 259.67 8.05 293.94 12.19z" opacity=".9"/><path d="m785.47 558.409c63.71 7.82 96.37 31.28 108.79 54.05 8.51 15.41 2.99 28.98-3.91 33.12-4.14 1.15-12.88 7.36-42.09 15.87-28.29 8.05-141.91 32.66-162.61 28.06-7.59-.46-15.87-1.84-27.14-5.98-15.18-5.52-34.5-14.03-62.56-27.14-27.14-12.65-59.57-15.41-88.78-13.8-21.16 1.15-52.67 10.35-83.03 19.55-39.79 12.42-79.35 25.3-88.09 24.84-48.76-3.45-132.25-24.84-174.34-39.79-17.02-6.21-30.36-17.02-37.49-29.67-3.45-6.21-3.91-11.27-2.53-15.41 4.37-13.11 61.41-55.89 370.07-55.89 134.09 0 259.44 8.05 293.71 12.19z" opacity=".9"/><path d="m785.47 558.639c62.79 7.59 95.68 30.59 108.56 53.36 8.51 15.41 3.45 28.98-2.99 33.12-3.91 1.15-12.19 7.36-41.63 15.64-27.83 8.05-142.6 32.66-162.84 28.52-7.59-.46-15.87-1.84-27.14-5.75-15.18-5.29-34.5-14.03-62.56-27.37-27.14-12.88-59.57-15.64-89.01-14.26-21.16.92-52.67 10.12-83.26 19.55-40.02 12.42-79.81 25.76-88.32 25.07-48.3-3.22-132.02-24.61-174.34-39.79-17.02-5.98-30.36-16.79-37.49-29.44-3.45-6.21-3.91-11.27-2.53-15.41 4.37-12.65 59.8-55.43 369.84-55.66 134.09 0 259.21 8.05 293.48 12.19z" opacity=".9"/><path d="m785.24 559.099c61.87 7.59 94.99 29.9 108.1 52.67 8.74 15.41 3.91 28.98-2.07 32.89-3.68.92-11.73 7.36-40.94 15.64-27.6 8.05-143.29 32.66-162.84 28.75-7.59-.46-15.87-1.84-27.14-5.75-15.18-5.29-34.27-13.8-62.56-27.37-26.91-12.88-59.57-15.87-89.01-14.49-20.93.92-52.67 9.89-83.26 19.55-40.25 12.42-80.04 25.99-88.32 25.53-48.07-2.99-131.56-24.61-174.57-39.56-17.02-5.98-30.36-16.79-37.49-29.44-3.45-6.21-3.91-11.27-2.53-15.18 4.14-11.96 58.19-55.2 369.84-55.43 133.86 0 258.98 8.05 293.25 12.19z" opacity=".9"/><path d="m785.24 559.329c60.95 7.36 94.3 29.21 107.64 51.98 8.97 15.41 4.37 28.98-1.38 32.89-3.45.92-11.04 7.13-40.25 15.64-27.14 7.82-143.98 32.89-163.07 29.21-7.59-.46-15.87-1.84-27.14-5.75-14.95-5.29-34.27-13.8-62.56-27.6-26.91-13.11-59.57-16.1-89.01-14.72-20.93.92-52.9 9.89-83.49 19.32-40.48 12.65-80.5 26.22-88.32 25.76-47.84-2.76-131.33-24.38-174.8-39.56-17.02-5.98-30.36-16.56-37.49-29.21-3.45-6.21-3.91-11.27-2.53-15.18 4.14-11.5 56.58-54.97 369.61-54.97 133.86 0 258.75 8.05 293.02 12.19z" opacity=".9"/><path d="m785.24 559.559c60.03 7.36 93.61 28.52 107.41 51.29 9.2 15.41 4.83 28.98-.46 32.89-2.99.92-10.58 7.13-39.79 15.64-26.68 7.82-144.67 32.89-163.3 29.67-7.59-.23-15.87-1.61-27.14-5.75-14.95-5.29-34.27-13.8-62.79-27.6-26.91-13.11-59.57-16.33-89.01-15.18-20.93.69-52.9 9.66-83.49 19.32-40.71 12.65-80.73 26.45-88.32 25.99-47.61-2.76-130.87-24.38-174.8-39.56-17.02-5.98-30.59-16.33-37.72-29.21-3.45-6.21-3.91-11.27-2.53-15.18 4.14-10.81 54.97-54.51 369.38-54.74 133.63 0 258.52 8.05 292.56 12.19z" opacity=".9"/><path d="m785.01 559.789c59.11 7.13 92.92 27.83 106.95 50.6 9.43 15.41 5.29 28.98.46 32.89-2.76.69-9.89 6.9-39.1 15.64-26.45 7.82-145.36 33.12-163.3 30.13-7.59-.23-15.87-1.61-27.37-5.52-14.95-5.06-34.04-13.8-62.79-27.83-26.91-13.34-59.57-16.56-89.24-15.41-20.93.69-52.9 9.66-83.72 19.32-40.94 12.65-80.96 26.91-88.32 26.45-47.15-2.53-130.41-24.15-175.03-39.56-17.02-5.75-30.59-16.33-37.72-28.98-3.45-6.21-4.14-11.27-2.53-15.18 3.91-10.35 53.36-54.28 369.15-54.28 133.63 0 258.29 8.05 292.33 12.19z" opacity=".9"/><path d="m785.01 560.249c58.19 7.13 92.46 27.14 106.49 49.91 9.66 15.41 5.98 28.98 1.38 32.66-2.53.69-9.43 6.9-38.64 15.41-25.99 7.59-146.05 33.12-163.53 30.59-7.59-.23-15.87-1.61-27.37-5.52-14.72-5.06-34.04-13.8-62.79-27.83-26.91-13.34-59.57-16.56-89.24-15.87-20.7.69-52.9 9.43-83.72 19.09-41.17 12.88-81.42 27.14-88.32 26.68-46.92-2.3-130.18-24.15-175.26-39.56-17.02-5.75-30.59-16.1-37.72-28.75-3.45-6.21-4.14-11.27-2.53-15.18 3.91-9.66 51.75-53.82 369.15-54.05 133.63 0 258.06 8.05 292.1 12.19z" opacity=".9"/><path d="m784.78 560.479c57.5 6.9 91.77 26.45 106.26 49.22 9.89 15.18 6.44 28.98 2.07 32.66-2.07.69-8.74 6.9-37.95 15.41-25.76 7.59-146.74 33.35-163.76 31.05-7.59-.23-15.87-1.61-27.37-5.52-14.72-5.06-34.04-13.57-62.79-28.06-26.91-13.57-59.8-16.79-89.24-16.1-20.7.46-52.9 9.43-83.72 19.09-41.4 12.88-81.65 27.37-88.55 27.14-46.69-2.07-129.72-23.92-175.49-39.33-17.02-5.75-30.59-16.1-37.72-28.75-3.45-6.21-4.14-11.27-2.53-15.18 3.68-9.2 50.14-53.59 368.92-53.59 133.4 0 257.83 8.05 291.87 12.19z" opacity=".9"/><path d="m784.78 560.709c56.58 6.9 91.08 25.76 105.8 48.3 9.89 15.18 6.9 28.98 2.99 32.66-1.84.46-8.28 6.67-37.49 15.41-25.3 7.59-147.43 33.35-163.76 31.51-7.59 0-15.87-1.38-27.37-5.29-14.72-5.06-34.04-13.57-62.79-28.06-26.91-13.57-59.8-17.02-89.47-16.33-20.7.46-52.9 9.2-83.95 18.86-41.63 12.88-82.11 27.6-88.55 27.37-46.46-1.84-129.49-23.92-175.49-39.33-16.79-5.75-30.59-15.87-37.72-28.52-3.45-6.21-4.14-11.27-2.53-15.18 3.68-8.51 48.76-53.36 368.69-53.36 133.4 0 257.6 8.05 291.64 12.19z" opacity=".9"/><path d="m784.55 560.939c55.66 6.9 90.39 25.07 105.57 47.61 10.12 15.18 7.36 28.98 3.91 32.66-1.61.46-7.59 6.67-36.8 15.41-24.84 7.36-148.35 33.58-163.99 31.97-7.59 0-15.87-1.38-27.37-5.29-14.49-4.83-33.81-13.57-62.79-28.29-26.91-13.57-59.8-17.25-89.47-16.79-20.47.46-52.9 9.2-83.95 18.86-41.86 13.11-82.34 27.83-88.55 27.83-46.23-1.61-129.03-23.69-175.72-39.33-16.79-5.52-30.59-15.87-37.72-28.52-3.45-6.21-4.14-11.27-2.53-15.18 3.45-8.05 47.15-52.9 368.46-53.13 133.17 0 257.37 8.05 291.18 12.19z"/><path d="m784.55 561.399c54.74 6.67 89.7 24.38 105.11 46.92 10.35 15.18 7.82 28.98 4.6 32.66-1.38.46-7.13 6.44-36.34 15.18-24.61 7.36-149.04 33.58-164.22 32.43-7.59 0-15.87-1.38-27.6-5.29-14.49-4.83-33.81-13.57-62.79-28.29-26.91-13.8-59.8-17.48-89.47-17.02-20.47.23-52.9 8.97-84.18 18.86-42.09 13.11-82.8 28.29-88.55 28.06-45.77-1.15-128.8-23.69-175.95-39.33-16.79-5.52-30.59-15.64-37.95-28.29-3.45-6.21-4.14-11.27-2.53-15.18 3.45-7.36 45.54-52.67 368.23-52.67 133.17 0 257.14 8.05 290.95 12.19z"/><path d="m784.32 561.629c53.82 6.67 89.01 23.46 104.65 46.23 10.58 15.18 8.28 28.98 5.52 32.43-.92.23-6.44 6.44-35.65 15.18-24.15 7.13-149.73 33.81-164.22 32.66-7.59 0-15.87-1.38-27.6-5.29-14.49-4.83-33.81-13.57-62.79-28.52-26.91-13.8-59.8-17.71-89.47-17.48-20.47 0-52.9 8.97-84.18 18.63-42.32 13.34-83.03 28.52-88.55 28.29-45.54-.92-128.34-23.69-175.95-39.33-16.79-5.52-30.59-15.64-37.95-28.29-3.68-6.21-4.37-11.27-2.53-15.18 3.45-6.9 43.93-52.44 368.23-52.44 132.94 0 256.91 8.05 290.72 12.19z"/><path d="m784.32 561.859c52.9 6.44 88.32 22.77 104.42 45.54 10.81 15.18 8.97 28.98 6.44 32.43-.69.23-5.98 6.44-34.96 15.18-23.92 7.13-150.42 33.81-164.45 33.12-7.59 0-15.87-1.15-27.6-5.06-14.49-4.83-33.81-13.34-62.79-28.52-26.91-14.03-59.8-17.94-89.7-17.71-20.47 0-52.9 8.74-84.41 18.63-42.55 13.34-83.49 28.75-88.55 28.75-45.31-.69-128.11-23.46-176.18-39.1-16.79-5.52-30.59-15.41-37.95-28.06-3.68-6.21-4.37-11.27-2.53-15.18 3.22-6.44 42.32-51.98 368-51.98 132.94 0 256.68 8.05 290.49 12.19z"/><path d="m784.32 562.089c51.98 6.44 87.63 22.08 103.96 44.85 11.04 15.18 9.43 28.98 7.36 32.43-.46 0-5.29 6.21-34.5 15.18-23.46 7.13-151.11 34.04-164.68 33.58-7.59 0-15.87-1.15-27.6-5.06-14.26-4.83-33.58-13.34-62.79-28.75-26.91-14.03-59.8-18.17-89.7-17.94-20.24 0-52.9 8.74-84.41 18.63-42.78 13.34-83.72 29.21-88.78 28.98-45.08-.46-127.65-23.46-176.41-39.1-16.79-5.52-30.59-15.18-37.95-28.06-3.68-6.21-4.37-11.5-2.53-15.18 3.22-5.75 40.71-51.75 367.77-51.75 132.71 0 256.45 8.05 290.26 12.19z"/><path d="m697.15 688.129c-16.79 0-37.03-5.52-90.62-33.81-26.91-14.26-59.8-18.4-89.7-18.4-47.84 0-165.14 47.84-173.19 47.84-44.62 0-127.19-23.23-176.64-39.1-16.79-5.29-30.82-15.18-37.95-27.83-3.68-6.21-4.6-11.5-2.3-15.18 2.99-5.29 39.1-51.29 367.54-51.29s256.22 8.05 289.8 12.19c51.06 6.21 86.94 21.39 103.5 44.16 11.27 15.18 9.89 28.98 8.05 32.43 0 0-4.83 6.21-33.81 15.18-23 7.13-151.8 34.04-164.68 34.04z"/></g></g></svg>