<svg width="1024" height="1024" viewBox="0 0 1024 1024" fill="none" xmlns="http://www.w3.org/2000/svg">
<path d="M327.597 842V711.141H363.241V733.113H363.974C366.659 725.626 371.216 719.645 377.646 715.169C384.156 710.693 391.806 708.455 400.595 708.455C406.698 708.455 412.191 709.513 417.074 711.629C421.957 713.745 426.067 716.797 429.403 720.784C432.821 724.772 435.222 729.655 436.605 735.433H437.338C439.291 729.899 442.221 725.138 446.127 721.15C450.115 717.081 454.794 713.948 460.165 711.751C465.618 709.554 471.558 708.455 477.987 708.455C486.532 708.455 494.019 710.286 500.448 713.948C506.877 717.61 511.882 722.737 515.463 729.329C519.044 735.921 520.834 743.652 520.834 752.522V842H485.189V761.434C485.189 756.388 484.335 752.116 482.626 748.616C480.998 745.117 478.598 742.472 475.424 740.682C472.331 738.891 468.466 737.996 463.827 737.996C459.351 737.996 455.404 739.013 451.986 741.048C448.65 743.082 446.046 745.931 444.174 749.593C442.302 753.255 441.366 757.527 441.366 762.41V842H407.064V760.335C407.064 755.615 406.21 751.587 404.501 748.25C402.792 744.913 400.351 742.391 397.177 740.682C394.084 738.891 390.341 737.996 385.946 737.996C381.47 737.996 377.523 739.054 374.105 741.17C370.688 743.286 368.002 746.215 366.049 749.959C364.177 753.702 363.241 758.056 363.241 763.021V842H327.597ZM603.476 844.686C590.211 844.686 578.736 841.959 569.052 836.507C559.368 831.054 551.881 823.242 546.591 813.069C541.301 802.897 538.656 790.73 538.656 776.57V776.326C538.656 762.247 541.342 750.162 546.713 740.071C552.084 729.899 559.612 722.086 569.296 716.634C578.98 711.181 590.333 708.455 603.354 708.455C616.456 708.455 627.849 711.181 637.533 716.634C647.299 722.005 654.867 729.777 660.238 739.949C665.609 750.04 668.295 762.166 668.295 776.326V776.57C668.295 790.812 665.609 803.019 660.238 813.191C654.949 823.364 647.462 831.176 637.777 836.629C628.093 842 616.659 844.686 603.476 844.686ZM603.598 816.731C609.376 816.731 614.381 815.185 618.612 812.093C622.925 808.919 626.221 804.362 628.5 798.421C630.86 792.399 632.04 785.115 632.04 776.57V776.326C632.04 767.863 630.86 760.66 628.5 754.72C626.14 748.779 622.803 744.262 618.49 741.17C614.177 737.996 609.132 736.409 603.354 736.409C597.657 736.409 592.652 737.996 588.339 741.17C584.107 744.262 580.811 748.779 578.451 754.72C576.091 760.66 574.911 767.863 574.911 776.326V776.57C574.911 785.115 576.05 792.399 578.329 798.421C580.689 804.362 584.026 808.919 588.339 812.093C592.652 815.185 597.738 816.731 603.598 816.731ZM687.46 842V711.141H723.104V842H687.46ZM705.282 694.295C699.911 694.295 695.395 692.464 691.732 688.802C688.07 685.14 686.239 680.786 686.239 675.74C686.239 670.613 688.07 666.259 691.732 662.679C695.395 659.017 699.911 657.186 705.282 657.186C710.653 657.186 715.17 659.017 718.832 662.679C722.494 666.259 724.325 670.613 724.325 675.74C724.325 680.786 722.494 685.14 718.832 688.802C715.17 692.464 710.653 694.295 705.282 694.295Z" fill="white"/>
</svg>
