<svg fill="none" height="1024" viewBox="0 0 1024 1024" width="1024" xmlns="http://www.w3.org/2000/svg" xmlns:xlink="http://www.w3.org/1999/xlink"><linearGradient id="a" gradientUnits="userSpaceOnUse" x1="695.598" x2="324.493" y1="741.758" y2="232.001"><stop offset="0" stop-color="#2b7fff"/><stop offset=".371895" stop-color="#8722fb"/><stop offset=".4717" stop-color="#9810fa"/><stop offset=".580367" stop-color="#8722fb"/><stop offset=".671535" stop-color="#6c3dfc"/><stop offset=".89302" stop-color="#2b7fff"/></linearGradient><path d="m882.76 357.389c-8.51-26.45-29.67-48.3-57.5-59.11-83.72-32.89-190.67-52.44-307.05-52.44s-231.38 21.16-316.48 56.35c-27.37 11.27-47.84 32.89-56.12 59.11-17.71 56.58-27.6 118.45-27.6 182.85s0 15.41.46 23c1.15 33.58 21.62 64.4 54.05 80.04 46.69 22.54 102.58 40.71 164.91 52.67 30.59 5.98 61.64-5.29 82.8-29.21 25.76-28.75 58.42-46 94.3-46s69.23 17.48 94.99 46.92c20.93 23.69 51.75 35.19 82.34 29.44 60.72-11.27 115.46-28.06 161.69-49.22 33.58-15.41 55.43-46 56.81-80.04.46-9.2.69-18.4.69-27.83 0-66.01-10.12-129.03-28.75-186.76z" fill="url(#a)"/><g fill="#000"><path d="m822.96 326.569c-201.48-60.49-416.3-60.49-617.78 0-3.68 1.15-7.59-.92-8.51-4.37-1.15-3.45.92-7.36 4.6-8.51 204.01-61.41 421.59-61.41 625.6 0 3.68 1.15 5.75 5.06 4.6 8.51s-5.06 5.52-8.51 4.37z"/><path d="m899.356 430.573-5.733.441c-5.066.39-8.857 4.813-8.467 9.879l5.505 71.549c.39 5.066 4.813 8.857 9.879 8.467l5.733-.441c5.066-.39 8.857-4.813 8.467-9.879l-5.505-71.549c-.39-5.066-4.813-8.857-9.879-8.467z"/><path d="m131.62 437.571-5.747-.191c-5.079-.168-9.332 3.812-9.5 8.89l-2.38 71.721c-.168 5.078 3.812 9.331 8.89 9.5l5.747.191c5.078.168 9.332-3.812 9.5-8.89l2.379-71.721c.169-5.078-3.811-9.331-8.889-9.5z"/></g></svg>