<svg fill="none" height="148" viewBox="160 0 247 148" width="247" xmlns="http://www.w3.org/2000/svg" xmlns:xlink="http://www.w3.org/1999/xlink"><filter id="a" color-interpolation-filters="sRGB" filterUnits="userSpaceOnUse" height="467.718" width="566.063" x="0" y="0"><feFlood flood-opacity="0" result="BackgroundImageFix"/><feColorMatrix in="SourceAlpha" result="hardAlpha" type="matrix" values="0 0 0 0 0 0 0 0 0 0 0 0 0 0 0 0 0 0 127 0"/><feMorphology in="SourceAlpha" operator="erode" radius="48" result="effect1_dropShadow_51_1097"/><feOffset dy="64"/><feGaussianBlur stdDeviation="40"/><feComposite in2="hardAlpha" operator="out"/><feColorMatrix type="matrix" values="0 0 0 0 0 0 0 0 0 0 0 0 0 0 0 0 0 0 0.1 0"/><feBlend in2="BackgroundImageFix" mode="normal" result="effect1_dropShadow_51_1097"/><feColorMatrix in="SourceAlpha" result="hardAlpha" type="matrix" values="0 0 0 0 0 0 0 0 0 0 0 0 0 0 0 0 0 0 127 0"/><feMorphology in="SourceAlpha" operator="erode" radius="40" result="effect2_dropShadow_51_1097"/><feOffset dy="160"/><feGaussianBlur stdDeviation="100"/><feComposite in2="hardAlpha" operator="out"/><feColorMatrix type="matrix" values="0 0 0 0 0 0 0 0 0 0 0 0 0 0 0 0 0 0 0.1 0"/><feBlend in2="effect1_dropShadow_51_1097" mode="normal" result="effect2_dropShadow_51_1097"/><feBlend in="SourceGraphic" in2="effect2_dropShadow_51_1097" mode="normal" result="shape"/></filter><linearGradient id="b" gradientUnits="userSpaceOnUse" x1="198.75" x2="357.423" y1="99.9736" y2="142.298"><stop offset="0" stop-color="#2b7fff"/><stop offset=".447115" stop-color="#155dfc"/><stop offset=".826923" stop-color="#841cfa"/><stop offset=".894231" stop-color="#9810fa"/></linearGradient><g fill="url(#b)" filter="url(#a)"><path d="m183.32 97.1283c-.26-2.6925-.187-5.5968-1.453-8.0671-.597-1.1679-1.536-2.2583-2.849-2.6201-1.131-.31-2.241.0155-3.336.3101-2.739.7442-4.716 2.4961-6.449 4.6821-1.94 2.4496-3.59 5.142-4.929 7.9637-2.22 4.682-3.606 9.876-3.984 15.049-.301 4.15.264 8.904 3.834 11.602 2.625 1.979 6.148 2.532 9.36 2.418 3.471-.124 6.859-.966 10.241-1.674.457-.098 1.09-.315 1.448-.393-5.801 1.215-12.187 2.941-17.853.264-4.011-1.897-5.5-6.026-5.593-10.212-.047-2.129.202-4.258.581-6.357.436-2.449 1.027-4.873 1.863-7.219 1.001-2.822 2.314-5.5297 3.896-8.0723 1.479-2.3824 3.175-4.8629 5.391-6.6303.591-.4755 1.235-.8889 1.919-1.2145.187-.0878.379-.1654.571-.2429.119-.0413.234-.0827.353-.124-1.007.2429-1.193.2997-.555.1705.321-.0517.648-.0672.975-.0465 1.458.093 2.584 1.0388 3.326 2.2377 1.562 2.5374 1.463 5.7105 1.733 8.5683 0-.0671 1.52-.2997 1.51-.3927z"/><path d="m197.691 97.4435c-1.022-.279-1.785-.0723-2.781.2222-1.017.2998-1.665 1.2093-2.194 2.0827-1.38 2.2846-2.47 4.8836-3.259 7.4266-.664 2.144-1.193 4.501-.965 6.759.182 1.83 1.204 3.799 3.321 3.757.856-.015 1.779-.325 2.578-.594 1.028-.346 1.925-1.023 2.724-1.742 1.801-1.617 3.227-3.591 4.208-5.803 1.001-2.264 1.593-4.786 1.697-7.256.098-2.3099-.312-4.9352-2.065-6.5992-1.676-1.5866-3.969-1.9173-6.143-1.354-1.137.2946-2.257.5891-3.259 1.2299-1.063.6822-1.909 1.6331-2.703 2.5943.089-.1085.613-.155.753-.1912.16-.0413.638-.0775.752-.2067.607-.7339 1.235-1.4522 1.972-2.0568.332-.2687.679-.5168 1.048-.7287.192-.1085.383-.2067.586-.2997.119-.0517.239-.1034.358-.1499.088-.0362.176-.0672.27-.0982.358-.1188.233-.0878-.369.1034.41.0155.836-.0982 1.251-.0827.441.0155.882.0775 1.312.186.851.2171 1.655.6098 2.34 1.168 3.29 2.6769 2.626 7.9375 1.635 11.5395-.566 2.052-1.479 4.021-2.73 5.747-1.099 1.525-2.526 3.044-4.181 3.974-.197.109-.4.191-.597.295-.353.186-.244-.166.441-.104-.083-.01-.187.021-.27.021-.487.021-.965-.078-1.406-.284-.674-.321-1.183-.868-1.504-1.535-.675-1.395-.618-3.08-.436-4.584.306-2.563 1.115-5.044 2.132-7.411.519-1.199 1.074-2.398 1.697-3.5449.519-.9612 1.219-2.2015 2.309-2.5994-.467.124-.934.2532-1.401.3772.461-.1188.944.0207 1.395.1395.172.0465.581-.1498.753-.1912.155-.0413.56-.2532.731-.2067z"/><path d="m209.189 109.531c.415-2.046 1.037-4.041 1.598-6.057.56-2.015.975-4.0719 1.312-6.1338.343-2.1189.628-4.2429 1.048-6.3462.197-.9767.436-1.9379.633-2.9147.146-.7183.286-1.4573.872-1.9586-.503.1344-1.001.2688-1.505.4031.571.7907.27 2 .13 2.8837-.218 1.3901-.27 2.8165-.374 4.2221-.114 1.5556-.264 3.1111-.373 4.6718-.042.6305-.052 1.2661-.099 1.8966-.041.527-.124 1.121.063 1.633.186.506.368.46.814.346.431-.113.903-.191 1.308-.377.866-.393 1.421-1.406 1.883-2.186 1.458-2.434 2.796-4.9249 4.177-7.4055.804-1.4419 1.535-2.9199 2.36-4.3565.374-.6512.784-1.2765 1.183-1.907.28-.4444.586-.9922 1.1-1.2041-.503.1344-1.001.2687-1.505.4031.991-.1757-.269 3.726-.404 4.1911-.602 2.0103-1.126 4.0982-1.552 6.155-.352 1.7054-.783 3.8035-.181 5.5039.565 1.602 2.246 1.927 3.777 1.927 1.925 0 4.021-.584 5.78-1.348-.467.201-1.033.196-1.505.403-.337.144-.68.268-1.022.398-.124.046-.534.155.073-.005.679-.181-.021-.011-.244.025-.597.099-1.199.145-1.806.13-.918-.021-1.945-.135-2.698-.714-1.437-1.1-1.167-3.3949-.97-4.9556.311-2.4134 1.064-4.7441 1.634-7.1058.213-.8734.524-1.7158.758-2.5788.109-.4031.202-.8165.239-1.2351.02-.2636.083-1.0853-.208-1.2041-.202-.0879-.742.1602-.923.2067-.317.0827-.696.1343-.976.3204-.633.4186-1.063 1.3643-1.458 1.9896-1.302 2.0723-2.386 4.2893-3.554 6.4392-1.126 2.0723-2.277 4.1239-3.481 6.1549-.394.6616-.794 1.3536-1.354 1.8966-.146.14-.301.243-.457.367-.14.114-.726.284.405-.119.934-.336.488-.01.399-.362-.114-.439-.212-.78-.192-1.25.104-2.6359.374-5.2664.571-7.902.088-1.2041.151-2.4237.343-3.6175.134-.8475.394-1.9844-.156-2.7389-.036-.0517-1.406.3204-1.505.403-.586.4962-.726 1.2403-.871 1.9587-.198.9767-.436 1.9379-.633 2.9146-.421 2.1034-.706 4.2274-1.048 6.3462-.338 2.0671-.748 4.1189-1.313 6.1339-.56 2.011-1.183 4.005-1.598 6.057.047-.212 1.458-.16 1.505-.398z"/><path d="m236.111 84.1673c-.166 2.9302-.69 5.8242-1.308 8.6923-.295 1.385-.612 2.7648-.913 4.1498-.161.7339-.316 1.4677-.482 2.1964-.12.5116-.493 1.2252-.213 1.7212.026.046 1.39-.331 1.505-.403.119-.073.238-.145.358-.212-.426.253-1.074.144-1.505.403-.119.072-.239.144-.358.212.503-.135 1.001-.269 1.505-.403-.27-.471.072-1.1063.186-1.5973.166-.7287.327-1.4625.483-2.1963.306-1.4264.633-2.8475.939-4.2687.617-2.8682 1.141-5.757 1.307-8.6924-.01.1447-1.494.2223-1.504.398z"/><path d="m236.339 71.3561c.254-.8113.425-1.6899.903-2.4082.104-.155.244-.3462.43-.4031-.306.0827-.617.1705-.923.2532-.514.1086-.68.1551-.488.1292h.031c.021 0 .047-.0051.068.0052.052.0207.041.0517.052.1085.01.0672.02.1396.026.2068.031.2738.041.5477.041.8268 0 .5633-.041 1.1214-.041 1.6847 0-.0206.695-.1757.752-.1912.176-.0465.353-.093.529-.1447.026-.0052.218-.0517.218-.062 0-.7338.073-1.4625.031-2.1963-.01-.1758-.026-.3515-.052-.5272-.01-.0775 0-.093-.067-.1137-.031-.0103-.068 0-.099 0-.27.0362-.539.1344-.804.2016-.239.062-.488.124-.721.1964-.036.0103-.073.0258-.104.0413-.28.1395-.451.4755-.581.7442-.176.3669-.311.7493-.431 1.1369-.093.2997-.171.6098-.264.9096 0-.0052.249-.0621.223-.0517.176-.0465.353-.093.534-.1396.177-.0465.353-.093.53-.1447.015-.0051.197-.0361.207-.062z"/><path d="m246.653 83.8469c.052 2.7131-.363 5.4004-.913 8.0515-.264 1.2765-.555 2.5529-.84 3.8242-.151.677-.301 1.3592-.472 2.031-.161.6356-.41 1.2403-.488 1.8914.021-.155 1.344-.2532 1.505-.4031 1.784-1.6744 2.531-4.2841 3.439-6.4805 1.069-2.5942 2.107-5.204 3.113-7.8293.914-2.3824 1.744-4.8061 3.248-6.8939.55-.7649 1.178-1.5349 1.946-2.0982.145-.1033.301-.1809.446-.2842.374-.2532-.892.2739-.955.2222.032.0258.156-.0155.203.0103.389.2119.539.4135.628.8786.233 1.1938-.198 2.4702-.436 3.6278-.286 1.3643-.586 2.7235-.908 4.0775-.623 2.6097-1.697 5.111-2.117 7.7673-.171 1.0956-.213 2.4392.934 3.0128.98.491 2.246.2894 3.274.0827 1.572-.3204 3.133-.7855 4.638-1.3333 1.152-.4186 2.273-.9405 3.435-1.3229-.353.1188-1.002.2325-1.453.3824-.913.3049-1.8.7028-2.698 1.049-.68.2636-1.37.5117-2.065.7287-.13.0414-.399.1757-.529.1602-.042-.0051.856-.1912.415-.1188-.057.0103-.119.0258-.176.0413-.353.0775-.706.1395-1.064.1757-.944.1034-2.164.1085-2.838-.6821-1.022-1.1938-.259-3.3643.083-4.6511.348-1.3023.789-2.584 1.173-3.8759.383-1.292.674-2.6046.97-3.9173.285-1.2764.602-2.5632.82-3.8552.108-.6615.383-2.3462-.535-2.6201-.249-.0724-.524.031-.763.093-.425.1085-.876.2016-1.291.3566-.665.248-1.204.7803-1.671 1.292-1.666 1.8139-2.693 4.0516-3.549 6.3254-1.095 2.9044-2.231 5.7932-3.403 8.6614-.566 1.385-1.137 2.77-1.728 4.1446-.519 1.2093-1.121 2.3566-2.091 3.2661.503-.1344 1.001-.2687 1.505-.4031.072-.615.3-1.1834.456-1.7726.177-.6718.322-1.354.472-2.031.296-1.3126.592-2.6252.867-3.943.55-2.6511.965-5.3384.913-8.0516.005.1241-1.505.2791-1.5.4135z"/><path d="m280.092 77.7229c.898-1.0387 1.718-2.2325 2.236-3.509.457-1.1266.685-2.8888-.908-3.1989-.705-.1343-1.608.2274-2.267.4445-.783.2584-1.396.8475-1.925 1.4625-1.432 1.6537-2.615 3.571-3.606 5.5089-1.094 2.1395-2.21 4.4237-2.272 6.8681-.036 1.4677 0 3.1059.664 4.4547.83 1.6951 2.589 1.6537 4.208 1.2351 1.997-.5167 3.746-1.3023 5.338-2.6407 1.92-1.6072 3.248-3.7829 4.167-6.0826.477-1.1938.882-2.4289 1.146-3.6899.14-.6615.208-1.3281.27-1.9999.042-.4445.161-.9923-.15-1.3695-.073-.0879-1.36.3359-1.505.4031-.923.3979-1.121 1.5503-1.328 2.4237-.327 1.3592-.747 2.6925-1.022 4.0671-.612 3.0542-.862 6.1705-1.079 9.2712-.441 6.3461-.784 12.6617-1.827 18.9457-.98 5.917-2.117 11.999-4.55 17.524-1.136 2.579-2.568 5.028-4.239 7.302-1.603 2.186-3.403 4.31-5.572 5.969-4.794 3.664-10.719 4.718-16.473 5.969-.457.098-1.089.315-1.447.393 5.017-1.086 10.226-1.99 14.937-4.114 2.417-1.09 4.654-2.553 6.527-4.429 2.101-2.108 3.932-4.537 5.473-7.08 3.264-5.38 4.836-11.4 6.04-17.514 1.302-6.609 2.007-13.24 2.417-19.9632.223-3.6692.415-7.3642.996-11.0024.281-1.7622.696-3.4883 1.183-5.2092.281-.9974.374-2.4857 1.469-2.956-.504.1343-1.002.2687-1.505.4031.457.5478.125 1.8346.036 2.4702-.15 1.0698-.441 2.1137-.778 3.1421-.628 1.9017-1.463 3.7519-2.662 5.3694-1.172 1.5762-2.703 2.8837-4.446 3.788-.213.1086-.425.2119-.648.3101-.161.0672-1.163.4134-.478.1964.571-.1757-.129-.031-.321-.0207-.255.0104-.509 0-.758-.0362-.716-.1033-1.287-.4547-1.686-1.0542-.763-1.1421-.872-2.6821-.898-4.0154-.036-2.0103.467-3.8398 1.287-5.664.939-2.0982 2.044-4.1291 3.393-5.9947.452-.6202.898-1.2507 1.422-1.814.259-.279.539-.5478.845-.77.146-.1085.301-.1912.457-.2842.062-.0362.14-.0569.202-.093-1.276.7596-1.219.1912-.752.2635 3.471.5582 0 5.4366-1.121 6.7286.094-.1085.607-.1551.753-.1912.171-.0569.643-.0827.757-.2171z"/><path d="m327.679 63.7232c-1.857-.8269-3.735-1.3488-5.779-1.3178-1.469.0206-2.895.2997-4.286.7648-.69.2326-1.38.6357-1.728 1.3023-.42.7959-.072 1.7519.338 2.4806.991 1.7777 2.936 2.8785 4.337 4.3048 2.49 2.5271 4.919 6.5322 2.911 10.0619-.882 1.5555-2.371 2.6563-3.943 3.4624-.675.3463-1.375.646-2.091.9096-.301.1085-.602.2067-.903.2997-.109.031-.223.0569-.327.0982-.01.0052.721-.1757.343-.093-.213.0465-.421.0982-.633.1395-2.766.5633-6.75.8217-8.354-2.0516-.067-.1189-1.447.5013-1.504.4031 1.416 2.5477 4.757 2.6046 7.305 2.2377 2.687-.3928 5.52-1.1835 7.922-2.4703 1.609-.863 3.124-2.0775 3.907-3.7622.784-1.6899.54-3.6588-.124-5.3436-.737-1.8707-2.06-3.3901-3.497-4.7699-1.437-1.3747-3.373-2.4909-4.135-4.4185-.379-.9613-.28-1.907.55-2.584.171-.1395.363-.2584.56-.3617.078-.0362.15-.0724.228-.1085.924-.398-.347.1085-.57.1136.493-.0155.996-.155 1.494-.186 2.303-.124 4.394.3618 6.485 1.2971.13.0569.618-.155.753-.1912.129-.0465.607-.2739.741-.217z"/><path d="m332.883 64.4415c-1.836 1.7881-3.196 3.9483-4.119 6.3306-.358.9303-.727 1.9122-.877 2.8992-.099.6512-.093 1.4574.576 1.8036.835.4341 1.966.0465 2.807-.1757 1.11-.2946 2.163-.6253 3.18-1.1731 1.816-.9871 3.508-2.3152 5.064-3.6692 1.365-1.1886 2.807-2.5839 3.471-4.3048.669-1.7364-.067-3.7002-1.982-4.1912-1.541-.3979-3.481-.1395-5.022.2171-.778.1809-1.603.3514-2.34.6615-.223.093-.592.2532-.69.5013-.083.217-.068.1705.14.2428.316.1086.794.0724 1.121.0621 1.203-.0414 2.397-.4031 3.543-.7442 1.313-.3876 2.542-1.0077 3.715-1.7002 1.25-.739 2.485-1.5401 3.668-2.3824.55-.3928 1.105-.8269 1.531-1.354.342-.4289.628-.9457 1.157-1.1731-.493.1344-.986.2635-1.479.3979.394-.093.171.0982.083.3049-.078.1809-.161.3618-.244.5426-.15.3256-.311.646-.472.9664-.348.708-.69 1.416-.981 2.1499-.565 1.4263-1.022 2.9043-1.38 4.3978-.223.9457-.695 2.2429-.441 3.2299.244.9561 1.469 1.0284 2.278.8941 4.301-.7029 8.976-4.1756 8.94-8.8577-.011-1.1266-.462-2.0207-1.531-2.4651-.965-.3979-2.112-.4806-3.134-.2791-.451.0879-.892.2222-1.333.3411-.192.0517-.384.0982-.571.1654-.27.093-.327.1033-.041.2015.747.2481 1.805-.2119 2.506-.4082 1.675-.4755 3.081-1.5659 4.456-2.584 1.879-1.3901 3.752-2.7958 5.63-4.1808.363-.2687.747-.4703 1.126-.708-1.692 1.0646-1.464.0155-.96.4548.109.093.166.2429.212.3772.291.8062.161 1.8191.078 2.6512-.254 2.6097-1.561 5.049-1.525 7.6846 0-.1499 1.447-.2171 1.505-.4031.736-2.5168 2.179-4.8165 3.533-7.0438.643-1.0594 1.338-2.1033 2.168-3.0336.644-.7183 1.381-1.633 2.304-1.9844-.181.0517-.368.1033-.55.155.047-.0155.099-.0258.145-.0413-.316.0827-.638.1654-.954.248.114-.0155.244-.0465.358-.0103.254.0775.155.0052.275.2842.135.3049.15.7287.192 1.0543.098.7907.109 1.5865.202 2.3772.13 1.0801.42 2.1602 1.266 2.9095 1.422 1.2558 3.621 1.1524 5.38.9302 2.428-.3049 4.825-.894 7.181-1.5348 2.693-.7339 5.328-1.6641 7.777-3.0181 2.89-1.602 5.251-3.9637 8.12-5.5864-.436.248-1.064.155-1.505.403-1.644.9303-3.113 2.1137-4.612 3.2558-1.557 1.1783-3.181 2.2274-4.945 3.0749-3.393 1.6279-7.144 2.6563-10.89 3.0542-2.433.2584-5.37-.0517-6.086-2.8268-.249-.9664-.254-1.969-.337-2.956-.042-.4755-.099-.9509-.213-1.4109-.098-.4134-.28-.4599-.69-.3876-.555.0931-1.167.2533-1.691.46-.649.2584-1.131.8113-1.603 1.3023-1.417 1.4677-2.491 3.142-3.513 4.8991-1.084 1.8708-2.205 3.7416-2.817 5.8345.503-.1343 1.001-.2687 1.505-.403-.032-2.3101 1.053-4.4031 1.395-6.6563.104-.6718.177-1.3488.197-2.0258.016-.5684.083-1.385-.249-1.8862-.347-.5272-1.162-.0827-1.629.0465-.654.1808-1.167.5116-1.712.9147-1.728 1.2765-3.429 2.5839-5.173 3.8449-1.276.9199-2.521 1.9379-3.979 2.5684-.088.0362-.182.0724-.27.1085-.794.3308.82-.1963.825-.1963-.213.0103-.405.0671-.623.0568-.124-.0103-.306-.0155-.415-.0827-.031-.0155-.207-.1447-.078-.0878.317-.1292.073-.0672-.736.186.052-.0103.103-.0155.155-.0258.96-.0672 1.92-.0465 2.823.3307 2.013.8372 1.722 3.4728 1.069 5.1627-.742 1.9225-2.512 3.4522-4.208 4.5529-.462.2997-.939.5736-1.442.7907-.141.062-.286.1137-.431.1705-.726.2998 1.349-.2377.597-.1602-.281.031-.545.0672-.831.0414-.809-.0724-1.432-.429-1.478-1.2868-.052-1.0181.301-2.1292.539-3.1059.322-1.3023.716-2.5891 1.199-3.8449.482-1.2558 1.121-2.4341 1.676-3.6589.057-.1292.155-.2945.192-.4341.109-.3979.145-.1602-.037-.217-.088-.031-.337.0775-.42.1033-.394.1034-.83.1706-1.204.3256-.404.1706-.669.5323-.928.8734-.317.4134-.649.7752-1.048 1.1111-.939.7855-2.008 1.4263-3.036 2.0878-1.016.6563-2.054 1.292-3.154 1.8036-.259.124-.524.2377-.794.3462-.135.0517-.264.1034-.399.1551-1.168.4237.596-.0414-.135.0465-.612.0723-1.204.1602-1.821.1085-.172-.0155-.566-.0052-.597-.1499-.021-.093.13-.2429.182-.2945.238-.2533.581-.3204.887-.46-1.002.46-1.028.2481-.664.1861.129-.0207.254-.0465.384-.0724.197-.031.399-.062.596-.0878.306-.0362.607-.0672.913-.0931 1.785-.1343 3.881-.1343 4.779 1.7158.716 1.478-.083 3.0904-.981 4.2893-1.022 1.3695-2.334 2.5219-3.673 3.5813-.711.5633-1.437 1.1163-2.184 1.6331-.519.3566-1.048.6976-1.598 1.0025-.26.1447-.524.2791-.789.4031-.301.1396-.851.2326-1.095.4341.353-.2894.597-.1343.223-.1033-.129.0103-.254.031-.378.0362-.229.0103-.462.0051-.69-.0517-.307-.0724-.587-.2222-.758-.491-.358-.5581-.197-1.3488-.052-1.9482.503-2.1137 1.427-4.2067 2.636-6.0155.654-.9767 1.411-1.8707 2.252-2.6924-.12.1137-.592.1499-.753.1912-.176.0362-.602.0568-.742.1912z"/><path d="m400.176 12.5096c.783-2.155 1.499-4.34101 2.407-6.4495.441-1.03358.965-2.02064 1.458-3.02837.234-.47545.462-.95606.654-1.45217.15-.39276.239-.790682.545-1.100754-.504.134364-1.002.268728-1.505.403093.125 1.111091-.545 2.330711-.96 3.328111-.581 1.40049-.975 2.88883-1.39 4.34617-1.017 3.58132-1.832 7.21432-2.579 10.86282-1.525 7.4779-3.061 14.9558-4.27 22.4906-.316 1.9793-.695 3.9586-.866 5.9586-.042.4961-.187 1.1627-.088 1.6537.036.186-.078.1963.124.2997.109.0569.218 0 .327-.0207.529-.0878 1.406-.1912 1.66-.7028-.041.0827-.654.1654-.752.1912-.119.031-.695.0931-.752.2067-.078.1499-.12.2326-.26.3256.503-.1344 1.002-.2687 1.505-.4031-.41.0775-.353-.2377-.343-.5426.011-.4341.037-.8682.073-1.3023.067-.8424.176-1.6847.301-2.5219.249-1.6744.54-3.3436.809-5.018.566-3.5348 1.24-7.049 1.941-10.558 1.38-6.9301 2.62-13.9171 4.508-20.7283.447-1.60721.867-3.26094 1.5-4.8113.425-1.03357 1.141-2.31003 1.012-3.462467.01.07235-1.391.284232-1.505.403093-.285.289404-.379.656324-.519 1.023244-.182.48578-.41.95606-.633 1.42116-.503 1.04391-1.053 2.06198-1.51 3.13173-.902 2.10849-1.624 4.29454-2.407 6.44954.026-.0672.669-.1706.752-.1913.114-.0206.727-.1033.763-.2015z"/><path d="m394.111 61.4235c-1.251.3359-2.454.708-3.523 1.4625-.467.3307-.97.6563-1.375 1.0594-.176.1757-.342.3773-.425.615-.089.248-.026.3359.217.3979.421.1034.888-.062 1.287-.1654.602-.155 1.214-.3049 1.795-.5323.893-.3514 1.759-.8062 2.631-1.2092.638-.2946 1.266-.6202 1.847-1.0233.27-.186.529-.3876.773-.6098.114-.1034.223-.2119.332-.3204.13-.1344.213-.1809.114-.3411-.327-.5478-1.11-.4548-1.634-.3359-1.022.2274-2.086.4858-2.994 1.0181-.539.3152-1.255.7907-1.437 1.4263-.026.0879-.073.2687-.016.3566.14.2222.748.2842.976.2997.711.0465 1.427-.1964 2.106-.3772.913-.2481 1.941-.4961 2.776-.9612.327-.1809.711-.4703.649-.8889-.058-.3773-.447-.5736-.779-.6718-.97-.2946-1.878-.0259-2.822.2325-.913.2481-1.723.8217-2.325 1.5504-.332.4031-.622 1.2816.161 1.3591.436.0465.929-.1498 1.339-.2584.488-.1292.975-.248 1.437-.4547.638-.2843 1.37-.6719 1.826-1.2145.203-.2429.369-.6822.006-.8527-.473-.2222-1.256.1344-1.702.2532-.872.2378-1.816.5995-2.439 1.2868-.114.1292-.228.2843-.259.46-.036.217.041.2739.239.3204.373.093.778.0465 1.146-.031.638-.1344 1.287-.2998 1.899-.5116.389-.1344.773-.3205 1.064-.615.259-.2688.389-.5943.316-.9664.005.0207-1.51.3617-1.504.4031.14.6666-.41 1.1421-.96 1.4108-.275.1344-1.048.3411.072.0414 1.111-.2998.343-.0982.026-.0827-.192.0051-.679.0258-.788-.1551-.151-.248.218-.6459.368-.7906.275-.2636.612-.4703.944-.6512.146-.0775.296-.1499.447-.217.062-.0259.124-.0517.186-.0776.171-.0775.633-.1809-.493.1292-1.079.2946-.622.1292-.415.1396.364.0206.654.1498.53.5736-.141.4703-.696.801-1.085 1.0491-.275.1757-.56.3307-.856.4702-.156.0724-.316.1292-.477.1913-.332.1291 1.203-.2894 1.069-.2791-.042.0052-.083.0155-.125.0207-.067.0051-.13.0155-.197.0155-.493-.0052-.721-.3825-.581-.8476.207-.6821 1.032-1.2661 1.598-1.633.135-.0879.28-.1602.42-.2429.031-.0155.062-.0258.093-.0413-.212.0568-.425.1085-.638.1653-.653.1551-.851.2067-.596.1602.077-.0103.155-.0258.233-.031.337-.031.69-.0155 1.022.0465.493.0879 1.323.4135 1.053 1.0698-.259.6356-1.281.8785-1.857 1.0646-.114.0361-.223.0723-.337.1085-.218.0723-.851.2532.109-.0104.97-.2635.249-.0775-.011-.062-.337.0207-1.266.0052-1.375-.3876-.114-.4237.447-.9405.722-1.1731.508-.4341 1.115-.77 1.748-.9922.047-.0155.088-.031.135-.0465.197-.0723.602-.1654-.508.1344-1.08.2894-.618.155-.364.1137.14-.0207.286-.0362.431-.0362.239 0 .493.0413.69.1757.083.0568.156.124.213.2067.14.2016.031.2687-.13.4341-.384.3928-.82.7339-1.281 1.0284-.857.5478-1.79.9147-2.698 1.3592-.301.1447-.602.2997-.903.4392-.171.0827-.348.1602-.524.2326-.291.1188-1.194.3772-.047.0723 1.095-.2945.348-.0775.036-.0981-.119-.0052-.306-.0207-.399-.1034-.259-.2326.265-.7959.446-.9716.675-.646 1.557-1.2403 2.397-1.6485.426-.2067.97-.4186 1.365-.522.15-.0413.301-.0775.446-.124-.031.0103.166-.0413.072-.0258-.311.0465-.627.1602-.928.2377z"/><path d="m280.208 70.8633c.407-.1036.852-.1712 1.259-.0938.445.0867.783.2802 1.02.5547.235.2721.356.6057.404.9502.093.6812-.095 1.4501-.331 2.0332-.532 1.3087-1.369 2.5247-2.278 3.5762l.001.001c-.073.0864-.178.131-.25.1562-.08.0283-.169.0486-.25.0645-.079.0157-.166.0304-.23.042-.072.0129-.117.0216-.14.0293l-.009.0039-.008.0019c-.05.0123-.122.0238-.188.0342-.071.0113-.148.0231-.223.0371-.075.0142-.141.0294-.19.0449-.024.0078-.04.0139-.047.0176.005-.0031.012-.0109.023-.0225l-.378-.3261.003-.0039c.552-.6376 1.677-2.1529 2.236-3.5645.282-.7123.4-1.3517.276-1.8281-.06-.2305-.177-.4243-.367-.5772-.143-.1148-.334-.2127-.588-.2822-.002.0017-.004.0032-.007.0049l-.003.002c-.288.209-.556.4646-.809.7373-.256.2749-.493.5672-.723.8681l-.68.9229c-1.169 1.6172-2.155 3.3623-3.008 5.1709l-.359.7793c-.809 1.8013-1.3 3.5936-1.264 5.5566l.014.5068c.049 1.1924.213 2.4352.841 3.375l.142.1914c.346.422.805.6721 1.372.754.231.0335.468.0437.708.0341l.189-.0234c.08-.0117.174-.0259.241-.0342.007-.0008.014-.0012.021-.0019.115-.042.218-.0789.262-.0967.217-.0956.425-.1959.634-.3028 1.709-.8867 3.21-2.1691 4.36-3.7148.144-.194.281-.3921.415-.5928.152-1.2716.341-2.5399.594-3.7978.275-1.3756.704-2.7448 1.024-4.0762.1-.4227.207-.9578.408-1.4297.179-.4182.443-.8172.87-1.0674l.194-.0976c.1-.0448.468-.169.807-.2695.177-.0523.357-.1014.499-.1319.07-.0149.14-.0276.199-.0322.028-.0022.065-.0038.103.001.016.002.074.0098.132.0488l.057.0508.07.0957c.149.2281.19.4846.194.7187.004.2576-.04.5389-.058.7373-.063.6714-.13 1.3512-.274 2.0284-.268 1.2786-.678 2.528-1.159 3.7314-.451 1.1295-1.003 2.2321-1.675 3.2568-.35 2.9074-.511 5.8427-.689 8.7735-.411 6.7303-1.117 13.3733-2.422 19.9973-1.205 6.12-2.784 12.176-6.07 17.594-1.55 2.557-3.394 5.003-5.511 7.127-1.898 1.901-4.161 3.38-6.602 4.481-4.741 2.138-9.985 3.048-14.986 4.13l-.107-.489c.168-.036.406-.106.67-.184.258-.076.539-.157.778-.208l2.167-.467c5.054-1.09 10.059-2.287 14.207-5.457 2.141-1.638 3.925-3.74 5.522-5.918 1.66-2.26 3.084-4.694 4.212-7.255 2.419-5.492 3.552-11.547 4.532-17.465 1.041-6.269 1.383-12.5695 1.825-18.9215.072-1.0312.148-2.0659.24-3.1006-.108.0972-.217.1936-.329.2871-1.628 1.3675-3.412 2.1667-5.437 2.6905-.822.2127-1.71.3387-2.511.1787-.815-.1632-1.532-.6227-1.984-1.5459-.694-1.4097-.726-3.1048-.689-4.5703.064-2.5093 1.208-4.8423 2.299-6.9756.997-1.9491 2.191-3.885 3.64-5.5586l.206-.2334c.495-.5417 1.085-1.0581 1.83-1.3037.318-.1046.726-.2548 1.133-.3584zm3.475 15.6055c-.334.4385-.695.8563-1.082 1.2519-.043.4471-.082.8948-.119 1.3428l-.174 2.3252c-.441 6.3401-.784 12.6703-1.829 18.9683-.981 5.917-2.12 12.028-4.568 17.584-1.001 2.272-2.23 4.444-3.647 6.484l-.619.866c-1.609 2.194-3.426 4.34-5.623 6.02-.158.121-.317.239-.478.354 1.336-.829 2.581-1.796 3.693-2.91 2.085-2.092 3.906-4.505 5.438-7.033l.299-.503c3.038-5.213 4.544-11.014 5.709-16.93 1.299-6.595 2.003-13.214 2.413-19.9306.159-2.6196.304-5.2616.587-7.8896zm-108.009.0253c1.062-.2866 2.223-.6196 3.411-.2939 1.409.3883 2.393 1.5494 3.005 2.7471.652 1.2718.955 2.648 1.129 4.0332.172 1.368.223 2.8028.349 4.1201l-.001.0654c-.008.0603-.037.1048-.056.1289-.026.032-.055.0522-.071.0625-.032.0213-.068.0363-.093.0459-.055.0206-.125.0402-.198.0586-.147.0376-.342.0783-.53.1172-.191.0395-.377.0775-.515.1094-.071.0161-.123.0291-.155.039-.006.0019-.01.003-.012.0039.002-.0012.018-.0092.038-.0253.007-.0059.051-.0424.073-.1084l.012-.0762-.499.0234c-.138-1.4548-.177-2.9295-.38-4.3935-.19-1.3605-.517-2.6669-1.18-3.836l-.137-.2314c-.671-1.0852-1.648-1.9222-2.879-2.0938l-.25-.0254c-.255-.0161-.511-.0082-.763.0225-.158.0639-.31.1276-.458.1973l-.001-.001c-.665.3163-1.291.7196-1.868 1.1836l-.001.001c-2.179 1.7384-3.857 4.186-5.334 6.5664-1.574 2.5276-2.878 5.2204-3.873 8.0244-.726 2.039-1.268 4.138-1.683 6.266l-.17.914c-.377 2.088-.623 4.2-.577 6.306.092 4.142 1.562 8.153 5.45 9.992 2.779 1.313 5.744 1.551 8.748 1.304 3.01-.247 6.035-.977 8.946-1.587l.105.49c-.168.036-.404.106-.669.183-.258.076-.541.158-.779.209-3.37.705-6.787 1.555-10.286 1.68-3.238.114-6.828-.44-9.519-2.469-3.679-2.78-4.235-7.656-3.933-11.819.381-5.204 1.775-10.428 4.008-15.138 1.346-2.8376 3.006-5.5465 4.959-8.0117 1.68-2.1196 3.61-3.8597 6.251-4.6709.016-.0085.027-.0138.029-.0146.016-.0066.034-.0118.046-.0157.052-.0157.156-.044.311-.083zm-2.497 1.6114c-1.433.8751-2.637 2.0822-3.747 3.4834-1.928 2.4338-3.569 5.1095-4.9 7.915-2.207 4.6541-3.584 9.8181-3.961 14.9601-.3 4.135.275 8.769 3.735 11.384 2.193 1.654 5.046 2.293 7.821 2.372-1.471-.156-2.924-.492-4.339-1.088l-.543-.243c-4.133-1.955-5.642-6.202-5.736-10.433-.047-2.152.204-4.299.585-6.406.437-2.46 1.032-4.897 1.873-7.259 1.007-2.8388 2.328-5.5627 3.92-8.1201l.566-.8984c1.315-2.047 2.829-4.109 4.726-5.667zm21.572 5.9951c2.166-.5612 4.475-.2648 6.211 1.2627l.167.1523.168.166c1.582 1.6315 2.017 4.0317 1.987 6.1834l-.012.442c-.106 2.501-.704 5.054-1.718 7.346-.995 2.244-2.443 4.247-4.27 5.888-.807.725-1.734 1.43-2.81 1.793-.791.266-1.753.591-2.655.607-1.149.023-2.006-.506-2.589-1.276-.506-.667-.808-1.514-.939-2.35l-.046-.356c-.233-2.31.309-4.705.976-6.858l.311-.961c.761-2.247 1.753-4.504 2.972-6.5209.527-.8701 1.219-1.8635 2.338-2.1933.375-.1108.725-.2128 1.074-.2803.078-.021.156-.0417.234-.0625l.008.0244c.501-.0723 1.012-.0661 1.601.0947l-.131.4825c.017.0046.008-.0022-.047.0097-.047.0104-.106.0292-.173.0537-.067.0247-.133.0521-.198.0782-.059.0235-.128.0505-.185.0654l-.004.002c-.028.0065-.072.0215-.14.0459-.062.0223-.14.0507-.216.0761-.076.0255-.162.0508-.243.0664-.074.0142-.179.0281-.278.001-.182-.0479-.356-.0918-.522-.125-.207.1717-.399.3796-.579.6094-.361.4613-.657.9944-.917 1.4756-.463.854-.89 1.738-1.292 2.631l-.395.894c-1.012 2.354-1.811 4.81-2.114 7.341-.181 1.499-.228 3.121.412 4.446.3.622.771 1.124 1.387 1.417.351.165.725.253 1.109.262h.001c.054-.011.112-.019.176-.024.011-.005.022-.011.033-.016.1-.047.195-.091.286-.141 1.61-.906 3.011-2.394 4.099-3.903 1.232-1.7 2.132-3.641 2.691-5.666.492-1.788.898-3.974.779-6.036-.119-2.0612-.76-3.9664-2.33-5.2441-.655-.5337-1.427-.9106-2.244-1.1191-.413-.1041-.837-.1639-1.26-.1787-.185-.007-.376.0151-.589.04-.162.019-.339.0391-.517.043-.095.0382-.192.078-.292.1211-.195.09-.38.186-.566.291l-.001-.001c-.353.2033-.689.4424-1.013.7041l.001.001c-.717.5884-1.332 1.2914-1.937 2.0234l-.006.0059c-.073.0828-.176.1266-.247.1513-.08.028-.169.0485-.25.0645-.082.0162-.165.03-.232.041l-.148.0264c-.049.0127-.122.0248-.187.0351-.072.0114-.149.0231-.225.0371-.077.0143-.143.0294-.192.045-.025.0076-.039.0133-.045.0166.005-.0033.014-.0122.026-.0264l-.386-.3154.001-.002c.795-.9628 1.663-1.9406 2.762-2.6455l.196-.1211c.989-.5826 2.074-.8658 3.134-1.1406zm.125 3.8437-.001-.0029c-.744.2617-1.278.8965-1.74 1.6113l-.203.3252c-1.368 2.2631-2.45 4.8431-3.234 7.3711-.661 2.136-1.178 4.453-.955 6.66l.042.332c.121.773.399 1.537.843 2.122.502.662 1.215 1.097 2.182 1.078.177-.003.358-.022.541-.048-.15-.046-.297-.1-.44-.167l-.001-.001c-.732-.348-1.28-.941-1.623-1.653-.708-1.465-.641-3.214-.459-4.722.31-2.595 1.129-5.1 2.152-7.48l.398-.902c.406-.901.837-1.796 1.308-2.6633.259-.48.573-1.0474.963-1.5459.088-.1115.18-.2206.277-.3252-.017.0035-.033.0065-.05.0107zm1.708-3.6035.263.0596.329.0928c.762.2372 1.482.6134 2.107 1.123 1.72 1.3992 2.39 3.4637 2.514 5.6028.123 2.138-.297 4.384-.796 6.198-.573 2.078-1.498 4.074-2.768 5.826-.825 1.145-1.841 2.295-3.005 3.202.615-.344 1.187-.794 1.722-1.275 1.774-1.594 3.18-3.54 4.147-5.72.988-2.235 1.572-4.725 1.675-7.164.097-2.2883-.315-4.8205-1.988-6.4081-1.169-1.1062-2.658-1.5772-4.2-1.5371zm28.664-9.8691c.091-.0129.218-.0208.333.0273l.006.002c.169.0711.251.2272.294.3476.045.1284.066.2762.076.4121.02.2741-.003.5624-.014.6934v.002c-.038.4401-.135.8705-.246 1.2793-.118.4372-.256.8697-.389 1.2949-.067.2137-.133.4261-.195.6386l-.172.6387c-.576 2.3865-1.319 4.6835-1.628 7.0791-.099.7835-.212 1.7198-.127 2.5938.084.8735.361 1.6415 1.001 2.1315l.131.094c.671.445 1.563.548 2.42.567.59.016 1.177-.03 1.759-.126.054-.008.139-.027.225-.045.138-.052.275-.103.411-.155l.5-.201c.265-.116.552-.171.806-.22.264-.05.494-.095.698-.183l.099.23.099.229c-1.778.773-3.909 1.37-5.879 1.37-.778 0-1.619-.083-2.346-.383-.689-.284-1.278-.767-1.605-1.551l-.062-.161c-.317-.896-.359-1.8855-.281-2.8534.078-.968.277-1.9337.453-2.7841.374-1.8057.823-3.6353 1.334-5.4161l.223-.7597c.066-.2277.365-1.1695.572-2.1006-.167.2684-.331.5386-.489.8135-.41.7142-.797 1.4397-1.184 2.1689-.193.364-.386.7291-.581 1.0938l-.594 1.0908c-1.378 2.4761-2.72 4.9737-4.18 7.4121l-.001-.001c-.227.3838-.489.8488-.805 1.2628-.316.415-.702.802-1.189 1.022l.001.001c-.431.198-.951.287-1.348.392l-.002.001c-.107.027-.217.055-.314.069-.099.015-.211.022-.325-.012-.246-.075-.375-.296-.472-.559-.21-.576-.116-1.242-.077-1.739.023-.3108.037-.6234.05-.9397.014-.3155.027-.6355.048-.9541.022-.3136.047-.6297.072-.9454-.003.0134-.004.0268-.006.0401-.338 2.0676-.755 4.1341-1.319 6.1611-.563 2.026-1.181 4.005-1.593 6.04l-.001-.001c-.03.149-.151.222-.208.251-.07.035-.153.059-.229.076-.155.036-.351.06-.53.081-.187.023-.357.042-.484.068-.064.013-.102.025-.12.033-.037.017.043-.005.066-.107l-.489-.102c.417-2.063 1.045-4.074 1.602-6.074.562-2.004.97-4.0463 1.307-6.1078.341-2.1099.628-4.2462 1.049-6.3554l.156-.7344c.053-.2437.107-.4865.162-.7285.109-.4849.217-.967.315-1.4522l.116-.5429c.116-.4885.292-.9923.669-1.3936l-.083-.1152.309-.083c.014-.0079.025-.0159.033-.0196.023-.0107.049-.0212.075-.0312.054-.0204.12-.0429.194-.0664.147-.0472.332-.1013.514-.1504s.365-.0948.506-.125c.07-.0149.135-.0265.186-.0332.024-.0032.054-.0071.083-.0068.014.0001.038.0016.066.0078.014.0031.1.0203.158.1035.321.4413.394.9782.38 1.4853-.013.5058-.116 1.0265-.181 1.4366-.19 1.1798-.251 2.3848-.34 3.5966-.198 2.6451-.467 5.2636-.57 7.8938-.008.164.003.311.023.455.252-.355.479-.738.71-1.1251l.892-1.5244c.883-1.5288 1.741-3.0693 2.585-4.6221 1.16-2.1371 2.254-4.372 3.562-6.4531l.3-.5079c.105-.183.219-.3773.341-.5664.24-.3735.529-.7521.89-.9912.173-.1144.367-.1823.546-.2314.09-.0248.181-.0461.265-.0654.086-.0198.165-.0372.239-.0567h.002c.031-.008.086-.0274.17-.0576.078-.0281.174-.0625.271-.0928.097-.03.204-.0588.305-.0732zm-12.155 2.4629c-.333.4168-.445.9722-.57 1.5918-.1.4914-.209.9789-.318 1.4629-.109.4849-.217.9669-.315 1.4521-.21 1.0484-.386 2.1004-.552 3.1563l-.494 3.1806c-.338 2.0726-.751 4.1337-1.32 6.1607-.522 1.876-1.091 3.717-1.5 5.604.122-.019.258-.037.385-.052.186-.022.354-.043.478-.071.033-.008.057-.018.076-.024.417-2.029 1.035-4.011 1.585-5.989.557-2.004.97-4.0512 1.307-6.1072.312-1.9304.579-3.8828.945-5.8164.053-.7076.123-1.4169.232-2.1152.073-.4592.178-.956.199-1.4483.015-.3673-.02-.7021-.138-.9853zm12.301-1.9522c-.193.0855-.359.2355-.515.4297-.164.2046-.301.4351-.446.666-.002.003-.004.0068-.006.0098-.025.2976-.078.6309-.146.9619-.21 1.0239-.565 2.1305-.63 2.3545v.0029c-.599 2.003-1.121 4.0839-1.545 6.1338-.177.8547-.37 1.7905-.445 2.7227-.075.9324-.031 1.8433.253 2.6463.255.722.758 1.157 1.387 1.417.638.264 1.403.345 2.155.345.026 0 .053-.002.079-.002-.523-.089-1.045-.249-1.496-.549l-.157-.112c-.797-.611-1.104-1.541-1.194-2.4797-.091-.9382.03-1.9301.128-2.707.314-2.431 1.074-4.796 1.639-7.1328l.086-.3321c.09-.3304.19-.6556.29-.9765.134-.4301.269-.8508.384-1.2764.107-.3973.196-.7944.23-1.1914.011-.1332.03-.3862.013-.6172-.008-.1168-.025-.2131-.049-.2803-.005-.0141-.011-.0246-.015-.0332zm-10.792 1.5508c-.336.4199-.449.9747-.575 1.5957-.099.4915-.208.9789-.317 1.4629-.109.4849-.217.967-.315 1.4521-.034.167-.066.3339-.098.501-.052.6967-.091 1.3989-.143 2.1035-.115 1.5737-.263 3.0995-.373 4.67-.02.3116-.033.625-.047.9423-.013.3163-.028.6366-.051.9563-.044.556-.115 1.08.048 1.527l.06.143c.054.105.087.11.087.11.008.002.024.004.055.002.022-.009.056-.023.106-.042h-.002c.021-.01.042-.018.059-.027.022-.012.031-.019.031-.019l.001-.002c.178-.142.304-.222.439-.351.067-.065.131-.133.194-.203-.076-.307-.131-.613-.114-.993.104-2.6404.374-5.2832.571-7.9089.087-1.196.15-2.4313.345-3.6386.069-.4372.163-.9084.175-1.3711.009-.3376-.027-.6462-.136-.9102zm9.269-1.1445c-.052.0231-.101.0482-.144.0771-.272.1795-.516.4845-.747.8447-.115.1778-.223.3629-.329.5459-.104.1811-.207.363-.309.5245l-.001-.001c-1.297 2.0634-2.371 4.2633-3.545 6.4258-1.127 2.0743-2.281 4.1288-3.486 6.1631-.296.4962-.609 1.0342-1 1.5142l.02.079.001.001.001.005c.004.001.012.004.023.007.005.002.034.013.066.036.031-.012.062-.024.092-.038l.002-.001c.379-.172.704-.486.997-.871s.54-.8182.774-1.2147c1.455-2.4295 2.791-4.9146 4.173-7.3994l.59-1.083c.194-.3629.386-.7274.58-1.0928.387-.7293.778-1.4612 1.192-2.1836l.289-.4882c.272-.4468.554-.8841.83-1.3174.004-.0904.005-.1739.001-.249-.009-.1615-.038-.2463-.06-.2803-.001-.0021-.004-.0049-.004-.0049s-.004.0008-.006.001zm13.578-1.793c-.008.0062-.073.0554-.081.1553l.499.0322c-.167 2.9547-.694 5.8591-1.312 8.7314-.153.7115-.313 1.4229-.471 2.1338-.158.7113-.316 1.4227-.469 2.1348-.155.7346-.317 1.4695-.483 2.1992-.031.1351-.078.279-.121.4121-.044.1372-.086.2684-.116.3965-.031.1297-.047.243-.044.343.027-.012.056-.022.081-.037l.005-.003.251.432-.006.002.001.001c-.116.065-.232.136-.352.208l-.001-.001c-.042.026-.102.049-.141.063-.053.019-.119.04-.193.063-.148.046-.333.099-.514.149-.181.049-.362.096-.5.127-.069.015-.131.027-.18.035-.023.003-.052.007-.08.008-.013 0-.038-.001-.067-.006-.014-.003-.039-.009-.067-.023-.028-.013-.076-.043-.109-.103-.189-.335-.145-.719-.069-1.035.039-.1632.092-.3248.139-.4701.048-.1494.09-.279.117-.3945.166-.727.32-1.4576.482-2.1933l.459-2.0762c.153-.6899.306-1.3792.454-2.0723.616-2.8638 1.137-5.7445 1.302-8.6553.007-.1029.065-.1703.102-.2031.038-.0336.079-.0558.11-.0703.064-.0296.143-.0522.217-.0703.152-.037.35-.0693.534-.0986.191-.0303.368-.0585.5-.087.068-.0145.111-.0264.133-.0351.012-.0047.005-.0031-.01.0078zm-.545.6074c-.188.0301-.365.0595-.494.0908-.021.0053-.04.012-.056.0166-.153 2.5367-.569 5.0433-1.078 7.5225l-.226 1.0791c-.295 1.3833-.614 2.7714-.913 4.1504-.161.7316-.317 1.4693-.484 2.1992-.032.1401-.082.2922-.129.4356-.047.1478-.093.2922-.127.4337-.039.159-.056.297-.05.416.025-.016.052-.03.078-.046l.001-.001c.267-.16.592-.201.849-.236.029-.004.056-.009.083-.013-.022-.2.007-.3992.049-.5762.036-.1507.085-.3.128-.4346.045-.1387.084-.2597.11-.3701.165-.727.326-1.46.481-2.1924.153-.7141.313-1.4266.471-2.1377.158-.7113.316-1.4213.469-2.1308.59-2.7422 1.091-5.4937 1.278-8.2822-.134.0255-.291.0524-.44.0761zm21.103-8.957c.147-.0279.323-.042.501.0098h.002c.31.0924.513.3061.639.5615.122.2488.174.543.191.8281.034.5702-.067 1.1833-.121 1.5107-.22 1.3007-.539 2.5998-.822 3.8692-.296 1.3101-.588 2.6322-.975 3.9336-.389 1.3078-.823 2.5691-1.17 3.8691-.176.6603-.444 1.497-.547 2.3272-.097.7813-.037 1.4889.333 1.998l.079.0996.114.1182c.276.2597.642.4047 1.055.4736.474.079.988.0547 1.451.0039h.003c.173-.0174.345-.0414.517-.0703l.517-.1006c.053-.014.112-.0298.169-.041.034-.0132.069-.0262.1-.0361h.002c.689-.215 1.373-.4616 2.049-.7236l1.34-.5391c.452-.1825.91-.3603 1.369-.5137l.385-.1113c.133-.0346.27-.0669.4-.0977.268-.0633.504-.119.667-.1738h.002l.062.1904.095.2842-.006.001c-.571.1881-1.133.4117-1.701.6416-.567.2295-1.14.4665-1.722.6777-1.513.5512-3.087 1.0205-4.673 1.3438-.516.1037-1.108.2101-1.698.2256-.516.0135-1.046-.0422-1.532-.2373l-.206-.0928c-.657-.3289-.971-.8828-1.094-1.4834-.121-.5899-.062-1.2365.025-1.791.213-1.347.592-2.6516.991-3.9366.401-1.2899.821-2.5563 1.13-3.8505.321-1.3514.621-2.7081.906-4.0703.125-.608.285-1.177.394-1.793.106-.6.15-1.1831.042-1.7363l-.001-.001c-.041-.2152-.091-.3415-.159-.4346-.008-.0122-.019-.0233-.029-.0351-.533.4422-.998.9886-1.423 1.5566l-.208.2842c-1.481 2.0549-2.299 4.4405-3.217 6.8369-1.008 2.6271-2.046 5.2388-3.116 7.8349-.444 1.0757-.87 2.3067-1.394 3.4454-.517 1.1218-1.149 2.1996-2.04 3.0586l-.008.0693-.099.0254c-.056.039-.118.064-.16.0781-.064.0214-.138.0405-.215.0576-.128.0286-.281.0539-.429.0801-.005.0011-.009.0028-.013.0039-.25.0671-.501.134-.752.2012l-.133-.2383-.181-.0225c.042-.3465.129-.6763.222-.9922.095-.3225.194-.6198.273-.9316.17-.6672.319-1.3456.469-2.0234.286-1.2724.576-2.5465.84-3.8203l.199-.9922c.446-2.3186.754-4.6538.709-7.0039-.002-.1279.083-.2035.111-.2256.036-.0291.077-.0486.105-.0606.059-.0251.133-.0461.206-.0644.15-.0376.346-.0753.531-.1104.191-.036.372-.0703.505-.1025.068-.0164.112-.0297.135-.0391.013-.0053.007-.0038-.008.0069 0 0-.087.0608-.085.1816l.499-.0146v.0058l.005.5137c-.005 2.5654-.406 5.1019-.923 7.5937-.102.4892-.209.977-.316 1.4649.119-.2906.241-.5803.359-.8711 1.172-2.8659 2.307-5.7534 3.401-8.6553.859-2.2814 1.9-4.556 3.598-6.4062l.371-.3897c.393-.3902.853-.7644 1.397-.9678.391-.146.818-.2408 1.199-.3349.043-.0125.082-.0241.113-.0303.004-.0006.007-.0013.011-.0019.1-.0263.251-.0718.388-.0977zm-12.556 22.8574c-.217.3704-.458.7279-.734 1.0645.168-.0452.337-.0906.506-.1358.043-.266.109-.5212.18-.7666.016-.0548.032-.109.048-.1621zm2-14.2217c-.19.036-.37.0704-.502.1036-.015.0039-.03.0091-.043.0126.034 2.6874-.378 5.3436-.919 7.9512-.132.6394-.271 1.2787-.413 1.917l-.428 1.9111c-.151.6758-.302 1.362-.474 2.0381-.082.3237-.188.648-.277.9492-.002.0043-.003.0085-.004.0127.591-.7416 1.022-1.5982 1.412-2.5078.092-.2141.18-.4299.271-.6445.019-.0838.038-.1681.057-.252.296-1.3129.592-2.6239.866-3.9394.525-2.5288.922-5.0777.91-7.6445-.136.0304-.299.0632-.456.0927zm9.02-7.7021c-.602.225-1.107.7144-1.573 1.2256-1.632 1.7774-2.646 3.979-3.499 6.2451-1.096 2.9065-2.233 5.7978-3.407 8.668-.472 1.1559-.951 2.3115-1.44 3.4628-.128.5777-.256 1.1635-.407 1.7413-.079.296-.179.6011-.26.8798.555-.6818.998-1.4717 1.384-2.3095.522-1.1335.923-2.3064 1.386-3.4268l.795-1.9472c.79-1.95 1.561-3.9086 2.316-5.876.907-2.3684 1.751-4.8305 3.279-6.9512.431-.5998.919-1.2143 1.491-1.7344-.021.0077-.044.0145-.065.0225zm-64.273 19.3164c-.109.0561-.219.1127-.326.1758l-.181.1113c-.814.5215-1.499 1.209-2.142 1.9482.053-.013.123-.024.185-.0341.071-.0115.145-.023.216-.0371.073-.0143.134-.0296.181-.0459.025-.0087.038-.0164.044-.0196.605-.7309 1.243-1.4592 1.995-2.0761l.001-.001c.009-.0073.018-.0142.027-.0215zm4.151 2.0889c-.029.0032-.057.0078-.085.0117l.01.0029v.001c-.013-.0037-.002.0019.054-.0088.007-.0013.013-.0052.021-.0068zm-17.395-10.9024c-.471-.1291-.939-.1406-1.413-.0869 1.189.3262 2.114 1.1982 2.75 2.2256.807 1.3102 1.18 2.7765 1.387 4.2607.19 1.365.245 2.7902.357 4.1094.14-.0313.315-.0666.485-.1016.19-.0392.374-.078.508-.1123.01-.0025.02-.0063.029-.0087-.12-1.3119-.167-2.6137-.332-3.9258-.171-1.3577-.464-2.6698-1.078-3.8682-.545-1.0669-1.366-2.0294-2.468-2.4219zm79.146-10.9453c-.082.0155-.156.0382-.239.0615-.001.0014-.003.0049-.003.0049-.023.0199-.049.0374-.075.0547l.001.001c-.081.0581-.165.1079-.239.1523-.021.0125-.041.0252-.061.0371.011.0129.023.0247.033.0381.127.1765.196.3828.243.6319.125.6404.07 1.2929-.04 1.9189-.108.6099-.283 1.2582-.397 1.8076-.285 1.3661-.587 2.7286-.909 4.085-.314 1.3153-.742 2.6048-1.139 3.8818-.348 1.1218-.674 2.2384-.889 3.377l-.085.4892c-.085.5409-.132 1.1143-.029 1.6133.1.4882.339.892.828 1.1367.44.2203.956.2916 1.501.2774.115-.0031.231-.0127.347-.0225-.452-.1117-.885-.3227-1.212-.7061-.58-.6794-.635-1.612-.527-2.4833.109-.8751.393-1.7671.56-2.3936.348-1.3041.794-2.6071 1.173-3.8828.382-1.2823.671-2.5865.967-3.9014l.435-1.9209c.141-.6396.273-1.2793.382-1.9209.055-.334.145-.893.115-1.3984-.015-.2528-.06-.4729-.141-.6377-.077-.1582-.184-.2582-.334-.3027-.07-.0199-.156-.019-.266.0019zm21.059-4.0137c-.681.2482-1.234.7745-1.739 1.3614l-.001.0009c-1.415 1.6337-2.587 3.5325-3.572 5.459-1.098 2.1455-2.185 4.3815-2.245 6.7608-.034 1.3774-.001 2.8528.526 4.0927l.112.2452c.378.7718.957 1.1401 1.633 1.2753.33.0661.685.0752 1.053.0459-.478-.1522-.887-.4227-1.211-.8164l-.174-.2353c-.707-1.0587-.876-2.4239-.925-3.6387l-.014-.5107c-.038-2.0574.478-3.9245 1.308-5.7715.944-2.1093 2.057-4.1557 3.418-6.0381l.001-.001c.448-.6152.904-1.2601 1.441-1.8369.123-.1331.253-.2654.389-.3926zm3.027 15.1485c-.694.908-1.505 1.725-2.406 2.4267.56-.328 1.1-.7044 1.621-1.1426.251-.2099.491-.4311.722-.6601.02-.208.041-.4161.063-.624zm-68.219-.3086c-.147.0394-.294.0787-.442.1181.091.1968.147.4044.177.6163.069-.2522.158-.5046.287-.7413-.007.0021-.015.0048-.022.0069zm107.931-24.4082c2.091-.0317 4.006.5033 5.885 1.3398l-.199.458c.019.0081.034.0103.04.0108-.006.0002-.021.0017-.045.0068-.049.0105-.112.0313-.184.0576-.071.0258-.144.0543-.208.0811-.06.0247-.124.0521-.163.0664l-.009.0029-.011.0029c-.021.0057-.064.0211-.136.0469-.066.0238-.147.0534-.229.0801-.081.0263-.17.052-.252.0674-.041.0077-.087.0139-.132.0146-.041.0007-.104-.0024-.168-.0302l-.002-.001c-2.061-.9221-4.112-1.3976-6.368-1.2764-.234.0146-.47.0554-.724.0967-.098.0161-.2.0307-.302.0449-.01.0043-.019.0093-.028.0137-.186.0976-.362.2067-.515.332-.372.303-.571.6574-.641 1.0371-.071.384-.012.8127.165 1.2617l.148.333c.375.76.948 1.3936 1.603 1.9903.374.3409.769.6656 1.166.9951.296.246.594.4951.879.752l.28.2587c1.445 1.3876 2.8 2.938 3.557 4.8594.677 1.7189.941 3.7645.118 5.5401-.816 1.7538-2.384 3.0025-4.016 3.8779-2.434 1.3039-5.296 2.1014-8.004 2.4971-1.286.1853-2.793.2674-4.166-.0284-1.377-.2968-2.641-.9794-3.394-2.3349l.435-.2471c-.034-.0595-.085-.0877-.115-.0996-.028-.0114-.051-.0131-.059-.0137-.016-.001-.02.0006-.005-.0019.026-.0046.072-.0166.139-.0371.132-.0405.306-.1021.489-.167.178-.0634.367-.1295.515-.1719.073-.0208.148-.04.212-.0479.031-.0037.075-.0066.121 0 .027.0039.095.0171.155.0704l.054.0673v.002c.751 1.345 2.062 1.9709 3.559 2.1885 1.5.218 3.155.0195 4.526-.2598l.003-.001c.147-.0285.286-.0621.433-.0957.061-.0173.119-.0311.164-.0439.296-.0916.591-.188.885-.294l.527-.2021c.524-.2091 1.037-.4397 1.535-.6953 1.551-.7955 2.992-1.8681 3.84-3.3633.957-1.682.865-3.4839.216-5.1943-.57-1.5008-1.564-2.917-2.628-4.084l-.459-.4844c-.691-.7036-1.505-1.3164-2.308-2.0068-.79-.6803-1.552-1.4231-2.07-2.3516-.211-.376-.413-.8234-.506-1.2881-.093-.4672-.079-.9683.166-1.4316.391-.7494 1.155-1.1808 1.87-1.4219 1.411-.4718 2.863-.7572 4.361-.7783zm-37.864 21.5781c-.361.79-.771 1.5588-1.249 2.2891-.034.2924-.069.5849-.099.8779.406-.4603.777-.9499 1.119-1.4619.069-.5693.143-1.138.229-1.7051zm23.346.6182c-.131.0373-.304.0975-.486.1621-.147.052-.301.1049-.431.1474.675 1.0008 1.706 1.541 2.88 1.794.602.1297 1.236.1803 1.87.1816-1.518-.2317-2.933-.881-3.785-2.2969-.015.0038-.031.0068-.048.0118zm-83.015.9033.002.0049c.002-.0023.004-.0046.005-.0069-.002.0006-.004.0014-.007.002zm61.031-9.3106c-.273.1794-.464.4566-.609.7969-.18.4218-.275.8993-.382 1.3496-.333 1.3868-.745 2.6851-1.02 4.0586-.176.8769-.32 1.7594-.444 2.6455.644-1.1551 1.153-2.3888 1.57-3.6513l.01-.0332c.213-.9699.459-1.9319.729-2.8907.009-.0583.02-.1163.028-.1748l.097-.584c.036-.2115.07-.4371.088-.6689.018-.225.018-.436-.01-.6172-.013-.088-.033-.1647-.057-.2305zm1.502-.4023c-.336.2186-.55.5794-.707 1.0273-.093.2635-.162.5464-.227.8321-.064.2803-.125.5708-.197.8281-.009.0322-.019.0654-.028.0976-.156.9924-.424 1.9595-.732 2.9053-.159.7219-.301 1.4474-.417 2.1787-.052.3257-.1.652-.147.9785.4-.7132.75-1.4566 1.053-2.2167.474-1.1842.874-2.4052 1.135-3.6485.137-.6455.203-1.2997.266-1.9717.023-.2458.059-.4611.055-.6826-.002-.1252-.02-.2336-.054-.3281zm30.636-12.0762c-.601.2284-1.144.5868-1.424 1.1221l-.001.001c-.175.3325-.196.7086-.118 1.1006.079.3934.254.7885.452 1.1406l.001.001c.474.849 1.179 1.5458 1.959 2.2168.768.6606 1.628 1.3118 2.337 2.0341 1.26 1.2785 2.516 2.9406 3.2 4.7422.642 1.6932.786 3.5267-.065 5.2715l-.184.3477c-.542.9562-1.303 1.7401-2.164 2.3916 1.446-.8331 2.748-1.954 3.443-3.4473l.128-.3037c.586-1.5357.351-3.2955-.259-4.8428-.717-1.82-2.009-3.3096-3.438-4.6816-.351-.3365-.736-.6594-1.131-.9873-.394-.3264-.799-.6592-1.184-1.0098-.721-.6578-1.388-1.3949-1.8-2.3213l-.079-.1885c-.202-.512-.283-1.0369-.191-1.5351.07-.3821.239-.7388.518-1.0518zm-37.622 14.085c.883-1.0234 1.683-2.1908 2.187-3.4307l.079-.2099c.176-.501.287-1.0793.22-1.5684-.038-.2755-.131-.5108-.287-.6914-.153-.1783-.385-.3213-.736-.3897-.241-.0457-.521-.0232-.822.0381l.032.0547-.003.001c-.002.0013-.004.0026-.007.0039-.019.0113-.038.0215-.056.0322.124.0616.237.133.338.2139.28.2256.452.5147.537.8398.166.6356-.003 1.4014-.295 2.1397-.452 1.142-1.246 2.3296-1.848 3.1172.01-.002.019-.0023.025-.0039.06-.0178.13-.0311.191-.042.076-.0135.148-.0254.222-.0401.073-.0144.133-.0297.179-.0459.027-.0093.04-.0161.044-.0185zm5.95-1.7832c.022.0568.04.1148.054.1738.039-.0763.083-.1504.129-.2226-.061.0163-.122.0325-.183.0488zm119.631-75.189475c.037.591675-.114 1.194195-.319 1.756835-.217.5939-.516 1.20612-.718 1.69629-.626 1.53298-1.042 3.16802-1.49 4.7832-1.885 6.79955-3.123 13.77285-4.504 20.70995-.613 3.0695-1.205 6.141-1.722 9.2256l-.216 1.3232c-.271 1.6789-.561 3.343-.81 5.0157-.124.8342-.232 1.6705-.299 2.5049 0 .0032-.001.0074-.001.0107.297-.1896.598-.3738.905-.5479.269-.1509.585-.1942.841-.2314.208-.0303.382-.058.528-.1104l.135-.0615.247.4346c-.95.5377-1.846 1.1589-2.728 1.8096-.001.0218-.001.0418-.002.0605.063-.0134.119-.0252.161-.0381.027-.0081.04-.0137.044-.0156 0 0-.007.004-.015.0098-.008.0062-.037.0294-.058.0722l.447.2227c-.001.0018-.004.004-.005.0058-.095.1885-.246.3263-.418.4307l.004.0147c-.016.0043-.033.0083-.049.0127-.132.0743-.272.1309-.407.1738-.338.1072-.711.1582-.965.2002-.015.003-.032.008-.06.0156-.026.007-.064.0174-.104.0244-.046.0081-.102.0123-.163.0049-1.05.7943-2.116 1.5867-3.261 2.2715l-.543.3125c-2.472 1.367-5.129 2.3042-7.833 3.041-2.358.6415-4.769 1.2339-7.215 1.541-.884.1118-1.897.1964-2.875.0899-.977-.1067-1.939-.4063-2.702-1.0801-.802-.7107-1.132-1.6873-1.29-2.6543l-.058-.4131c-.048-.4028-.074-.807-.101-1.2022-.027-.3968-.053-.7861-.101-1.1728l-.03-.2656c-.009-.09-.019-.1792-.031-.2666-.016-.1158-.037-.2215-.063-.3145-.06.0523-.12.1046-.178.1602-.371.3534-.705.7497-1.033 1.1162-.815.9132-1.501 1.942-2.141 2.9961-1.353 2.225-2.768 4.4836-3.497 6.9482l.002.1621-.125.0332c-.036.0282-.075.0491-.108.0635-.065.0289-.143.0518-.219.0703-.155.0376-.352.0696-.534.0987-.005.0006-.009.0013-.013.0019-.231.0619-.462.1236-.694.1856l-.428.1152.114-.3936c-.013-1.3445.312-2.6327.663-3.8877.357-1.2759.739-2.5118.863-3.789.042-.4217.095-.8701.101-1.3145.006-.444-.034-.8647-.165-1.2275l-.001-.0029-.001-.001c-1.877 1.3842-3.743 2.7859-5.622 4.1767-.868.6426-1.77 1.3298-2.756 1.8721.214.0488.423.1105.627.1846l.192.0742.001.001c.581.2414 1.004.6103 1.282 1.08.241.4087.364.8819.395 1.3926l.008.2207-.011.4522c-.123 2.2392-1.284 4.1792-2.915 5.6562-1.28 1.1599-2.86 2.0411-4.481 2.5694-.035.0266-.07.0449-.085.0517-.099.0444-.284.0994-.449.1426-.166.0432-.353.0856-.458.0947-.014.0013-.032.0022-.05.002l-.004-.001c-.233.0533-.465.0999-.697.1377l.001.001c-.425.0706-.974.0898-1.459-.044-.49-.1353-.95-.4404-1.102-1.0341l-.043-.209c-.035-.2156-.045-.4389-.034-.6641-.774 1.23-1.879 2.2729-2.914 3.1748-1.562 1.3584-3.27 2.7004-5.11 3.7002l-.001.001c-1.042.5617-2.118.8983-3.234 1.1943-.406.1074-.923.2667-1.435.3399-.513.0733-1.066.0676-1.551-.1846-.416-.2152-.621-.5751-.705-.9541-.083-.371-.054-.7719-.003-1.1084l.068-.3809c.181-.8871.51-1.7589.822-2.5703.935-2.4121 2.314-4.6042 4.179-6.4199l.001-.002c.074-.0706.167-.1109.242-.1367.08-.0272.166-.0463.244-.0605.079-.0144.159-.0252.225-.0342.065-.0089.113-.016.146-.0225.054-.0133.124-.0249.188-.0351.071-.0113.144-.0227.217-.0362.063-.0116.118-.025.164-.038-.144.0055-.32.0145-.492.0117-.207-.0034-.438-.0215-.634-.0889l-.001-.001c-.048-.0167-.072-.0218-.114-.0351-.017-.0052-.043-.0137-.07-.0264-.027-.013-.072-.0385-.109-.0859-.088-.1111-.06-.2345-.05-.2735.012-.045.034-.1009.052-.1474l.001-.003c.079-.1996.252-.3371.397-.4277.076-.0473.156-.0888.23-.124l.199-.0879c.761-.3201 1.612-.4955 2.379-.6738 1.105-.2557 2.435-.4663 3.688-.416.52-.3025 1.033-.623 1.541-.9512l1.548-.9951c.508-.3373 1-.6881 1.462-1.0743l.276-.247c.266-.2524.503-.5233.734-.8242l.198-.2579c.213-.2664.474-.5432.832-.6943.205-.0852.424-.1443.633-.1943.204-.049.385-.088.568-.1348.013-.0035.026-.0072.039-.0107.014-.0048.035-.0109.064-.0215.037-.0135.082-.03.13-.0449.046-.0147.101-.0301.155-.0391.034-.0057.095-.0134.161-.002.017-.0071.044-.0166.077-.0195.024-.002.058-.0018.095.0098.04.0122.079.0352.11.0693.061.0659.067.1406.067.1699 0 .0331-.008.0586-.011.0703-.004.0137-.009.0243-.012.0313-.006.0138-.012.0253-.015.0312-.003.0049-.007.0087-.01.0127v.002c-.009.0186-.027.0646-.052.1553l-.001-.001c-.025.0944-.066.1886-.103.2646-.043.0874-.074.145-.101.2051l-.001.002c-.117.2581-.238.5114-.358.7627.147-.0453.294-.0839.428-.1201.431-.116.888-.2547 1.351-.3448l.405-.0644c.166-.0206.334-.0324.502-.0391 1.006-.5836 1.934-1.3184 2.906-2.0195 1.744-1.2609 3.437-2.5617 5.171-3.8428l.415-.2939c.419-.2806.855-.5161 1.379-.6612.106-.0293.231-.0761.387-.1308.149-.0522.32-.1083.49-.1426.331-.0664.765-.0673 1.028.3301.202.3051.272.687.296 1.039.023.3534.002.7191-.005.9922-.016.517-.062 1.0338-.128 1.5459l-.073.5108c-.01.0676-.023.1347-.035.2021.88-1.4517 1.835-2.8422 3.037-4.0879.455-.4732.981-1.0781 1.692-1.3613.542-.2138 1.171-.3781 1.74-.4736l.154-.0225c.157-.0177.319-.0144.462.0566.211.1051.306.314.361.542.088.3587.144.7237.183 1.086l.035.3613.054.751c.048.7422.095 1.4596.276 2.164.334 1.2926 1.176 2.0073 2.24 2.377 1.077.3743 2.376.3913 3.578.2637 3.719-.3951 7.442-1.4164 10.808-3.0313 1.746-.8385 3.355-1.878 4.902-3.0488.538-.4102 1.076-.828 1.622-1.2393.002-.1411.012-.2828.025-.4189.015-.1491.035-.2979.053-.4365.018-.1406.034-.271.044-.3887.172-2.012.553-4.0075.868-5.9766l.469-2.8252c1.125-6.5864 2.469-13.1336 3.804-19.6758.446-2.1782.917-4.3526 1.44-6.5146-.042.0106-.086.0206-.128.0293-.164.0338-.356.0624-.409.0713-.033.0075-.095.0199-.154.0312-.073.0136-.159.0301-.244.0479-.085.018-.162.0363-.217.0527-.028.0084-.044.0135-.048.0156.002-.001.009-.0044.017-.0107.007-.0047.051-.0358.076-.0996l-.469-.1748c.78-2.1456 1.506-4.34586 2.413-6.46291l.176-.40137c.421-.93325.903-1.8397 1.338-2.74023l.33-.69824c.106-.23244.205-.46563.294-.70215l.001-.00195c.115-.30289.222-.69691.495-1.020511l-.01-.09375.142-.038086c.02-.013463.038-.023186.05-.029297.029-.014025.061-.02574.09-.036133.059-.020839.131-.04205.207-.061523.153-.039231.345-.079899.526-.118164.075-.015939.148-.03208.217-.046875.16-.042786.32-.086104.48-.128906l.889-.237305zm-72.003 63.946275c-.067.0092-.136.0182-.203.0303-.067.0122-.125.0265-.17.042-.038.0131-.055.0231-.058.0254-1.695 1.6501-2.979 3.6235-3.884 5.8017l-.176.4385c-.314.8165-.628 1.6516-.799 2.4883l-.064.3584c-.048.3144-.066.6425-.003.9238.053.2391.161.4346.357.5674l.09.0527c.35.1818.78.2003 1.251.1328.046-.0065.091-.0174.137-.0253-.246-.1008-.476-.2611-.635-.5108-.217-.3387-.268-.7343-.254-1.1025.015-.3692.097-.7382.17-1.0391.51-2.1429 1.446-4.2631 2.671-6.0957.501-.7482 1.06-1.4486 1.671-2.1045-.033.005-.068.0121-.101.0166zm5.799-1.915c-.316.1356-.636.2611-.963.373l-.498.1592c-.235.0701-.475.1392-.718.209-.006.004-.011.0092-.015.0117-.026.0142-.053.0263-.075.0352-.025.0094-.051.0186-.078.0273-.052.0174-.112.0346-.168.0488-.053.0139-.111.0273-.157.0342-.012.0018-.025.0028-.039.0039-.011.0009-.028.0009-.047 0-.751.1978-1.526.3558-2.307.3828l.331.3438c-.83.8107-1.576 1.6913-2.219 2.6523-1.193 1.7847-2.104 3.8505-2.601 5.9346-.072.2985-.143.626-.156.9414-.011.2763.024.5242.127.7285l.049.085c.094.1469.237.2538.415.3242l.189.0586.003.001c.194.0482.4.0538.619.0439.052-.0022.108-.0076.17-.0146.021-.0024.043-.0043.066-.0069.027-.0132.052-.0273.077-.0371.024-.0091.049-.0146.073-.0215.079-.0304.157-.0577.23-.081.224-.0719.408-.1216.54-.1826.259-.1217.519-.2532.772-.3946l.403-.2314c.398-.2375.788-.4934 1.174-.7588.741-.5125 1.463-1.0617 2.171-1.6231 1.334-1.0555 2.627-2.1923 3.629-3.5351l.165-.2275c.813-1.1544 1.398-2.5501.791-3.8028-.409-.8435-1.087-1.2678-1.892-1.4687-.02-.005-.041-.008-.061-.0127zm1.093-.5196c-.136.0702-.273.1382-.411.2051.707.2749 1.323.7587 1.72 1.5772.736 1.5185 0 3.1309-.836 4.3174l-.168.2314c-1.042 1.3959-2.376 2.5638-3.719 3.627-.627.4967-1.269.985-1.926 1.4501 1.526-.9182 2.965-2.0598 4.31-3.2294 1.365-1.189 2.762-2.5489 3.402-4.2061.627-1.6255-.07-3.4127-1.811-3.8594-.181-.0468-.369-.0844-.561-.1133zm-105.37 9.8516c.025.0064.044.0096.049.0098.011.0004.02.0002.024 0 .008-.0005.016-.002.016-.002.005-.0006.004-.0011-.006.001-.017.0033-.042.0092-.071.0156-.028.0065-.057.0134-.077.0186-.009.0025-.015.0042-.017.0049 0 0 .005-.0012.01-.003.002-.0009.014-.0058.028-.0136.006-.0034.024-.0139.044-.0313zm.072-.1143c-.008.0269-.018.0484-.027.0625-.017.0256-.035.0429-.045.0518-.009-.0021-.019-.0022-.029-.0059-.018-.007-.069-.0285-.11-.082-.014-.018-.024-.0398-.033-.0635zm2.604-3.0136c-.024.0161-.05.039-.08.0693-.054.0573-.106.1271-.157.2022l.001.0009c-.22.3322-.375.7074-.506 1.1084-.065.2005-.124.4056-.183.6133-.018.0621-.038.1239-.056.1865-.005.1459-.009.2905-.013.4346.014-.0033.028-.0064.042-.0098.092-.0217.184-.0435.257-.0605.037-.0086.069-.0158.093-.0215.012-.0028.022-.006.029-.0078.007-.0015.011-.002.011-.002l.002-.0009c.177-.0466.35-.0921.522-.1426l.022-.0059s.003-.0004.01-.0019c.003-.0008.006-.002.01-.0029.005-.3099.018-.6189.029-.919.013-.3638.02-.7196 0-1.0742l-.02-.2549c-.003-.0373-.009-.0742-.013-.1113zm-1.504.4043c-.07.0469-.137.1176-.202.2119-.082.1169-.149.2523-.214.3867-.169.351-.3.72-.417 1.1016l-.001.0009c-.046.1459-.087.2953-.13.4483-.004.0134-.009.0265-.013.04.11-.0289.222-.0579.335-.0869.174-.0457.343-.0902.513-.1396.007-.0025.013-.0041.016-.0049.004-.0009.008-.0014.01-.002.005-.001.009-.0021.013-.0029.007-.0016.017-.004.026-.0059.006-.0012.012-.0035.018-.0048.025-.0823.049-.1652.073-.2491v-.0039c.01-.281.021-.5569.021-.833 0-.2728-.011-.5365-.041-.7978v-.0098c-.002-.0158-.005-.032-.007-.0488zm.632-.1787-.013.0039c-.048.0101-.093.0203-.134.0293.007.0475.014.0979.018.1474h.002c.007.0674.01.135.015.2022.062-.1388.13-.2757.206-.4092-.031.0085-.062.0179-.094.0264zm110.762-12.2881c-.072.0641-.141.1348-.209.2138-.084.0986-.164.2045-.247.3164-.081.1099-.166.2281-.256.3399l-.001.001c-.25.3102-.543.5854-.848.8388-.026.051-.052.1016-.077.1524l.001.001c-.348.7079-.687 1.4075-.973 2.1308-.561 1.4141-1.014 2.8814-1.369 4.3643-.119.5036-.283 1.0228-.398 1.5908-.112.5559-.157 1.0813-.045 1.5186.093.3615.367.5714.751.6777.387.1066.85.095 1.231.0332-.176-.0631-.339-.1461-.482-.2578-.324-.2537-.522-.6266-.549-1.1211-.054-1.0657.315-2.2313.546-3.1797.324-1.311.722-2.6076 1.208-3.874.485-1.2624 1.138-2.471 1.682-3.6719.01-.0231.023-.0484.035-.0742zm1.944 1.542c-.211.0671-.439.1379-.67.1943-.455.1107-.966.1786-1.41.0313l-.001-.001c-.044-.015-.086-.0338-.125-.0498-.352.7288-.696 1.4498-.988 2.208-.478 1.2447-.869 2.5214-1.188 3.8144-.246 1.0047-.583 2.063-.533 3.0332l.012.1299c.042.2906.169.4874.345.625.21.1646.516.263.894.2969.165.0149.322.0045.491-.0117.016-.0069.033-.0123.05-.0196l.001-.0009c.487-.2097.951-.4765 1.406-.7715 1.684-1.0927 3.397-2.5859 4.11-4.4326.318-.822.542-1.8629.45-2.7862-.091-.915-.486-1.6831-1.382-2.0556-.377-.1578-.768-.2489-1.168-.2969-.093.0294-.191.0598-.294.0928zm1.585-.5479c-.113.0497-.227.0968-.342.1416.138.0423.275.0915.412.1485l.202.0927c.972.4931 1.389 1.4052 1.485 2.375.103 1.0261-.145 2.1479-.481 3.0157-.644 1.6683-2.024 3.0337-3.456 4.0849.788-.4332 1.533-.9522 2.193-1.5498 1.664-1.5069 2.779-3.482 2.762-5.7334l-.007-.1963c-.027-.4491-.135-.8417-.327-1.1679-.218-.3698-.554-.6701-1.042-.8731-.436-.1798-.914-.2903-1.399-.3379zm45.207 2.3877c.23-.0411.496-.0687.753-.043.332.0334.681.162.903.4952.035.0216.071.0434.104.0683.159.1179.303.2828.364.5049l.021.0986c.045.3032-.077.5516-.238.7354-.158.1795-.365.3146-.537.4101l-.001-.0009c-.69.3836-1.502.6241-2.257.8291-.034.0156-.067.0338-.101.0488-.293.1314-.597.226-.897.3105-.035.0118-.08.0279-.131.043-.123.0367-.294.084-.458.1279-.018.0047-.035.0081-.053.0127-.418.201-.841.4015-1.268.5821l-.337.1377c-.599.2341-1.228.3884-1.824.542-.184.0475-.422.1207-.652.164-.235.0444-.498.0659-.758.002l-.001-.001c-.123-.0313-.297-.0876-.388-.2461-.095-.1646-.051-.3461-.004-.4775.102-.2907.299-.524.484-.708.424-.4223.953-.7654 1.407-1.087.579-.4086 1.195-.7067 1.829-.9472.179-.1438.366-.2729.543-.3828l.215-.1289c.892-.5225 1.92-.7863 2.889-1.0049.012-.0034.022-.0065.031-.0088.007-.002.017-.0041.025-.0059.002-.0005.005-.0011.009-.0019 0 0 .006-.0008.014-.002.032-.0072.065-.0153.097-.0224zm-5.088 2.6426c-.167.0969-.331.2012-.492.3144-.479.3399-.957.6485-1.342 1.0323-.168.1669-.302.3365-.367.5205v.0019c-.007.0209-.01.0384-.013.0518.014.0051.033.0133.057.0195.161.0391.341.0295.543-.0088.121-.0226.236-.0529.354-.0849.014-.0102.023-.0176.023-.0176.01-.0056.018-.0096.023-.0117.009-.0044.018-.0084.024-.0108.01-.0037.021-.0086.032-.0127-.074-.1158-.085-.2479-.065-.3603.024-.1354.091-.2655.158-.3721.137-.2167.33-.4179.426-.5107l.001-.001c.197-.1891.412-.373.638-.5498zm.219.4629c-.18.1453-.352.2955-.511.4482-.086.0833-.245.2517-.35.418-.053.0846-.08.1494-.088.1904.012.0046.03.0127.059.0186.053.0108.114.0151.171.0176h.006c.138-.0581.275-.1176.408-.1817l.004-.0019c.252-.1171.494-.2403.75-.3653-.016-.0165-.032-.0334-.046-.0517-.038-.0483-.066-.1005-.088-.1534-.093-.0454-.198-.1141-.266-.2216-.024-.0376-.039-.0782-.049-.1172zm-46.304-4.1162c-1.145.8093-2.335 1.5812-3.541 2.2939-.175.103-.351.2042-.529.3037 1.246.3209 2.023 1.214 2.296 2.2744.315-1.1636.692-2.3135 1.136-3.4326.194-.4904.413-.9677.638-1.4394zm-23.214 3.5332c1.49.1751 2.913.6024 4.33 1.2334.008-.0008.021-.0008.037-.0039.05-.0095.116-.0277.19-.0518.073-.0237.147-.0509.214-.0752.054-.0192.113-.0393.158-.0527l.071-.0303c-1.615-.6506-3.248-1.0428-5-1.0195zm12.247.2519c-.147.0501-.292.1036-.434.1631-.111.0466-.243.1032-.356.1738-.069.043-.118.0836-.151.1192.114.0288.257.0432.42.0459.192.0031.38-.0082.552-.0137l.142-.0098c-.071-.0364-.172-.1086-.201-.2451-.022-.097.006-.1804.027-.2295zm58.535-.5283c-.045.0261-.091.0521-.137.0791l-.092.1065c-.138.1669-.261.4267-.28.6367.005.0012.011.0037.016.0049.069.0158.141.0244.209.0341-.035-.101-.032-.2063-.017-.2968v-.003c.042-.2359.185-.4277.301-.5615zm.265.4766c-.038.0599-.063.117-.073.1718-.001.0069-.002.013-.002.0186.013.0041.03.0104.052.0156h.003c.068.0168.137.0271.208.0342-.077-.0606-.147-.138-.188-.2402zm-55.19-.3897c-.359.0024-.721.0231-1.077.0498l-.001-.001c-.302.0256-.599.0571-.901.0928l-.001-.001c-.175.023-.354.0504-.531.0782-.089.0363-.169.0655-.239.0898-.114.0533-.206.1119-.28.1904l-.006.0049c.03.0026.06.007.092.0088.054.0031.121.0054.169.0098.582.0487 1.139-.0331 1.759-.1065.027-.01.055-.022.086-.0332l.198-.0761c.065-.0254.13-.0515.197-.0772l.395-.165c.047-.0206.093-.0434.14-.0645zm56.365-.5293c-.176.1828-.313.3693-.392.5567l-.038.1035c-.023.0767-.029.1441-.028.2021.046.0123.095.0258.148.0352.012.0022.025.0029.038.0049.009-.0045.018-.0092.026-.0137-.032-.0995-.029-.1996-.01-.2861.024-.1137.076-.2195.131-.3067.097-.1569.225-.2959.309-.3789-.062.0273-.124.0536-.184.083zm1.323-.29c-.2.1133-.394.2333-.567.3691l-.199.1719c-.07.067-.182.1862-.258.3086-.009.0155-.017.0309-.024.0449.097-.0569.195-.1144.291-.1758l.331-.2226c.157-.1118.307-.2327.454-.3565.01-.0501.011-.08.008-.0957-.003-.0153-.009-.0242-.021-.0342-.004-.0035-.01-.0061-.015-.0097zm.87.042c-.012.0121-.023.0241-.031.0332l-.001.001c-.076.0773-.156.1502-.235.2236-.005.0406-.014.0801-.023.1191.126-.0781.251-.1586.373-.2431.014-.0098.027-.0215.041-.0313.003-.0457-.003-.0831-.016-.1152-.001-.0044-.005-.0083-.007-.0127-.034.0086-.068.017-.101.0254zm1.553-.46c-.015.0146-.029.0282-.043.043l-.003.0039c-.087.0864-.179.1739-.273.2617-.019.1521-.065.2949-.135.4277.155-.0853.303-.1868.404-.3017.097-.1105.136-.2161.119-.3311l-.021-.0761c-.007-.0176-.016-.0341-.026-.0508-.008.0079-.015.0162-.022.0234zm-37.159-2.9922c-.509.9552-.968 1.9273-1.308 2.9502.082-.0143.17-.0302.256-.0439.016-.0044.032-.0084.048-.0127.19-.051.38-.1023.571-.1533.012-.9478.198-1.8555.433-2.7403zm36.561 2.6075c.052.0412.094.0891.129.1435.022-.0223.046-.0436.069-.0664.003-.0032.006-.0067.009-.0098-.046-.0179-.094-.0346-.142-.0488l-.002-.001c-.021-.0064-.042-.0117-.063-.0175zm-51.198-3.7188c-.185.1563-.346.3672-.527.6045-.325.4252-.67.8017-1.086 1.1514-.357.2988-.734.577-1.118.8427.551-.3604 1.095-.7292 1.627-1.1084l.405-.2988c.074-.0564.145-.1166.216-.1748.118-.2364.235-.4712.345-.709zm15.274-6.5127c-.244.1529-.471.2806-.69.416.018.0442.033.0848.045.1192.159.4433.2.9324.193 1.4043-.003.2357-.018.4723-.038.7011l-.064.6553c-.129 1.3321-.528 2.6204-.879 3.875-.178.6348-.345 1.2629-.464 1.8926.529-1.2133 1.185-2.3638 1.84-3.4942.156-.565.295-1.1288.382-1.705.103-.6643.174-1.3318.195-1.9961.008-.2951.027-.6216.006-.9434-.022-.3236-.084-.6007-.214-.7969-.063-.0955-.16-.1439-.32-.1396zm5.696-.8437.001.0009c-.586.2336-1.026.7345-1.515 1.2432-1.221 1.2647-2.187 2.6891-3.092 4.1992l-.385.6524c-.099.1719-.198.3441-.298.5156-.141.5095-.292 1.0126-.432 1.5088-.118.4155-.229.8285-.319 1.2422.787-1.8042 1.845-3.5022 2.84-5.1397.647-1.0643 1.351-2.1234 2.196-3.0703.315-.3518.672-.7722 1.061-1.1436.017-.0158.034-.0311.051-.0468-.036.0134-.073.0242-.108.0381zm-20.34 7.2011c.038-.0516.078-.1036.119-.1562-.016.0043-.032.0093-.048.0136-.021.0572-.053.1127-.071.1426zm22.291-7.6572c-.028-.0136-.099-.0259-.307.0107l-.002.001c-.023.0039-.046.0086-.069.0127-.2.0763-.393.1833-.58.3125.078.1818.119.3866.145.5742.014.0971.025.1938.034.2842l.028.2539c.05.4033.078.8075.104 1.2031.027.398.053.7881.099 1.1758l.055.3955c.15.9139.45 1.7559 1.127 2.3565l.126.1054c.64.5103 1.44.7588 2.3.8526.419.0456.847.0528 1.273.0381-.388-.0579-.768-.1445-1.127-.2696-1.192-.4145-2.176-1.2423-2.559-2.7246-.256-.9933-.263-2.0366-.344-2.997l-.034-.3516c-.038-.3488-.091-.69-.173-1.0205v-.002c-.044-.1854-.089-.2074-.096-.2109zm-16.929 7.3477c.77-.4698 1.505-1.0247 2.245-1.5723 1.747-1.2931 3.496-2.6039 5.245-3.8965-.297.1574-.581.3514-.881.5732-1.721 1.2718-3.431 2.5848-5.175 3.8458-.471.3401-.947.6995-1.434 1.0498zm-4.099-.6241c.003.0008.006.0012.008.002 0 0-.001-.0014-.005-.002zm45.342-6.3437c-.45.3422-.898.6903-1.352 1.0361-.365.276-.736.5434-1.109.8047.846-.5465 1.658-1.146 2.469-1.7588-.005-.0207-.007-.042-.008-.0635 0-.0063 0-.0126 0-.0185zm1.521-1.1153c-.353.2455-.7.4997-1.045.7579.002.0271.006.0533.01.0791.343-.2596.686-.5198 1.033-.7774 0-.0198.001-.0397.002-.0596zm9.413-45.4355c-.498 1.01763-1.015 1.99093-1.452 3.0166l-.001.00098c-.68 1.57832-1.251 3.197-1.827 4.82322-.728 2.8062-1.352 5.6401-1.935 8.4864-1.526 7.479-3.06 14.9518-4.268 22.4804-.318 1.9894-.694 3.9526-.864 5.9404-.011.1302-.028.2701-.046.4092-.017.1335-.035.2671-.049.4004.349-.2563.703-.5068 1.063-.75.009-.1322.017-.2645.028-.3965.068-.8499.178-1.6983.303-2.5381.249-1.6759.54-3.3507.809-5.0205l.218-1.3261c.518-3.0927 1.112-6.1701 1.725-9.2412 1.378-6.9229 2.621-13.9234 4.512-20.74614.444-1.59901.869-3.27228 1.509-4.83984.179-.43399.387-.86815.573-1.32617zm-8.508 44.8359c-.131.0826-.262.1638-.391.2491 0 .0107 0 .0215-.001.0322.13-.0943.261-.1884.392-.2813zm7.38-45.25582-.334.70801c-.511 1.05854-1.052 2.0575-1.506 3.12109-.835 1.95068-1.515 3.96332-2.237 5.97462.056-.0113.11-.0225.157-.0313.036-.0069.068-.0118.093-.0166.012-.0023.022-.0052.03-.0068.004-.0008.007-.0015.01-.0019h.002l.007-.002.009-.002c.075-.0135.234-.035.404-.0703.08-.0163.148-.0346.197-.0507.182-.5019.361-1.0067.54-1.5127.203-.7831.413-1.56509.635-2.3438.413-1.44995.811-2.95589 1.399-4.37304.19-.4559.411-.91835.599-1.4043-.002.00385-.004.00787-.005.01172zm1.414-1.799805c-.184.049444-.369.097985-.554.147465.017.5423-.121 1.09013-.305 1.60351-.205.5741-.488 1.15551-.687 1.63281-.165.39713-.314.80168-.453 1.21094.399-.88239.846-1.74039 1.263-2.59472l.34-.71192c.109-.23818.212-.4779.306-.7207.036-.09364.067-.18747.102-.28711.035-.09773.072-.19974.115-.300783.002-.005104.004-.010516.007-.015625-.045.011932-.09.024199-.134.036133zm-166.364 70.439425c0 .0952-.053.1544-.069.1709-.02.0221-.04.0363-.049.042-.019.0122-.036.0196-.043.0225-.016.0069-.032.012-.044.0156-.024.0079-.055.0164-.082.0234-.052.0139-.113.0291-.133.0332-.173.0502-.345.0953-.513.1397-.034.0092-.233.0558-.404.0967-.09.0215-.177.0418-.24.0586-.031.0085-.054.0154-.066.0195-.007.0022-.005.0019.002-.001.002-.0009.017-.0077.034-.0195.008-.0057.027-.0191.046-.041.016-.019.061-.0763.061-.1631h-.5c0-.0326 0-.0651.001-.0977-.176.0513-.351.0983-.523.1436h-.002c-.18.0462-.356.0931-.532.1396l-.044-.1318c-.002.0051-.002.0105-.004.0156l-.002-.001c.002-.007.002-.0146.004-.0224l-.017-.0508-.224.0002-.021-.007c.003.0153.009.0293.014.0429l-.243-.0361c0-.0315.006-.0592.014-.083.045-.1431.085-.2895.127-.4395.043-.1516.086-.3073.134-.4609.121-.3933.261-.7893.444-1.1719.065-.1342.149-.3011.255-.4541.107-.1525.248-.3094.441-.4052.01-.005.021-.0086.032-.0137.008-.0059.016-.0098.016-.0098.024-.0145.047-.0222.053-.0244.02-.007.043-.0137.065-.0195.021-.0057.047-.0111.078-.0186.21-.0616.427-.1175.629-.1699h.002c.229-.0582.545-.1685.832-.207l.016-.002h.013s0-.0006.004-.001c.002-.0002.019-.002.03-.0029.024-.0018.079-.0043.141.0147l.007.0019c.043.0135.151.0511.205.1719.02.0447.024.0873.026.1015.004.0283.003.0218.005.0411l.033.2763.021.2725c.021.3789.013.755 0 1.1221-.013.3702-.03.7279-.03 1.0888z"/></g></svg>