<svg fill="none" height="117" viewBox="160 0 525 117" width="525" xmlns="http://www.w3.org/2000/svg" xmlns:xlink="http://www.w3.org/1999/xlink"><filter id="a" color-interpolation-filters="sRGB" filterUnits="userSpaceOnUse" height="436.833" width="844.994" x="0" y="0"><feFlood flood-opacity="0" result="BackgroundImageFix"/><feColorMatrix in="SourceAlpha" result="hardAlpha" type="matrix" values="0 0 0 0 0 0 0 0 0 0 0 0 0 0 0 0 0 0 127 0"/><feMorphology in="SourceAlpha" operator="erode" radius="48" result="effect1_dropShadow_51_1098"/><feOffset dy="64"/><feGaussianBlur stdDeviation="40"/><feComposite in2="hardAlpha" operator="out"/><feColorMatrix type="matrix" values="0 0 0 0 0 0 0 0 0 0 0 0 0 0 0 0 0 0 0.1 0"/><feBlend in2="BackgroundImageFix" mode="normal" result="effect1_dropShadow_51_1098"/><feColorMatrix in="SourceAlpha" result="hardAlpha" type="matrix" values="0 0 0 0 0 0 0 0 0 0 0 0 0 0 0 0 0 0 127 0"/><feMorphology in="SourceAlpha" operator="erode" radius="40" result="effect2_dropShadow_51_1098"/><feOffset dy="160"/><feGaussianBlur stdDeviation="100"/><feComposite in2="hardAlpha" operator="out"/><feColorMatrix type="matrix" values="0 0 0 0 0 0 0 0 0 0 0 0 0 0 0 0 0 0 0.1 0"/><feBlend in2="effect1_dropShadow_51_1098" mode="normal" result="effect2_dropShadow_51_1098"/><feBlend in="SourceGraphic" in2="effect2_dropShadow_51_1098" mode="normal" result="shape"/></filter><linearGradient id="b" gradientUnits="userSpaceOnUse" x1="242.676" x2="481.601" y1="79.0709" y2="250.989"><stop offset="0" stop-color="#2b7fff"/><stop offset=".447115" stop-color="#155dfc"/><stop offset=".826923" stop-color="#841cfa"/><stop offset=".894231" stop-color="#9810fa"/></linearGradient><g fill="url(#b)" filter="url(#a)"><path d="m578.678 14.8323c-11.381-2.0968-22.843-4.0538-34.505-5.2182-11.822-1.17996-23.802-1.65129-35.726-1.77055-23.493-.22815-47.09.88561-70.355 3.05005-42.473 3.9594-84.164 11.5891-124.703 21.0718-43.156 10.0979-86.455 21.4669-124.859 38.6755-8.807 3.9457-16.857 7.9197-22.922 13.9935-1.435 1.4419-3.012 2.9668-3.723 4.6475-.712 1.7088-1.935 4.2987-1.569 6.0387.55 2.684 3.196 5.3104 6.174 6.9624 3.56 1.974 8.265 3.27 12.457 4.413 4.917 1.34 10.008 2.344 15.141 3.166 9.994 1.591 20.196 2.503 30.347 3.477 23.807 2.278 47.84 3.066 71.829 3.215 24.149.15 48.304-.291 72.404-1.288 47.384-1.965 94.496-6.197 141.033-12.558 20.246-2.7624 40.395-5.8842 60.179-9.9306 21.411-4.3755 42.217-9.9168 62.358-16.5823 9.545-3.1584 18.703-6.8969 27.311-11.1539 4.324-2.1389 9.415-4.3549 12.728-7.2556 1.738-1.5304 3.486-3.0537 5.224-4.5841 1.83-1.6069 4.113-3.1814 5.32-5.0684 7.519-11.7269-8.585-20.7373-20.957-26.6612-4.285-2.0511-9.402-3.4844-14.146-4.9422-5.176-1.5955-10.444-3.0442-15.774-4.3388-10.409-2.53066-21.105-4.48044-31.938-5.85497-23.74-3.00062-47.467-5.1996-71.594-5.588394-24.289-.390313-48.467-.7866116-72.754-.199634-24.046.575198-48.056 1.720218-72.019 3.118798-11.749.68389-23.499 1.43106-35.239 2.19941-.999.06794-1.94.45281-2.928.52085 46.536-3.04928 93.21-5.724628 140.011-5.727082 11.632-.003012 23.262.211912 34.891.525262 11.73.31429 23.4.55068 35.095 1.34978 11.675.7989 23.296 1.9629 34.833 3.47062 10.651 1.39392 21.181 2.83592 31.562 5.07096 17.946 3.8601 36.637 8.8943 50.318 18.2124 5.369 3.6573 10.012 8.3624 9.678 13.8011-.192 3.2676-1.971 5.9717-4.827 8.483-3.466 3.0398-6.695 6.5811-11.022 9.0293-16.325 9.2324-34.743 15.8649-54.029 21.5612-22.156 6.548-45.226 11.6392-68.657 15.4895-45.147 7.414-91.358 12.351-137.572 15.305-46.082 2.948-92.732 4.154-139.012 2.418-21.835-.817-43.905-2.375-65.377-5.368-9.785-1.365-19.019-3.435-27.981-6.528-3.556-1.229-6.584-2.98-8.456-5.4583-.776-1.0338-1.82-2.5201-1.839-3.7085-.012-.8649.602-1.9208.862-2.7691.343-1.0865.487-2.428 1.081-3.463 1.66-2.8951 5.144-5.7098 8.099-8.0022 3.137-2.4312 6.696-4.6406 10.574-6.4813 9.386-4.4535 19.142-8.6083 29.126-12.3883 19.24-7.2857 39.446-13.2756 59.869-18.7713 43.706-11.759 88.545-21.8691 134.686-27.9032 22.052-2.886 44.336-4.7925 66.761-5.65714 22.94-.88793 46.276-.99171 69.073 1.45864 10.986 1.1791 21.784 3.0314 32.531 5.0168.865.1558 2.082-.6764 2.928-.5208z"/><path d="m460.206.199164c22.763-.438787 45.44-.067672 68.21.298232 24.139.389008 47.876 2.589084 71.621 5.590334 10.842 1.37566 21.548 3.32775 31.966 5.86067 5.335 1.2958 10.608 2.7452 15.789 4.3422 4.733 1.4544 9.874 2.8946 14.18 4.9559 6.184 2.961 13.338 6.7099 18.003 11.2002 2.334 2.2465 4.064 4.6964 4.725 7.3456.664 2.6599.243 5.4917-1.669 8.4749-.623.974-1.517 1.859-2.472 2.6936-.478.4181-.976.8269-1.466 1.2295-.49.4035-.973.8009-1.427 1.1995l-5.223 4.5838c-3.345 2.9286-8.482 5.1645-12.783 7.2922-8.619 4.2624-17.787 8.0051-27.343 11.1669-20.151 6.6686-40.967 12.2119-62.386 16.5894-19.792 4.0479-39.947 7.1709-60.196 9.9339-46.545 6.362-93.665 10.595-141.056 12.561-24.104.996-48.263 1.437-72.417 1.287-23.992-.149-48.034-.937-71.851-3.216-9.514-.913-19.083-1.772-28.485-3.189l-1.878-.29c-5.138-.822-10.238-1.829-15.166-3.172-4.185-1.141-8.922-2.444-12.514-4.435-1.509-.838-2.937-1.923-4.06-3.1441-1.121-1.2189-1.95-2.5861-2.237-3.9871l.001-.001c-.197-.9375.035-2.0724.386-3.1566.353-1.0912.844-2.1818 1.196-3.027l.001-.0019c.734-1.7356 2.355-3.2988 3.776-4.7264l.577-.5669c6.03-5.7927 13.889-9.6562 22.419-13.478 38.428-17.2191 81.748-28.5923 124.905-38.6905 40.547-9.4844 82.25-17.1172 124.737-21.0779 23.272-2.16516 46.878-3.27887 70.381-3.05062 11.928.1193 23.916.59016 35.748 1.7711 11.672 1.16542 23.143 3.12452 34.525 5.22162l-.091.4914c-.164-.0303-.361-.0142-.594.0364-.231.0505-.477.1302-.739.2157-.257.0837-.529.173-.793.2298s-.538.0865-.801.0394c-10.744-1.9851-21.536-3.8362-32.512-5.0142-22.78-2.44849-46.102-2.34519-69.037-1.45747-22.417.86436-44.695 2.77037-66.738 5.65537-46.127 6.0321-90.955 16.1388-134.654 27.896-20.419 5.4947-40.616 11.4824-59.845 18.7638-9.978 3.7776-19.728 7.9302-29.108 12.3809-3.62 1.7184-6.961 3.7588-9.938 6.0014l-.59.4515c-2.964 2.2995-6.404 5.0845-8.035 7.9287-.28.4869-.458 1.0544-.609 1.6496-.148.5809-.277 1.2109-.45 1.7614l.001.001c-.134.4343-.364.9399-.54 1.3954-.184.476-.318.9168-.313 1.2969l.015.2033c.056.4841.28 1.0324.59 1.5915.352.6334.799 1.2519 1.186 1.7671 1.829 2.4224 4.803 4.1504 8.337 5.3714 8.944 3.088 18.162 5.155 27.933 6.517 21.461 2.992 43.522 4.549 65.352 5.366 46.27 1.736 92.911.53 138.987-2.418 46.206-2.953 92.41-7.889 137.547-15.3017 23.422-3.8489 46.483-8.938 68.628-15.4827 19.278-5.6941 37.675-12.3201 53.977-21.5389 4.296-2.4312 7.485-5.936 10.978-8.9996 2.83-2.4878 4.557-5.1352 4.744-8.3102.162-2.6395-.883-5.117-2.649-7.4003-1.768-2.2842-4.247-4.3575-6.92-6.1787-13.637-9.2876-32.284-14.3145-50.23-18.1747-9.073-1.95354-18.263-3.30061-27.554-4.54076l-3.988-.52682c-11.532-1.50705-23.148-2.67089-34.818-3.46944-11.688-.79864-23.352-1.03446-35.084-1.34882-11.628-.3133-23.257-.528624-34.886-.525614-46.79.002468-93.457 2.676484-139.992 5.725664l-.001.00097-.001-.00099-.034-.49741c.471-.03239.934-.14116 1.421-.25519.48-.11245.984-.2305 1.507-.2661 11.74-.76837 23.492-1.51572 35.242-2.19966 23.964-1.39868 47.978-2.543833 72.028-3.119119zm-253.373 63.068336c-6.172 2.4047-12.246 4.933-18.201 7.6015-8.533 3.823-16.317 7.657-22.276 13.3818l-.571.56c-1.448 1.4556-2.982 2.9413-3.67 4.5663l.001.001c-.36.8635-.837 1.9232-1.182 2.989-.325 1.0048-.517 1.9716-.401 2.7493l.028.1526v.0019c.263 1.2827 1.032 2.5705 2.115 3.7486 1.083 1.1765 2.466 2.2305 3.935 3.0445 3.528 1.957 8.203 3.246 12.402 4.391 4.905 1.337 9.987 2.339 15.114 3.16l1.874.291c9.384 1.414 18.938 2.271 28.458 3.185 21.319 2.039 42.82 2.882 64.312 3.142-7.353-.132-14.701-.332-22.039-.607-21.158-.792-42.54-2.279-63.387-5.094l-2.016-.276c-9.797-1.367-19.047-3.44-28.027-6.54-3.579-1.236-6.66-3.009-8.575-5.5434-.389-.5184-.853-1.161-1.223-1.8261-.366-.6592-.655-1.372-.666-2.0288-.007-.4847.16-1.005.346-1.4851.193-.5007.401-.9473.527-1.3613v-.0019c.169-.5354.285-1.1189.443-1.7381.154-.6056.345-1.2264.66-1.7742 1.689-2.9459 5.217-5.7908 8.162-8.0759 3.152-2.4421 6.727-4.6613 10.621-6.5097 7.531-3.5738 15.302-6.9541 23.236-10.104zm307.121-62.493119c2.142.050295 4.284.103359 6.426.161077 11.727.314222 23.405.550462 35.106 1.349992 11.68.79927 23.307 1.96431 34.849 3.47267 10.651 1.39387 21.19 2.83639 31.582 5.07388 17.946 3.8599 36.68 8.9023 50.406 18.2506 2.695 1.8361 5.221 3.9439 7.034 6.2862 1.813 2.3433 2.924 4.9379 2.752 7.7371-.185 3.1496-1.806 5.773-4.383 8.1769l-.528.4785c-3.439 3.0159-6.707 6.5933-11.064 9.0584-10.933 6.1834-22.802 11.2001-35.235 15.5499.42-.1379.841-.2731 1.26-.412 9.535-3.1548 18.682-6.8888 27.278-11.1402 4.347-2.15 9.394-4.3472 12.675-7.2199.869-.7653 1.742-1.5287 2.613-2.292s1.743-1.527 2.611-2.2919l.709-.6056c.241-.2015.486-.4023.731-.6036.49-.4034.982-.8076 1.453-1.2197.946-.8261 1.797-1.6732 2.381-2.5861l.33-.538c1.561-2.678 1.864-5.1912 1.276-7.5469-.63-2.5232-2.289-4.8947-4.588-7.107-4.6-4.4275-11.684-8.1462-17.873-11.1091-4.263-2.0408-9.355-3.4678-14.11-4.9289-5.171-1.5939-10.435-3.0417-15.76-4.335-10.399-2.5283-21.087-4.47608-31.911-5.84947-23.734-2.99993-47.452-5.1983-71.567-5.586893-4.822-.077487-9.639-.152744-14.453-.222956zm-7.262 7.305029c12.242.12806 24.473.70964 36.554 2.00819 10.996 1.1802 21.801 3.0338 32.549 5.0194.17.0307.371.0153.606-.0353.234-.0504.481-.1313.742-.2166.032-.0105.065-.0208.097-.0313-10.921-1.9991-21.916-3.8452-33.091-4.96112-11.813-1.17897-23.785-1.64952-35.704-1.76873-.584-.00567-1.169-.01052-1.753-.01454z"/></g></svg>