<svg fill="none" height="117" viewBox="0 0 525 117" width="525" xmlns="http://www.w3.org/2000/svg"><path d="m300.206.199018c22.763-.438787 45.44-.067672 68.21.298232 24.139.389008 47.876 2.58908 71.621 5.59034 10.842 1.37566 21.548 3.32774 31.966 5.86071 5.335 1.2957 10.608 2.7451 15.789 4.3421 4.733 1.4544 9.874 2.8947 14.18 4.956 6.184 2.961 13.338 6.7098 18.003 11.2002 2.334 2.2464 4.064 4.6963 4.725 7.3455.664 2.66.243 5.4917-1.669 8.4749-.623.9741-1.517 1.8591-2.472 2.6937-.479.4181-.976.8268-1.466 1.2294-.49.4035-.973.8009-1.427 1.1995l-5.223 4.5839h-.001c-3.345 2.9286-8.481 5.1644-12.782 7.2921-8.619 4.2624-17.787 8.0051-27.343 11.167-20.151 6.6686-40.967 12.2119-62.386 16.5894-19.792 4.0478-39.947 7.171-60.196 9.934-46.545 6.362-93.665 10.595-141.056 12.561-24.104.996-48.263 1.437-72.417 1.287-23.992-.149-48.0336-.938-71.8508-3.216-9.5139-.913-19.0831-1.772-28.4849-3.189l-1.8782-.29c-5.1384-.823-10.2385-1.829-15.1661-3.172-4.1851-1.141-8.92234-2.444-12.51354-4.435-1.50926-.838-2.93756-1.924-4.06044-3.1443-1.12115-1.2189-1.950258-2.586-2.236985-3.987l.0009857-.001c-.1967817-.9375.0353013-2.0724.3861713-3.1567.353174-1.0912.843568-2.1817 1.195538-3.0269l.00099-.002c.73466-1.7356 2.35552-3.2988 3.7761-4.7264l.57762-.5668c6.02946-5.7927 13.88896-9.6563 22.41886-13.4781 38.4281-17.2191 81.7477-28.5922 124.9047-38.6904 40.547-9.4845 82.25-17.1173 124.737-21.0779 23.272-2.16521 46.878-3.27892 70.381-3.05067 11.928.1193 23.916.59017 35.748 1.7711 11.672 1.16547 23.143 3.12457 34.525 5.22167l-.091.4913c-.164-.0302-.361-.0142-.594.0364-.231.0505-.477.1303-.739.2157-.257.0838-.529.173-.793.2299-.264.0567-.538.0865-.801.0393h-.001c-10.744-1.9851-21.535-3.8361-32.511-5.0142-22.78-2.44844-46.102-2.34514-69.037-1.45741l-.001-.00001c-22.417.86435-44.694 2.77032-66.737 5.65532-46.127 6.0321-90.955 16.1388-134.654 27.8961-20.419 5.4947-40.616 11.4824-59.8449 18.7637-9.9781 3.7777-19.7284 7.9303-29.1081 12.3809-3.6201 1.7184-6.9609 3.7589-9.9378 6.0015l-.5902.4515c-2.964 2.2995-6.40385 5.0844-8.03492 7.9286-.27966.487-.4576 1.0544-.6093 1.6496-.14807.581-.27672 1.211-.4502 1.7615l.00097.001c-.13309.4342-.3636.9399-.53952 1.3953-.18384.476-.31824.9168-.313 1.297l.01468.2032c.05676.4841.28004 1.0324.59052 1.5916.35171.6334.79854 1.2518 1.18557 1.7671h-.00098c1.82914 2.4215 4.8041 4.1505 8.33848 5.3715 8.9441 3.088 18.1616 5.154 27.9331 6.517 21.4608 2.992 43.5219 4.549 65.3516 5.366 46.27 1.735 92.911.53 138.987-2.418 46.206-2.953 92.41-7.889 137.547-15.3019 23.422-3.8488 46.483-8.938 68.628-15.4827 19.278-5.694 37.675-12.32 53.977-21.5388 4.296-2.4313 7.485-5.9361 10.978-8.9996 2.83-2.4879 4.557-5.1353 4.744-8.3103.162-2.6394-.883-5.1169-2.649-7.4002-1.768-2.2842-4.247-4.3576-6.92-6.1787-13.637-9.2877-32.284-14.3146-50.23-18.1747-9.073-1.95358-18.263-3.30066-27.554-4.5408l-3.988-.52682c-11.532-1.50706-23.148-2.6709-34.818-3.46945-11.688-.79864-23.352-1.03446-35.084-1.34881l-.001-.00001c-11.628-.31331-23.256-.52862-34.885-.52561-46.79.002468-93.457 2.67648-139.992 5.72566l-.001.00097-.001-.00099v.00098l-.034-.49838c.471-.0324.934-.14117 1.421-.2552.48-.11245.984-.23049 1.507-.2661l.001.00001c11.74-.76836 23.491-1.51573 35.241-2.19967 23.964-1.39868 47.978-2.543829 72.028-3.119115zm-253.3727 63.068382c-6.1725 2.4047-12.2459 4.9329-18.2013 7.6015-8.5325 3.823-16.3174 7.657-22.27634 13.3817l-.57073.5601c-1.44841 1.4555-2.98166 2.9413-3.67009 4.5662l.00097.001c-.35961.8636-.83657 1.9233-1.181506 2.989-.325196 1.0049-.517416 1.9717-.400893 2.7493l.027862.1526-.000018.002c.26259 1.2827 1.031505 2.5705 2.115205 3.7486 1.08204 1.1766 2.46576 2.2306 3.93441 3.0446 3.52823 1.957 8.20263 3.245 12.40263 4.391 4.9049 1.337 9.9863 2.339 15.1135 3.16l1.8743.291c9.3841 1.414 18.938 2.271 28.4576 3.185 21.3188 2.039 42.8201 2.882 64.3121 3.142-7.353-.132-14.701-.332-22.039-.608-21.1579-.791-42.5399-2.279-63.3867-5.093l-2.016-.276c-9.7978-1.367-19.0478-3.44-28.0276-6.54-3.57885-1.236-6.66001-3.009-8.57421-5.5436l.00001-.0009c-.38935-.5184-.85384-1.16-1.22311-1.8251-.36599-.6593-.65585-1.372-.66648-2.0288v-.001c-.00671-.4847.16057-1.004.34602-1.4841.1934-.5007.40059-.9474.52748-1.3613l.00002-.002c.16893-.5353.28434-1.1189.44216-1.7381.15436-.6056.34581-1.2264.66028-1.7741 1.68929-2.9459 5.21683-5.7908 8.16233-8.0759h.001c3.1516-2.4421 6.7253-4.6613 10.6193-6.5097 7.5317-3.5738 15.3021-6.9541 23.2368-10.104zm307.1207-62.493165c2.142.050295 4.284.103359 6.426.161077 11.727.314228 23.405.550458 35.106 1.349998 11.68.79926 23.307 1.9643 34.849 3.47267 10.651 1.39386 21.19 2.83638 31.582 5.07382 17.946 3.86 36.68 8.9023 50.406 18.2506 2.695 1.8362 5.221 3.944 7.034 6.2862 1.813 2.3433 2.924 4.938 2.752 7.7372-.185 3.1496-1.806 5.773-4.383 8.1769l-.528.4784c-3.439 3.0159-6.707 6.5934-11.064 9.0584-10.933 6.1834-22.802 11.2001-35.235 15.5499.42-.1379.841-.2731 1.26-.4119h.001c9.535-3.1549 18.681-6.8889 27.277-11.1403 4.347-2.15 9.394-4.3472 12.675-7.2199.869-.7653 1.742-1.5287 2.613-2.2919.871-.7634 1.743-1.5271 2.611-2.2919l.709-.6057c.241-.2014.486-.4023.731-.6035.49-.4034.982-.8076 1.453-1.2198.946-.8261 1.797-1.6731 2.381-2.5861l.33-.5379c1.561-2.678 1.864-5.1913 1.276-7.5469-.63-2.5233-2.289-4.8947-4.588-7.107-4.6-4.4276-11.684-8.1462-17.873-11.1091-4.263-2.0408-9.355-3.4678-14.11-4.929h-.001c-5.171-1.5938-10.434-3.0416-15.759-4.335h-.001c-10.399-2.52826-21.086-4.47602-31.91-5.84942-23.734-2.99992-47.452-5.19829-71.567-5.586889-4.822-.077487-9.639-.152744-14.453-.222956zm-7.262 7.305025c12.242.12806 24.473.70965 36.554 2.00814 10.996 1.1802 21.801 3.0338 32.549 5.0195h-.001c.17.0306.372.0152.607-.0353.234-.0505.481-.1313.742-.2167.032-.0104.065-.0208.097-.0313-10.921-1.999-21.916-3.8452-33.091-4.96107-11.813-1.17897-23.786-1.64951-35.704-1.76872-.584-.00568-1.169-.01053-1.753-.01455z" fill="#9810fa"/></svg>