<svg fill="none" height="731" viewBox="0 0 1510 731" width="1510" xmlns="http://www.w3.org/2000/svg"><g fill="#9810fa"><path d="m1136.95 82.2709c-76.57-8.3447-153.006-9.8836-229.681-1.5732-74.418 8.0711-148.254 21.4433-221.03 38.8843-137.482 32.969-272.501 78.932-399.722 140.902-64.876 31.6-129.889 67.372-186.6603 112.276-26.6755 21.101-52.7012 44.083-71.8186 72.434-14.5348 21.546-27.188533 47.708-21.75084 74.452 2.35976 11.628 8.68664 21.956 18.15984 29.138 6.4979 4.925 13.03 7.319 20.8958 9.166 9.4049 2.223 18.8097 4.719 28.2829 6.703 18.7412 3.898 39.5342 3.249 58.6172 3.488 19.597.274 39.193-.239 58.755-1.505 76.572-4.959 152.495-18.433 227.802-32.592 146.031-27.393 289.908-63.44 433.066-102.94 71.887-19.835 143.843-39.637 215.384-60.772 70.8-20.93 141.83-42.818 210.06-71.169 33.82-14.056 67.37-29.309 99.35-47.195 29.75-16.655 60.43-35.328 85.97-58.07 11.66-10.363 21.89-22.264 30.41-35.363 8.24-12.688 14.15-26.504 11.21-41.962-3.04-16.005-14.29-26.9835-26.64-36.6277-12.21-9.5074-25.61-17.4074-39.84-23.4607-16.18-6.9083-33.38-10.8412-50.34-15.3897-18.5-4.9589-36.73-9.9863-55.64-13.201-37.83-6.4295-76.03-10.3966-114.37-11.9014-76.09-3.0095-152.87 1.0602-228.551 9.0287-140.491 14.8083-279.101 43.8777-414.154 85.2248-141.791 43.433-277.528 102.29-410.427 167.714-32.9 16.21-65.6625 32.694-98.3571 49.281 2.9754-1.505 6.9083-1.129 9.9178-2.668 127.3243-64.602 255.6743-127.666 389.8383-176.947 139.739-51.3334 284.368-88.7133 431.801-109.8143 72.092-10.3282 144.632-17.1339 217.442-19.1858 73.25-2.052 146.1.7524 218.33 13.9533 17.75 3.2489 35.12 8.755 52.53 13.4062 15.8 4.2407 31.49 8.2762 46.44 15.1161 13.71 6.2584 26.57 14.2953 38.27 23.7685 11.52 9.3364 21.51 20.246 24.01 35.431 2.49 15.116-3.39 28.522-11.43 40.902-8.07 12.414-17.71 23.803-28.66 33.789-23.9 21.819-52.83 39.603-80.77 55.711-61.49 35.464-128.46 61.764-195.66 84.198-70.42 23.495-141.52 44.528-212.958 64.569-145.587 40.834-291.276 81.634-439.325 112.687-73.05 15.321-146.544 29.821-220.483 40.355-36.559 5.198-73.358 9.781-110.225 11.867-18.57 1.06-37.209 1.436-55.813 1.094-18.126-.307-37.927.308-55.6766-3.454-8.5156-1.812-16.9629-4.035-25.4443-6.019-8.1394-1.915-15.2187-3.83-22.1612-8.686-9.3022-6.532-15.9711-15.972-18.9464-26.949-6.6005-24.453 3.4541-49.795 16.1763-70.349 17.3732-28.043 41.1076-50.615 66.3467-71.545 26.1625-21.716 54.4455-40.457 83.3435-58.344 120.211-74.452 253.896-128.35 388.881-169.389 75.923-23.085 153.35-41.313 231.632-54.377 71.887-12.004 144.527-20.246 217.513-18.7071 35.49.7524 70.89 3.4542 106.15 7.2845 3.25.342 6.81-3.0095 9.95-2.6675z"/><path d="m1357.64 397.555c3.32 0 6.64-2.668 9.92-2.668-3.35.034-6.67 2.668-9.92 2.668z"/><path d="m857.544 586.403c-4.036.069-8.037.274-11.936 1.197-4.548 1.095-9.576 1.984-13.782 4.104-7.9 3.967-11.525 13.748-14.432 21.512-3.318 8.96-6.293 20.622-1.197 29.514 3.83 6.703 11.491 7.934 18.536 6.84 9.097-1.403 18.536-4.275 26.744-8.448-2.976 1.505-6.909 1.129-9.918 2.668-2.531 1.3-5.13 2.462-7.832 3.42-.821.308-1.641.547-2.462.821-2.941.991 8.96-2.121 5.916-1.574-.307.069-.615.137-.923.206-1.744.342-3.523.581-5.301.649-5.848.24-11.628-1.675-14.74-6.908-4.241-7.113-3.009-16.313-.889-23.905 2.086-7.49 5.198-15.903 10.055-22.093 2.12-2.702 4.719-4.685 7.865-6.019 1.368-.581 4.07-1.163-2.736.65-6.805 1.812-3.693.923-2.017.65.855-.137 1.71-.24 2.565-.308 2.188-.205 4.343-.274 6.532-.308 1.573-.034 3.454-.889 4.959-1.265 1.539-.411 3.42-1.368 4.993-1.403z"/><path d="m900.532 594.235c-5.882.069-11.457 1.676-17.065 3.386-4.207 1.266-7.011 4.036-8.961 7.934-2.086 4.207-3.591 8.858-4.411 13.441-.719 4.001-.616 8.31 1.915 11.696 2.154 2.838 5.643 4.241 9.165 3.967 2.428-.205 4.856-1.06 7.216-1.676 2.531-.684 5.267-1.197 7.592-2.428 4.07-2.154 7.08-6.429 9.439-10.294 2.702-4.446 4.754-9.541 4.925-14.808.171-5.985-2.702-10.944-6.908-15.014-1.949-1.915-4.001-3.283-6.737-3.693-2.839-.411-5.643-.24-7.866-2.292-.376-.376-4.378 1.129-4.959 1.266-1.163.308-2.326.615-3.489.957-.17.034-1.367.479-1.436.411 3.283 3.009 8.071 1.368 11.696 3.625 3.591 2.223 6.909 6.19 8.55 10.089 3.523 8.344-.513 17.989-5.403 24.863-2.223 3.146-4.891 6.395-8.516 7.968-.137.068-.308.137-.445.171-2.017.684-.923.41 3.249-.821 6.909-1.881 4.754-1.128 3.078-.992-.718.069-1.47.035-2.188-.034-1.574-.171-3.078-.718-4.412-1.573-6.635-4.275-5.062-13.03-3.181-19.391 1.231-4.07 2.736-8.55 5.472-11.867 1.368-1.642 3.01-2.804 4.959-3.659.274-.103.513-.171.787-.274-2.702.718-5.37 1.436-8.071 2.155.855-.137 1.675-.274 2.53-.342 1.197-.103 2.394-.137 3.591-.137 1.573-.034 3.454-.889 4.959-1.266 1.471-.41 3.352-1.368 4.925-1.368z"/><path d="m933.74 600.083c.991-4.856 2.086-9.678 3.317-14.432.992-3.864 1.607-8.96 4.104-12.209-3.317.889-6.601 1.778-9.918 2.667 1.265 5.609-.547 11.868-.103 17.579.206 2.497.582 5.506 2.463 7.353 2.291 2.223 5.266 1.026 7.934.308 3.659-.958 7.284-1.334 9.815-4.344 2.326-2.77 3.831-6.224 5.335-9.507 1.437-3.181 3.112-6.122 4.857-9.131 2.667-4.651 5.301-9.439 9.131-13.27-3.317.889-6.601 1.779-9.918 2.668 2.155 7.797-1.505 15.732-2.907 23.324-1.026 5.643-1.197 15.629 6.156 17.065 2.668.513 5.369-.273 7.934-.957 3.831-.992 7.798-1.881 11.457-3.386 5.369-2.223 10.602-5.575 14.843-9.542-.821.753-3.865.992-4.959 1.266-1.232.342-3.967.479-4.959 1.368-3.557 3.351-7.798 6.121-12.141 8.31-1.197.616-2.462 1.06-3.694 1.642-2.735 1.231 9.576-1.71 4.994-1.334-.616.034-1.232.137-1.847.137-2.189-.034-4.241-.718-5.677-2.394-4.207-4.925-2.77-12.688-1.437-18.365 1.539-6.43 3.967-13.167 2.155-19.767.034.171-9.268 2.017-9.918 2.667-3.078 3.112-5.369 6.84-7.592 10.602-1.744 3.009-3.694 6.019-5.198 9.165-2.121 4.515-4.583 13.03-9.918 14.706 3.249-.855 6.498-1.744 9.747-2.599-10.807 1.983-5.472-20.964-6.635-26.163.068.342-9.337 1.916-9.918 2.668-2.496 3.215-3.078 8.31-4.104 12.209-1.231 4.788-2.325 9.61-3.317 14.432.068-.308 4.48-1.163 4.959-1.265.547-.24 4.856-.958 4.959-1.471z"/><path d="m1002 569.509c-2.461 9.678-3.829 19.562-5.847 29.309 0-.034 1.676-.411 1.471-.342 1.163-.308 2.325-.616 3.526-.923 1.16-.308 2.32-.616 3.48-.958.18-.068 1.41-.274 1.44-.411 2.02-9.746 3.42-19.63 5.85-29.308 0 .034-1.68.41-1.47.342-1.16.307-2.33.615-3.52.923-1.17.308-2.33.616-3.49.958-.21.068-1.4.273-1.44.41z"/><path d="m1000.02 536.302c3.32 0 6.63-2.668 9.92-2.668-3.32 0-6.64 2.668-9.92 2.668z"/><path d="m1033.26 563.661c-1.51 7.318-4.99 15.116-3.66 22.674-.07-.479 9.37-1.813 9.92-2.668 5.54-8.652 7.25-19.185 10.67-28.727 2.39-6.703 5.23-16.211 12.62-18.946-3.32.889-6.6 1.778-9.92 2.667 8.04 4.412 5.1 17.339 5.27 24.76.07 3.249.71 9.576 4.37 10.807 1.24.411 2.57-.102 3.77-.41 2.36-.616 4.75-1.231 7.11-1.915 2.53-.718 4.92-2.121 4.96-5.096 0 .137-4.58 1.163-4.96 1.265-.41.103-4.93 1.061-4.96 1.368 0 2.223-1.5 3.831-3.49 4.652 2.09-.582 4.17-1.163 6.26-1.745-.2.069-.41.103-.61.171 1.23-.307 2.42-.615 3.65-.923-6.15.718-6.25-9.678-6.15-13.714.14-5.78 1.09-12.585-1.51-17.989-.54-1.094-1.26-2.12-2.18-2.941-1.78-1.539-3.05-.684-5.2-.137-3.8.992-7.6 1.608-10.47 4.446-4.65 4.583-6.67 11.423-8.82 17.408-3.28 9.199-4.89 19.186-10.23 27.53 3.32-.889 6.6-1.778 9.92-2.667-1.33-7.558 2.16-15.39 3.66-22.675-.07.308-4.48 1.163-4.96 1.266-.68.308-4.96 1.026-5.06 1.539z"/><path d="m1105.69 539.516c1.06-2.394 4.89-6.84 4.66-9.473-.18-1.813-2.23-1.402-3.77-1.094-4.03.855-9.26 1.607-12.27 4.685-2.88 2.907-5.37 6.874-7.56 10.328-2.4 3.762-5.17 9.815-2.33 14.056 2.5 3.762 7.15 1.881 10.67.958 4.48-1.197 8.65-2.258 12.52-4.857 3.01-2.017 5.68-4.548 8.17-7.147 2.26-2.326 6.98-6.874 5.2-10.534 0 0-9.61 2.052-9.92 2.668-6.36 12.996-2.49 29.069-1.02 42.817 1.84 16.997 4.37 34.063 3.38 51.231-.85 14.432-4.44 28.317-12.21 40.629-7.11 11.251-17.06 21.306-28.01 28.864-3.11 2.155-6.39 4.07-9.81 5.711-1.74.855-3.56 1.608-5.37 2.326-1.16.445-2.33.821-3.49 1.231-3.01 1.095 1.54-.205 2.09-.547-1.61.958-5 .957-6.91 1.197-1.98.273-3.97.479-5.95.616-4.1.307-8.21.341-12.35.273-3.31-.068-6.63 2.736-9.91 2.668 14.09.307 27.29-2.121 40.73-6.156 14.53-4.344 26.67-13.201 37.1-24.008 10.19-10.568 17.96-23.256 21.45-37.62 4.44-18.262 2.7-37.414.65-55.881-1.1-9.713-2.16-19.391-3.18-29.104-.96-9.097-1.41-18.468 2.7-26.915-3.32.889-6.6 1.779-9.92 2.668 2.15 4.411-4.69 10.089-7.42 12.722-1.54 1.436-3.08 2.907-4.79 4.138-1.2.855-2.43 1.676-3.73 2.394-1.5.821-4.44 1.573 1.3.103 5.88-1.505 2.98-.548 1.4-.787-7.42-1.163-4.07-11.354-1.71-15.424 1.41-2.394 3.18-4.583 4.76-6.908 1.67-2.462 3.62-5.575 6.6-6.532-3.25.855-6.5 1.744-9.75 2.599.62-.068 1.61-.171 2.16.239 1.09.89.37 1.676-.21 2.976-1.13 2.599-2.77 4.993-3.93 7.592.2-.479 4.34-1.094 4.96-1.265.82-.274 4.72-.719 5.02-1.437z"/><path d="m1197.52 496.528c-3.93-.137-7.97-.069-11.83.752-2.47.547-4.89 1.231-7.32 1.915-1.78.479-3.63.89-5.34 1.608-1.67.684-3.35 1.744-4 3.488-.1.308-.38.924-.27 1.231.17.513 1.37 1.197 1.78 1.471 1.26.889 2.63 1.607 4.07 2.154 2.77 1.061 5.74 1.574 8.65 2.189 2.97.616 5.95 1.402 8.58 2.975.41.24 1.64.856 1.85 1.266.2.41-.14 1.607-.24 2.052-.31 1.265-.99 2.394-1.95 3.283-2.05 1.949-4.92 2.804-7.56 3.693-4.1 1.403-8.04 3.215-11.9 5.165 3.32-.89 6.6-1.779 9.92-2.668.44-.718 1.02-1.3 1.71-1.778.37-.24.75-.445 1.16-.65 3.32-1.744-10.74 2.325-6.94 1.847 1.64-.206 3.35-.855 4.96-1.266 1.6-.444 3.31-1.162 4.96-1.368-3.7.479-7.39 1.745-10.95 2.805-1.91.547-3.69 1.368-4.82 3.112.07-.069 1.57-.376 1.47-.342 1.16-.308 2.33-.616 3.52-.924 1.58-.41 3.49-.649 4.96-1.368 3.15-1.573 6.3-3.077 9.58-4.343 2.46-.923 5.09-1.607 7.45-2.838 1.99-1.061 3.7-2.565 4.31-4.788.14-.548.34-1.231.28-1.779-.07-.718-.65-.957-1.27-1.368-1.23-.786-2.53-1.402-3.9-1.915-5.23-1.881-11.08-1.915-16.07-4.583-1.06-.581-2.57-1.333-3.32-2.325-.34-.479-.34-.582-.17-1.197.14-.445.31-.855.55-1.231.96-1.505 2.63-2.292 4.24-2.873.03 0 .1-.034.13-.034 2.78-.889.14-.205-7.9 2.12.38-.068.72-.171 1.1-.239.58-.103 1.2-.205 1.78-.274 1.13-.137 2.25-.205 3.35-.273 1.85-.069 3.69-.069 5.54 0 .41 0 1.13-.274 1.47-.342 1.16-.308 2.33-.616 3.52-.924 1.17-.308 2.33-.615 3.49-.957.34-.171.99-.513 1.37-.479z"/><path d="m1228.81 490.645c-.27-.478-.55-.923-.82-1.402-.2-.342-9.1 2.223-9.92 2.668-3.9 2.052-16.04 16.518-8.89 20.28 2.33 1.231 5.64.205 8-.376 3.73-.924 7.56-1.847 11.19-3.112 7.42-2.565 16.51-7.524 20.52-14.535 2.32-4.104 1.4-7.798-1.37-11.354-1.16-1.471-3.42-3.249-4.04-5.062-.78-2.291 1.85-3.556 3.87-4.275-2.5.684-4.96 1.368-7.46 2.052 2.33-.615 5.06-.273 7.46-.718 2.39-.445 4.75-1.197 7.11-1.847 6.64-1.812 12.38-4.685 18.33-8.139-2.63 1.539-6.8 1.607-9.75 2.599-5.19 1.778-8.13 6.977-10.39 11.662-2.33 4.754-6.19 11.491-1.1 15.732 4.21 3.522 11.6.034 16.15-1.3 4.75-1.402 9.74-3.112 14.09-5.54 4.58-2.565 8.75-6.806 7.93-12.517-.75-4.959-5.51-7.045-9.4-9.234-.86-.479-5.37-2.633-5.31-3.796.11-1.573 7.97-4.104 9.24-4.822 6.05-3.352 11.66-7.353 17.34-11.32 1.64-1.129 3.28-2.257 5.02-3.215.76-.41 1.51-.752 2.26-1.128 2.67-1.197.75-.342-5.81 2.599.03.41.07.82.1 1.231-.72 3.864-1.13 7.661-2.12 11.525-.62 2.36-1.3 4.617-2.05 6.908-.62 1.881-2.16 5.062-1.3 7.045.07 0 .14-.034.17-.034 3.76-.889 7.93-1.607 11.49-3.18 3.32-1.471 5.34-4.651 6.91-7.798 1.74-3.42 3.01-7.045 4.86-10.396.82-1.471 1.74-2.907 2.94-4.104.51-.513 1.06-1.026 1.64-1.437.37-.273.89-.444 1.23-.752 1.4-.684.38-.411-3.15.786-2.66-.513-3.79.035-3.42 1.608-.95 4.548 2.4 11.662 6.71 13.372 4.1 1.607 9.4.205 13.57-.616 8.83-1.744 18.51-4.001 26.2-8.823 9.58-5.985 15.49-15.766 20.21-25.752-.24.513-4.31 1.094-4.96 1.265-.75.205-4.58.65-4.92 1.368-4.52 9.507-10.06 18.878-18.95 24.897-2.12 1.436-4.41 2.702-6.77 3.728-1.13.479-6.77 2.257-1.98.957 4.68-1.265-1.99.206-3.22.377-4.72.718-9.85 1.231-12.99-3.078-1.95-2.668-2.47-5.848-2.84-9.063-.17-1.607.13-1.642-1.2-1.847-.82-.137-2.26.547-3.04.752-3.97 1.026-8.72 1.608-11.8 4.583-5.85 5.609-6.12 14.98-12.01 20.588-.68.65-1.6 1.06-2.29 1.676-2.02 1.847 8.04-3.523 7.36-2.155.13-.307-.11-1.06.03-1.47.82-2.428 1.33-4.993 2.15-7.421 1.92-5.712 4.31-12.654 3.08-18.673-.07 0-.13.034-.17.034-7.9 1.744-14.74 3.899-21.41 8.618-8.21 5.78-16.65 12.073-26.37 15.014-.06.034-.1.034-.17.068 3.8 4.822 11.49 5.506 14.4 11.149 3.8 7.353-3.49 13.475-9.4 16.211-1.51.718-3.08 1.299-4.62 1.88-.72.274-1.44.514-2.15.787-1.92.684-1.68.65.68-.102 2.36-.411 2.63-.65.82-.685-1.81-1.402-3.73-1.573-4.86-4.001-.92-2.018-.54-4.138.14-6.19 2.19-6.429 6.09-16.176 13.06-18.536-3.24.855-6.49 1.744-9.74 2.599-3.22 1.881-6.43 3.796-9.85 5.335-6.12 2.736 6.36-.615 2.39-.376-1.33.068-2.73.205-4.07.342-4.44.479-8.99 1.813-13.23 3.146-1.51.479-3.8 1.163-4.55 2.736-.92 1.95 2.05 4.378 3.35 5.951 3.63 4.378 4.69 8.584 1.23 13.475-3.11 4.377-8.03 7.558-12.69 10.088-1.77.958-3.59 1.881-5.47 2.6-5.85 2.291 4.17-1.163 5.06-1.163-1.16 0-2.32.444-3.55.376-3.94-.205-4.83-3.078-3.87-6.566 1.51-5.438 5.27-11.56 10.33-14.227-3.32.889-6.6 1.778-9.92 2.667.28.479.55.924.82 1.403.48.923 9.48-3.318 9.92-2.6z"/><path d="m1396.7 338.937c-5.44 11.252-9.55 23.051-11.73 35.397-2.16 12.277-4.31 26.846 0 38.85.13.342 9.85-2.838 9.91-2.667-4.31-11.97-2.15-26.573 0-38.851 2.16-12.346 6.3-24.145 11.73-35.396-.24.513-4.3 1.094-4.95 1.265-.79.24-4.59.684-4.96 1.402z"/><path d="m1406.61 457.438c1.89-.992 3.73-2.052 5.51-3.215-.27.171-1.27.308-1.47.342-.96.24-1.92.479-2.84.753-1.81.478-3.62.957-5.44 1.504-3.31.992-6.77 1.95-9.3 4.481.07 0 .14-.035.17-.035 6.71-1.573 13.48-2.804 20.04-4.959 2.12-.684 4.28-1.573 5.92-3.112.34-.308.82-.718 1.03-1.128.23-.513.17-.411-.42-.411-.99 0-1.98.205-2.97.411-4.45.957-8.93 2.154-13.24 3.591-2.22.752-4.44 1.641-6.43 2.872-.34.206-.68.411-1.02.65-.1.103-.41.24-.48.376-.17.342-.17 0 .07.206.44.376 1.78.205 2.29.205 2.56-.069 5.06-.787 7.52-1.437 3.8-.991 7.8-1.812 11.43-3.385 1.23-.548 3.62-1.471 4.17-2.873.17-.445.2-.411-.31-.582-.34-.102-.68-.205-1.03-.273-.99-.205-1.98-.274-2.97-.274-2.22-.034-4.48.274-6.67.684-4.38.855-8.72 2.121-13 3.386-2.29.65-4.51 1.436-6.66 2.428-1.85.855-3.7 1.881-5.24 3.249-.3.274-.58.547-.85.855-.41.479-.51.445.07.718.99.479 2.22.616 3.28.718 2.77.24 5.61-.068 8.34-.581 2.4-.479 4.76-1.128 7.08-1.778 2.23-.616 4.52-1.129 6.71-1.915.1-.035 1.64-.513 1.64-.65 0 0-2.67.615-2.74.615-3.08.787-6.26 1.505-9.27 2.565-1.6.547-3.11 1.368-4.61 2.155-.75.376-1.47.786-2.26 1.128-.24.103-.51.24-.75.342-4.93 2.052 11.39-2.462 6.77-1.778-1.68.239-3.35.855-4.96 1.265-1.61.445-3.28 1.129-4.96 1.368 1.85-.273 3.7-.855 5.51-1.333 2.19-.582 4.44-1.095 6.6-1.847 2.19-.753 4.14-1.984 6.22-3.01.58-.273 1.17-.513 1.75-.752 2.9-1.197-5.61 1.265-7.87 2.189-.41.171-.85.308-1.26.479-1.37.444-3.39.923 3.28-.855 3.9-.992 5.03-1.3 3.38-.924-.2.034-.41.103-.65.137-2.12.41-4.3.65-6.49.616-.93 0-1.85-.069-2.74-.206-.44-.068-2.29-.273-2.5-.718-.3-.581 2.47-2.428 3.01-2.77 1.51-.992 3.12-1.778 4.79-2.462.96-.411 1.95-.753 2.94-1.095.41-.137.79-.239 1.2-.376 1.57-.513-9.58 2.428-6.67 1.778.27-.068.58-.136.86-.171 3.35-.684 7.14-1.231 10.5-.273.71.205.99.239.47.889-.41.547-.95.958-1.5 1.334-1.44.957-3.11 1.607-4.75 2.154-3.25 1.061 10.26-2.53 6.39-1.744-.44.103-.89.171-1.33.24-.82.102-1.64.205-2.47.205-.51 0-1.23.034-1.71-.171-.41-.205-.27-.069 0-.376.28-.308.72-.513 1.07-.753 1.6-.992 3.38-1.778 5.12-2.462.52-.205 1.03-.376 1.54-.547 4.18-1.402-7.14 1.846-6.53 1.71.89-.171 1.78-.377 2.67-.411.14 0 .34-.034.48 0 .41.103.37-.171.27.274-.1.342-.61.786-.89 1.026-.72.718-1.57 1.299-2.46 1.778-1.06.582-2.19 1.026-3.35 1.402-3.93 1.3 9.34-2.325 5.88-1.573-.51.103-1.06.24-1.57.342-1.1.24-2.19.445-3.29.65-.41.068-.88.239-1.29.274-.38 0-.52.342-.18-.206.18-.273.59-.513.82-.718 2.3-1.778 5.1-2.565 7.84-3.351-3.25.855-6.5 1.744-9.75 2.599-1.78 1.163-3.63 2.223-5.51 3.215.35-.171 1.17-.274 1.47-.342 1.17-.308 2.33-.616 3.53-.924 1.64-.444 3.59-.65 5.02-1.402z"/></g></svg>