<svg fill="none" height="148" viewBox="0 0 247 148" width="247" xmlns="http://www.w3.org/2000/svg"><path d="m120.208 70.8633c.407-.1036.852-.1712 1.259-.0938.445.0867.783.2802 1.02.5547.235.2721.356.6057.404.9502.093.6812-.095 1.4501-.331 2.0332-.532 1.3087-1.369 2.5247-2.278 3.5762l.001.001c-.073.0864-.178.131-.25.1562-.08.0283-.169.0486-.25.0645-.079.0157-.166.0304-.23.042-.072.0129-.117.0216-.14.0293l-.009.0039-.008.0019c-.05.0123-.122.0238-.188.0342-.071.0113-.148.0231-.223.0371-.075.0142-.141.0294-.19.0449-.024.0078-.04.0139-.047.0176.005-.0031.012-.0109.023-.0225l-.378-.3261c.001-.0013.001-.0027.003-.0039.552-.6376 1.677-2.1529 2.236-3.5645.282-.7123.4-1.3517.276-1.8281-.06-.2305-.177-.4243-.367-.5772-.143-.1148-.334-.2127-.588-.2822-.002.0017-.004.0032-.007.0049l-.003.002c-.288.209-.556.4646-.809.7373-.256.2749-.493.5672-.723.8681l-.68.9229c-1.169 1.6172-2.155 3.3623-3.008 5.1709l-.359.7793c-.809 1.8013-1.3 3.5936-1.264 5.5566l.014.5068c.049 1.1924.213 2.4352.841 3.375l.142.1914c.346.422.805.6721 1.372.754.231.0335.468.0437.708.0341l.189-.0234c.08-.0117.174-.0259.241-.0342.007-.0008.014-.0012.021-.0019.115-.042.218-.0789.262-.0967.217-.0956.425-.1959.634-.3028 1.709-.8867 3.21-2.1691 4.36-3.7148.144-.194.281-.3921.415-.5928.152-1.2716.341-2.5399.594-3.7978.275-1.3756.704-2.7448 1.024-4.0762.1-.4227.207-.9578.408-1.4297.179-.4182.443-.8172.87-1.0674l.194-.0976c.1-.0448.468-.169.807-.2695.177-.0523.357-.1014.499-.1319.07-.0149.14-.0276.199-.0322.028-.0022.065-.0038.103.001.016.002.074.0098.132.0488l.057.0508.07.0957c.149.2281.19.4846.194.7187.004.2576-.04.5389-.058.7373-.063.6714-.13 1.3512-.274 2.0284-.268 1.2786-.678 2.528-1.159 3.7314-.451 1.1295-1.003 2.2321-1.675 3.2568-.35 2.9074-.511 5.8427-.689 8.7735-.411 6.7303-1.117 13.3733-2.422 19.9973-1.205 6.12-2.784 12.176-6.07 17.594-1.55 2.557-3.394 5.003-5.511 7.127-1.898 1.901-4.161 3.38-6.602 4.481-4.7412 2.138-9.9848 3.048-14.9861 4.13l-.1064-.489c.1679-.036.4051-.106.6699-.184.258-.076.5388-.157.7774-.208l2.167-.467c5.0543-1.09 10.0592-2.287 14.2072-5.457 2.141-1.638 3.925-3.74 5.522-5.918 1.66-2.26 3.084-4.694 4.212-7.255 2.419-5.492 3.552-11.547 4.532-17.465 1.041-6.269 1.383-12.5695 1.825-18.9215.072-1.0312.148-2.0659.24-3.1006-.108.0972-.217.1936-.329.2871-1.628 1.3675-3.412 2.1667-5.437 2.6905-.822.2127-1.71.3387-2.511.1787-.815-.1632-1.532-.6227-1.984-1.5459-.694-1.4097-.726-3.1048-.689-4.5703.064-2.5093 1.208-4.8423 2.299-6.9756.997-1.9491 2.191-3.885 3.64-5.5586l.206-.2334c.495-.5417 1.085-1.0581 1.83-1.3037.318-.1046.726-.2548 1.133-.3584zm3.475 15.6055c-.334.4385-.695.8563-1.082 1.2519-.043.4471-.082.8948-.119 1.3428l-.174 2.3252c-.441 6.3401-.784 12.6703-1.829 18.9683-.981 5.917-2.12 12.028-4.568 17.584-1.001 2.272-2.23 4.444-3.647 6.484l-.619.866c-1.609 2.194-3.426 4.34-5.623 6.02-.158.121-.317.239-.478.354 1.336-.829 2.581-1.796 3.693-2.91 2.085-2.092 3.906-4.505 5.438-7.033l.299-.503c3.038-5.213 4.544-11.014 5.709-16.93 1.299-6.595 2.003-13.214 2.413-19.9306.159-2.6196.304-5.2616.587-7.8896zm-108.0091.0253c1.0616-.2866 2.2231-.6196 3.4111-.2939 1.4089.3883 2.393 1.5494 3.0049 2.7471.6518 1.2718.9546 2.648 1.1289 4.0332.1721 1.368.2228 2.8028.3496 4.1201l-.001.0654c-.0086.0603-.0371.1048-.0566.1289-.0259.032-.0544.0522-.0703.0625-.033.0213-.0685.0363-.0938.0459-.0543.0206-.1248.0402-.1972.0586-.1475.0376-.342.0783-.5303.1172-.1916.0395-.3769.0775-.5156.1094-.0702.0161-.1225.0291-.1543.039-.006.0019-.0102.003-.0127.0039.0026-.0012.0188-.0092.038-.0253.007-.0059.0515-.0424.0733-.1084l.0117-.0762-.499.0234c-.1374-1.4548-.1761-2.9295-.3799-4.3935-.1894-1.3605-.5171-2.6669-1.1797-3.836l-.1367-.2314c-.6716-1.0852-1.648-1.9222-2.8789-2.0938l-.25-.0254c-.2557-.0161-.5111-.0082-.7637.0225-.1573.0639-.3098.1276-.458.1973l-.001-.001c-.665.3163-1.2909.7196-1.8681 1.1836l-.001.001c-2.179 1.7384-3.85659 4.186-5.33399 6.5664-1.57316 2.5276-2.87786 5.2204-3.87305 8.0244-.72589 2.039-1.26792 4.138-1.68262 6.266l-.16992.914c-.37702 2.088-.62333 4.2-.57715 6.306.0924 4.142 1.56262 8.153 5.4502 9.992 2.77913 1.313 5.74363 1.551 8.74803 1.304 3.0098-.247 6.0352-.977 8.9463-1.587l.1045.49c-.1678.036-.4044.106-.6689.183-.2584.076-.5405.158-.7793.209-3.3693.705-6.7868 1.555-10.2852 1.68-3.238.114-6.82875-.44-9.51953-2.469-3.678729-2.78-4.234548-7.656-3.9326196-11.819.3810286-5.204 1.7742496-10.428 4.0078096-15.138 1.34617-2.8376 3.0062-5.5465 4.95899-8.0117 1.68035-2.1196 3.60955-3.8597 6.25095-4.6709.0156-.0085.0272-.0138.0293-.0146.0161-.0066.0335-.0118.0459-.0157.0515-.0157.1557-.044.3106-.083zm-2.4971 1.6114c-1.433.8751-2.6364 2.0822-3.74707 3.4834-1.92795 2.4338-3.56847 5.1095-4.89942 7.915-2.20752 4.6541-3.584456 9.8181-3.960936 14.9601-.299885 4.135.274915 8.769 3.734376 11.384 2.19366 1.654 5.04591 2.293 7.82125 2.372-1.471-.156-2.9245-.492-4.33883-1.088l-.54297-.243c-4.13356-1.955-5.64194-6.202-5.73633-10.433-.04715-2.152.20452-4.299.58496-6.406.43762-2.46 1.03215-4.897 1.87305-7.259 1.00747-2.8388 2.3283-5.5627 3.91992-8.1201l.56641-.8984c1.31461-2.047 2.82889-4.109 4.72559-5.667zm21.5723 5.9951c2.1659-.5612 4.4751-.2648 6.2109 1.2627l.167.1523.168.166c1.5819 1.6315 2.0167 4.0317 1.9873 6.1834l-.0127.442c-.1051 2.501-.7039 5.054-1.7178 7.346-.9947 2.244-2.4427 4.247-4.2695 5.888-.8069.725-1.7346 1.43-2.8106 1.793-.7903.266-1.7526.591-2.6543.607-1.1493.023-2.0059-.506-2.5898-1.276-.5057-.667-.8079-1.514-.9385-2.35l-.0459-.356c-.2334-2.31.3089-4.705.9756-6.858l.3115-.961c.7605-2.247 1.753-4.504 2.9717-6.5209.5273-.8701 1.2189-1.8635 2.3379-2.1933.3747-.1108.7248-.2128 1.0742-.2803.0781-.021.1563-.0417.2344-.0625l.0078.0244c.501-.0723 1.0113-.0661 1.6006.0947l-.1309.4825c.0171.0046.0081-.0022-.0469.0097-.0474.0104-.106.0292-.1728.0537-.0669.0247-.1329.0521-.1983.0782-.059.0235-.1284.0505-.1845.0654l-.0049.002c-.0272.0065-.0721.0215-.1397.0459-.062.0223-.1395.0507-.2158.0761-.0763.0255-.1619.0508-.2431.0664-.074.0142-.1785.0281-.2784.001-.1817-.0479-.3554-.0918-.5214-.125-.2075.1717-.3991.3796-.5791.6094-.3616.4613-.6573.9944-.917 1.4756-.4633.854-.8896 1.738-1.292 2.631l-.3955.894c-1.0112 2.354-1.811 4.81-2.1133 7.341-.181 1.499-.2286 3.121.4121 4.446.3.622.7702 1.124 1.3867 1.417.3506.165.7245.253 1.1084.262h.002c.0531-.011.1117-.019.1757-.024.0112-.005.0223-.011.0332-.016.0999-.047.1941-.091.2852-.141 1.6103-.906 3.0112-2.394 4.0996-3.903 1.2314-1.7 2.1322-3.641 2.6904-5.666.4921-1.788.8984-3.974.7793-6.036-.119-2.0612-.76-3.9664-2.33-5.2441-.655-.5337-1.4267-.9106-2.2442-1.1191-.4131-.1041-.8365-.1639-1.2597-.1787-.1849-.007-.3762.0151-.5889.04-.1621.019-.3388.0391-.5176.043-.095.0382-.1916.078-.291.1211-.1958.09-.3808.186-.5664.291l-.001-.001c-.3532.2033-.6892.4424-1.0127.7041l.001.001c-.717.5884-1.332 1.2914-1.9375 2.0234l-.0059.0059c-.0732.0828-.1764.1266-.247.1513-.0798.028-.1689.0485-.25.0645-.0819.0162-.1649.03-.2325.041l-.1474.0264c-.0493.0127-.1223.0248-.1875.0351-.0717.0114-.149.0231-.2246.0371-.0767.0143-.1434.0294-.1924.045-.0241.0076-.0384.0133-.0449.0166.0049-.0033.0145-.0122.0263-.0264l-.3857-.3154.001-.002c.7951-.9628 1.6626-1.9406 2.7617-2.6455l.1963-.1211c.9884-.5826 2.0737-.8658 3.1338-1.1406zm.125 3.8437-.001-.0029c-.7436.2617-1.2781.8965-1.7402 1.6113l-.2032.3252c-1.3674 2.2631-2.4494 4.8431-3.2334 7.3711-.6614 2.136-1.1781 4.453-.9551 6.66l.042.332c.1211.773.3986 1.537.8428 2.122.5016.662 1.2145 1.097 2.1817 1.078.177-.003.3583-.022.541-.048-.1494-.046-.2966-.1-.4395-.167l-.001-.001c-.7322-.348-1.2797-.941-1.623-1.653-.708-1.465-.6412-3.214-.459-4.722.31-2.595 1.129-5.1 2.1514-7.48l.3984-.902c.4059-.901.8371-1.796 1.3076-2.6633.2591-.48.5732-1.0474.9639-1.5459.0874-.1115.1794-.2206.2764-.3252-.0166.0035-.0334.0065-.0498.0107zm1.708-3.6035.2627.0596.3291.0928c.7624.2372 1.482.6134 2.1074 1.123 1.7193 1.3992 2.3901 3.4637 2.5137 5.6028.1235 2.138-.297 4.384-.7959 6.198-.5728 2.078-1.4986 4.074-2.7676 5.826-.826 1.145-1.8416 2.295-3.0059 3.202.6157-.344 1.1875-.794 1.7227-1.275 1.7737-1.594 3.18-3.54 4.1465-5.72.9885-2.235 1.5723-4.725 1.6748-7.164.0976-2.2883-.3143-4.8205-1.9873-6.4081-1.1691-1.1062-2.6586-1.5772-4.2002-1.5371zm28.664-9.8691c.0905-.0129.2177-.0208.333.0273.0017.0007.0042.0013.0059.002.1689.0711.2513.2272.2939.3476.0455.1284.0665.2762.0762.4121.0196.2741-.0033.5624-.0137.6934v.002c-.0381.4401-.1356.8705-.246 1.2793-.1184.4372-.2569.8697-.3897 1.2949-.0668.2137-.1324.4261-.1943.6386l-.1719.6387c-.5767 2.3865-1.3199 4.6835-1.6289 7.0791-.099.7835-.2113 1.7198-.127 2.5938.0845.8735.3612 1.6415 1.001 2.1315l.1318.094c.6707.445 1.5622.548 2.42.567.5899.016 1.1763-.03 1.7588-.126.0538-.008.1384-.027.2246-.045.1386-.052.2756-.103.4111-.155l.5-.201c.2654-.116.5523-.171.8057-.22.2644-.05.4944-.095.6982-.183l.0986.229.0996.23c-1.7781.773-3.9088 1.37-5.8789 1.37-.7783 0-1.6192-.083-2.3457-.383-.6892-.284-1.2785-.767-1.6054-1.551l-.0616-.161c-.3173-.896-.3592-1.8855-.2812-2.8534.078-.968.2772-1.9337.4531-2.7841.3735-1.8057.8229-3.6353 1.334-5.4161l.2227-.7597c.0661-.2277.3655-1.1695.5722-2.1006-.1675.2684-.3316.5386-.4892.8135-.4102.7142-.7972 1.4397-1.1836 2.1689-.193.364-.386.7291-.5811 1.0938l-.5947 1.0908c-1.3776 2.4761-2.7192 4.9737-4.1797 7.4121l-.001-.001c-.227.3838-.4889.8488-.8047 1.2628-.3162.415-.7026.802-1.1894 1.022l.001.001c-.4307.198-.9503.287-1.3477.392l-.0019.001c-.1076.027-.2167.055-.3145.069-.0987.015-.2112.022-.3242-.012-.2469-.075-.3757-.296-.4727-.559-.2103-.576-.1163-1.242-.0771-1.739.023-.3108.0371-.6234.0508-.9397.0135-.3155.0268-.6355.0478-.9541.0219-.3136.0465-.6297.0713-.9454-.0021.0134-.0037.0268-.0059.0401-.3381 2.0676-.7549 4.1341-1.3183 6.1611-.5632 2.026-1.1811 4.005-1.5938 6.04l-.0009-.001c-.0298.149-.1505.222-.2081.251-.07.035-.1521.059-.2285.076-.1551.036-.3514.06-.5302.081-.1872.023-.3567.042-.4834.068-.0643.013-.1022.025-.1202.033-.0372.017.0431-.005.0655-.107l-.4893-.102c.4174-2.063 1.045-4.074 1.6026-6.074.5621-2.004.9703-4.0463 1.3066-6.1078.341-2.1099.6284-4.2462 1.0498-6.3554l.1553-.7344c.0534-.2437.1077-.4865.1621-.7285.109-.4849.2175-.967.3154-1.4522l.1152-.5429c.1165-.4885.2926-.9923.67-1.3936l-.083-.1152.3086-.083c.014-.0079.0254-.0159.0332-.0196.023-.0107.0489-.0212.0752-.0312.0531-.0204.1199-.0429.1933-.0664.1474-.0472.3326-.1013.5147-.1504.1819-.0491.3649-.0948.5058-.125.0695-.0149.1345-.0265.1856-.0332.0242-.0032.0539-.0071.083-.0068.0137.0001.0383.0016.0664.0078.0141.0031.0997.0203.1582.1035.3203.4413.3934.9782.3799 1.4853-.0136.5058-.1164 1.0265-.1817 1.4366-.1897 1.1798-.251 2.3848-.3398 3.5966-.1979 2.6451-.4668 5.2636-.5703 7.8938-.0073.164.0035.311.0234.455.2518-.355.479-.738.71-1.1251l.8916-1.5244c.8832-1.5288 1.7413-3.0693 2.5849-4.6221 1.1605-2.1371 2.2547-4.372 3.5625-6.4531l.2998-.5079c.1057-.183.2192-.3773.3409-.5664.2403-.3735.529-.7521.8906-.9912.1725-.1144.367-.1823.5459-.2314.0901-.0248.1803-.0461.2646-.0654.086-.0198.1648-.0372.2393-.0567h.0019c.0313-.008.0857-.0274.17-.0576.0783-.0281.1741-.0625.2714-.0928.0965-.03.2035-.0588.3047-.0732zm-12.1552 2.4629c-.3325.4168-.4451.9722-.5704 1.5918-.0992.4914-.2085.9789-.3173 1.4629-.1091.4849-.2175.9669-.3155 1.4521-.2094 1.0484-.3855 2.1004-.5517 3.1563l-.4942 3.1806c-.3381 2.0726-.7505 4.1337-1.3193 6.1607-.5229 1.876-1.0918 3.717-1.501 5.604.1229-.019.259-.037.3858-.052.1854-.022.3535-.043.4775-.071.0328-.008.057-.018.0762-.024.4173-2.029 1.0352-4.011 1.5849-5.989.5572-2.004.9704-4.0512 1.3067-6.1072.312-1.9304.5793-3.8828.9453-5.8164.0535-.7076.1229-1.4169.2324-2.1152.0728-.4592.1777-.956.1983-1.4483.0153-.3673-.0194-.7021-.1377-.9853zm12.3007-1.9522c-.1925.0855-.3587.2355-.5146.4297-.1642.2046-.3007.4351-.4463.666-.0019.003-.004.0068-.0059.0098-.0247.2976-.0773.6309-.1455.9619-.2107 1.0239-.5648 2.1305-.6298 2.3545v.0029c-.5997 2.003-1.1219 4.0839-1.5459 6.1338-.1769.8547-.3693 1.7905-.4444 2.7227-.0751.9324-.0314 1.8433.2529 2.6463.2549.722.7575 1.157 1.3868 1.417.638.264 1.4031.345 2.1552.345.0264 0 .0527-.002.0791-.002-.5234-.089-1.0449-.249-1.4961-.549l-.1572-.112c-.7969-.611-1.1036-1.541-1.1943-2.4797-.0906-.9382.0307-1.9301.1289-2.707.3136-2.431 1.074-4.796 1.6387-7.1328l.0859-.3321c.0895-.3304.1898-.6556.29-.9765.1344-.4301.2687-.8508.3838-1.2764.1074-.3973.196-.7944.2305-1.1914.0105-.1332.0293-.3862.0127-.6172-.0084-.1168-.0251-.2131-.0488-.2803-.0051-.0141-.0116-.0246-.0157-.0332zm-10.792 1.5508c-.336.4199-.4486.9747-.5742 1.5957-.0992.4915-.2085.9789-.3174 1.4629-.109.4849-.2175.967-.3154 1.4521-.0333.167-.0659.3339-.0976.501-.0523.6967-.0906 1.3989-.1426 2.1035-.1155 1.5737-.2634 3.0995-.3731 4.67-.0205.3116-.0332.625-.0468.9423-.0136.3163-.0281.6366-.0518.9563-.0438.556-.1149 1.08.0479 1.527l.0605.143c.0536.105.0854.11.0869.11.008.002.0238.004.0547.002.022-.009.0566-.023.1064-.042h-.0019c.0209-.01.0415-.018.0586-.027.0221-.012.0313-.019.0312-.019l.001-.002c.1779-.142.3045-.222.4395-.351.067-.065.1307-.133.1933-.203-.0755-.307-.131-.613-.1142-.993.104-2.6404.3748-5.2832.5713-7.9089.0876-1.196.1505-2.4313.3447-3.6386.0696-.4372.1634-.9084.1758-1.3711.009-.3376-.0273-.6462-.1368-.9102zm9.2696-1.1445c-.0525.0231-.1009.0482-.1446.0771-.2713.1795-.5152.4845-.747.8447-.1143.1778-.2225.3629-.3281.5459-.1046.1811-.2078.363-.3096.5245l-.001-.001c-1.2967 2.0634-2.3707 4.2633-3.5449 6.4258-1.127 2.0743-2.2807 4.1288-3.4863 6.1631-.296.4962-.6087 1.0342-1 1.5142l.0205.079.0009.001.001.005c.0035.001.0123.004.0225.007.0053.002.0348.013.0664.036.0307-.012.0617-.024.0918-.038l.0019-.001c.3791-.172.704-.486.9971-.871.2937-.385.5398-.8182.7744-1.2147 1.4552-2.4295 2.7904-4.9146 4.1729-7.3994l.5898-1.083c.1941-.3629.3865-.7274.5801-1.0928.3865-.7293.7776-1.4612 1.1924-2.1836l.289-.4882c.2713-.4468.5536-.8841.8291-1.3174.0046-.0904.0051-.1739.001-.249-.0088-.1615-.0371-.2463-.0596-.2803-.0013-.0021-.0029-.0037-.0039-.0049-.0016 0-.0035.0008-.0058.001zm13.5781-1.793c-.0083.0062-.0737.0554-.0811.1553l.4991.0322c-.1671 2.9547-.6942 5.8591-1.3125 8.7314-.1533.7115-.3125 1.4229-.4707 2.1338-.1583.7113-.316 1.4227-.4688 2.1348-.1558.7346-.3171 1.4695-.4834 2.1992-.0314.1351-.0781.279-.1211.4121-.0443.1372-.0858.2684-.1162.3965-.0307.1297-.0466.243-.0439.343.0278-.012.0559-.022.081-.037.0017-.001.0033-.002.0049-.003l.251.432c-.0017.001-.0042.001-.0059.002l.001.001c-.1152.065-.2316.136-.3516.208l-.0009-.001c-.0425.026-.1018.049-.1416.063-.0527.019-.1188.04-.1924.063-.1479.046-.3333.099-.5147.149-.181.049-.3616.096-.5.127-.0681.015-.1307.027-.1797.035-.0231.003-.0522.007-.08.008-.0126 0-.0378-.001-.0664-.006-.0145-.003-.0394-.009-.0674-.023-.0276-.013-.076-.043-.1094-.103-.1882-.335-.1446-.719-.0684-1.035.0393-.1632.0917-.3248.1387-.4701.0484-.1494.0902-.279.1172-.3945.1656-.727.3202-1.4576.4814-2.1933l.459-2.0762c.1534-.6899.3061-1.3792.4541-2.0723.6165-2.8638 1.1378-5.7445 1.3028-8.6553.0061-.1029.0649-.1703.1015-.2031.0377-.0336.079-.0558.1104-.0703.0641-.0296.1422-.0522.2168-.0703.1523-.037.3497-.0693.5342-.0986.1903-.0303.3678-.0585.5-.087.0674-.0145.1107-.0264.1328-.0351.0119-.0047.0048-.0031-.0098.0078zm-.5449.6074c-.1888.0301-.3651.0595-.4942.0908-.0216.0053-.0404.012-.0566.0166-.1528 2.5367-.5684 5.0433-1.0771 7.5225l-.2266 1.0791c-.2954 1.3833-.6135 2.7714-.9131 4.1504-.1603.7316-.3171 1.4693-.4834 2.1992-.0327.1401-.0825.2922-.1289.4356-.0478.1478-.0939.2922-.1279.4337-.0384.159-.0561.297-.0498.416.0256-.016.0521-.03.0781-.046l.001-.001c.2673-.16.5924-.201.8496-.236.0284-.004.0559-.009.083-.013-.0221-.2.0068-.3992.0488-.5762.0357-.1507.0845-.3.1279-.4346.0449-.1387.0837-.2597.1094-.3701.1657-.727.3261-1.46.4815-2.1924.1532-.7141.3125-1.4266.4707-2.1377.1582-.7113.3159-1.4213.4687-2.1308.5903-2.7422 1.0919-5.4937 1.2783-8.2822-.1338.0255-.2906.0524-.4394.0761zm21.1025-8.957c.1475-.0279.3228-.042.501.0098h.002c.3097.0924.5131.3061.6386.5615.1223.2488.1742.543.1914.8281.0343.5702-.0671 1.1833-.1211 1.5107-.2193 1.3007-.5384 2.5998-.8222 3.8692-.2952 1.3101-.5879 2.6322-.9746 3.9336-.3887 1.3078-.8229 2.5691-1.17 3.8691-.1757.6603-.4439 1.497-.5468 2.3272-.0969.7813-.0375 1.4889.333 1.998l.0791.0996.1133.1182c.2766.2597.6423.4047 1.0556.4736.4734.079.9873.0547 1.4512.0039h.0029c.1727-.0174.3446-.0414.5166-.0703l.5176-.1006c.0521-.014.111-.0298.1689-.041.0337-.0132.0686-.0262.0996-.0361h.002c.689-.215 1.373-.4616 2.049-.7236l1.34-.5391c.452-.1825.91-.3603 1.369-.5137l.385-.1113c.133-.0346.27-.0669.4-.0977.268-.0633.504-.119.667-.1738h.002l.062.1904.095.2842c-.002.0006-.004.0004-.006.001-.571.1881-1.133.4117-1.701.6416-.567.2295-1.14.4665-1.722.6777-1.513.5512-3.087 1.0205-4.6734 1.3438-.5154.1037-1.1072.2101-1.6973.2256-.5163.0135-1.0459-.0422-1.5322-.2373l-.206-.0928c-.6573-.3289-.9707-.8828-1.0938-1.4834-.1208-.5899-.0622-1.2365.0244-1.791.2131-1.347.592-2.6516.9912-3.9366.4009-1.2899.8212-2.5563 1.1299-3.8505.3211-1.3514.6213-2.7081.9063-4.0703.1253-.608.2847-1.177.3935-1.793.106-.6.1502-1.1831.042-1.7363l-.001-.001c-.0408-.2152-.0911-.3415-.1582-.4346-.0088-.0122-.0192-.0233-.0293-.0351-.533.4422-.998.9886-1.4228 1.5566l-.208.2842c-1.4809 2.0549-2.2993 4.4405-3.2178 6.8369-1.0073 2.6271-2.0457 5.2388-3.1152 7.8349-.4447 1.0757-.8701 2.3067-1.3946 3.4454-.5167 1.1218-1.1489 2.1996-2.04 3.0586l-.0078.0693-.0986.0254c-.056.039-.1182.064-.1602.0781-.0636.0214-.1381.0405-.2148.0576-.1285.0286-.2817.0539-.4297.0801-.0042.0011-.0085.0028-.0127.0039-.2501.0671-.5004.134-.752.2012l-.1328-.2383-.1807-.0225c.0415-.3465.1285-.6763.2217-.9922.0952-.3225.1936-.6198.2725-.9316.17-.6672.3191-1.3456.4697-2.0234.2856-1.2724.5758-2.5465.8399-3.8203l.1992-.9922c.4454-2.3186.7539-4.6538.709-7.0039-.0023-.1279.0826-.2035.1103-.2256.0367-.0291.0773-.0486.1055-.0606.0592-.0251.1331-.0461.206-.0644.1494-.0376.3455-.0753.5313-.1104.1908-.036.3718-.0703.5049-.1025.0675-.0164.1114-.0297.1347-.0391.0132-.0053.0067-.0038-.0078.0069-.0016.0011-.087.0608-.0849.1816l.499-.0146c.0001.0019-.0001.0039 0 .0058l.0049.5137c-.005 2.5654-.406 5.1019-.9229 7.5937-.1021.4892-.2097.977-.3164 1.4649.1193-.2906.2406-.5803.3594-.8711 1.1716-2.8659 2.3066-5.7534 3.4004-8.6553.8589-2.2814 1.9-4.556 3.5986-6.4062l.3711-.3897c.3928-.3902.8521-.7644 1.3965-.9678.3908-.146.8179-.2408 1.1992-.3349.0431-.0125.0816-.0241.1133-.0303.003-.0006.0069-.0013.0107-.0019.0998-.0263.251-.0718.3877-.0977zm-12.5556 22.8574c-.2177.3704-.4584.7279-.7344 1.0645.1684-.0452.3368-.0906.5058-.1358.043-.266.1089-.5212.1807-.7666.0161-.0548.0318-.109.0479-.1621zm2-14.2217c-.1902.036-.3701.0704-.502.1036-.0157.0039-.0298.0091-.043.0126.034 2.6874-.378 5.3436-.9189 7.9512-.1325.6394-.2716 1.2787-.4131 1.917l-.4287 1.9111c-.1502.6758-.3013 1.362-.4736 2.0381-.082.3237-.1885.648-.2774.9492-.0012.0043-.0026.0085-.0039.0127.591-.7416 1.0219-1.5982 1.4121-2.5078.0921-.2141.1803-.4299.2715-.6445.0185-.0838.038-.1681.0566-.252.2959-1.3129.5917-2.6239.8663-3.9394.5245-2.5288.9213-5.0777.9101-7.6445-.1364.0304-.2998.0632-.456.0927zm9.0195-7.7021c-.6021.225-1.1067.7144-1.5733 1.2256-1.6319 1.7774-2.6458 3.979-3.499 6.2451-1.0955 2.9065-2.2329 5.7978-3.4062 8.668-.472 1.1559-.9516 2.3115-1.4405 3.4628-.1275.5777-.2555 1.1635-.4072 1.7413-.0782.296-.1781.6011-.2597.8798.5556-.6818.9978-1.4717 1.3837-2.3095.5221-1.1335.9236-2.3064 1.3868-3.4268l.7949-1.9472c.7893-1.95 1.5611-3.9086 2.3154-5.876.9078-2.3684 1.751-4.8305 3.2793-6.9512.4313-.5998.919-1.2143 1.4912-1.7344-.0216.0077-.0439.0145-.0654.0225zm-64.2725 19.3164c-.1096.0561-.2192.1127-.3261.1758l-.1817.1113c-.8131.5215-1.4983 1.209-2.1416 1.9482.0529-.013.1231-.024.1856-.0341.0705-.0115.1442-.023.2158-.0371.0722-.0143.134-.0296.1806-.0459.0247-.0087.0379-.0164.044-.0196.6051-.7309 1.2434-1.4592 1.9951-2.0761l.001-.001c.009-.0073.0183-.0142.0273-.0215zm4.1504 2.0889c-.0283.0032-.0565.0078-.0849.0117l.0097.0029.001.001c-.0138-.0037-.0022.0019.0537-.0088.0068-.0013.0133-.0052.0205-.0068zm-17.3945-10.9024c-.4712-.1291-.9396-.1406-1.4131-.0869 1.1894.3262 2.1142 1.1982 2.75 2.2256.8064 1.3102 1.1801 2.7765 1.3867 4.2607.19 1.365.2449 2.7902.3574 4.1094.1399-.0313.315-.0666.4844-.1016.1903-.0392.3742-.078.5088-.1123.01-.0025.0192-.0063.0283-.0087-.1193-1.3119-.167-2.6137-.332-3.9258-.1708-1.3577-.464-2.6698-1.0781-3.8682-.5451-1.0669-1.3654-2.0294-2.4678-2.4219zm79.1455-10.9453c-.0817.0155-.1553.0382-.2383.0615-.0015.0014-.0025.0037-.0039.0049-.0222.0199-.049.0374-.0742.0547l.001.001c-.0817.0581-.1654.1079-.2393.1523-.0208.0125-.041.0252-.0605.0371.0101.0129.0225.0247.0322.0381.127.1765.1958.3828.2432.6319.1252.6404.0705 1.2929-.0401 1.9189-.1077.6099-.2832 1.2582-.3965 1.8076-.2857 1.3661-.5869 2.7286-.9092 4.085-.3137 1.3153-.7418 2.6048-1.1386 3.8818-.3486 1.1218-.6749 2.2384-.8897 3.377l-.0849.4892c-.0845.5409-.1316 1.1143-.0293 1.6133.1.4882.3392.892.8281 1.1367.4401.2203.9563.2916 1.501.2774.1156-.0031.2316-.0127.3476-.0225-.4518-.1117-.8848-.3227-1.2119-.7061-.5808-.6794-.6353-1.612-.5273-2.4833.1085-.8751.3928-1.7671.5595-2.3936.3482-1.3041.7948-2.6071 1.1739-3.8828.381-1.2823.6705-2.5865.9668-3.9014l.4345-1.9209c.1414-.6396.2737-1.2793.3819-1.9209.055-.334.1456-.893.1152-1.3984-.0152-.2528-.0597-.4729-.1406-.6377-.0778-.1582-.1847-.2582-.334-.3027-.0702-.0199-.1561-.019-.2666.0019zm21.0593-4.0137c-.681.2482-1.234.7745-1.739 1.3614l-.001.0009c-1.415 1.6337-2.587 3.5325-3.572 5.459-1.098 2.1455-2.185 4.3815-2.245 6.7608-.034 1.3774-.001 2.8528.526 4.0927l.112.2452c.378.7718.957 1.1401 1.633 1.2753.33.0661.685.0752 1.053.0459-.478-.1522-.887-.4227-1.211-.8164l-.174-.2353c-.707-1.0587-.876-2.4239-.925-3.6387l-.014-.5107c-.038-2.0574.478-3.9245 1.308-5.7715.944-2.1093 2.057-4.1557 3.418-6.0381l.001-.001c.448-.6152.904-1.2601 1.441-1.8369.123-.1331.253-.2654.389-.3926zm3.027 15.1485c-.694.908-1.505 1.725-2.406 2.4267.56-.328 1.1-.7044 1.621-1.1426.251-.2099.491-.4311.722-.6601.02-.208.041-.4161.063-.624zm-68.2191-.3086c-.1468.0394-.2943.0787-.4414.1181.0904.1968.1466.4044.1767.6163.0691-.2522.1576-.5046.2871-.7413-.0075.0021-.0149.0048-.0224.0069zm107.9311-24.4082c2.091-.0317 4.006.5033 5.885 1.3398l-.199.458c.019.0081.034.0103.04.0108-.006.0002-.021.0017-.045.0068-.049.0105-.112.0313-.184.0576-.071.0258-.144.0543-.208.0811-.06.0247-.124.0521-.163.0664l-.009.0029-.011.0029c-.021.0057-.064.0211-.136.0469-.066.0238-.147.0534-.229.0801-.081.0263-.17.052-.252.0674-.041.0077-.087.0139-.132.0146-.041.0007-.104-.0024-.168-.0302l-.002-.001c-2.061-.9221-4.112-1.3976-6.368-1.2764-.234.0146-.47.0554-.724.0967-.098.0161-.2.0307-.302.0449-.01.0043-.019.0093-.028.0137-.186.0976-.362.2067-.515.332-.372.303-.571.6574-.641 1.0371-.071.384-.012.8127.165 1.2617l.148.333c.375.76.948 1.3936 1.603 1.9903.374.3409.769.6656 1.166.9951.296.246.594.4951.879.752l.28.2587c1.445 1.3876 2.8 2.938 3.557 4.8594.677 1.7189.941 3.7645.118 5.5401-.816 1.7538-2.384 3.0025-4.016 3.8779-2.434 1.3039-5.296 2.1014-8.004 2.4971-1.286.1853-2.793.2674-4.166-.0284-1.377-.2968-2.641-.9794-3.394-2.3349l.435-.2471c-.034-.0595-.085-.0877-.115-.0996-.028-.0114-.051-.0131-.059-.0137-.016-.001-.02.0006-.005-.0019.026-.0046.072-.0166.139-.0371.132-.0405.306-.1021.489-.167.178-.0634.367-.1295.515-.1719.073-.0208.148-.04.212-.0479.031-.0037.075-.0066.121 0 .027.0039.095.0171.155.0704l.054.0673v.002c.751 1.345 2.062 1.9709 3.559 2.1885 1.5.218 3.155.0195 4.526-.2598l.003-.001c.147-.0285.286-.0621.433-.0957.061-.0173.119-.0311.164-.0439.296-.0916.591-.188.885-.294l.527-.2021c.524-.2091 1.037-.4397 1.535-.6953 1.551-.7955 2.992-1.8681 3.84-3.3633.957-1.682.865-3.4839.216-5.1943-.57-1.5008-1.564-2.917-2.628-4.084l-.459-.4844c-.691-.7036-1.505-1.3164-2.308-2.0068-.79-.6803-1.552-1.4231-2.07-2.3516-.211-.376-.413-.8234-.506-1.2881-.093-.4672-.079-.9683.166-1.4316.391-.7494 1.155-1.1808 1.87-1.4219 1.411-.4718 2.863-.7572 4.361-.7783zm-37.864 21.5781c-.361.79-.771 1.5588-1.249 2.2891-.034.2924-.069.5849-.099.8779.406-.4603.777-.9499 1.119-1.4619.069-.5693.143-1.138.229-1.7051zm23.346.6182c-.131.0373-.304.0975-.486.1621-.147.052-.301.1049-.431.1474.675 1.0008 1.706 1.541 2.88 1.794.602.1297 1.236.1803 1.87.1816-1.518-.2317-2.933-.881-3.785-2.2969-.015.0038-.031.0068-.048.0118zm-83.0147.9033c.0006.0016.0014.0032.002.0049.0016-.0023.0032-.0046.0049-.0069-.0023.0006-.0046.0014-.0069.002zm61.0307-9.3106c-.273.1794-.464.4566-.609.7969-.18.4218-.275.8993-.382 1.3496-.333 1.3868-.745 2.6851-1.02 4.0586-.176.8769-.32 1.7594-.444 2.6455.644-1.1551 1.153-2.3888 1.57-3.6513l.01-.0332c.213-.9699.459-1.9319.729-2.8907.009-.0583.02-.1163.028-.1748l.097-.584c.036-.2115.07-.4371.088-.6689.018-.225.018-.436-.01-.6172-.013-.088-.033-.1647-.057-.2305zm1.502-.4023c-.336.2186-.55.5794-.707 1.0273-.093.2635-.162.5464-.227.8321-.064.2803-.125.5708-.197.8281-.009.0322-.019.0654-.028.0976-.156.9924-.424 1.9595-.732 2.9053-.159.7219-.301 1.4474-.417 2.1787-.052.3257-.1.652-.147.9785.4-.7132.75-1.4566 1.053-2.2167.474-1.1842.874-2.4052 1.135-3.6485.137-.6455.203-1.2997.266-1.9717.023-.2458.059-.4611.055-.6826-.002-.1252-.02-.2336-.054-.3281zm30.636-12.0762c-.601.2284-1.144.5868-1.424 1.1221l-.001.001c-.175.3325-.196.7086-.118 1.1006.079.3934.254.7885.452 1.1406l.001.001c.474.849 1.179 1.5458 1.959 2.2168.768.6606 1.628 1.3118 2.337 2.0341 1.26 1.2785 2.516 2.9406 3.2 4.7422.642 1.6932.786 3.5267-.065 5.2715l-.184.3477c-.542.9562-1.303 1.7401-2.164 2.3916 1.446-.8331 2.748-1.954 3.443-3.4473l.128-.3037c.586-1.5357.351-3.2955-.259-4.8428-.717-1.82-2.009-3.3096-3.438-4.6816-.351-.3365-.736-.6594-1.131-.9873-.394-.3264-.799-.6592-1.184-1.0098-.721-.6578-1.388-1.3949-1.8-2.3213l-.079-.1885c-.202-.512-.283-1.0369-.191-1.5351.07-.3821.239-.7388.518-1.0518zm-37.622 14.085c.883-1.0234 1.683-2.1908 2.187-3.4307l.079-.2099c.176-.501.287-1.0793.22-1.5684-.038-.2755-.131-.5108-.287-.6914-.153-.1783-.385-.3213-.736-.3897-.241-.0457-.521-.0232-.822.0381l.032.0547c-.001.0005-.002.0005-.003.001-.002.0013-.004.0026-.007.0039-.019.0113-.038.0215-.056.0322.124.0616.237.133.338.2139.28.2256.452.5147.537.8398.166.6356-.003 1.4014-.295 2.1397-.452 1.142-1.246 2.3296-1.848 3.1172.01-.002.019-.0023.025-.0039.06-.0178.13-.0311.191-.042.076-.0135.148-.0254.222-.0401.073-.0144.133-.0297.179-.0459.027-.0093.04-.0161.044-.0185zm5.95-1.7832c.022.0568.04.1148.054.1738.039-.0763.083-.1504.129-.2226-.061.0163-.122.0325-.183.0488zm119.631-75.189475c.037.591675-.114 1.194195-.319 1.756835-.217.5939-.516 1.20612-.718 1.69629-.626 1.53298-1.042 3.16802-1.49 4.7832-1.885 6.79955-3.123 13.77285-4.504 20.70995-.613 3.0695-1.205 6.141-1.722 9.2256l-.216 1.3232c-.271 1.6789-.561 3.343-.81 5.0157-.124.8342-.232 1.6705-.299 2.5049 0 .0032-.001.0074-.001.0107.297-.1896.598-.3738.905-.5479.269-.1509.585-.1942.841-.2314.208-.0303.382-.058.528-.1104l.135-.0615.247.4346c-.95.5377-1.846 1.1589-2.728 1.8096-.001.0218-.001.0418-.002.0605.063-.0134.119-.0252.161-.0381.027-.0081.04-.0137.044-.0156-.002.0008-.007.004-.015.0098-.008.0062-.037.0294-.058.0722l.447.2227c-.001.0018-.004.004-.005.0058-.095.1885-.246.3263-.418.4307l.004.0147c-.016.0043-.033.0083-.049.0127-.132.0743-.272.1309-.407.1738-.338.1072-.711.1582-.965.2002-.015.003-.032.008-.06.0156-.026.007-.064.0174-.104.0244-.046.0081-.102.0123-.163.0049-1.05.7943-2.116 1.5867-3.261 2.2715l-.543.3125c-2.472 1.367-5.129 2.3042-7.833 3.041-2.358.6415-4.769 1.2339-7.215 1.541-.884.1118-1.897.1964-2.875.0899-.977-.1067-1.939-.4063-2.702-1.0801-.802-.7107-1.132-1.6873-1.29-2.6543l-.058-.4131c-.048-.4028-.074-.807-.101-1.2022-.027-.3968-.053-.7861-.101-1.1728l-.03-.2656c-.009-.09-.019-.1792-.031-.2666-.016-.1158-.037-.2215-.063-.3145-.06.0523-.12.1046-.178.1602-.371.3534-.705.7497-1.033 1.1162-.815.9132-1.501 1.942-2.141 2.9961-1.353 2.225-2.768 4.4836-3.497 6.9482l.002.1621-.125.0332c-.036.0282-.075.0491-.108.0635-.065.0289-.143.0518-.219.0703-.155.0376-.352.0696-.534.0987-.005.0006-.009.0013-.013.0019-.231.0619-.462.1236-.694.1856l-.428.1152.114-.3936c-.013-1.3445.312-2.6327.663-3.8877.357-1.2759.739-2.5118.863-3.789.042-.4217.095-.8701.101-1.3145.006-.444-.034-.8647-.165-1.2275l-.001-.0029-.001-.001c-1.877 1.3842-3.743 2.7859-5.622 4.1767-.868.6426-1.77 1.3298-2.756 1.8721.214.0488.423.1105.627.1846l.192.0742.001.001c.581.2414 1.004.6103 1.282 1.08.241.4087.364.8819.395 1.3926l.008.2207-.011.4522c-.123 2.2392-1.284 4.1792-2.915 5.6562-1.28 1.1599-2.86 2.0411-4.481 2.5694-.035.0266-.07.0449-.085.0517-.099.0444-.284.0994-.449.1426-.166.0432-.353.0856-.458.0947-.014.0013-.032.0022-.05.002-.001 0-.003-.001-.004-.001-.233.0533-.465.0999-.697.1377l.001.001c-.425.0706-.974.0898-1.459-.044-.49-.1353-.95-.4404-1.102-1.0341l-.043-.209c-.035-.2156-.045-.4389-.034-.6641-.774 1.23-1.879 2.2729-2.914 3.1748-1.562 1.3584-3.27 2.7004-5.11 3.7002l-.001.001c-1.042.5617-2.118.8983-3.234 1.1943-.406.1074-.923.2667-1.435.3399-.513.0733-1.066.0676-1.551-.1846-.416-.2152-.621-.5751-.705-.9541-.083-.371-.054-.7719-.003-1.1084l.068-.3809c.181-.8871.51-1.7589.822-2.5703.935-2.4121 2.314-4.6042 4.179-6.4199l.001-.002c.074-.0706.167-.1109.242-.1367.08-.0272.166-.0463.244-.0605.079-.0144.159-.0252.225-.0342.065-.0089.113-.016.146-.0225.054-.0133.124-.0249.188-.0351.071-.0113.144-.0227.217-.0362.063-.0116.118-.025.164-.038-.144.0055-.32.0145-.492.0117-.207-.0034-.438-.0215-.634-.0889l-.001-.001c-.048-.0167-.072-.0218-.114-.0351-.017-.0052-.043-.0137-.07-.0264-.027-.013-.072-.0385-.109-.0859-.088-.1111-.06-.2345-.05-.2735.012-.045.034-.1009.052-.1474l.001-.003c.079-.1996.252-.3371.397-.4277.076-.0473.156-.0888.23-.124l.199-.0879c.761-.3201 1.612-.4955 2.379-.6738 1.105-.2557 2.435-.4663 3.688-.416.52-.3025 1.033-.623 1.541-.9512l1.548-.9951c.508-.3373 1-.6881 1.462-1.0743l.276-.247c.266-.2524.503-.5233.734-.8242l.198-.2579c.213-.2664.474-.5432.832-.6943.205-.0852.424-.1443.633-.1943.204-.049.385-.088.568-.1348.013-.0035.026-.0072.039-.0107.014-.0048.035-.0109.064-.0215.037-.0135.082-.03.13-.0449.046-.0147.101-.0301.155-.0391.034-.0057.095-.0134.161-.002.017-.0071.044-.0166.077-.0195.024-.002.058-.0018.095.0098.04.0122.079.0352.11.0693.061.0659.067.1406.067.1699 0 .0331-.008.0586-.011.0703-.004.0137-.009.0243-.012.0313-.006.0138-.012.0253-.015.0312-.003.0049-.007.0087-.01.0127v.002c-.009.0186-.027.0646-.052.1553l-.001-.001c-.025.0944-.066.1886-.103.2646-.043.0874-.074.145-.101.2051l-.001.002c-.117.2581-.238.5114-.358.7627.147-.0453.294-.0839.428-.1201.431-.116.888-.2547 1.351-.3448l.405-.0644c.166-.0206.334-.0324.502-.0391 1.006-.5836 1.934-1.3184 2.906-2.0195 1.744-1.2609 3.437-2.5617 5.171-3.8428l.415-.2939c.419-.2806.855-.5161 1.379-.6612.106-.0293.231-.0761.387-.1308.149-.0522.32-.1083.49-.1426.331-.0664.765-.0673 1.028.3301.202.3051.272.687.296 1.039.023.3534.002.7191-.005.9922-.016.517-.062 1.0338-.128 1.5459l-.073.5108c-.01.0676-.023.1347-.035.2021.88-1.4517 1.835-2.8422 3.037-4.0879.455-.4732.981-1.0781 1.692-1.3613.542-.2138 1.171-.3781 1.74-.4736l.154-.0225c.157-.0177.319-.0144.462.0566.211.1051.306.314.361.542.088.3587.144.7237.183 1.086l.035.3613.054.751c.048.7422.095 1.4596.276 2.164.334 1.2926 1.176 2.0073 2.24 2.377 1.077.3743 2.376.3913 3.578.2637 3.719-.3951 7.442-1.4164 10.808-3.0313 1.746-.8385 3.355-1.878 4.902-3.0488.538-.4102 1.076-.828 1.622-1.2393.002-.1411.012-.2828.025-.4189.015-.1491.035-.2979.053-.4365.018-.1406.034-.271.044-.3887.172-2.012.553-4.0075.868-5.9766l.469-2.8252c1.125-6.5864 2.469-13.1336 3.804-19.6758.446-2.1782.917-4.3526 1.44-6.5146-.042.0106-.086.0206-.128.0293-.164.0338-.356.0624-.409.0713-.033.0075-.095.0199-.154.0312-.073.0136-.159.0301-.244.0479-.085.018-.162.0363-.217.0527-.028.0084-.044.0135-.048.0156.002-.001.009-.0044.017-.0107.007-.0047.051-.0358.076-.0996l-.469-.1748c.78-2.1456 1.506-4.34586 2.413-6.46291l.176-.40137c.421-.93325.903-1.8397 1.338-2.74023l.33-.69824c.106-.23244.205-.46563.294-.70215l.001-.00195c.115-.30289.222-.69691.495-1.020511l-.01-.09375.142-.038086c.02-.013463.038-.023186.05-.029297.029-.014025.061-.02574.09-.036133.059-.020839.131-.04205.207-.061523.153-.039231.345-.079899.526-.118164.075-.015939.148-.03208.217-.046875.16-.042786.32-.086104.48-.128906l.889-.237305zm-72.003 63.946275c-.067.0092-.136.0182-.203.0303-.067.0122-.125.0265-.17.042-.038.0131-.055.0231-.058.0254-1.695 1.6501-2.979 3.6235-3.884 5.8017l-.176.4385c-.314.8165-.628 1.6516-.799 2.4883l-.064.3584c-.048.3144-.066.6425-.003.9238.053.2391.161.4346.357.5674l.09.0527c.35.1818.78.2003 1.251.1328.046-.0065.091-.0174.137-.0253-.246-.1008-.476-.2611-.635-.5108-.217-.3387-.268-.7343-.254-1.1025.015-.3692.097-.7382.17-1.0391.51-2.1429 1.446-4.2631 2.671-6.0957.501-.7482 1.06-1.4486 1.671-2.1045-.033.005-.068.0121-.101.0166zm5.799-1.915c-.316.1356-.636.2611-.963.373l-.498.1592c-.235.0701-.475.1392-.718.209-.006.004-.011.0092-.015.0117-.026.0142-.053.0263-.075.0352-.025.0094-.051.0186-.078.0273-.052.0174-.112.0346-.168.0488-.053.0139-.111.0273-.157.0342-.012.0018-.025.0028-.039.0039-.011.0009-.028.0009-.047 0-.751.1978-1.526.3558-2.307.3828l.331.3438c-.83.8107-1.576 1.6913-2.219 2.6523-1.193 1.7847-2.104 3.8505-2.601 5.9346-.072.2985-.143.626-.156.9414-.011.2763.024.5242.127.7285l.049.085c.094.1469.237.2538.415.3242l.189.0586.003.001c.194.0482.4.0538.619.0439.052-.0022.108-.0076.17-.0146.021-.0024.043-.0043.066-.0069.027-.0132.052-.0273.077-.0371.024-.0091.049-.0146.073-.0215.079-.0304.157-.0577.23-.081.224-.0719.408-.1216.54-.1826.259-.1217.519-.2532.772-.3946l.403-.2314c.398-.2375.788-.4934 1.174-.7588.741-.5125 1.463-1.0617 2.171-1.6231 1.334-1.0555 2.627-2.1923 3.629-3.5351l.165-.2275c.813-1.1544 1.398-2.5501.791-3.8028-.409-.8435-1.087-1.2678-1.892-1.4687-.02-.005-.041-.008-.061-.0127zm1.093-.5196c-.136.0702-.273.1382-.411.2051.707.2749 1.323.7587 1.72 1.5772.736 1.5185 0 3.1309-.836 4.3174l-.168.2314c-1.042 1.3959-2.376 2.5638-3.719 3.627-.627.4967-1.269.985-1.926 1.4501 1.526-.9182 2.965-2.0598 4.31-3.2294 1.365-1.189 2.762-2.5489 3.402-4.2061.627-1.6255-.07-3.4127-1.811-3.8594-.181-.0468-.369-.0844-.561-.1133zm-105.3702 9.8516c.0257.0064.0446.0096.0488.0098.0112.0004.0205.0002.0244 0 .0082-.0005.0142-.0018.0157-.002.0049-.0006.0044-.0011-.0059.001-.0164.0033-.0422.0092-.0703.0156-.0284.0065-.057.0134-.0771.0186-.0099.0025-.0154.0042-.0176.0049.0015-.0005.0052-.0012.0097-.003.0026-.0009.0141-.0058.0284-.0136.0061-.0034.0241-.0139.0439-.0313zm.0723-.1143c-.0083.0269-.0182.0484-.0274.0625-.0165.0256-.0348.0429-.0449.0518-.0086-.0021-.0187-.0022-.0283-.0059-.0188-.007-.0693-.0285-.1104-.082-.0137-.018-.0241-.0398-.0332-.0635zm2.6035-3.0136c-.0239.0161-.05.039-.0791.0693-.055.0573-.1069.1271-.1572.2022l.0009.0009c-.2207.3322-.3748.7074-.5058 1.1084-.0655.2005-.1243.4056-.1836.6133-.0177.0621-.0377.1239-.0557.1865-.0053.1459-.0093.2905-.0127.4346.0139-.0033.028-.0064.042-.0098.0911-.0217.1838-.0435.2568-.0605.0368-.0086.0688-.0158.0928-.0215.0121-.0028.0218-.006.0293-.0078.0063-.0015.0097-.0017.0108-.002l.0019-.0009c.1768-.0466.35-.0921.5225-.1426l.0215-.0059s.003-.0004.0097-.0019c.0032-.0008.0067-.002.0108-.0029.0046-.3099.0176-.6189.0283-.919.0129-.3638.02-.7196 0-1.0742l-.0195-.2549c-.0036-.0373-.0094-.0742-.0137-.1113zm-1.5039.4043c-.0692.0469-.1365.1176-.2022.2119-.0814.1169-.1489.2523-.2138.3867-.1687.351-.2995.72-.417 1.1016l-.001.0009c-.0454.1459-.0869.2953-.1299.4483-.0038.0134-.0089.0265-.0127.04.1103-.0289.2216-.0579.335-.0869.1735-.0457.3434-.0902.5127-.1396.0073-.0025.0135-.0041.0166-.0049.0035-.0009.0074-.0014.0097-.002.0045-.001.009-.0021.0127-.0029.0076-.0016.0176-.004.0264-.0059.0058-.0012.0115-.0035.0176-.0048.0248-.0823.0491-.1652.0732-.2491.0001-.0011 0-.0027 0-.0039.0104-.281.0205-.5569.0205-.833 0-.2728-.0103-.5365-.04-.7978l-.001-.0098c-.0012-.0158-.0049-.032-.0068-.0488zm.6328-.1787-.0137.0039c-.0478.0101-.0924.0203-.1338.0293.0068.0475.0135.0979.0176.1474h.002c.0076.0674.0102.135.0156.2022.0613-.1388.1294-.2757.206-.4092-.0313.0085-.0624.0179-.0937.0264zm110.7615-12.2881c-.072.0641-.141.1348-.209.2138-.084.0986-.164.2045-.247.3164-.081.1099-.166.2281-.256.3399l-.001.001c-.25.3102-.543.5854-.848.8388-.026.051-.052.1016-.077.1524l.001.001c-.348.7079-.687 1.4075-.973 2.1308-.561 1.4141-1.014 2.8814-1.369 4.3643-.119.5036-.283 1.0228-.398 1.5908-.112.5559-.157 1.0813-.045 1.5186.093.3615.367.5714.751.6777.387.1066.85.095 1.231.0332-.176-.0631-.339-.1461-.482-.2578-.324-.2537-.522-.6266-.549-1.1211-.054-1.0657.315-2.2313.546-3.1797.324-1.311.722-2.6076 1.208-3.874.485-1.2624 1.138-2.471 1.682-3.6719.01-.0231.023-.0484.035-.0742zm1.944 1.542c-.211.0671-.439.1379-.67.1943-.455.1107-.966.1786-1.41.0313l-.001-.001c-.044-.015-.086-.0338-.125-.0498-.352.7288-.696 1.4498-.988 2.208-.478 1.2447-.869 2.5214-1.188 3.8144-.246 1.0047-.583 2.063-.533 3.0332l.012.1299c.042.2906.169.4874.345.625.21.1646.516.263.894.2969.165.0149.322.0045.491-.0117.016-.0069.033-.0123.05-.0196l.001-.0009c.487-.2097.951-.4765 1.406-.7715 1.684-1.0927 3.397-2.5859 4.11-4.4326.318-.822.542-1.8629.45-2.7862-.091-.915-.486-1.6831-1.382-2.0556-.377-.1578-.768-.2489-1.168-.2969-.093.0294-.191.0598-.294.0928zm1.585-.5479c-.113.0497-.227.0968-.342.1416.138.0423.275.0915.412.1485l.202.0927c.972.4931 1.389 1.4052 1.485 2.375.103 1.0261-.145 2.1479-.481 3.0157-.644 1.6683-2.024 3.0337-3.456 4.0849.788-.4332 1.533-.9522 2.193-1.5498 1.664-1.5069 2.779-3.482 2.762-5.7334l-.007-.1963c-.027-.4491-.135-.8417-.327-1.1679-.218-.3698-.554-.6701-1.042-.8731-.436-.1798-.914-.2903-1.399-.3379zm45.207 2.3877c.23-.0411.496-.0687.753-.043.332.0334.681.162.903.4952.035.0216.071.0434.104.0683.159.1179.303.2828.364.5049l.021.0986c.045.3032-.077.5516-.238.7354-.158.1795-.365.3146-.537.4101l-.001-.0009c-.69.3836-1.502.6241-2.257.8291-.034.0156-.067.0338-.101.0488-.293.1314-.597.226-.897.3105-.035.0118-.08.0279-.131.043-.123.0367-.294.084-.458.1279-.018.0047-.035.0081-.053.0127-.418.201-.841.4015-1.268.5821l-.337.1377c-.599.2341-1.228.3884-1.824.542-.184.0475-.422.1207-.652.164-.235.0444-.498.0659-.758.002l-.001-.001c-.123-.0313-.297-.0876-.388-.2461-.095-.1646-.051-.3461-.004-.4775.102-.2907.299-.524.484-.708.424-.4223.953-.7654 1.407-1.087.579-.4086 1.195-.7067 1.829-.9472.179-.1438.366-.2729.543-.3828l.215-.1289c.892-.5225 1.92-.7863 2.889-1.0049.012-.0034.022-.0065.031-.0088.007-.002.017-.0041.025-.0059.002-.0005.005-.0011.009-.0019.001-.0001.006-.0008.014-.002.032-.0072.065-.0153.097-.0224zm-5.088 2.6426c-.167.0969-.331.2012-.492.3144-.479.3399-.957.6485-1.342 1.0323-.168.1669-.302.3365-.367.5205v.0019c-.007.0209-.01.0384-.013.0518.014.0051.033.0133.057.0195.161.0391.341.0295.543-.0088.121-.0226.236-.0529.354-.0849.014-.0102.022-.0171.023-.0176.01-.0056.018-.0096.023-.0117.009-.0044.018-.0084.024-.0108.01-.0037.021-.0086.032-.0127-.074-.1158-.085-.2479-.065-.3603.024-.1354.091-.2655.158-.3721.137-.2167.33-.4179.426-.5107l.001-.001c.197-.1891.412-.373.638-.5498zm.219.4629c-.18.1453-.352.2955-.511.4482-.086.0833-.245.2517-.35.418-.053.0846-.08.1494-.088.1904.012.0046.03.0127.059.0186.053.0108.114.0151.171.0176h.005.001c.138-.0581.275-.1176.408-.1817l.004-.0019c.252-.1171.494-.2403.75-.3653-.016-.0165-.032-.0334-.046-.0517-.038-.0483-.066-.1005-.088-.1534-.093-.0454-.198-.1141-.266-.2216-.024-.0376-.039-.0782-.049-.1172zm-46.304-4.1162c-1.145.8093-2.335 1.5812-3.541 2.2939-.175.103-.351.2042-.529.3037 1.246.3209 2.023 1.214 2.296 2.2744.315-1.1636.692-2.3135 1.136-3.4326.194-.4904.413-.9677.638-1.4394zm-23.214 3.5332c1.49.1751 2.913.6024 4.33 1.2334.008-.0008.021-.0008.037-.0039.05-.0095.116-.0277.19-.0518.073-.0237.147-.0509.214-.0752.054-.0192.113-.0393.158-.0527l.071-.0303c-1.615-.6506-3.248-1.0428-5-1.0195zm12.247.2519c-.147.0501-.292.1036-.434.1631-.111.0466-.243.1032-.356.1738-.069.043-.118.0836-.151.1192.114.0288.257.0432.42.0459.192.0031.38-.0082.552-.0137l.142-.0098c-.071-.0364-.172-.1086-.201-.2451-.022-.097.006-.1804.027-.2295 0-.0012 0-.0027.001-.0039zm58.535-.5283c-.045.0261-.091.0521-.137.0791l-.092.1065c-.138.1669-.261.4267-.28.6367.005.0012.011.0037.016.0049.069.0158.141.0244.209.0341-.035-.101-.032-.2063-.017-.2968v-.003c.042-.2359.185-.4277.301-.5615zm.265.4766c-.038.0599-.063.117-.073.1718-.001.0069-.002.013-.002.0186.013.0041.03.0104.052.0156h.003c.068.0168.137.0271.208.0342-.077-.0606-.147-.138-.188-.2402zm-55.19-.3897c-.359.0024-.721.0231-1.077.0498l-.001-.001c-.302.0256-.599.0571-.901.0928l-.001-.001c-.175.023-.354.0504-.531.0782-.089.0363-.169.0655-.239.0898-.114.0533-.206.1119-.28.1904l-.006.0049c.03.0026.06.007.092.0088.054.0031.121.0054.169.0098.582.0487 1.139-.0331 1.759-.1065.027-.01.055-.022.086-.0332l.198-.0761c.065-.0254.13-.0515.197-.0772l.395-.165c.047-.0206.093-.0434.14-.0645zm56.365-.5293c-.176.1828-.313.3693-.392.5567l-.038.1035c-.023.0767-.029.1441-.028.2021.046.0123.095.0258.148.0352.012.0022.025.0029.038.0049.009-.0045.018-.0092.026-.0137-.032-.0995-.029-.1996-.01-.2861.024-.1137.076-.2195.131-.3067.097-.1569.225-.2959.309-.3789-.062.0273-.124.0536-.184.083zm1.323-.29c-.2.1133-.394.2333-.567.3691l-.199.1719c-.07.067-.182.1862-.258.3086-.009.0155-.017.0309-.024.0449.097-.0569.195-.1144.291-.1758l.331-.2226c.157-.1118.307-.2327.454-.3565.01-.0501.011-.08.008-.0957-.003-.0153-.009-.0242-.021-.0342-.004-.0035-.01-.0061-.015-.0097zm.87.042c-.012.0121-.023.0241-.031.0332l-.001.001c-.076.0773-.156.1502-.235.2236-.005.0406-.014.0801-.023.1191.126-.0781.251-.1586.373-.2431.014-.0098.027-.0215.041-.0313.003-.0457-.003-.0831-.016-.1152-.001-.0044-.005-.0083-.007-.0127-.034.0086-.068.017-.101.0254zm1.553-.46c-.015.0146-.029.0282-.043.043l-.003.0039c-.087.0864-.179.1739-.273.2617-.019.1521-.065.2949-.135.4277.155-.0853.303-.1868.404-.3017.097-.1105.136-.2161.119-.3311l-.021-.0761c-.007-.0176-.016-.0341-.026-.0508-.008.0079-.015.0162-.022.0234zm-37.159-2.9922c-.509.9552-.968 1.9273-1.308 2.9502.082-.0143.17-.0302.256-.0439.016-.0044.032-.0084.048-.0127.19-.051.38-.1023.571-.1533.012-.9478.198-1.8555.433-2.7403zm36.561 2.6075c.052.0412.094.0891.129.1435.022-.0223.046-.0436.069-.0664.003-.0032.006-.0067.009-.0098-.046-.0179-.094-.0346-.142-.0488l-.002-.001c-.021-.0064-.042-.0117-.063-.0175zm-51.198-3.7188c-.185.1563-.346.3672-.527.6045-.325.4252-.67.8017-1.086 1.1514-.357.2988-.734.577-1.118.8427.551-.3604 1.095-.7292 1.627-1.1084l.405-.2988c.074-.0564.145-.1166.216-.1748.118-.2364.235-.4712.345-.709zm15.274-6.5127c-.244.1529-.471.2806-.69.416.018.0442.033.0848.045.1192.159.4433.2.9324.193 1.4043-.003.2357-.018.4723-.038.7011l-.064.6553c-.129 1.3321-.528 2.6204-.879 3.875-.178.6348-.345 1.2629-.464 1.8926.529-1.2133 1.185-2.3638 1.84-3.4942.156-.565.295-1.1288.382-1.705.103-.6643.174-1.3318.195-1.9961.008-.2951.027-.6216.006-.9434-.022-.3236-.084-.6007-.214-.7969-.063-.0955-.16-.1439-.32-.1396zm5.696-.8437.001.0009c-.586.2336-1.026.7345-1.515 1.2432-1.221 1.2647-2.187 2.6891-3.092 4.1992l-.385.6524c-.099.1719-.198.3441-.298.5156-.141.5095-.292 1.0126-.432 1.5088-.118.4155-.229.8285-.319 1.2422.787-1.8042 1.845-3.5022 2.84-5.1397.647-1.0643 1.351-2.1234 2.196-3.0703.315-.3518.672-.7722 1.061-1.1436.017-.0158.034-.0311.051-.0468-.036.0134-.073.0242-.108.0381zm-20.34 7.2011c.038-.0516.078-.1036.119-.1562-.016.0043-.032.0093-.048.0136-.021.0572-.053.1127-.071.1426zm22.291-7.6572c-.028-.0136-.099-.0259-.307.0107l-.002.001c-.023.0039-.046.0086-.069.0127-.2.0763-.393.1833-.58.3125.078.1818.119.3866.145.5742.014.0971.025.1938.034.2842l.028.2539c.05.4033.078.8075.104 1.2031.027.398.053.7881.099 1.1758l.055.3955c.15.9139.45 1.7559 1.127 2.3565l.126.1054c.64.5103 1.44.7588 2.3.8526.419.0456.847.0528 1.273.0381-.388-.0579-.768-.1445-1.127-.2696-1.192-.4145-2.176-1.2423-2.559-2.7246-.256-.9933-.263-2.0366-.344-2.997l-.034-.3516c-.038-.3488-.091-.69-.173-1.0205v-.002c-.044-.1854-.089-.2074-.096-.2109zm-16.929 7.3477c.77-.4698 1.505-1.0247 2.245-1.5723 1.747-1.2931 3.496-2.6039 5.245-3.8965-.297.1574-.581.3514-.881.5732-1.721 1.2718-3.431 2.5848-5.175 3.8458-.471.3401-.947.6995-1.434 1.0498zm-4.099-.6241c.003.0008.006.0012.008.002 0 0-.001-.0014-.005-.002-.001-.0001-.002.0001-.003 0zm45.342-6.3437c-.45.3422-.898.6903-1.352 1.0361-.365.276-.736.5434-1.109.8047.846-.5465 1.658-1.146 2.469-1.7588-.005-.0207-.007-.042-.008-.0635 0-.0063 0-.0126 0-.0185zm1.521-1.1153c-.353.2455-.7.4997-1.045.7579.002.0271.006.0533.01.0791.343-.2596.686-.5198 1.033-.7774 0-.0198.001-.0397.002-.0596zm9.413-45.4355c-.498 1.01763-1.015 1.99093-1.452 3.0166l-.001.00098c-.68 1.57832-1.251 3.197-1.827 4.82322-.728 2.8062-1.352 5.6401-1.935 8.4864-1.526 7.479-3.06 14.9518-4.268 22.4804-.318 1.9894-.694 3.9526-.864 5.9404-.011.1302-.028.2701-.046.4092-.017.1335-.035.2671-.049.4004.349-.2563.703-.5068 1.063-.75.009-.1322.017-.2645.028-.3965.068-.8499.178-1.6983.303-2.5381.249-1.6759.54-3.3507.809-5.0205l.218-1.3261c.518-3.0927 1.112-6.1701 1.725-9.2412 1.378-6.9229 2.621-13.9234 4.512-20.74614.444-1.59901.869-3.27228 1.509-4.83984.179-.43399.387-.86815.573-1.32617zm-8.508 44.8359c-.131.0826-.262.1638-.391.2491 0 .0107 0 .0215-.001.0322.13-.0943.261-.1884.392-.2813zm7.38-45.25582-.334.70801c-.511 1.05854-1.052 2.0575-1.506 3.12109-.835 1.95068-1.515 3.96332-2.237 5.97462.056-.0113.11-.0225.157-.0313.036-.0069.068-.0118.093-.0166.012-.0023.022-.0052.03-.0068.004-.0008.007-.0015.01-.0019h.002l.007-.002.009-.002c.075-.0135.234-.035.404-.0703.08-.0163.148-.0346.197-.0507.182-.5019.361-1.0067.54-1.5127.203-.7831.413-1.56509.635-2.3438.413-1.44995.811-2.95589 1.399-4.37304.19-.4559.411-.91835.599-1.4043-.002.00385-.004.00787-.005.01172zm1.414-1.799805c-.184.049444-.369.097985-.554.147465.017.5423-.121 1.09013-.305 1.60351-.205.5741-.488 1.15551-.687 1.63281-.165.39713-.314.80168-.453 1.21094.399-.88239.846-1.74039 1.263-2.59472l.34-.71192c.109-.23818.212-.4779.306-.7207.036-.09364.067-.18747.102-.28711.035-.09773.072-.19974.115-.300783.002-.005104.004-.010516.007-.015625-.045.011932-.09.024199-.134.036133zm-166.3645 70.439425c0 .0952-.053.1544-.0683.1709-.0205.0221-.04.0363-.0488.042-.019.0122-.0362.0196-.043.0225-.0162.0069-.0328.012-.044.0156-.0246.0079-.0552.0164-.082.0234-.0523.0139-.113.0291-.1338.0332-.1724.0502-.3443.0953-.5127.1397-.0342.0092-.2333.0558-.4043.0967-.0901.0215-.1766.0418-.2392.0586-.0319.0085-.054.0154-.0664.0195-.0069.0022-.0047.0019.0019-.001.0021-.0009.0169-.0077.0342-.0195.0083-.0057.0268-.0191.0459-.041.0164-.019.0605-.0763.0605-.1631h-.5c0-.0326.0008-.0651.001-.0977-.1758.0513-.3508.0983-.5224.1436h-.002c-.1805.0462-.3558.0931-.5322.1396l-.044-.1318c-.0016.0051-.0023.0105-.0039.0156l-.0019-.001c.0021-.007.0022-.0146.0039-.0224l-.0166-.0508h-.2246l-.0205-.0068c.0028.0153.0084.0293.0136.0429l-.2431-.0361c0-.0315.0062-.0592.0146-.083.0444-.1431.0849-.2895.127-.4395.0425-.1516.0859-.3073.1338-.4609.1211-.3933.2603-.7893.4443-1.1719.0648-.1342.1483-.3011.2549-.4541.1062-.1525.2479-.3094.4404-.4052.0099-.005.0211-.0086.0322-.0137.0085-.0059.0144-.009.0157-.0098.0242-.0145.0475-.0222.0537-.0244.0196-.007.0429-.0137.0644-.0195.0211-.0057.0474-.0111.0781-.0186.2099-.0616.4273-.1175.629-.1699h.0019c.2291-.0582.5449-.1685.832-.207l.0166-.002h.0127c-.0006 0 .0004-.0006.0039-.001.0024-.0002.0186-.002.0303-.0029.0242-.0018.079-.0043.1406.0147l.0069.0019c.0435.0135.1517.0511.2051.1719.0196.0447.0246.0873.0263.1015.0034.0283.0024.0218.0049.0411l.0332.2763.0205.2725c.0214.3789.013.755 0 1.1221-.0131.3702-.0303.7279-.0303 1.0888z" fill="#9810fa"/></svg>