<svg fill="none" height="1024" viewBox="0 0 1024 1024" width="1024" xmlns="http://www.w3.org/2000/svg"><path d="m624.256 704.133c-11.852 0-20.66-4.084-26.426-12.252s-10.49-18.418-14.174-30.75l-36.275-118.676c-2.563-8.809-3.443-16.416-2.643-22.822.801-6.406 3.924-12.572 9.369-18.498l248.403-270.504c1.601-1.602 2.402-3.363 2.402-5.285 0-2.082-.721-3.764-2.162-5.045-1.281-1.281-2.883-1.922-4.805-1.922-1.922-.16-3.763.56-5.525 2.162l-270.264 249.123c-6.406 5.766-12.652 8.969-18.738 9.609-6.086.481-13.613-.64-22.582-3.363l-120.598-36.996c-12.011-3.684-21.941-8.328-29.789-13.934-7.687-5.765-11.531-14.494-11.531-26.185 0-9.609 3.443-17.777 10.33-24.504 7.047-6.887 15.856-12.332 26.426-16.336l418.248-160.236c5.285-1.922 10.25-3.364 14.894-4.324 4.645-1.122 8.969-1.682 12.973-1.682 9.129 0 16.336 2.642 21.621 7.928 5.445 5.285 8.168 12.492 8.168 21.621 0 4.004-.56 8.328-1.682 12.972-1.121 4.645-2.642 9.61-4.564 14.895l-159.516 416.566c-4.484 11.692-10.17 20.981-17.056 27.867-6.727 7.047-14.895 10.571-24.504 10.571z" fill="#fff"/></svg>