<svg fill="none" height="800" viewBox="0 0 1200 800" width="1200" xmlns="http://www.w3.org/2000/svg" xmlns:xlink="http://www.w3.org/1999/xlink"><filter id="a" color-interpolation-filters="sRGB" filterUnits="userSpaceOnUse" height="640" width="772" x="214" y="108"><feFlood flood-opacity="0" result="BackgroundImageFix"/><feColorMatrix in="SourceAlpha" result="hardAlpha" type="matrix" values="0 0 0 0 0 0 0 0 0 0 0 0 0 0 0 0 0 0 127 0"/><feOffset dy="20"/><feGaussianBlur stdDeviation="24"/><feColorMatrix type="matrix" values="0 0 0 0 0.098 0 0 0 0 0.145 0 0 0 0 0.278 0 0 0 0.14 0"/><feBlend in2="BackgroundImageFix" mode="normal" result="effect1_dropShadow_105_1455"/><feBlend in="SourceGraphic" in2="effect1_dropShadow_105_1455" mode="normal" result="shape"/></filter><linearGradient id="b" gradientUnits="userSpaceOnUse" x1="0" x2="1200" y1="0" y2="800"><stop offset="0" stop-color="#f8faff"/><stop offset="1" stop-color="#eef2ff"/></linearGradient><linearGradient id="c" gradientUnits="userSpaceOnUse" x1="604" x2="896.5" y1="352.75" y2="594.25"><stop offset="0" stop-color="#1f6dff"/><stop offset="1" stop-color="#8e2dff"/></linearGradient><clipPath id="d"><path d="m0 0h1200v800h-1200z"/></clipPath><g clip-path="url(#d)"><path d="m1160 0h-1120c-22.0914 0-40 17.9086-40 40v720c0 22.091 17.9086 40 40 40h1120c22.09 0 40-17.909 40-40v-720c0-22.0914-17.91-40-40-40z" fill="url(#b)"/><path d="m334 68h-250c-12.1503 0-22 9.8497-22 22 0 12.15 9.8497 22 22 22h250c12.15 0 22-9.85 22-22 0-12.1503-9.85-22-22-22z" fill="#e8eeff"/><path d="m111.738 91.6836v-2.8945h7.477v6.8437c-.727.7031-1.781 1.3242-3.164 1.8633-1.375.5312-2.77.7969-4.184.7969-1.797 0-3.363-.375-4.699-1.125-1.336-.7578-2.34-1.836-3.012-3.2344-.672-1.4063-1.008-2.9336-1.008-4.582 0-1.7891.375-3.3789 1.125-4.7696.75-1.3906 1.848-2.457 3.293-3.1992 1.102-.5703 2.473-.8555 4.114-.8555 2.132 0 3.797.4493 4.992 1.3477 1.203.8906 1.976 2.125 2.32 3.7031l-3.445.6446c-.242-.8438-.699-1.5079-1.371-1.9922-.664-.4922-1.496-.7383-2.496-.7383-1.516 0-2.723.4805-3.621 1.4414-.891.9609-1.336 2.3867-1.336 4.2773 0 2.0391.453 3.5703 1.359 4.5938.906 1.0156 2.094 1.5234 3.563 1.5234.726 0 1.453-.1406 2.179-.4219.735-.289 1.364-.6367 1.887-1.0429v-2.1797zm10.418-6.1289h3.035v1.6992c1.086-1.3203 2.379-1.9805 3.879-1.9805.797 0 1.489.1641 2.075.4922.585.3282 1.066.8242 1.441 1.4883.547-.6641 1.137-1.1601 1.769-1.4883.633-.3281 1.309-.4922 2.028-.4922.914 0 1.687.1875 2.32.5625.633.3672 1.106.9102 1.418 1.6289.227.5313.34 1.3907.34 2.5782v7.957h-3.293v-7.1133c0-1.2344-.113-2.0312-.34-2.3906-.305-.4688-.773-.7031-1.406-.7031-.461 0-.895.1406-1.301.4218-.406.2813-.699.6954-.879 1.2422-.18.5391-.269 1.3946-.269 2.5664v5.9766h-3.293v-6.8203c0-1.2109-.059-1.9922-.176-2.3438-.117-.3515-.301-.6132-.551-.7851-.242-.1719-.574-.2578-.996-.2578-.508 0-.965.1367-1.371.4101-.406.2735-.699.668-.879 1.1836-.172.5156-.258 1.3711-.258 2.5664v6.0469h-3.293zm24.059 3.7969-2.988-.5391c.335-1.2031.914-2.0937 1.734-2.6719.82-.5781 2.039-.8672 3.656-.8672 1.469 0 2.563.1758 3.281.5274.719.3437 1.223.7851 1.512 1.3242.297.5312.445 1.5117.445 2.9414l-.035 3.8438c0 1.0937.051 1.9023.153 2.4257.109.5157.308 1.0703.597 1.6641h-3.258c-.085-.2188-.191-.543-.316-.9727-.055-.1953-.094-.3242-.117-.3867-.563.5469-1.164.9571-1.805 1.2305-.64.2734-1.324.4101-2.051.4101-1.281 0-2.293-.3476-3.035-1.0429-.734-.6953-1.101-1.5742-1.101-2.6367 0-.7032.168-1.3282.504-1.875.336-.5547.804-.9766 1.406-1.2657.609-.2968 1.484-.5547 2.625-.7734 1.539-.2891 2.605-.5586 3.199-.8086v-.3281c0-.6328-.156-1.082-.469-1.3477-.312-.2734-.902-.4101-1.769-.4101-.586 0-1.043.1172-1.371.3515-.328.2266-.594.6289-.797 1.2071zm4.406 2.6718c-.422.1407-1.09.3086-2.004.5039-.914.1954-1.512.3868-1.793.5743-.429.3046-.644.6914-.644 1.1601 0 .461.172.8594.515 1.1953.344.336.782.5039 1.313.5039.594 0 1.16-.1953 1.699-.5859.398-.2969.66-.6602.785-1.0898.086-.2813.129-.8164.129-1.6055zm6.492-8.1562v-3.0469h3.293v3.0469zm0 14.1328v-12.4453h3.293v12.4453zm6.68 0v-17.1797h3.293v17.1797zm6.598-3.293h3.293v2.3555c0 .9531-.082 1.7031-.246 2.25-.165.5547-.477 1.0505-.938 1.4885-.453.437-1.031.781-1.734 1.031l-.645-1.359c.664-.219 1.137-.5199 1.418-.9027s.43-.9062.445-1.5703h-1.593zm13.324 3.293v-17.1797h3.293v9.1172l3.855-4.3828h4.055l-4.254 4.5469 4.559 7.8984h-3.551l-3.129-5.5898-1.535 1.6054v3.9844zm20.683-3.9609 3.282.5507c-.422 1.2032-1.09 2.1211-2.004 2.754-.906.625-2.043.9374-3.41.9374-2.164 0-3.766-.707-4.805-2.121-.82-1.1329-1.231-2.5625-1.231-4.2891 0-2.0625.54-3.6758 1.618-4.8399 1.078-1.1718 2.441-1.7578 4.09-1.7578 1.851 0 3.312.6133 4.382 1.8399 1.071 1.2187 1.582 3.0898 1.535 5.6133h-8.25c.024.9765.29 1.7382.797 2.2851.508.5391 1.141.8086 1.899.8086.515 0 .949-.1406 1.301-.4219.351-.2812.617-.7343.796-1.3593zm.188-3.3282c-.024-.9531-.27-1.6757-.738-2.1679-.469-.5-1.039-.75-1.711-.75-.719 0-1.313.2617-1.782.7851-.468.5235-.699 1.2344-.691 2.1328zm5.871-5.1562h3.07v1.8281c.399-.625.938-1.1328 1.618-1.5234.679-.3906 1.433-.586 2.261-.586 1.446 0 2.672.5664 3.68 1.6993 1.008 1.1328 1.512 2.7109 1.512 4.7343 0 2.0782-.508 3.6953-1.524 4.8516-1.015 1.1484-2.246 1.7226-3.691 1.7226-.688 0-1.313-.1367-1.875-.4101-.555-.2734-1.141-.7422-1.758-1.4063v6.2692h-3.293zm3.258 6.0117c0 1.3984.277 2.4336.832 3.1055.555.664 1.23.9961 2.027.9961.766 0 1.403-.3047 1.91-.9141.508-.6172.762-1.625.762-3.0234 0-1.3047-.262-2.2735-.785-2.9063s-1.172-.9492-1.945-.9492c-.805 0-1.473.3125-2.004.9375-.532.6172-.797 1.5352-.797 2.7539zm17.215-6.0117v2.625h-2.25v5.0156c0 1.0156.019 1.6094.058 1.7813.047.164.145.3007.293.4101.157.1094.344.1641.563.1641.304 0 .746-.1055 1.324-.3164l.281 2.5547c-.765.3281-1.633.4921-2.601.4921-.594 0-1.129-.0976-1.606-.2929-.476-.2031-.828-.461-1.054-.7735-.219-.3203-.372-.75-.458-1.289-.07-.3828-.105-1.1563-.105-2.3203v-5.4258h-1.512v-2.625h1.512v-2.4727l3.305-1.9218v4.3945zm8.871 0h3.07v1.8281c.399-.625.938-1.1328 1.617-1.5234.68-.3906 1.434-.586 2.262-.586 1.445 0 2.672.5664 3.68 1.6993 1.008 1.1328 1.511 2.7109 1.511 4.7343 0 2.0782-.507 3.6953-1.523 4.8516-1.016 1.1484-2.246 1.7226-3.691 1.7226-.688 0-1.313-.1367-1.875-.4101-.555-.2734-1.141-.7422-1.758-1.4063v6.2692h-3.293zm3.258 6.0117c0 1.3984.277 2.4336.832 3.1055.554.664 1.23.9961 2.027.9961.766 0 1.402-.3047 1.91-.9141.508-.6172.762-1.625.762-3.0234 0-1.3047-.262-2.2735-.785-2.9063-.524-.6328-1.172-.9492-1.946-.9492-.804 0-1.472.3125-2.004.9375-.531.6172-.796 1.5352-.796 2.7539zm14.66 6.4336h-3.293v-12.4453h3.058v1.7695c.524-.8359.993-1.3867 1.407-1.6523.421-.2657.898-.3985 1.429-.3985.75 0 1.473.2071 2.168.6211l-1.019 2.8711c-.555-.3594-1.071-.539-1.547-.539-.461 0-.852.1289-1.172.3867-.32.25-.574.707-.762 1.3711-.179.664-.269 2.0547-.269 4.1718zm6.199-14.1328v-3.0469h3.293v3.0469zm0 14.1328v-12.4453h3.293v12.4453zm10.102 0-5.016-12.4453h3.457l2.344 6.3515.679 2.1211c.18-.539.293-.8945.34-1.0664.11-.3515.227-.7031.352-1.0547l2.367-6.3515h3.387l-4.946 12.4453zm12.398-8.6484-2.988-.5391c.336-1.2031.914-2.0937 1.734-2.6719.82-.5781 2.039-.8672 3.656-.8672 1.469 0 2.563.1758 3.282.5274.718.3437 1.222.7851 1.511 1.3242.297.5312.446 1.5117.446 2.9414l-.036 3.8438c0 1.0937.051 1.9023.153 2.4257.109.5157.308 1.0703.597 1.6641h-3.257c-.086-.2188-.192-.543-.317-.9727-.054-.1953-.094-.3242-.117-.3867-.562.5469-1.164.9571-1.805 1.2305-.64.2734-1.324.4101-2.05.4101-1.282 0-2.293-.3476-3.036-1.0429-.734-.6953-1.101-1.5742-1.101-2.6367 0-.7032.168-1.3282.504-1.875.336-.5547.804-.9766 1.406-1.2657.609-.2968 1.484-.5547 2.625-.7734 1.539-.2891 2.605-.5586 3.199-.8086v-.3281c0-.6328-.156-1.082-.469-1.3477-.312-.2734-.902-.4101-1.769-.4101-.586 0-1.043.1172-1.371.3515-.328.2266-.594.6289-.797 1.2071zm4.406 2.6718c-.422.1407-1.09.3086-2.004.5039-.914.1954-1.511.3868-1.793.5743-.429.3046-.644.6914-.644 1.1601 0 .461.172.8594.515 1.1953.344.336.782.5039 1.313.5039.594 0 1.16-.1953 1.699-.5859.399-.2969.66-.6602.785-1.0898.086-.2813.129-.8164.129-1.6055zm12.199-6.4687v2.625h-2.25v5.0156c0 1.0156.02 1.6094.059 1.7813.047.164.145.3007.293.4101.156.1094.344.1641.563.1641.304 0 .746-.1055 1.324-.3164l.281 2.5547c-.766.3281-1.633.4921-2.602.4921-.593 0-1.129-.0976-1.605-.2929-.477-.2031-.828-.461-1.055-.7735-.219-.3203-.371-.75-.457-1.289-.07-.3828-.105-1.1563-.105-2.3203v-5.4258h-1.512v-2.625h1.512v-2.4727l3.304-1.9218v4.3945zm9.493 8.4844 3.281.5507c-.422 1.2032-1.09 2.1211-2.004 2.754-.906.625-2.043.9374-3.41.9374-2.164 0-3.766-.707-4.805-2.121-.82-1.1329-1.23-2.5625-1.23-4.2891 0-2.0625.539-3.6758 1.617-4.8399 1.078-1.1718 2.441-1.7578 4.09-1.7578 1.851 0 3.312.6133 4.383 1.8399 1.07 1.2187 1.582 3.0898 1.535 5.6133h-8.25c.023.9765.289 1.7382.797 2.2851.507.5391 1.14.8086 1.898.8086.516 0 .949-.1406 1.301-.4219.351-.2812.617-.7343.797-1.3593zm.187-3.3282c-.023-.9531-.269-1.6757-.738-2.1679-.469-.5-1.039-.75-1.711-.75-.719 0-1.313.2617-1.781.7851-.469.5235-.7 1.2344-.692 2.1328z" fill="#2952c8"/><g filter="url(#a)"><path d="m896 136h-592c-23.196 0-42 18.804-42 42v460c0 23.196 18.804 42 42 42h592c23.196 0 42-18.804 42-42v-460c0-23.196-18.804-42-42-42z" fill="#fff"/></g><path d="m860 184h-520c-17.673 0-32 14.327-32 32v238c0 17.673 14.327 32 32 32h520c17.673 0 32-14.327 32-32v-238c0-17.673-14.327-32-32-32z" fill="#f6f9ff" stroke="#dce6ff"/><path d="m820 242h-440c-12.15 0-22 9.85-22 22v146c0 12.15 9.85 22 22 22h440c12.15 0 22-9.85 22-22v-146c0-12.15-9.85-22-22-22z" fill="#fff" stroke="#d6dff7"/><path d="m358 266 242 126 242-126" stroke="#c2ccea" stroke-linecap="round" stroke-width="8"/><path d="m576 292h-182c-4.418 0-8 3.582-8 8s3.582 8 8 8h182c4.418 0 8-3.582 8-8s-3.582-8-8-8z" fill="#e5ebfa"/><path d="m662 322h-268c-4.418 0-8 3.582-8 8s3.582 8 8 8h268c4.418 0 8-3.582 8-8s-3.582-8-8-8z" fill="#eef2fc"/><path d="m534 352h-140c-4.418 0-8 3.582-8 8s3.582 8 8 8h140c4.418 0 8-3.582 8-8s-3.582-8-8-8z" fill="#eef2fc"/><path d="m802 544.75c0-25.719 20.781-46.5 46.5-46.5h3c25.719 0 46.5 20.781 46.5 46.5v1c0 26.219-20.781 47-46.5 47h-3c-25.719 0-46.5-20.781-46.5-47z" fill="url(#c)"/><path d="m849.75 522.75c-11.46 0-20.75 9.29-20.75 20.75v4.5c0 11.46 9.29 20.75 20.75 20.75s20.75-9.29 20.75-20.75v-4.5c0-11.46-9.29-20.75-20.75-20.75zm5.25 24.25c0 3.037-2.463 5.5-5.5 5.5s-5.5-2.463-5.5-5.5v-2.5c0-3.037 2.463-5.5 5.5-5.5s5.5 2.463 5.5 5.5z" fill="#fff"/><path d="m859 520c0-5.109-4.141-9.25-9.25-9.25s-9.25 4.141-9.25 9.25v3.5c0 5.109 4.141 9.25 9.25 9.25s9.25-4.141 9.25-9.25z" stroke="#fff" stroke-width="5"/><path d="m759 526h-429c-12.15 0-22 9.85-22 22s9.85 22 22 22h429c12.15 0 22-9.85 22-22s-9.85-22-22-22z" fill="#eef4ff"/><path d="m338 556c4.418 0 8-3.582 8-8s-3.582-8-8-8-8 3.582-8 8 3.582 8 8 8z" fill="#25c46b"/><path d="m357.61 553v-14.909h3.035v12.376h7.547v2.533zm12.069-5.599c0-.957.236-1.883.707-2.778.472-.896 1.138-1.58 2-2.051.868-.472 1.835-.708 2.902-.708 1.647 0 2.997.537 4.05 1.61 1.053 1.067 1.579 2.417 1.579 4.05 0 1.648-.533 3.015-1.6 4.102-1.059 1.08-2.396 1.62-4.009 1.62-.998 0-1.952-.225-2.861-.677-.902-.451-1.589-1.111-2.061-1.979-.471-.875-.707-1.938-.707-3.189zm2.953.154c0 1.08.256 1.907.769 2.482.513.574 1.145.861 1.897.861s1.381-.287 1.887-.861c.512-.575.769-1.409.769-2.502 0-1.067-.257-1.887-.769-2.461-.506-.574-1.135-.862-1.887-.862s-1.384.288-1.897.862-.769 1.401-.769 2.481zm20.046-2.225-2.84.513c-.096-.568-.315-.995-.656-1.282-.335-.287-.773-.431-1.313-.431-.718 0-1.292.25-1.723.749-.423.492-.635 1.319-.635 2.481 0 1.292.215 2.205.646 2.738.437.533 1.022.8 1.753.8.547 0 .995-.154 1.343-.461.349-.315.595-.852.739-1.61l2.83.482c-.294 1.298-.858 2.279-1.692 2.942-.834.664-1.952.995-3.353.995-1.593 0-2.864-.502-3.815-1.507-.943-1.005-1.415-2.396-1.415-4.174 0-1.797.475-3.195 1.426-4.193.95-1.005 2.235-1.508 3.855-1.508 1.326 0 2.379.287 3.158.862.786.567 1.35 1.435 1.692 2.604zm4.348.103-2.615-.472c.294-1.053.8-1.832 1.518-2.338.717-.506 1.784-.759 3.199-.759 1.285 0 2.242.154 2.871.462.629.3 1.07.687 1.323 1.158.26.465.389 1.323.389 2.574l-.03 3.363c0 .957.044 1.665.133 2.123.096.451.27.936.523 1.456h-2.851c-.075-.191-.167-.475-.277-.851-.047-.171-.082-.284-.102-.338-.492.478-1.019.837-1.579 1.076-.561.239-1.159.359-1.795.359-1.121 0-2.006-.304-2.655-.913-.643-.608-.964-1.377-.964-2.307 0-.615.147-1.162.441-1.64.294-.486.704-.855 1.23-1.108.533-.259 1.299-.485 2.297-.676 1.347-.253 2.28-.489 2.799-.708v-.287c0-.554-.136-.947-.41-1.179-.273-.24-.789-.359-1.548-.359-.513 0-.913.102-1.2.307-.287.199-.519.551-.697 1.057zm3.855 2.338c-.369.123-.953.27-1.753.44-.8.171-1.323.339-1.569.503-.376.266-.564.605-.564 1.015 0 .403.151.752.451 1.046.301.294.684.441 1.149.441.519 0 1.015-.171 1.487-.513.348-.26.577-.578.687-.953.075-.247.112-.715.112-1.405zm5.681 5.229v-15.032h2.881v15.032zm5.517-4.009v-2.882h5.66v2.882zm6.654-1.59c0-.957.236-1.883.708-2.778.472-.896 1.138-1.58 1.999-2.051.869-.472 1.836-.708 2.902-.708 1.648 0 2.998.537 4.051 1.61 1.052 1.067 1.579 2.417 1.579 4.05 0 1.648-.534 3.015-1.6 4.102-1.06 1.08-2.396 1.62-4.009 1.62-.998 0-1.952-.225-2.861-.677-.902-.451-1.589-1.111-2.061-1.979-.472-.875-.708-1.938-.708-3.189zm2.954.154c0 1.08.256 1.907.769 2.482.512.574 1.145.861 1.897.861.751 0 1.38-.287 1.886-.861.513-.575.769-1.409.769-2.502 0-1.067-.256-1.887-.769-2.461-.506-.574-1.135-.862-1.886-.862-.752 0-1.385.288-1.897.862-.513.574-.769 1.401-.769 2.481zm20.456 5.445h-2.881v-5.558c0-1.175-.062-1.934-.185-2.276-.123-.349-.325-.619-.605-.81-.273-.191-.605-.287-.994-.287-.499 0-.947.137-1.344.41-.396.273-.67.636-.82 1.087-.144.451-.215 1.285-.215 2.502v4.932h-2.882v-10.89h2.677v1.6c.95-1.231 2.146-1.846 3.588-1.846.636 0 1.217.116 1.744.349.526.225.922.516 1.189.871.273.356.461.759.564 1.21.109.452.164 1.098.164 1.938zm2.933 0v-15.032h2.881v15.032zm4.481-10.89h3.066l2.604 7.732 2.543-7.732h2.984l-3.845 10.48-.687 1.897c-.253.636-.496 1.121-.728 1.456-.226.335-.489.605-.79.81-.294.212-.66.376-1.097.492-.431.116-.919.174-1.466.174-.554 0-1.098-.058-1.631-.174l-.256-2.256c.451.089.858.134 1.22.134.67 0 1.166-.199 1.487-.595.321-.39.567-.889.738-1.497zm17.882 7.783 2.892-.441c.123.561.373.988.749 1.282.376.287.902.431 1.579.431.745 0 1.305-.137 1.681-.411.253-.191.38-.447.38-.769 0-.218-.069-.4-.205-.543-.144-.137-.465-.263-.964-.38-2.324-.512-3.798-.98-4.42-1.404-.861-.588-1.292-1.405-1.292-2.451 0-.943.373-1.736 1.118-2.379.745-.642 1.9-.964 3.466-.964 1.49 0 2.598.243 3.322.728.725.486 1.224 1.203 1.497 2.154l-2.717.502c-.116-.424-.338-.748-.667-.974-.321-.226-.782-.338-1.384-.338-.759 0-1.302.106-1.63.317-.219.151-.328.346-.328.585 0 .205.095.379.287.523.259.191 1.155.461 2.686.81 1.538.349 2.612.776 3.22 1.282.602.512.902 1.227.902 2.143 0 .998-.417 1.856-1.251 2.573-.834.718-2.068 1.077-3.701 1.077-1.484 0-2.659-.301-3.528-.902-.861-.602-1.425-1.419-1.692-2.451zm19.011-.359 2.871.482c-.369 1.053-.953 1.856-1.753 2.41-.793.547-1.788.82-2.984.82-1.894 0-3.295-.619-4.204-1.856-.718-.991-1.077-2.242-1.077-3.753 0-1.804.472-3.216 1.415-4.235.944-1.025 2.136-1.538 3.579-1.538 1.62 0 2.898.537 3.835 1.61.936 1.067 1.384 2.704 1.343 4.912h-7.219c.021.854.253 1.521.698 1.999.444.472.998.708 1.661.708.451 0 .83-.123 1.138-.369s.54-.643.697-1.19zm.164-2.912c-.02-.834-.236-1.466-.646-1.897-.41-.437-.909-.656-1.497-.656-.629 0-1.148.229-1.558.687-.411.458-.612 1.08-.605 1.866zm4.204 3.271 2.892-.441c.123.561.373.988.748 1.282.376.287.903.431 1.58.431.745 0 1.305-.137 1.681-.411.253-.191.38-.447.38-.769 0-.218-.069-.4-.205-.543-.144-.137-.465-.263-.964-.38-2.325-.512-3.798-.98-4.42-1.404-.861-.588-1.292-1.405-1.292-2.451 0-.943.373-1.736 1.118-2.379.745-.642 1.9-.964 3.466-.964 1.49 0 2.597.243 3.322.728.725.486 1.224 1.203 1.497 2.154l-2.717.502c-.116-.424-.339-.748-.667-.974-.321-.226-.782-.338-1.384-.338-.759 0-1.302.106-1.63.317-.219.151-.328.346-.328.585 0 .205.095.379.287.523.259.191 1.155.461 2.686.81 1.538.349 2.611.776 3.22 1.282.601.512.902 1.227.902 2.143 0 .998-.417 1.856-1.251 2.573-.834.718-2.068 1.077-3.701 1.077-1.484 0-2.66-.301-3.528-.902-.861-.602-1.425-1.419-1.692-2.451zm11.69 0 2.891-.441c.123.561.373.988.749 1.282.376.287.902.431 1.579.431.745 0 1.306-.137 1.682-.411.253-.191.379-.447.379-.769 0-.218-.068-.4-.205-.543-.144-.137-.465-.263-.964-.38-2.324-.512-3.797-.98-4.419-1.404-.862-.588-1.292-1.405-1.292-2.451 0-.943.372-1.736 1.117-2.379.746-.642 1.901-.964 3.466-.964 1.49 0 2.598.243 3.322.728.725.486 1.224 1.203 1.498 2.154l-2.718.502c-.116-.424-.338-.748-.666-.974-.322-.226-.783-.338-1.385-.338-.758 0-1.302.106-1.63.317-.219.151-.328.346-.328.585 0 .205.096.379.287.523.26.191 1.155.461 2.687.81 1.538.349 2.611.776 3.219 1.282.602.512.903 1.227.903 2.143 0 .998-.417 1.856-1.251 2.573-.834.718-2.068 1.077-3.702 1.077-1.483 0-2.659-.301-3.527-.902-.862-.602-1.426-1.419-1.692-2.451zm12.704-9.259v-2.666h2.882v2.666zm0 12.366v-10.89h2.882v10.89zm5.179-5.599c0-.957.235-1.883.707-2.778.472-.896 1.138-1.58 2-2.051.868-.472 1.835-.708 2.902-.708 1.647 0 2.997.537 4.05 1.61 1.053 1.067 1.579 2.417 1.579 4.05 0 1.648-.533 3.015-1.6 4.102-1.059 1.08-2.396 1.62-4.009 1.62-.998 0-1.952-.225-2.861-.677-.902-.451-1.589-1.111-2.061-1.979-.472-.875-.707-1.938-.707-3.189zm2.953.154c0 1.08.256 1.907.769 2.482.512.574 1.145.861 1.897.861s1.381-.287 1.886-.861c.513-.575.77-1.409.77-2.502 0-1.067-.257-1.887-.77-2.461-.505-.574-1.134-.862-1.886-.862s-1.385.288-1.897.862c-.513.574-.769 1.401-.769 2.481zm20.456 5.445h-2.881v-5.558c0-1.175-.062-1.934-.185-2.276-.123-.349-.324-.619-.605-.81-.273-.191-.605-.287-.994-.287-.499 0-.947.137-1.343.41-.397.273-.67.636-.821 1.087-.143.451-.215 1.285-.215 2.502v4.932h-2.881v-10.89h2.676v1.6c.95-1.231 2.146-1.846 3.589-1.846.635 0 1.216.116 1.743.349.526.225.923.516 1.189.871.274.356.462.759.564 1.21.11.452.164 1.098.164 1.938zm2.861-2.881h2.881v2.061c0 .834-.071 1.49-.215 1.968-.143.486-.417.92-.82 1.303-.397.382-.903.683-1.518.902l-.564-1.189c.581-.192.995-.455 1.241-.79s.376-.793.39-1.374h-1.395zm21.667 2.881h-2.882v-5.558c0-1.175-.061-1.934-.184-2.276-.123-.349-.325-.619-.605-.81-.274-.191-.605-.287-.995-.287-.499 0-.947.137-1.343.41-.397.273-.67.636-.82 1.087-.144.451-.216 1.285-.216 2.502v4.932h-2.881v-10.89h2.676v1.6c.95-1.231 2.147-1.846 3.589-1.846.636 0 1.217.116 1.743.349.527.225.923.516 1.19.871.273.356.461.759.564 1.21.109.452.164 1.098.164 1.938zm2.266-5.599c0-.957.236-1.883.707-2.778.472-.896 1.138-1.58 2-2.051.868-.472 1.835-.708 2.902-.708 1.647 0 2.997.537 4.05 1.61 1.053 1.067 1.579 2.417 1.579 4.05 0 1.648-.533 3.015-1.6 4.102-1.059 1.08-2.396 1.62-4.009 1.62-.998 0-1.952-.225-2.861-.677-.902-.451-1.589-1.111-2.061-1.979-.471-.875-.707-1.938-.707-3.189zm2.953.154c0 1.08.256 1.907.769 2.482.513.574 1.145.861 1.897.861s1.381-.287 1.887-.861c.512-.575.769-1.409.769-2.502 0-1.067-.257-1.887-.769-2.461-.506-.574-1.135-.862-1.887-.862s-1.384.288-1.897.862-.769 1.401-.769 2.481zm16.273 5.445v-15.032h2.881v5.414c.889-1.012 1.942-1.518 3.158-1.518 1.327 0 2.424.482 3.292 1.446.868.957 1.302 2.335 1.302 4.132 0 1.86-.444 3.292-1.333 4.297-.882 1.005-1.955 1.507-3.22 1.507-.622 0-1.237-.154-1.845-.461-.602-.315-1.121-.776-1.559-1.385v1.6zm2.861-5.681c0 1.128.177 1.962.533 2.502.499.766 1.162 1.149 1.989 1.149.636 0 1.176-.27 1.62-.81.451-.547.677-1.405.677-2.574 0-1.244-.226-2.14-.677-2.687-.451-.553-1.029-.83-1.733-.83-.69 0-1.264.27-1.722.81-.458.533-.687 1.347-.687 2.44zm12.253-1.886-2.615-.472c.294-1.053.8-1.832 1.518-2.338s1.784-.759 3.199-.759c1.285 0 2.242.154 2.871.462.629.3 1.07.687 1.323 1.158.26.465.39 1.323.39 2.574l-.031 3.363c0 .957.044 1.665.133 2.123.096.451.27.936.523 1.456h-2.85c-.076-.191-.168-.475-.277-.851-.048-.171-.082-.284-.103-.338-.492.478-1.018.837-1.579 1.076s-1.159.359-1.794.359c-1.121 0-2.007-.304-2.656-.913-.643-.608-.964-1.377-.964-2.307 0-.615.147-1.162.441-1.64.294-.486.704-.855 1.23-1.108.534-.259 1.299-.485 2.297-.676 1.347-.253 2.28-.489 2.8-.708v-.287c0-.554-.137-.947-.411-1.179-.273-.24-.789-.359-1.548-.359-.513 0-.913.102-1.2.307-.287.199-.519.551-.697 1.057zm3.856 2.338c-.37.123-.954.27-1.754.44-.8.171-1.323.339-1.569.503-.376.266-.564.605-.564 1.015 0 .403.151.752.451 1.046.301.294.684.441 1.149.441.519 0 1.015-.171 1.487-.513.348-.26.577-.578.687-.953.075-.247.113-.715.113-1.405zm15.175-2.441-2.84.513c-.096-.568-.314-.995-.656-1.282-.335-.287-.773-.431-1.313-.431-.718 0-1.292.25-1.722.749-.424.492-.636 1.319-.636 2.481 0 1.292.215 2.205.646 2.738.437.533 1.022.8 1.753.8.547 0 .995-.154 1.344-.461.348-.315.594-.852.738-1.61l2.83.482c-.294 1.298-.858 2.279-1.692 2.942-.834.664-1.952.995-3.353.995-1.593 0-2.864-.502-3.814-1.507-.944-1.005-1.416-2.396-1.416-4.174 0-1.797.476-3.195 1.426-4.193.95-1.005 2.235-1.508 3.855-1.508 1.326 0 2.379.287 3.158.862.787.567 1.351 1.435 1.692 2.604zm2.092 7.67v-15.032h2.881v7.977l3.374-3.835h3.548l-3.722 3.979 3.988 6.911h-3.106l-2.738-4.891-1.344 1.405v3.486zm18.098-3.466 2.871.482c-.369 1.053-.953 1.856-1.753 2.41-.793.547-1.788.82-2.984.82-1.893 0-3.295-.619-4.204-1.856-.718-.991-1.077-2.242-1.077-3.753 0-1.804.472-3.216 1.415-4.235.944-1.025 2.137-1.538 3.579-1.538 1.62 0 2.898.537 3.835 1.61.936 1.067 1.384 2.704 1.343 4.912h-7.219c.021.854.253 1.521.698 1.999.444.472.998.708 1.661.708.451 0 .83-.123 1.138-.369s.54-.643.697-1.19zm.164-2.912c-.02-.834-.236-1.466-.646-1.897-.41-.437-.909-.656-1.497-.656-.629 0-1.148.229-1.558.687s-.612 1.08-.605 1.866zm15.125 6.378h-2.882v-5.558c0-1.175-.061-1.934-.184-2.276-.123-.349-.325-.619-.605-.81-.273-.191-.605-.287-.995-.287-.499 0-.946.137-1.343.41-.396.273-.67.636-.82 1.087-.144.451-.216 1.285-.216 2.502v4.932h-2.881v-10.89h2.676v1.6c.951-1.231 2.147-1.846 3.589-1.846.636 0 1.217.116 1.743.349.527.225.923.516 1.19.871.273.356.461.759.564 1.21.109.452.164 1.098.164 1.938zm12.92 0h-2.676v-1.6c-.445.622-.971 1.087-1.58 1.395-.601.301-1.21.451-1.825.451-1.251 0-2.324-.502-3.22-1.507-.888-1.012-1.333-2.42-1.333-4.225 0-1.846.435-3.247 1.303-4.204.868-.964 1.965-1.446 3.291-1.446 1.217 0 2.27.506 3.158 1.518v-5.414h2.882zm-7.691-5.681c0 1.162.161 2.003.482 2.523.465.752 1.115 1.128 1.949 1.128.663 0 1.227-.281 1.691-.841.465-.567.698-1.412.698-2.533 0-1.251-.226-2.15-.677-2.697-.451-.553-1.029-.83-1.733-.83-.684 0-1.258.273-1.723.82-.458.54-.687 1.35-.687 2.43zm15.371 2.574 2.892-.441c.123.561.372.988.748 1.282.376.287.902.431 1.579.431.745 0 1.306-.137 1.682-.411.253-.191.379-.447.379-.769 0-.218-.068-.4-.205-.543-.143-.137-.465-.263-.964-.38-2.324-.512-3.797-.98-4.419-1.404-.861-.588-1.292-1.405-1.292-2.451 0-.943.372-1.736 1.118-2.379.745-.642 1.9-.964 3.465-.964 1.491 0 2.598.243 3.323.728.724.486 1.223 1.203 1.497 2.154l-2.718.502c-.116-.424-.338-.748-.666-.974-.321-.226-.783-.338-1.384-.338-.759 0-1.303.106-1.631.317-.219.151-.328.346-.328.585 0 .205.096.379.287.523.26.191 1.155.461 2.687.81 1.538.349 2.611.776 3.219 1.282.602.512.903 1.227.903 2.143 0 .998-.417 1.856-1.251 2.573-.834.718-2.068 1.077-3.702 1.077-1.483 0-2.659-.301-3.527-.902-.861-.602-1.425-1.419-1.692-2.451zm17.698-7.783v2.297h-1.969v4.389c0 .889.018 1.408.052 1.558.041.144.126.264.256.359.137.096.301.144.492.144.267 0 .653-.092 1.159-.277l.246 2.235c-.67.288-1.429.431-2.276.431-.52 0-.988-.085-1.405-.256-.417-.178-.725-.404-.923-.677-.191-.28-.325-.656-.4-1.128-.061-.335-.092-1.012-.092-2.03v-4.748h-1.323v-2.297h1.323v-2.163l2.891-1.682v3.845zm1.333 5.291c0-.957.236-1.883.708-2.778.471-.896 1.138-1.58 1.999-2.051.868-.472 1.836-.708 2.902-.708 1.648 0 2.998.537 4.05 1.61 1.053 1.067 1.579 2.417 1.579 4.05 0 1.648-.533 3.015-1.599 4.102-1.06 1.08-2.396 1.62-4.009 1.62-.998 0-1.952-.225-2.861-.677-.903-.451-1.59-1.111-2.061-1.979-.472-.875-.708-1.938-.708-3.189zm2.953.154c0 1.08.257 1.907.769 2.482.513.574 1.145.861 1.897.861s1.381-.287 1.887-.861c.513-.575.769-1.409.769-2.502 0-1.067-.256-1.887-.769-2.461-.506-.574-1.135-.862-1.887-.862s-1.384.288-1.897.862c-.512.574-.769 1.401-.769 2.481zm13.31 5.445h-2.881v-10.89h2.676v1.549c.458-.732.868-1.214 1.23-1.446.369-.233.786-.349 1.251-.349.657 0 1.289.181 1.897.544l-.892 2.512c-.485-.315-.936-.472-1.353-.472-.404 0-.745.113-1.026.339-.28.218-.502.618-.666 1.199-.157.581-.236 1.798-.236 3.651zm7.578-7.567-2.615-.472c.294-1.053.8-1.832 1.517-2.338.718-.506 1.785-.759 3.2-.759 1.285 0 2.242.154 2.871.462.629.3 1.069.687 1.322 1.158.26.465.39 1.323.39 2.574l-.031 3.363c0 .957.045 1.665.134 2.123.095.451.27.936.523 1.456h-2.851c-.075-.191-.168-.475-.277-.851-.048-.171-.082-.284-.102-.338-.493.478-1.019.837-1.58 1.076-.56.239-1.158.359-1.794.359-1.121 0-2.006-.304-2.656-.913-.642-.608-.964-1.377-.964-2.307 0-.615.147-1.162.441-1.64.294-.486.704-.855 1.231-1.108.533-.259 1.299-.485 2.297-.676 1.346-.253 2.279-.489 2.799-.708v-.287c0-.554-.137-.947-.41-1.179-.274-.24-.79-.359-1.549-.359-.512 0-.912.102-1.199.307-.287.199-.52.551-.697 1.057zm3.855 2.338c-.369.123-.954.27-1.753.44-.8.171-1.323.339-1.569.503-.376.266-.564.605-.564 1.015 0 .403.15.752.451 1.046s.684.441 1.148.441c.52 0 1.016-.171 1.487-.513.349-.26.578-.578.687-.953.075-.247.113-.715.113-1.405zm5.414 5.947 3.292.4c.054.382.181.646.379.789.273.205.704.308 1.292.308.752 0 1.316-.113 1.692-.339.253-.15.444-.393.574-.728.089-.239.133-.68.133-1.322v-1.59c-.861 1.176-1.948 1.764-3.26 1.764-1.463 0-2.622-.619-3.476-1.856-.67-.977-1.005-2.194-1.005-3.65 0-1.826.437-3.22 1.312-4.184.882-.964 1.976-1.446 3.281-1.446 1.347 0 2.458.592 3.333 1.774v-1.528h2.697v9.772c0 1.285-.106 2.246-.318 2.882-.212.635-.509 1.134-.892 1.497-.383.362-.896.646-1.538.851-.636.205-1.443.307-2.42.307-1.846 0-3.155-.317-3.928-.953-.772-.629-1.158-1.429-1.158-2.4 0-.095.003-.212.01-.348zm2.574-6.388c0 1.155.222 2.003.666 2.543.451.533 1.005.799 1.661.799.705 0 1.299-.273 1.785-.82.485-.554.728-1.371.728-2.451 0-1.128-.233-1.965-.698-2.512-.464-.547-1.052-.82-1.763-.82-.691 0-1.262.27-1.713.81-.444.533-.666 1.35-.666 2.451zm16.837 2.204 2.871.482c-.369 1.053-.954 1.856-1.754 2.41-.793.547-1.787.82-2.984.82-1.893 0-3.294-.619-4.204-1.856-.717-.991-1.076-2.242-1.076-3.753 0-1.804.471-3.216 1.415-4.235.943-1.025 2.136-1.538 3.578-1.538 1.62 0 2.899.537 3.835 1.61.937 1.067 1.385 2.704 1.344 4.912h-7.219c.02.854.253 1.521.697 1.999.444.472.998.708 1.661.708.451 0 .831-.123 1.138-.369.308-.246.54-.643.698-1.19zm.164-2.912c-.021-.834-.236-1.466-.646-1.897-.41-.437-.909-.656-1.497-.656-.629 0-1.149.229-1.559.687s-.612 1.08-.605 1.866z" fill="#2a3558"/><path d="m612 586h-286c-9.941 0-18 8.059-18 18s8.059 18 18 18h286c9.941 0 18-8.059 18-18s-8.059-18-18-18z" fill="#f2f5ff"/><path d="m334.364 597.399h2.746v7.367c0 1.169.034 1.926.102 2.273.117.556.396 1.005.835 1.345.445.334 1.051.501 1.818.501.78 0 1.367-.158 1.763-.473.396-.322.634-.715.714-1.179.081-.463.121-1.233.121-2.31v-7.524h2.746v7.144c0 1.633-.074 2.786-.223 3.46-.148.675-.423 1.244-.825 1.707-.396.464-.928.835-1.596 1.114-.668.272-1.54.408-2.616.408-1.299 0-2.286-.149-2.96-.445-.668-.303-1.197-.693-1.586-1.169-.39-.483-.646-.987-.77-1.513-.18-.779-.269-1.929-.269-3.451zm12.812 10.79 2.616-.399c.111.507.337.894.677 1.16.34.259.817.389 1.429.389.674 0 1.181-.123 1.521-.371.229-.173.344-.405.344-.696 0-.197-.062-.361-.186-.491-.13-.124-.42-.238-.872-.343-2.103-.464-3.436-.888-3.998-1.271-.78-.532-1.169-1.271-1.169-2.218 0-.853.337-1.571 1.011-2.152.674-.582 1.719-.872 3.136-.872 1.348 0 2.35.219 3.005.658.656.44 1.108 1.089 1.355 1.949l-2.459.454c-.105-.383-.306-.677-.603-.881-.29-.204-.708-.306-1.252-.306-.687 0-1.178.096-1.475.287-.198.136-.297.313-.297.529 0 .186.087.343.26.473.235.174 1.045.418 2.43.733 1.392.316 2.363.702 2.913 1.16.545.464.817 1.11.817 1.939 0 .903-.377 1.679-1.132 2.329-.754.649-1.871.974-3.349.974-1.342 0-2.406-.272-3.191-.817-.78-.544-1.29-1.283-1.531-2.217zm17.2-.325 2.598.436c-.334.953-.863 1.679-1.587 2.18-.717.495-1.617.743-2.699.743-1.714 0-2.982-.56-3.804-1.68-.65-.896-.974-2.028-.974-3.395 0-1.633.426-2.91 1.28-3.832.853-.927 1.933-1.391 3.238-1.391 1.466 0 2.622.485 3.469 1.456.848.965 1.253 2.446 1.216 4.444h-6.531c.018.773.228 1.376.63 1.809.402.427.903.64 1.503.64.409 0 .752-.111 1.03-.334.278-.222.489-.581.631-1.076zm.148-2.635c-.018-.754-.213-1.326-.584-1.716-.371-.396-.823-.594-1.355-.594-.569 0-1.039.208-1.41.622s-.553.977-.547 1.688zm3.804 2.96 2.616-.399c.112.507.337.894.678 1.16.34.259.816.389 1.428.389.674 0 1.182-.123 1.522-.371.229-.173.343-.405.343-.696 0-.197-.062-.361-.186-.491-.129-.124-.42-.238-.872-.343-2.102-.464-3.435-.888-3.998-1.271-.779-.532-1.169-1.271-1.169-2.218 0-.853.337-1.571 1.011-2.152.674-.582 1.72-.872 3.136-.872 1.348 0 2.35.219 3.006.658.655.44 1.107 1.089 1.354 1.949l-2.458.454c-.105-.383-.306-.677-.603-.881-.291-.204-.708-.306-1.253-.306-.686 0-1.178.096-1.475.287-.198.136-.297.313-.297.529 0 .186.087.343.26.473.235.174 1.045.418 2.431.733 1.391.316 2.362.702 2.913 1.16.544.464.816 1.11.816 1.939 0 .903-.377 1.679-1.132 2.329-.754.649-1.871.974-3.349.974-1.342 0-2.406-.272-3.191-.817-.779-.544-1.29-1.283-1.531-2.217zm15.549-7.042h2.774l2.356 6.996 2.301-6.996h2.7l-3.479 9.482-.622 1.716c-.229.575-.448 1.015-.658 1.318-.205.303-.443.547-.715.733-.266.191-.597.34-.992.445-.39.105-.832.158-1.327.158-.501 0-.993-.053-1.475-.158l-.232-2.041c.408.08.776.12 1.104.12.606 0 1.054-.179 1.345-.538.291-.352.513-.804.668-1.354zm11.207 4.788c0-.866.213-1.704.64-2.515.427-.81 1.03-1.428 1.809-1.855.786-.427 1.661-.64 2.626-.64 1.49 0 2.712.485 3.664 1.456.953.965 1.429 2.187 1.429 3.665 0 1.49-.482 2.727-1.447 3.711-.959.977-2.168 1.466-3.628 1.466-.903 0-1.766-.204-2.588-.613-.817-.408-1.438-1.005-1.865-1.79-.427-.792-.64-1.754-.64-2.885zm2.672.139c0 .977.232 1.725.696 2.245.464.519 1.036.779 1.716.779s1.249-.26 1.707-.779c.464-.52.696-1.274.696-2.264 0-.965-.232-1.707-.696-2.226-.458-.52-1.027-.78-1.707-.78s-1.252.26-1.716.78c-.464.519-.696 1.268-.696 2.245zm16.031 4.926v-1.475c-.359.526-.832.94-1.419 1.243-.582.303-1.197.455-1.847.455-.661 0-1.255-.146-1.781-.436-.525-.291-.906-.699-1.141-1.225s-.352-1.252-.352-2.18v-6.235h2.607v4.528c0 1.385.046 2.236.139 2.551.099.309.275.557.528.742.254.18.576.269.965.269.446 0 .845-.12 1.197-.362.353-.247.594-.55.724-.909.13-.365.195-1.252.195-2.662v-4.157h2.606v9.853zm7.626 0h-2.607v-9.853h2.422v1.401c.414-.661.785-1.097 1.113-1.308.334-.21.711-.315 1.132-.315.593 0 1.166.164 1.716.492l-.807 2.272c-.439-.284-.847-.426-1.225-.426-.365 0-.674.102-.928.306-.253.198-.454.56-.603 1.085-.142.526-.213 1.627-.213 3.303zm9.593-5.065c0-.866.213-1.704.64-2.515.427-.81 1.03-1.428 1.809-1.855.786-.427 1.661-.64 2.626-.64 1.49 0 2.712.485 3.664 1.456.953.965 1.429 2.187 1.429 3.665 0 1.49-.483 2.727-1.447 3.711-.959.977-2.168 1.466-3.628 1.466-.903 0-1.766-.204-2.588-.613-.817-.408-1.438-1.005-1.865-1.79-.427-.792-.64-1.754-.64-2.885zm2.672.139c0 .977.232 1.725.696 2.245.463.519 1.036.779 1.716.779s1.249-.26 1.707-.779c.464-.52.696-1.274.696-2.264 0-.965-.232-1.707-.696-2.226-.458-.52-1.027-.78-1.707-.78s-1.253.26-1.716.78c-.464.519-.696 1.268-.696 2.245zm11.383 4.926-3.117-9.853h2.533l1.846 6.457 1.698-6.457h2.514l1.642 6.457 1.883-6.457h2.57l-3.164 9.853h-2.505l-1.697-6.336-1.67 6.336zm21.913 0h-2.607v-5.028c0-1.064-.055-1.751-.167-2.06-.111-.315-.294-.56-.547-.733-.248-.173-.548-.26-.9-.26-.452 0-.857.124-1.215.372-.359.247-.607.575-.743.983-.129.408-.194 1.163-.194 2.264v4.462h-2.607v-9.853h2.421v1.448c.86-1.114 1.942-1.67 3.247-1.67.575 0 1.101.105 1.577.315.476.204.835.467 1.076.789.248.321.418.686.511 1.095.099.408.148.992.148 1.753zm14.287-5v-2.292h5.919v5.418c-.575.557-1.41 1.048-2.505 1.475-1.088.421-2.192.631-3.312.631-1.422 0-2.662-.297-3.72-.891-1.058-.6-1.852-1.453-2.384-2.56-.532-1.114-.798-2.323-.798-3.628 0-1.416.297-2.675.891-3.776.593-1.1 1.462-1.945 2.606-2.532.873-.452 1.958-.678 3.257-.678 1.688 0 3.006.356 3.952 1.067.952.705 1.565 1.683 1.837 2.932l-2.728.51c-.191-.668-.553-1.193-1.085-1.577-.526-.39-1.184-.584-1.976-.584-1.2 0-2.156.38-2.867 1.141-.705.761-1.057 1.889-1.057 3.386 0 1.614.358 2.826 1.076 3.637.717.804 1.657 1.206 2.82 1.206.575 0 1.15-.112 1.726-.334.581-.229 1.079-.504 1.493-.826v-1.725zm8.248-4.853h2.403v1.346c.859-1.046 1.883-1.568 3.07-1.568.631 0 1.179.13 1.643.389.463.26.844.653 1.141 1.179.433-.526.9-.919 1.401-1.179.5-.259 1.035-.389 1.604-.389.724 0 1.336.148 1.837.445.501.291.876.721 1.123 1.29.179.42.269 1.101.269 2.041v6.299h-2.607v-5.631c0-.978-.09-1.608-.269-1.893-.241-.371-.612-.557-1.113-.557-.365 0-.708.112-1.03.334-.322.223-.554.551-.696.984-.142.427-.213 1.104-.213 2.032v4.731h-2.607v-5.399c0-.959-.047-1.578-.139-1.856-.093-.278-.238-.485-.436-.621-.192-.137-.455-.205-.789-.205-.402 0-.764.109-1.085.325-.322.217-.554.529-.696.937-.136.408-.204 1.086-.204 2.032v4.787h-2.607zm19.046 3.006-2.366-.426c.266-.953.724-1.658 1.373-2.116.65-.457 1.615-.686 2.895-.686 1.163 0 2.029.139 2.598.417.569.272.968.622 1.196 1.049.235.42.353 1.196.353 2.328l-.028 3.043c0 .866.04 1.506.121 1.921.086.408.244.847.473 1.317h-2.579c-.068-.173-.152-.43-.251-.77-.043-.155-.074-.257-.092-.306-.446.433-.922.757-1.429.974-.507.216-1.048.325-1.624.325-1.014 0-1.815-.276-2.403-.826-.581-.55-.872-1.246-.872-2.087 0-.557.133-1.052.399-1.485.266-.439.637-.773 1.114-1.002.482-.235 1.175-.439 2.078-.612 1.218-.229 2.062-.442 2.532-.64v-.26c0-.501-.123-.857-.371-1.067-.247-.216-.714-.325-1.401-.325-.463 0-.825.093-1.085.279-.26.179-.47.498-.631.955zm3.488 2.116c-.334.111-.862.244-1.586.398-.724.155-1.197.307-1.419.455-.341.241-.511.547-.511.919 0 .364.136.68.409.946.272.266.618.399 1.039.399.47 0 .918-.155 1.345-.464.315-.235.522-.523.621-.863.068-.223.102-.646.102-1.271zm5.14-6.457v-2.413h2.607v2.413zm0 11.188v-9.853h2.607v9.853zm5.288 0v-13.601h2.607v13.601zm12.525-6.847-2.366-.426c.266-.953.724-1.658 1.373-2.116.649-.457 1.614-.686 2.894-.686 1.163 0 2.029.139 2.598.417.569.272.968.622 1.197 1.049.235.42.352 1.196.352 2.328l-.027 3.043c0 .866.04 1.506.12 1.921.087.408.245.847.473 1.317h-2.579c-.068-.173-.151-.43-.25-.77-.044-.155-.074-.257-.093-.306-.445.433-.922.757-1.429.974-.507.216-1.048.325-1.623.325-1.015 0-1.816-.276-2.403-.826-.581-.55-.872-1.246-.872-2.087 0-.557.133-1.052.399-1.485.266-.439.637-.773 1.113-1.002.482-.235 1.175-.439 2.078-.612 1.219-.229 2.063-.442 2.533-.64v-.26c0-.501-.124-.857-.371-1.067-.248-.216-.715-.325-1.401-.325-.464 0-.826.093-1.086.279-.259.179-.47.498-.63.955zm3.488 2.116c-.334.111-.863.244-1.587.398-.723.155-1.196.307-1.419.455-.34.241-.51.547-.51.919 0 .364.136.68.408.946s.618.399 1.039.399c.47 0 .918-.155 1.345-.464.316-.235.523-.523.622-.863.068-.223.102-.646.102-1.271zm13.73-2.208-2.569.463c-.087-.513-.285-.899-.594-1.159-.303-.26-.699-.39-1.188-.39-.649 0-1.169.226-1.558.677-.384.446-.576 1.194-.576 2.245 0 1.169.195 1.995.585 2.478.396.482.925.723 1.586.723.495 0 .9-.139 1.216-.417.315-.285.538-.77.668-1.457l2.56.436c-.266 1.175-.776 2.063-1.531 2.663-.754.6-1.765.9-3.033.9-1.441 0-2.592-.455-3.451-1.364-.854-.909-1.281-2.168-1.281-3.776 0-1.627.43-2.891 1.29-3.794.86-.91 2.022-1.364 3.488-1.364 1.2 0 2.153.26 2.858.779.711.513 1.221 1.299 1.53 2.357zm10.577 0-2.57.463c-.087-.513-.285-.899-.594-1.159-.303-.26-.699-.39-1.188-.39-.649 0-1.168.226-1.558.677-.384.446-.575 1.194-.575 2.245 0 1.169.194 1.995.584 2.478.396.482.925.723 1.587.723.494 0 .899-.139 1.215-.417.315-.285.538-.77.668-1.457l2.56.436c-.266 1.175-.776 2.063-1.53 2.663-.755.6-1.766.9-3.034.9-1.441 0-2.592-.455-3.451-1.364-.854-.909-1.28-2.168-1.28-3.776 0-1.627.429-2.891 1.289-3.794.86-.91 2.023-1.364 3.488-1.364 1.2 0 2.153.26 2.858.779.711.513 1.221 1.299 1.531 2.357zm1.382 1.874c0-.866.213-1.704.64-2.515.427-.81 1.03-1.428 1.809-1.855.786-.427 1.661-.64 2.626-.64 1.49 0 2.712.485 3.664 1.456.953.965 1.429 2.187 1.429 3.665 0 1.49-.483 2.727-1.447 3.711-.959.977-2.168 1.466-3.628 1.466-.903 0-1.766-.204-2.588-.613-.817-.408-1.438-1.005-1.865-1.79-.427-.792-.64-1.754-.64-2.885zm2.672.139c0 .977.232 1.725.696 2.245.463.519 1.035.779 1.716.779.68 0 1.249-.26 1.707-.779.464-.52.696-1.274.696-2.264 0-.965-.232-1.707-.696-2.226-.458-.52-1.027-.78-1.707-.78-.681 0-1.253.26-1.716.78-.464.519-.696 1.268-.696 2.245zm16.031 4.926v-1.475c-.359.526-.832.94-1.419 1.243-.582.303-1.197.455-1.847.455-.661 0-1.255-.146-1.781-.436-.526-.291-.906-.699-1.141-1.225s-.353-1.252-.353-2.18v-6.235h2.607v4.528c0 1.385.047 2.236.14 2.551.099.309.275.557.528.742.254.18.576.269.965.269.446 0 .844-.12 1.197-.362.353-.247.594-.55.724-.909.129-.365.194-1.252.194-2.662v-4.157h2.607v9.853zm14.092 0h-2.607v-5.028c0-1.064-.055-1.751-.167-2.06-.111-.315-.293-.56-.547-.733-.247-.173-.547-.26-.9-.26-.451 0-.857.124-1.215.372-.359.247-.606.575-.742.983-.13.408-.195 1.163-.195 2.264v4.462h-2.607v-9.853h2.421v1.448c.86-1.114 1.942-1.67 3.247-1.67.575 0 1.101.105 1.577.315.477.204.835.467 1.077.789.247.321.417.686.51 1.095.099.408.148.992.148 1.753zm7.172-9.853v2.079h-1.782v3.97c0 .804.016 1.274.047 1.41.037.13.114.239.232.325.123.087.272.13.445.13.241 0 .591-.083 1.048-.25l.223 2.022c-.606.26-1.293.39-2.06.39-.47 0-.893-.078-1.271-.232-.377-.161-.655-.365-.834-.613-.174-.253-.294-.593-.362-1.02-.056-.303-.084-.915-.084-1.837v-4.295h-1.197v-2.079h1.197v-1.957l2.616-1.522v3.479z" fill="#50608d"/></g></svg>