<svg width="1200" height="800" viewBox="0 0 1200 800" fill="none" xmlns="http://www.w3.org/2000/svg">
<g clip-path="url(#clip0_105_1405)">
<path d="M1160 0H40C17.9086 0 0 17.9086 0 40V760C0 782.091 17.9086 800 40 800H1160C1182.09 800 1200 782.091 1200 760V40C1200 17.9086 1182.09 0 1160 0Z" fill="url(#paint0_linear_105_1405)"/>
<path d="M256 70H94C81.8497 70 72 79.8497 72 92C72 104.15 81.8497 114 94 114H256C268.15 114 278 104.15 278 92C278 79.8497 268.15 70 256 70Z" fill="#E6EEFF"/>
<path d="M99.043 91.5156C99.043 89.7656 99.3047 88.2969 99.8281 87.1094C100.219 86.2344 100.75 85.4492 101.422 84.7539C102.102 84.0586 102.844 83.543 103.648 83.207C104.719 82.7539 105.953 82.5273 107.352 82.5273C109.883 82.5273 111.906 83.3125 113.422 84.8828C114.945 86.4531 115.707 88.6367 115.707 91.4336C115.707 94.207 114.953 96.3789 113.445 97.9492C111.938 99.5117 109.922 100.293 107.398 100.293C104.844 100.293 102.812 99.5156 101.305 97.9609C99.7969 96.3984 99.043 94.25 99.043 91.5156ZM102.617 91.3984C102.617 93.3438 103.066 94.8203 103.965 95.8281C104.863 96.8281 106.004 97.3281 107.387 97.3281C108.77 97.3281 109.902 96.832 110.785 95.8398C111.676 94.8398 112.121 93.3438 112.121 91.3516C112.121 89.3828 111.688 87.9141 110.82 86.9453C109.961 85.9766 108.816 85.4922 107.387 85.4922C105.957 85.4922 104.805 85.9844 103.93 86.9688C103.055 87.9453 102.617 89.4219 102.617 91.3984ZM116.961 87.5547H118.789V86.6172C118.789 85.5703 118.898 84.7891 119.117 84.2734C119.344 83.7578 119.754 83.3398 120.348 83.0195C120.949 82.6914 121.707 82.5273 122.621 82.5273C123.559 82.5273 124.477 82.668 125.375 82.9492L124.93 85.2461C124.406 85.1211 123.902 85.0586 123.418 85.0586C122.941 85.0586 122.598 85.1719 122.387 85.3984C122.184 85.6172 122.082 86.043 122.082 86.6758V87.5547H124.543V90.1445H122.082V100H118.789V90.1445H116.961V87.5547ZM124.953 87.5547H126.781V86.6172C126.781 85.5703 126.891 84.7891 127.109 84.2734C127.336 83.7578 127.746 83.3398 128.34 83.0195C128.941 82.6914 129.699 82.5273 130.613 82.5273C131.551 82.5273 132.469 82.668 133.367 82.9492L132.922 85.2461C132.398 85.1211 131.895 85.0586 131.41 85.0586C130.934 85.0586 130.59 85.1719 130.379 85.3984C130.176 85.6172 130.074 86.043 130.074 86.6758V87.5547H132.535V90.1445H130.074V100H126.781V90.1445H124.953V87.5547ZM134.387 100V82.8203H137.68V100H134.387ZM141.066 85.8672V82.8203H144.359V85.8672H141.066ZM141.066 100V87.5547H144.359V100H141.066ZM159.066 100H155.773V93.6484C155.773 92.3047 155.703 91.4375 155.562 91.0469C155.422 90.6484 155.191 90.3398 154.871 90.1211C154.559 89.9023 154.18 89.793 153.734 89.793C153.164 89.793 152.652 89.9492 152.199 90.2617C151.746 90.5742 151.434 90.9883 151.262 91.5039C151.098 92.0195 151.016 92.9727 151.016 94.3633V100H147.723V87.5547H150.781V89.3828C151.867 87.9766 153.234 87.2734 154.883 87.2734C155.609 87.2734 156.273 87.4062 156.875 87.6719C157.477 87.9297 157.93 88.2617 158.234 88.668C158.547 89.0742 158.762 89.5352 158.879 90.0508C159.004 90.5664 159.066 91.3047 159.066 92.2656V100ZM169.625 96.0391L172.906 96.5898C172.484 97.793 171.816 98.7109 170.902 99.3438C169.996 99.9688 168.859 100.281 167.492 100.281C165.328 100.281 163.727 99.5742 162.688 98.1602C161.867 97.0273 161.457 95.5977 161.457 93.8711C161.457 91.8086 161.996 90.1953 163.074 89.0312C164.152 87.8594 165.516 87.2734 167.164 87.2734C169.016 87.2734 170.477 87.8867 171.547 89.1133C172.617 90.332 173.129 92.2031 173.082 94.7266H164.832C164.855 95.7031 165.121 96.4648 165.629 97.0117C166.137 97.5508 166.77 97.8203 167.527 97.8203C168.043 97.8203 168.477 97.6797 168.828 97.3984C169.18 97.1172 169.445 96.6641 169.625 96.0391ZM169.812 92.7109C169.789 91.7578 169.543 91.0352 169.074 90.543C168.605 90.043 168.035 89.793 167.363 89.793C166.645 89.793 166.051 90.0547 165.582 90.5781C165.113 91.1016 164.883 91.8125 164.891 92.7109H169.812ZM190.59 104.734V98.4766C190.16 99.0312 189.625 99.4727 188.984 99.8008C188.344 100.121 187.652 100.281 186.91 100.281C185.496 100.281 184.332 99.75 183.418 98.6875C182.34 97.4453 181.801 95.7617 181.801 93.6367C181.801 91.6367 182.305 90.0781 183.312 88.9609C184.328 87.8359 185.586 87.2734 187.086 87.2734C187.914 87.2734 188.629 87.4492 189.23 87.8008C189.84 88.1523 190.379 88.6836 190.848 89.3945V87.5547H193.883V104.734H190.59ZM190.695 93.625C190.695 92.3516 190.434 91.4062 189.91 90.7891C189.395 90.1641 188.746 89.8516 187.965 89.8516C187.168 89.8516 186.5 90.168 185.961 90.8008C185.43 91.4336 185.164 92.4375 185.164 93.8125C185.164 95.1797 185.422 96.168 185.938 96.7773C186.453 97.3789 187.09 97.6797 187.848 97.6797C188.605 97.6797 189.27 97.3398 189.84 96.6602C190.41 95.9805 190.695 94.9688 190.695 93.625ZM205.32 100V98.1367C204.867 98.8008 204.27 99.3242 203.527 99.707C202.793 100.09 202.016 100.281 201.195 100.281C200.359 100.281 199.609 100.098 198.945 99.7305C198.281 99.3633 197.801 98.8477 197.504 98.1836C197.207 97.5195 197.059 96.6016 197.059 95.4297V87.5547H200.352V93.2734C200.352 95.0234 200.41 96.0977 200.527 96.4961C200.652 96.8867 200.875 97.1992 201.195 97.4336C201.516 97.6602 201.922 97.7734 202.414 97.7734C202.977 97.7734 203.48 97.6211 203.926 97.3164C204.371 97.0039 204.676 96.6211 204.84 96.168C205.004 95.707 205.086 94.5859 205.086 92.8047V87.5547H208.379V100H205.32ZM219.008 96.0391L222.289 96.5898C221.867 97.793 221.199 98.7109 220.285 99.3438C219.379 99.9688 218.242 100.281 216.875 100.281C214.711 100.281 213.109 99.5742 212.07 98.1602C211.25 97.0273 210.84 95.5977 210.84 93.8711C210.84 91.8086 211.379 90.1953 212.457 89.0312C213.535 87.8594 214.898 87.2734 216.547 87.2734C218.398 87.2734 219.859 87.8867 220.93 89.1133C222 90.332 222.512 92.2031 222.465 94.7266H214.215C214.238 95.7031 214.504 96.4648 215.012 97.0117C215.52 97.5508 216.152 97.8203 216.91 97.8203C217.426 97.8203 217.859 97.6797 218.211 97.3984C218.562 97.1172 218.828 96.6641 219.008 96.0391ZM219.195 92.7109C219.172 91.7578 218.926 91.0352 218.457 90.543C217.988 90.043 217.418 89.793 216.746 89.793C216.027 89.793 215.434 90.0547 214.965 90.5781C214.496 91.1016 214.266 91.8125 214.273 92.7109H219.195ZM233.352 100V98.1367C232.898 98.8008 232.301 99.3242 231.559 99.707C230.824 100.09 230.047 100.281 229.227 100.281C228.391 100.281 227.641 100.098 226.977 99.7305C226.312 99.3633 225.832 98.8477 225.535 98.1836C225.238 97.5195 225.09 96.6016 225.09 95.4297V87.5547H228.383V93.2734C228.383 95.0234 228.441 96.0977 228.559 96.4961C228.684 96.8867 228.906 97.1992 229.227 97.4336C229.547 97.6602 229.953 97.7734 230.445 97.7734C231.008 97.7734 231.512 97.6211 231.957 97.3164C232.402 97.0039 232.707 96.6211 232.871 96.168C233.035 95.707 233.117 94.5859 233.117 92.8047V87.5547H236.41V100H233.352ZM247.039 96.0391L250.32 96.5898C249.898 97.793 249.23 98.7109 248.316 99.3438C247.41 99.9688 246.273 100.281 244.906 100.281C242.742 100.281 241.141 99.5742 240.102 98.1602C239.281 97.0273 238.871 95.5977 238.871 93.8711C238.871 91.8086 239.41 90.1953 240.488 89.0312C241.566 87.8594 242.93 87.2734 244.578 87.2734C246.43 87.2734 247.891 87.8867 248.961 89.1133C250.031 90.332 250.543 92.2031 250.496 94.7266H242.246C242.27 95.7031 242.535 96.4648 243.043 97.0117C243.551 97.5508 244.184 97.8203 244.941 97.8203C245.457 97.8203 245.891 97.6797 246.242 97.3984C246.594 97.1172 246.859 96.6641 247.039 96.0391ZM247.227 92.7109C247.203 91.7578 246.957 91.0352 246.488 90.543C246.02 90.043 245.449 89.793 244.777 89.793C244.059 89.793 243.465 90.0547 242.996 90.5781C242.527 91.1016 242.297 91.8125 242.305 92.7109H247.227Z" fill="#2B56CE"/>
<path d="M934 152H266C243.909 152 226 169.909 226 192V608C226 630.091 243.909 648 266 648H934C956.091 648 974 630.091 974 608V192C974 169.909 956.091 152 934 152Z" fill="white" stroke="#DDE6FF"/>
<path d="M890 216H306C293.85 216 284 225.85 284 238V276C284 288.15 293.85 298 306 298H890C902.15 298 912 288.15 912 276V238C912 225.85 902.15 216 890 216Z" fill="#F3F7FF"/>
<path d="M327 270C334.18 270 340 264.18 340 257C340 249.82 334.18 244 327 244C319.82 244 314 249.82 314 257C314 264.18 319.82 270 327 270Z" fill="#FDBA47"/>
<path d="M562 241H362C358.134 241 355 244.134 355 248C355 251.866 358.134 255 362 255H562C565.866 255 569 251.866 569 248C569 244.134 565.866 241 562 241Z" fill="#D7E2FF"/>
<path d="M495 264H361C357.686 264 355 266.686 355 270C355 273.314 357.686 276 361 276H495C498.314 276 501 273.314 501 270C501 266.686 498.314 264 495 264Z" fill="#E4ECFF"/>
<path d="M851 235H763C751.402 235 742 244.402 742 256C742 267.598 751.402 277 763 277H851C862.598 277 872 267.598 872 256C872 244.402 862.598 235 851 235Z" fill="#EAF0FF"/>
<path d="M782.979 261.184C783.688 261.691 784.46 262.095 785.293 262.395L784.229 264.436C783.792 264.305 783.366 264.126 782.949 263.898C782.858 263.853 782.217 263.43 781.025 262.629C780.088 263.039 779.049 263.244 777.91 263.244C775.71 263.244 773.984 262.596 772.734 261.301C771.491 260.005 770.869 258.186 770.869 255.842C770.869 253.505 771.494 251.688 772.744 250.393C773.994 249.09 775.69 248.439 777.832 248.439C779.954 248.439 781.637 249.09 782.881 250.393C784.124 251.688 784.746 253.505 784.746 255.842C784.746 257.079 784.574 258.166 784.229 259.104C783.968 259.82 783.551 260.513 782.979 261.184ZM780.654 259.553C781.025 259.117 781.302 258.589 781.484 257.971C781.673 257.352 781.768 256.643 781.768 255.842C781.768 254.188 781.403 252.954 780.674 252.141C779.945 251.32 778.991 250.91 777.812 250.91C776.634 250.91 775.677 251.32 774.941 252.141C774.212 252.961 773.848 254.195 773.848 255.842C773.848 257.515 774.212 258.768 774.941 259.602C775.677 260.428 776.605 260.842 777.725 260.842C778.141 260.842 778.535 260.773 778.906 260.637C778.32 260.253 777.725 259.953 777.119 259.738L777.93 258.088C778.88 258.413 779.788 258.902 780.654 259.553ZM793.828 263V261.447C793.451 262.001 792.952 262.437 792.334 262.756C791.722 263.075 791.074 263.234 790.391 263.234C789.694 263.234 789.069 263.081 788.516 262.775C787.962 262.469 787.562 262.04 787.314 261.486C787.067 260.933 786.943 260.168 786.943 259.191V252.629H789.688V257.395C789.688 258.853 789.736 259.748 789.834 260.08C789.938 260.406 790.124 260.666 790.391 260.861C790.658 261.05 790.996 261.145 791.406 261.145C791.875 261.145 792.295 261.018 792.666 260.764C793.037 260.503 793.291 260.184 793.428 259.807C793.564 259.423 793.633 258.488 793.633 257.004V252.629H796.377V263H793.828ZM805.234 259.699L807.969 260.158C807.617 261.161 807.061 261.926 806.299 262.453C805.544 262.974 804.596 263.234 803.457 263.234C801.654 263.234 800.319 262.645 799.453 261.467C798.77 260.523 798.428 259.331 798.428 257.893C798.428 256.174 798.877 254.829 799.775 253.859C800.674 252.883 801.81 252.395 803.184 252.395C804.727 252.395 805.944 252.906 806.836 253.928C807.728 254.943 808.154 256.503 808.115 258.605H801.24C801.26 259.419 801.481 260.054 801.904 260.51C802.327 260.959 802.855 261.184 803.486 261.184C803.916 261.184 804.277 261.066 804.57 260.832C804.863 260.598 805.085 260.22 805.234 259.699ZM805.391 256.926C805.371 256.132 805.166 255.529 804.775 255.119C804.385 254.702 803.91 254.494 803.35 254.494C802.751 254.494 802.256 254.712 801.865 255.148C801.475 255.585 801.283 256.177 801.289 256.926H805.391ZM817.188 263V261.447C816.81 262.001 816.312 262.437 815.693 262.756C815.081 263.075 814.434 263.234 813.75 263.234C813.053 263.234 812.428 263.081 811.875 262.775C811.322 262.469 810.921 262.04 810.674 261.486C810.426 260.933 810.303 260.168 810.303 259.191V252.629H813.047V257.395C813.047 258.853 813.096 259.748 813.193 260.08C813.298 260.406 813.483 260.666 813.75 260.861C814.017 261.05 814.355 261.145 814.766 261.145C815.234 261.145 815.654 261.018 816.025 260.764C816.396 260.503 816.65 260.184 816.787 259.807C816.924 259.423 816.992 258.488 816.992 257.004V252.629H819.736V263H817.188ZM828.594 259.699L831.328 260.158C830.977 261.161 830.42 261.926 829.658 262.453C828.903 262.974 827.956 263.234 826.816 263.234C825.013 263.234 823.678 262.645 822.812 261.467C822.129 260.523 821.787 259.331 821.787 257.893C821.787 256.174 822.236 254.829 823.135 253.859C824.033 252.883 825.169 252.395 826.543 252.395C828.086 252.395 829.303 252.906 830.195 253.928C831.087 254.943 831.514 256.503 831.475 258.605H824.6C824.619 259.419 824.84 260.054 825.264 260.51C825.687 260.959 826.214 261.184 826.846 261.184C827.275 261.184 827.637 261.066 827.93 260.832C828.223 260.598 828.444 260.22 828.594 259.699ZM828.75 256.926C828.73 256.132 828.525 255.529 828.135 255.119C827.744 254.702 827.269 254.494 826.709 254.494C826.11 254.494 825.615 254.712 825.225 255.148C824.834 255.585 824.642 256.177 824.648 256.926H828.75ZM843.232 263H840.684V261.477C840.26 262.069 839.759 262.512 839.18 262.805C838.607 263.091 838.027 263.234 837.441 263.234C836.25 263.234 835.228 262.756 834.375 261.799C833.529 260.835 833.105 259.494 833.105 257.775C833.105 256.018 833.519 254.683 834.346 253.771C835.173 252.854 836.217 252.395 837.48 252.395C838.639 252.395 839.642 252.876 840.488 253.84V248.684H843.232V263ZM835.908 257.59C835.908 258.697 836.061 259.497 836.367 259.992C836.81 260.708 837.428 261.066 838.223 261.066C838.854 261.066 839.391 260.799 839.834 260.266C840.277 259.725 840.498 258.921 840.498 257.854C840.498 256.662 840.283 255.806 839.854 255.285C839.424 254.758 838.874 254.494 838.203 254.494C837.552 254.494 837.005 254.755 836.562 255.275C836.126 255.79 835.908 256.561 835.908 257.59Z" fill="#4661A8"/>
<path d="M890 319H306C293.85 319 284 328.85 284 341V379C284 391.15 293.85 401 306 401H890C902.15 401 912 391.15 912 379V341C912 328.85 902.15 319 890 319Z" fill="#F8FAFF"/>
<path d="M327 373C334.18 373 340 367.18 340 360C340 352.82 334.18 347 327 347C319.82 347 314 352.82 314 360C314 367.18 319.82 373 327 373Z" fill="#FDBA47"/>
<path d="M536 344H362C358.134 344 355 347.134 355 351C355 354.866 358.134 358 362 358H536C539.866 358 543 354.866 543 351C543 347.134 539.866 344 536 344Z" fill="#DCE6FF"/>
<path d="M521 367H361C357.686 367 355 369.686 355 373C355 376.314 357.686 379 361 379H521C524.314 379 527 376.314 527 373C527 369.686 524.314 367 521 367Z" fill="#EAF0FF"/>
<path d="M851 338H763C751.402 338 742 347.402 742 359C742 370.598 751.402 380 763 380H851C862.598 380 872 370.598 872 359C872 347.402 862.598 338 851 338Z" fill="#EAF0FF"/>
<path d="M782.979 364.184C783.688 364.691 784.46 365.095 785.293 365.395L784.229 367.436C783.792 367.305 783.366 367.126 782.949 366.898C782.858 366.853 782.217 366.43 781.025 365.629C780.088 366.039 779.049 366.244 777.91 366.244C775.71 366.244 773.984 365.596 772.734 364.301C771.491 363.005 770.869 361.186 770.869 358.842C770.869 356.505 771.494 354.688 772.744 353.393C773.994 352.09 775.69 351.439 777.832 351.439C779.954 351.439 781.637 352.09 782.881 353.393C784.124 354.688 784.746 356.505 784.746 358.842C784.746 360.079 784.574 361.166 784.229 362.104C783.968 362.82 783.551 363.513 782.979 364.184ZM780.654 362.553C781.025 362.117 781.302 361.589 781.484 360.971C781.673 360.352 781.768 359.643 781.768 358.842C781.768 357.188 781.403 355.954 780.674 355.141C779.945 354.32 778.991 353.91 777.812 353.91C776.634 353.91 775.677 354.32 774.941 355.141C774.212 355.961 773.848 357.195 773.848 358.842C773.848 360.515 774.212 361.768 774.941 362.602C775.677 363.428 776.605 363.842 777.725 363.842C778.141 363.842 778.535 363.773 778.906 363.637C778.32 363.253 777.725 362.953 777.119 362.738L777.93 361.088C778.88 361.413 779.788 361.902 780.654 362.553ZM793.828 366V364.447C793.451 365.001 792.952 365.437 792.334 365.756C791.722 366.075 791.074 366.234 790.391 366.234C789.694 366.234 789.069 366.081 788.516 365.775C787.962 365.469 787.562 365.04 787.314 364.486C787.067 363.933 786.943 363.168 786.943 362.191V355.629H789.688V360.395C789.688 361.853 789.736 362.748 789.834 363.08C789.938 363.406 790.124 363.666 790.391 363.861C790.658 364.05 790.996 364.145 791.406 364.145C791.875 364.145 792.295 364.018 792.666 363.764C793.037 363.503 793.291 363.184 793.428 362.807C793.564 362.423 793.633 361.488 793.633 360.004V355.629H796.377V366H793.828ZM805.234 362.699L807.969 363.158C807.617 364.161 807.061 364.926 806.299 365.453C805.544 365.974 804.596 366.234 803.457 366.234C801.654 366.234 800.319 365.645 799.453 364.467C798.77 363.523 798.428 362.331 798.428 360.893C798.428 359.174 798.877 357.829 799.775 356.859C800.674 355.883 801.81 355.395 803.184 355.395C804.727 355.395 805.944 355.906 806.836 356.928C807.728 357.943 808.154 359.503 808.115 361.605H801.24C801.26 362.419 801.481 363.054 801.904 363.51C802.327 363.959 802.855 364.184 803.486 364.184C803.916 364.184 804.277 364.066 804.57 363.832C804.863 363.598 805.085 363.22 805.234 362.699ZM805.391 359.926C805.371 359.132 805.166 358.529 804.775 358.119C804.385 357.702 803.91 357.494 803.35 357.494C802.751 357.494 802.256 357.712 801.865 358.148C801.475 358.585 801.283 359.177 801.289 359.926H805.391ZM817.188 366V364.447C816.81 365.001 816.312 365.437 815.693 365.756C815.081 366.075 814.434 366.234 813.75 366.234C813.053 366.234 812.428 366.081 811.875 365.775C811.322 365.469 810.921 365.04 810.674 364.486C810.426 363.933 810.303 363.168 810.303 362.191V355.629H813.047V360.395C813.047 361.853 813.096 362.748 813.193 363.08C813.298 363.406 813.483 363.666 813.75 363.861C814.017 364.05 814.355 364.145 814.766 364.145C815.234 364.145 815.654 364.018 816.025 363.764C816.396 363.503 816.65 363.184 816.787 362.807C816.924 362.423 816.992 361.488 816.992 360.004V355.629H819.736V366H817.188ZM828.594 362.699L831.328 363.158C830.977 364.161 830.42 364.926 829.658 365.453C828.903 365.974 827.956 366.234 826.816 366.234C825.013 366.234 823.678 365.645 822.812 364.467C822.129 363.523 821.787 362.331 821.787 360.893C821.787 359.174 822.236 357.829 823.135 356.859C824.033 355.883 825.169 355.395 826.543 355.395C828.086 355.395 829.303 355.906 830.195 356.928C831.087 357.943 831.514 359.503 831.475 361.605H824.6C824.619 362.419 824.84 363.054 825.264 363.51C825.687 363.959 826.214 364.184 826.846 364.184C827.275 364.184 827.637 364.066 827.93 363.832C828.223 363.598 828.444 363.22 828.594 362.699ZM828.75 359.926C828.73 359.132 828.525 358.529 828.135 358.119C827.744 357.702 827.269 357.494 826.709 357.494C826.11 357.494 825.615 357.712 825.225 358.148C824.834 358.585 824.642 359.177 824.648 359.926H828.75ZM843.232 366H840.684V364.477C840.26 365.069 839.759 365.512 839.18 365.805C838.607 366.091 838.027 366.234 837.441 366.234C836.25 366.234 835.228 365.756 834.375 364.799C833.529 363.835 833.105 362.494 833.105 360.775C833.105 359.018 833.519 357.683 834.346 356.771C835.173 355.854 836.217 355.395 837.48 355.395C838.639 355.395 839.642 355.876 840.488 356.84V351.684H843.232V366ZM835.908 360.59C835.908 361.697 836.061 362.497 836.367 362.992C836.81 363.708 837.428 364.066 838.223 364.066C838.854 364.066 839.391 363.799 839.834 363.266C840.277 362.725 840.498 361.921 840.498 360.854C840.498 359.662 840.283 358.806 839.854 358.285C839.424 357.758 838.874 357.494 838.203 357.494C837.552 357.494 837.005 357.755 836.562 358.275C836.126 358.79 835.908 359.561 835.908 360.59Z" fill="#4661A8"/>
<path d="M890 422H306C293.85 422 284 431.85 284 444V482C284 494.15 293.85 504 306 504H890C902.15 504 912 494.15 912 482V444C912 431.85 902.15 422 890 422Z" fill="#F8FBFF"/>
<path d="M327 476C334.18 476 340 470.18 340 463C340 455.82 334.18 450 327 450C319.82 450 314 455.82 314 463C314 470.18 319.82 476 327 476Z" fill="#26C671"/>
<path d="M588 447H362C358.134 447 355 450.134 355 454C355 457.866 358.134 461 362 461H588C591.866 461 595 457.866 595 454C595 450.134 591.866 447 588 447Z" fill="#DCE6FF"/>
<path d="M493 470H361C357.686 470 355 472.686 355 476C355 479.314 357.686 482 361 482H493C496.314 482 499 479.314 499 476C499 472.686 496.314 470 493 470Z" fill="#EAF0FF"/>
<path d="M851 441H751C739.402 441 730 450.402 730 462C730 473.598 739.402 483 751 483H851C862.598 483 872 473.598 872 462C872 450.402 862.598 441 851 441Z" fill="#E7FFF1"/>
<path d="M779.723 464.342L782.535 464.068C782.704 465.012 783.046 465.706 783.561 466.148C784.081 466.591 784.781 466.812 785.66 466.812C786.591 466.812 787.291 466.617 787.76 466.227C788.235 465.829 788.473 465.367 788.473 464.84C788.473 464.501 788.372 464.215 788.17 463.98C787.975 463.74 787.63 463.531 787.135 463.355C786.796 463.238 786.025 463.03 784.82 462.73C783.271 462.346 782.184 461.874 781.559 461.314C780.68 460.527 780.24 459.566 780.24 458.434C780.24 457.704 780.445 457.024 780.855 456.393C781.272 455.755 781.868 455.27 782.643 454.938C783.424 454.605 784.365 454.439 785.465 454.439C787.262 454.439 788.613 454.833 789.518 455.621C790.429 456.409 790.908 457.46 790.953 458.775L788.062 458.902C787.939 458.167 787.672 457.639 787.262 457.32C786.858 456.995 786.249 456.832 785.436 456.832C784.596 456.832 783.938 457.005 783.463 457.35C783.157 457.571 783.004 457.867 783.004 458.238C783.004 458.577 783.147 458.867 783.434 459.107C783.798 459.413 784.684 459.732 786.09 460.064C787.496 460.396 788.535 460.742 789.205 461.1C789.882 461.451 790.41 461.936 790.787 462.555C791.171 463.167 791.363 463.925 791.363 464.83C791.363 465.65 791.135 466.419 790.68 467.135C790.224 467.851 789.579 468.385 788.746 468.736C787.913 469.081 786.874 469.254 785.631 469.254C783.821 469.254 782.431 468.837 781.461 468.004C780.491 467.164 779.911 465.943 779.723 464.342ZM799.781 465.699L802.516 466.158C802.164 467.161 801.607 467.926 800.846 468.453C800.09 468.974 799.143 469.234 798.004 469.234C796.201 469.234 794.866 468.645 794 467.467C793.316 466.523 792.975 465.331 792.975 463.893C792.975 462.174 793.424 460.829 794.322 459.859C795.221 458.883 796.357 458.395 797.73 458.395C799.273 458.395 800.491 458.906 801.383 459.928C802.275 460.943 802.701 462.503 802.662 464.605H795.787C795.807 465.419 796.028 466.054 796.451 466.51C796.874 466.959 797.402 467.184 798.033 467.184C798.463 467.184 798.824 467.066 799.117 466.832C799.41 466.598 799.632 466.22 799.781 465.699ZM799.938 462.926C799.918 462.132 799.713 461.529 799.322 461.119C798.932 460.702 798.456 460.494 797.896 460.494C797.298 460.494 796.803 460.712 796.412 461.148C796.021 461.585 795.829 462.177 795.836 462.926H799.938ZM814.342 469H811.598V463.707C811.598 462.587 811.539 461.865 811.422 461.539C811.305 461.207 811.113 460.95 810.846 460.768C810.585 460.585 810.27 460.494 809.898 460.494C809.423 460.494 808.997 460.624 808.619 460.885C808.242 461.145 807.981 461.49 807.838 461.92C807.701 462.35 807.633 463.144 807.633 464.303V469H804.889V458.629H807.438V460.152C808.342 458.98 809.482 458.395 810.855 458.395C811.461 458.395 812.014 458.505 812.516 458.727C813.017 458.941 813.395 459.218 813.648 459.557C813.909 459.895 814.088 460.279 814.186 460.709C814.29 461.139 814.342 461.754 814.342 462.555V469ZM821.891 458.629V460.816H820.016V464.996C820.016 465.842 820.032 466.337 820.064 466.48C820.104 466.617 820.185 466.731 820.309 466.822C820.439 466.913 820.595 466.959 820.777 466.959C821.031 466.959 821.399 466.871 821.881 466.695L822.115 468.824C821.477 469.098 820.755 469.234 819.947 469.234C819.452 469.234 819.007 469.153 818.609 468.99C818.212 468.821 817.919 468.606 817.73 468.346C817.548 468.079 817.421 467.721 817.35 467.271C817.291 466.952 817.262 466.308 817.262 465.338V460.816H816.002V458.629H817.262V456.568L820.016 454.967V458.629H821.891Z" fill="#138949"/>
<path d="M604 559C613.4 545.2 637 534.333 647.5 530.5C659 547 694.6 576.1 744 568.5" stroke="url(#paint1_linear_105_1405)" stroke-width="12" stroke-linecap="round"/>
<path d="M744 568.5L723.5 554.5" stroke="url(#paint2_linear_105_1405)" stroke-width="12" stroke-linecap="round"/>
<path d="M744 568.5L726.5 585" stroke="url(#paint3_linear_105_1405)" stroke-width="12" stroke-linecap="round"/>
<path d="M533 546H321C305.536 546 293 558.536 293 574C293 589.464 305.536 602 321 602H533C548.464 602 561 589.464 561 574C561 558.536 548.464 546 533 546Z" fill="url(#paint4_linear_105_1405)"/>
<path d="M307.758 582V564.82H315.059C316.895 564.82 318.227 564.977 319.055 565.289C319.891 565.594 320.559 566.141 321.059 566.93C321.559 567.719 321.809 568.621 321.809 569.637C321.809 570.926 321.43 571.992 320.672 572.836C319.914 573.672 318.781 574.199 317.273 574.418C318.023 574.855 318.641 575.336 319.125 575.859C319.617 576.383 320.277 577.312 321.105 578.648L323.203 582H319.055L316.547 578.262C315.656 576.926 315.047 576.086 314.719 575.742C314.391 575.391 314.043 575.152 313.676 575.027C313.309 574.895 312.727 574.828 311.93 574.828H311.227V582H307.758ZM311.227 572.086H313.793C315.457 572.086 316.496 572.016 316.91 571.875C317.324 571.734 317.648 571.492 317.883 571.148C318.117 570.805 318.234 570.375 318.234 569.859C318.234 569.281 318.078 568.816 317.766 568.465C317.461 568.105 317.027 567.879 316.465 567.785C316.184 567.746 315.34 567.727 313.934 567.727H311.227V572.086ZM332.273 578.039L335.555 578.59C335.133 579.793 334.465 580.711 333.551 581.344C332.645 581.969 331.508 582.281 330.141 582.281C327.977 582.281 326.375 581.574 325.336 580.16C324.516 579.027 324.105 577.598 324.105 575.871C324.105 573.809 324.645 572.195 325.723 571.031C326.801 569.859 328.164 569.273 329.812 569.273C331.664 569.273 333.125 569.887 334.195 571.113C335.266 572.332 335.777 574.203 335.73 576.727H327.48C327.504 577.703 327.77 578.465 328.277 579.012C328.785 579.551 329.418 579.82 330.176 579.82C330.691 579.82 331.125 579.68 331.477 579.398C331.828 579.117 332.094 578.664 332.273 578.039ZM332.461 574.711C332.438 573.758 332.191 573.035 331.723 572.543C331.254 572.043 330.684 571.793 330.012 571.793C329.293 571.793 328.699 572.055 328.23 572.578C327.762 573.102 327.531 573.812 327.539 574.711H332.461ZM344.133 569.555V572.18H341.883V577.195C341.883 578.211 341.902 578.805 341.941 578.977C341.988 579.141 342.086 579.277 342.234 579.387C342.391 579.496 342.578 579.551 342.797 579.551C343.102 579.551 343.543 579.445 344.121 579.234L344.402 581.789C343.637 582.117 342.77 582.281 341.801 582.281C341.207 582.281 340.672 582.184 340.195 581.988C339.719 581.785 339.367 581.527 339.141 581.215C338.922 580.895 338.77 580.465 338.684 579.926C338.613 579.543 338.578 578.77 338.578 577.605V572.18H337.066V569.555H338.578V567.082L341.883 565.16V569.555H344.133ZM349.57 582H346.277V569.555H349.336V571.324C349.859 570.488 350.328 569.938 350.742 569.672C351.164 569.406 351.641 569.273 352.172 569.273C352.922 569.273 353.645 569.48 354.34 569.895L353.32 572.766C352.766 572.406 352.25 572.227 351.773 572.227C351.312 572.227 350.922 572.355 350.602 572.613C350.281 572.863 350.027 573.32 349.84 573.984C349.66 574.648 349.57 576.039 349.57 578.156V582ZM355.77 567.867V564.82H359.062V567.867H355.77ZM355.77 582V569.555H359.062V582H355.77ZM369.656 578.039L372.938 578.59C372.516 579.793 371.848 580.711 370.934 581.344C370.027 581.969 368.891 582.281 367.523 582.281C365.359 582.281 363.758 581.574 362.719 580.16C361.898 579.027 361.488 577.598 361.488 575.871C361.488 573.809 362.027 572.195 363.105 571.031C364.184 569.859 365.547 569.273 367.195 569.273C369.047 569.273 370.508 569.887 371.578 571.113C372.648 572.332 373.16 574.203 373.113 576.727H364.863C364.887 577.703 365.152 578.465 365.66 579.012C366.168 579.551 366.801 579.82 367.559 579.82C368.074 579.82 368.508 579.68 368.859 579.398C369.211 579.117 369.477 578.664 369.656 578.039ZM369.844 574.711C369.82 573.758 369.574 573.035 369.105 572.543C368.637 572.043 368.066 571.793 367.395 571.793C366.676 571.793 366.082 572.055 365.613 572.578C365.145 573.102 364.914 573.812 364.922 574.711H369.844ZM374.648 578.449L377.953 577.945C378.094 578.586 378.379 579.074 378.809 579.41C379.238 579.738 379.84 579.902 380.613 579.902C381.465 579.902 382.105 579.746 382.535 579.434C382.824 579.215 382.969 578.922 382.969 578.555C382.969 578.305 382.891 578.098 382.734 577.934C382.57 577.777 382.203 577.633 381.633 577.5C378.977 576.914 377.293 576.379 376.582 575.895C375.598 575.223 375.105 574.289 375.105 573.094C375.105 572.016 375.531 571.109 376.383 570.375C377.234 569.641 378.555 569.273 380.344 569.273C382.047 569.273 383.312 569.551 384.141 570.105C384.969 570.66 385.539 571.48 385.852 572.566L382.746 573.141C382.613 572.656 382.359 572.285 381.984 572.027C381.617 571.77 381.09 571.641 380.402 571.641C379.535 571.641 378.914 571.762 378.539 572.004C378.289 572.176 378.164 572.398 378.164 572.672C378.164 572.906 378.273 573.105 378.492 573.27C378.789 573.488 379.812 573.797 381.562 574.195C383.32 574.594 384.547 575.082 385.242 575.66C385.93 576.246 386.273 577.062 386.273 578.109C386.273 579.25 385.797 580.23 384.844 581.051C383.891 581.871 382.48 582.281 380.613 582.281C378.918 582.281 377.574 581.938 376.582 581.25C375.598 580.562 374.953 579.629 374.648 578.449ZM398.309 573.352L395.32 572.812C395.656 571.609 396.234 570.719 397.055 570.141C397.875 569.562 399.094 569.273 400.711 569.273C402.18 569.273 403.273 569.449 403.992 569.801C404.711 570.145 405.215 570.586 405.504 571.125C405.801 571.656 405.949 572.637 405.949 574.066L405.914 577.91C405.914 579.004 405.965 579.812 406.066 580.336C406.176 580.852 406.375 581.406 406.664 582H403.406C403.32 581.781 403.215 581.457 403.09 581.027C403.035 580.832 402.996 580.703 402.973 580.641C402.41 581.188 401.809 581.598 401.168 581.871C400.527 582.145 399.844 582.281 399.117 582.281C397.836 582.281 396.824 581.934 396.082 581.238C395.348 580.543 394.98 579.664 394.98 578.602C394.98 577.898 395.148 577.273 395.484 576.727C395.82 576.172 396.289 575.75 396.891 575.461C397.5 575.164 398.375 574.906 399.516 574.688C401.055 574.398 402.121 574.129 402.715 573.879V573.551C402.715 572.918 402.559 572.469 402.246 572.203C401.934 571.93 401.344 571.793 400.477 571.793C399.891 571.793 399.434 571.91 399.105 572.145C398.777 572.371 398.512 572.773 398.309 573.352ZM402.715 576.023C402.293 576.164 401.625 576.332 400.711 576.527C399.797 576.723 399.199 576.914 398.918 577.102C398.488 577.406 398.273 577.793 398.273 578.262C398.273 578.723 398.445 579.121 398.789 579.457C399.133 579.793 399.57 579.961 400.102 579.961C400.695 579.961 401.262 579.766 401.801 579.375C402.199 579.078 402.461 578.715 402.586 578.285C402.672 578.004 402.715 577.469 402.715 576.68V576.023ZM417.398 582V580.137C416.945 580.801 416.348 581.324 415.605 581.707C414.871 582.09 414.094 582.281 413.273 582.281C412.438 582.281 411.688 582.098 411.023 581.73C410.359 581.363 409.879 580.848 409.582 580.184C409.285 579.52 409.137 578.602 409.137 577.43V569.555H412.43V575.273C412.43 577.023 412.488 578.098 412.605 578.496C412.73 578.887 412.953 579.199 413.273 579.434C413.594 579.66 414 579.773 414.492 579.773C415.055 579.773 415.559 579.621 416.004 579.316C416.449 579.004 416.754 578.621 416.918 578.168C417.082 577.707 417.164 576.586 417.164 574.805V569.555H420.457V582H417.398ZM429.586 569.555V572.18H427.336V577.195C427.336 578.211 427.355 578.805 427.395 578.977C427.441 579.141 427.539 579.277 427.688 579.387C427.844 579.496 428.031 579.551 428.25 579.551C428.555 579.551 428.996 579.445 429.574 579.234L429.855 581.789C429.09 582.117 428.223 582.281 427.254 582.281C426.66 582.281 426.125 582.184 425.648 581.988C425.172 581.785 424.82 581.527 424.594 581.215C424.375 580.895 424.223 580.465 424.137 579.926C424.066 579.543 424.031 578.77 424.031 577.605V572.18H422.52V569.555H424.031V567.082L427.336 565.16V569.555H429.586ZM431.109 575.602C431.109 574.508 431.379 573.449 431.918 572.426C432.457 571.402 433.219 570.621 434.203 570.082C435.195 569.543 436.301 569.273 437.52 569.273C439.402 569.273 440.945 569.887 442.148 571.113C443.352 572.332 443.953 573.875 443.953 575.742C443.953 577.625 443.344 579.188 442.125 580.43C440.914 581.664 439.387 582.281 437.543 582.281C436.402 582.281 435.312 582.023 434.273 581.508C433.242 580.992 432.457 580.238 431.918 579.246C431.379 578.246 431.109 577.031 431.109 575.602ZM434.484 575.777C434.484 577.012 434.777 577.957 435.363 578.613C435.949 579.27 436.672 579.598 437.531 579.598C438.391 579.598 439.109 579.27 439.688 578.613C440.273 577.957 440.566 577.004 440.566 575.754C440.566 574.535 440.273 573.598 439.688 572.941C439.109 572.285 438.391 571.957 437.531 571.957C436.672 571.957 435.949 572.285 435.363 572.941C434.777 573.598 434.484 574.543 434.484 575.777ZM446.297 569.555H449.332V571.254C450.418 569.934 451.711 569.273 453.211 569.273C454.008 569.273 454.699 569.438 455.285 569.766C455.871 570.094 456.352 570.59 456.727 571.254C457.273 570.59 457.863 570.094 458.496 569.766C459.129 569.438 459.805 569.273 460.523 569.273C461.438 569.273 462.211 569.461 462.844 569.836C463.477 570.203 463.949 570.746 464.262 571.465C464.488 571.996 464.602 572.855 464.602 574.043V582H461.309V574.887C461.309 573.652 461.195 572.855 460.969 572.496C460.664 572.027 460.195 571.793 459.562 571.793C459.102 571.793 458.668 571.934 458.262 572.215C457.855 572.496 457.562 572.91 457.383 573.457C457.203 573.996 457.113 574.852 457.113 576.023V582H453.82V575.18C453.82 573.969 453.762 573.188 453.645 572.836C453.527 572.484 453.344 572.223 453.094 572.051C452.852 571.879 452.52 571.793 452.098 571.793C451.59 571.793 451.133 571.93 450.727 572.203C450.32 572.477 450.027 572.871 449.848 573.387C449.676 573.902 449.59 574.758 449.59 575.953V582H446.297V569.555ZM470.355 573.352L467.367 572.812C467.703 571.609 468.281 570.719 469.102 570.141C469.922 569.562 471.141 569.273 472.758 569.273C474.227 569.273 475.32 569.449 476.039 569.801C476.758 570.145 477.262 570.586 477.551 571.125C477.848 571.656 477.996 572.637 477.996 574.066L477.961 577.91C477.961 579.004 478.012 579.812 478.113 580.336C478.223 580.852 478.422 581.406 478.711 582H475.453C475.367 581.781 475.262 581.457 475.137 581.027C475.082 580.832 475.043 580.703 475.02 580.641C474.457 581.188 473.855 581.598 473.215 581.871C472.574 582.145 471.891 582.281 471.164 582.281C469.883 582.281 468.871 581.934 468.129 581.238C467.395 580.543 467.027 579.664 467.027 578.602C467.027 577.898 467.195 577.273 467.531 576.727C467.867 576.172 468.336 575.75 468.938 575.461C469.547 575.164 470.422 574.906 471.562 574.688C473.102 574.398 474.168 574.129 474.762 573.879V573.551C474.762 572.918 474.605 572.469 474.293 572.203C473.98 571.93 473.391 571.793 472.523 571.793C471.938 571.793 471.48 571.91 471.152 572.145C470.824 572.371 470.559 572.773 470.355 573.352ZM474.762 576.023C474.34 576.164 473.672 576.332 472.758 576.527C471.844 576.723 471.246 576.914 470.965 577.102C470.535 577.406 470.32 577.793 470.32 578.262C470.32 578.723 470.492 579.121 470.836 579.457C471.18 579.793 471.617 579.961 472.148 579.961C472.742 579.961 473.309 579.766 473.848 579.375C474.246 579.078 474.508 578.715 474.633 578.285C474.719 578.004 474.762 577.469 474.762 576.68V576.023ZM486.961 569.555V572.18H484.711V577.195C484.711 578.211 484.73 578.805 484.77 578.977C484.816 579.141 484.914 579.277 485.062 579.387C485.219 579.496 485.406 579.551 485.625 579.551C485.93 579.551 486.371 579.445 486.949 579.234L487.23 581.789C486.465 582.117 485.598 582.281 484.629 582.281C484.035 582.281 483.5 582.184 483.023 581.988C482.547 581.785 482.195 581.527 481.969 581.215C481.75 580.895 481.598 580.465 481.512 579.926C481.441 579.543 481.406 578.77 481.406 577.605V572.18H479.895V569.555H481.406V567.082L484.711 565.16V569.555H486.961ZM489.246 567.867V564.82H492.539V567.867H489.246ZM489.246 582V569.555H492.539V582H489.246ZM506.777 573.234L503.531 573.82C503.422 573.172 503.172 572.684 502.781 572.355C502.398 572.027 501.898 571.863 501.281 571.863C500.461 571.863 499.805 572.148 499.312 572.719C498.828 573.281 498.586 574.227 498.586 575.555C498.586 577.031 498.832 578.074 499.324 578.684C499.824 579.293 500.492 579.598 501.328 579.598C501.953 579.598 502.465 579.422 502.863 579.07C503.262 578.711 503.543 578.098 503.707 577.23L506.941 577.781C506.605 579.266 505.961 580.387 505.008 581.145C504.055 581.902 502.777 582.281 501.176 582.281C499.355 582.281 497.902 581.707 496.816 580.559C495.738 579.41 495.199 577.82 495.199 575.789C495.199 573.734 495.742 572.137 496.828 570.996C497.914 569.848 499.383 569.273 501.234 569.273C502.75 569.273 503.953 569.602 504.844 570.258C505.742 570.906 506.387 571.898 506.777 573.234ZM511.746 573.352L508.758 572.812C509.094 571.609 509.672 570.719 510.492 570.141C511.312 569.562 512.531 569.273 514.148 569.273C515.617 569.273 516.711 569.449 517.43 569.801C518.148 570.145 518.652 570.586 518.941 571.125C519.238 571.656 519.387 572.637 519.387 574.066L519.352 577.91C519.352 579.004 519.402 579.812 519.504 580.336C519.613 580.852 519.812 581.406 520.102 582H516.844C516.758 581.781 516.652 581.457 516.527 581.027C516.473 580.832 516.434 580.703 516.41 580.641C515.848 581.188 515.246 581.598 514.605 581.871C513.965 582.145 513.281 582.281 512.555 582.281C511.273 582.281 510.262 581.934 509.52 581.238C508.785 580.543 508.418 579.664 508.418 578.602C508.418 577.898 508.586 577.273 508.922 576.727C509.258 576.172 509.727 575.75 510.328 575.461C510.938 575.164 511.812 574.906 512.953 574.688C514.492 574.398 515.559 574.129 516.152 573.879V573.551C516.152 572.918 515.996 572.469 515.684 572.203C515.371 571.93 514.781 571.793 513.914 571.793C513.328 571.793 512.871 571.91 512.543 572.145C512.215 572.371 511.949 572.773 511.746 573.352ZM516.152 576.023C515.73 576.164 515.062 576.332 514.148 576.527C513.234 576.723 512.637 576.914 512.355 577.102C511.926 577.406 511.711 577.793 511.711 578.262C511.711 578.723 511.883 579.121 512.227 579.457C512.57 579.793 513.008 579.961 513.539 579.961C514.133 579.961 514.699 579.766 515.238 579.375C515.637 579.078 515.898 578.715 516.023 578.285C516.109 578.004 516.152 577.469 516.152 576.68V576.023ZM522.645 582V564.82H525.938V582H522.645ZM529.324 582V564.82H532.617V582H529.324ZM534.445 569.555H537.949L540.926 578.391L543.832 569.555H547.242L542.848 581.531L542.062 583.699C541.773 584.426 541.496 584.98 541.23 585.363C540.973 585.746 540.672 586.055 540.328 586.289C539.992 586.531 539.574 586.719 539.074 586.852C538.582 586.984 538.023 587.051 537.398 587.051C536.766 587.051 536.145 586.984 535.535 586.852L535.242 584.273C535.758 584.375 536.223 584.426 536.637 584.426C537.402 584.426 537.969 584.199 538.336 583.746C538.703 583.301 538.984 582.73 539.18 582.035L534.445 569.555Z" fill="white"/>
</g>
<defs>
<linearGradient id="paint0_linear_105_1405" x1="0" y1="0" x2="1200" y2="800" gradientUnits="userSpaceOnUse">
<stop stop-color="#F7FBFF"/>
<stop offset="1" stop-color="#EEF4FF"/>
</linearGradient>
<linearGradient id="paint1_linear_105_1405" x1="224" y1="160" x2="950" y2="652" gradientUnits="userSpaceOnUse">
<stop stop-color="#1F6DFF"/>
<stop offset="1" stop-color="#8E2DFF"/>
</linearGradient>
<linearGradient id="paint2_linear_105_1405" x1="224" y1="160" x2="950" y2="652" gradientUnits="userSpaceOnUse">
<stop stop-color="#1F6DFF"/>
<stop offset="1" stop-color="#8E2DFF"/>
</linearGradient>
<linearGradient id="paint3_linear_105_1405" x1="224" y1="160" x2="950" y2="652" gradientUnits="userSpaceOnUse">
<stop stop-color="#1F6DFF"/>
<stop offset="1" stop-color="#8E2DFF"/>
</linearGradient>
<linearGradient id="paint4_linear_105_1405" x1="233" y1="160" x2="959" y2="652" gradientUnits="userSpaceOnUse">
<stop stop-color="#1F6DFF"/>
<stop offset="1" stop-color="#8E2DFF"/>
</linearGradient>
<clipPath id="clip0_105_1405">
<rect width="1200" height="800" fill="white"/>
</clipPath>
</defs>
</svg>
