<svg width="1200" height="800" viewBox="0 0 1200 800" fill="none" xmlns="http://www.w3.org/2000/svg">
<g clip-path="url(#clip0_105_1296)">
<path d="M1160 0H40C17.9086 0 0 17.9086 0 40V760C0 782.091 17.9086 800 40 800H1160C1182.09 800 1200 782.091 1200 760V40C1200 17.9086 1182.09 0 1160 0Z" fill="url(#paint0_linear_105_1296)"/>
<path d="M332 68H90C77.8497 68 68 77.8497 68 90C68 102.15 77.8497 112 90 112H332C344.15 112 354 102.15 354 90C354 77.8497 344.15 68 332 68Z" fill="#1C2948"/>
<path d="M103.758 94V76.8203H111.059C112.895 76.8203 114.227 76.9766 115.055 77.2891C115.891 77.5938 116.559 78.1406 117.059 78.9297C117.559 79.7188 117.809 80.6211 117.809 81.6367C117.809 82.9258 117.43 83.9922 116.672 84.8359C115.914 85.6719 114.781 86.1992 113.273 86.418C114.023 86.8555 114.641 87.3359 115.125 87.8594C115.617 88.3828 116.277 89.3125 117.105 90.6484L119.203 94H115.055L112.547 90.2617C111.656 88.9258 111.047 88.0859 110.719 87.7422C110.391 87.3906 110.043 87.1523 109.676 87.0273C109.309 86.8945 108.727 86.8281 107.93 86.8281H107.227V94H103.758ZM107.227 84.0859H109.793C111.457 84.0859 112.496 84.0156 112.91 83.875C113.324 83.7344 113.648 83.4922 113.883 83.1484C114.117 82.8047 114.234 82.375 114.234 81.8594C114.234 81.2812 114.078 80.8164 113.766 80.4648C113.461 80.1055 113.027 79.8789 112.465 79.7852C112.184 79.7461 111.34 79.7266 109.934 79.7266H107.227V84.0859ZM128.273 90.0391L131.555 90.5898C131.133 91.793 130.465 92.7109 129.551 93.3438C128.645 93.9688 127.508 94.2812 126.141 94.2812C123.977 94.2812 122.375 93.5742 121.336 92.1602C120.516 91.0273 120.105 89.5977 120.105 87.8711C120.105 85.8086 120.645 84.1953 121.723 83.0312C122.801 81.8594 124.164 81.2734 125.812 81.2734C127.664 81.2734 129.125 81.8867 130.195 83.1133C131.266 84.332 131.777 86.2031 131.73 88.7266H123.48C123.504 89.7031 123.77 90.4648 124.277 91.0117C124.785 91.5508 125.418 91.8203 126.176 91.8203C126.691 91.8203 127.125 91.6797 127.477 91.3984C127.828 91.1172 128.094 90.6641 128.273 90.0391ZM128.461 86.7109C128.438 85.7578 128.191 85.0352 127.723 84.543C127.254 84.043 126.684 83.793 126.012 83.793C125.293 83.793 124.699 84.0547 124.23 84.5781C123.762 85.1016 123.531 85.8125 123.539 86.7109H128.461ZM145.277 85.2344L142.031 85.8203C141.922 85.1719 141.672 84.6836 141.281 84.3555C140.898 84.0273 140.398 83.8633 139.781 83.8633C138.961 83.8633 138.305 84.1484 137.812 84.7188C137.328 85.2812 137.086 86.2266 137.086 87.5547C137.086 89.0312 137.332 90.0742 137.824 90.6836C138.324 91.293 138.992 91.5977 139.828 91.5977C140.453 91.5977 140.965 91.4219 141.363 91.0703C141.762 90.7109 142.043 90.0977 142.207 89.2305L145.441 89.7812C145.105 91.2656 144.461 92.3867 143.508 93.1445C142.555 93.9023 141.277 94.2812 139.676 94.2812C137.855 94.2812 136.402 93.707 135.316 92.5586C134.238 91.4102 133.699 89.8203 133.699 87.7891C133.699 85.7344 134.242 84.1367 135.328 82.9961C136.414 81.8477 137.883 81.2734 139.734 81.2734C141.25 81.2734 142.453 81.6016 143.344 82.2578C144.242 82.9062 144.887 83.8984 145.277 85.2344ZM154.992 90.0391L158.273 90.5898C157.852 91.793 157.184 92.7109 156.27 93.3438C155.363 93.9688 154.227 94.2812 152.859 94.2812C150.695 94.2812 149.094 93.5742 148.055 92.1602C147.234 91.0273 146.824 89.5977 146.824 87.8711C146.824 85.8086 147.363 84.1953 148.441 83.0312C149.52 81.8594 150.883 81.2734 152.531 81.2734C154.383 81.2734 155.844 81.8867 156.914 83.1133C157.984 84.332 158.496 86.2031 158.449 88.7266H150.199C150.223 89.7031 150.488 90.4648 150.996 91.0117C151.504 91.5508 152.137 91.8203 152.895 91.8203C153.41 91.8203 153.844 91.6797 154.195 91.3984C154.547 91.1172 154.812 90.6641 154.992 90.0391ZM155.18 86.7109C155.156 85.7578 154.91 85.0352 154.441 84.543C153.973 84.043 153.402 83.793 152.73 83.793C152.012 83.793 151.418 84.0547 150.949 84.5781C150.48 85.1016 150.25 85.8125 150.258 86.7109H155.18ZM172.465 94H169.172V87.6484C169.172 86.3047 169.102 85.4375 168.961 85.0469C168.82 84.6484 168.59 84.3398 168.27 84.1211C167.957 83.9023 167.578 83.793 167.133 83.793C166.562 83.793 166.051 83.9492 165.598 84.2617C165.145 84.5742 164.832 84.9883 164.66 85.5039C164.496 86.0195 164.414 86.9727 164.414 88.3633V94H161.121V81.5547H164.18V83.3828C165.266 81.9766 166.633 81.2734 168.281 81.2734C169.008 81.2734 169.672 81.4062 170.273 81.6719C170.875 81.9297 171.328 82.2617 171.633 82.668C171.945 83.0742 172.16 83.5352 172.277 84.0508C172.402 84.5664 172.465 85.3047 172.465 86.2656V94ZM181.523 81.5547V84.1797H179.273V89.1953C179.273 90.2109 179.293 90.8047 179.332 90.9766C179.379 91.1406 179.477 91.2773 179.625 91.3867C179.781 91.4961 179.969 91.5508 180.188 91.5508C180.492 91.5508 180.934 91.4453 181.512 91.2344L181.793 93.7891C181.027 94.1172 180.16 94.2812 179.191 94.2812C178.598 94.2812 178.062 94.1836 177.586 93.9883C177.109 93.7852 176.758 93.5273 176.531 93.2148C176.312 92.8945 176.16 92.4648 176.074 91.9258C176.004 91.543 175.969 90.7695 175.969 89.6055V84.1797H174.457V81.5547H175.969V79.082L179.273 77.1602V81.5547H181.523ZM193.641 94H190.348V81.5547H193.406V83.3242C193.93 82.4883 194.398 81.9375 194.812 81.6719C195.234 81.4062 195.711 81.2734 196.242 81.2734C196.992 81.2734 197.715 81.4805 198.41 81.8945L197.391 84.7656C196.836 84.4062 196.32 84.2266 195.844 84.2266C195.383 84.2266 194.992 84.3555 194.672 84.6133C194.352 84.8633 194.098 85.3203 193.91 85.9844C193.73 86.6484 193.641 88.0391 193.641 90.1562V94ZM207.047 90.0391L210.328 90.5898C209.906 91.793 209.238 92.7109 208.324 93.3438C207.418 93.9688 206.281 94.2812 204.914 94.2812C202.75 94.2812 201.148 93.5742 200.109 92.1602C199.289 91.0273 198.879 89.5977 198.879 87.8711C198.879 85.8086 199.418 84.1953 200.496 83.0312C201.574 81.8594 202.938 81.2734 204.586 81.2734C206.438 81.2734 207.898 81.8867 208.969 83.1133C210.039 84.332 210.551 86.2031 210.504 88.7266H202.254C202.277 89.7031 202.543 90.4648 203.051 91.0117C203.559 91.5508 204.191 91.8203 204.949 91.8203C205.465 91.8203 205.898 91.6797 206.25 91.3984C206.602 91.1172 206.867 90.6641 207.047 90.0391ZM207.234 86.7109C207.211 85.7578 206.965 85.0352 206.496 84.543C206.027 84.043 205.457 83.793 204.785 83.793C204.066 83.793 203.473 84.0547 203.004 84.5781C202.535 85.1016 202.305 85.8125 202.312 86.7109H207.234ZM224.051 85.2344L220.805 85.8203C220.695 85.1719 220.445 84.6836 220.055 84.3555C219.672 84.0273 219.172 83.8633 218.555 83.8633C217.734 83.8633 217.078 84.1484 216.586 84.7188C216.102 85.2812 215.859 86.2266 215.859 87.5547C215.859 89.0312 216.105 90.0742 216.598 90.6836C217.098 91.293 217.766 91.5977 218.602 91.5977C219.227 91.5977 219.738 91.4219 220.137 91.0703C220.535 90.7109 220.816 90.0977 220.98 89.2305L224.215 89.7812C223.879 91.2656 223.234 92.3867 222.281 93.1445C221.328 93.9023 220.051 94.2812 218.449 94.2812C216.629 94.2812 215.176 93.707 214.09 92.5586C213.012 91.4102 212.473 89.8203 212.473 87.7891C212.473 85.7344 213.016 84.1367 214.102 82.9961C215.188 81.8477 216.656 81.2734 218.508 81.2734C220.023 81.2734 221.227 81.6016 222.117 82.2578C223.016 82.9062 223.66 83.8984 224.051 85.2344ZM226.559 79.8672V76.8203H229.852V79.8672H226.559ZM226.559 94V81.5547H229.852V94H226.559ZM233.145 81.5547H236.215V83.3828C236.613 82.7578 237.152 82.25 237.832 81.8594C238.512 81.4688 239.266 81.2734 240.094 81.2734C241.539 81.2734 242.766 81.8398 243.773 82.9727C244.781 84.1055 245.285 85.6836 245.285 87.707C245.285 89.7852 244.777 91.4023 243.762 92.5586C242.746 93.707 241.516 94.2812 240.07 94.2812C239.383 94.2812 238.758 94.1445 238.195 93.8711C237.641 93.5977 237.055 93.1289 236.438 92.4648V98.7344H233.145V81.5547ZM236.402 87.5664C236.402 88.9648 236.68 90 237.234 90.6719C237.789 91.3359 238.465 91.668 239.262 91.668C240.027 91.668 240.664 91.3633 241.172 90.7539C241.68 90.1367 241.934 89.1289 241.934 87.7305C241.934 86.4258 241.672 85.457 241.148 84.8242C240.625 84.1914 239.977 83.875 239.203 83.875C238.398 83.875 237.73 84.1875 237.199 84.8125C236.668 85.4297 236.402 86.3477 236.402 87.5664ZM247.91 79.8672V76.8203H251.203V79.8672H247.91ZM247.91 94V81.5547H251.203V94H247.91ZM261.797 90.0391L265.078 90.5898C264.656 91.793 263.988 92.7109 263.074 93.3438C262.168 93.9688 261.031 94.2812 259.664 94.2812C257.5 94.2812 255.898 93.5742 254.859 92.1602C254.039 91.0273 253.629 89.5977 253.629 87.8711C253.629 85.8086 254.168 84.1953 255.246 83.0312C256.324 81.8594 257.688 81.2734 259.336 81.2734C261.188 81.2734 262.648 81.8867 263.719 83.1133C264.789 84.332 265.301 86.2031 265.254 88.7266H257.004C257.027 89.7031 257.293 90.4648 257.801 91.0117C258.309 91.5508 258.941 91.8203 259.699 91.8203C260.215 91.8203 260.648 91.6797 261 91.3984C261.352 91.1172 261.617 90.6641 261.797 90.0391ZM261.984 86.7109C261.961 85.7578 261.715 85.0352 261.246 84.543C260.777 84.043 260.207 83.793 259.535 83.793C258.816 83.793 258.223 84.0547 257.754 84.5781C257.285 85.1016 257.055 85.8125 257.062 86.7109H261.984ZM279.27 94H275.977V87.6484C275.977 86.3047 275.906 85.4375 275.766 85.0469C275.625 84.6484 275.395 84.3398 275.074 84.1211C274.762 83.9023 274.383 83.793 273.938 83.793C273.367 83.793 272.855 83.9492 272.402 84.2617C271.949 84.5742 271.637 84.9883 271.465 85.5039C271.301 86.0195 271.219 86.9727 271.219 88.3633V94H267.926V81.5547H270.984V83.3828C272.07 81.9766 273.438 81.2734 275.086 81.2734C275.812 81.2734 276.477 81.4062 277.078 81.6719C277.68 81.9297 278.133 82.2617 278.438 82.668C278.75 83.0742 278.965 83.5352 279.082 84.0508C279.207 84.5664 279.27 85.3047 279.27 86.2656V94ZM288.328 81.5547V84.1797H286.078V89.1953C286.078 90.2109 286.098 90.8047 286.137 90.9766C286.184 91.1406 286.281 91.2773 286.43 91.3867C286.586 91.4961 286.773 91.5508 286.992 91.5508C287.297 91.5508 287.738 91.4453 288.316 91.2344L288.598 93.7891C287.832 94.1172 286.965 94.2812 285.996 94.2812C285.402 94.2812 284.867 94.1836 284.391 93.9883C283.914 93.7852 283.562 93.5273 283.336 93.2148C283.117 92.8945 282.965 92.4648 282.879 91.9258C282.809 91.543 282.773 90.7695 282.773 89.6055V84.1797H281.262V81.5547H282.773V79.082L286.078 77.1602V81.5547H288.328ZM289.453 90.4492L292.758 89.9453C292.898 90.5859 293.184 91.0742 293.613 91.4102C294.043 91.7383 294.645 91.9023 295.418 91.9023C296.27 91.9023 296.91 91.7461 297.34 91.4336C297.629 91.2148 297.773 90.9219 297.773 90.5547C297.773 90.3047 297.695 90.0977 297.539 89.9336C297.375 89.7773 297.008 89.6328 296.438 89.5C293.781 88.9141 292.098 88.3789 291.387 87.8945C290.402 87.2227 289.91 86.2891 289.91 85.0938C289.91 84.0156 290.336 83.1094 291.188 82.375C292.039 81.6406 293.359 81.2734 295.148 81.2734C296.852 81.2734 298.117 81.5508 298.945 82.1055C299.773 82.6602 300.344 83.4805 300.656 84.5664L297.551 85.1406C297.418 84.6562 297.164 84.2852 296.789 84.0273C296.422 83.7695 295.895 83.6406 295.207 83.6406C294.34 83.6406 293.719 83.7617 293.344 84.0039C293.094 84.1758 292.969 84.3984 292.969 84.6719C292.969 84.9062 293.078 85.1055 293.297 85.2695C293.594 85.4883 294.617 85.7969 296.367 86.1953C298.125 86.5938 299.352 87.082 300.047 87.6602C300.734 88.2461 301.078 89.0625 301.078 90.1094C301.078 91.25 300.602 92.2305 299.648 93.0508C298.695 93.8711 297.285 94.2812 295.418 94.2812C293.723 94.2812 292.379 93.9375 291.387 93.25C290.402 92.5625 289.758 91.6289 289.453 90.4492Z" fill="#90B7FF"/>
<path d="M930 146H270C246.804 146 228 164.804 228 188V616C228 639.196 246.804 658 270 658H930C953.196 658 972 639.196 972 616V188C972 164.804 953.196 146 930 146Z" fill="#18233D" stroke="#2D426E"/>
<path d="M894 204H306C292.745 204 282 214.745 282 228V272C282 285.255 292.745 296 306 296H894C907.255 296 918 285.255 918 272V228C918 214.745 907.255 204 894 204Z" fill="#1E2E4F"/>
<path d="M334 274C347.255 274 358 263.255 358 250C358 236.745 347.255 226 334 226C320.745 226 310 236.745 310 250C310 263.255 320.745 274 334 274Z" fill="#5E79B2"/>
<path d="M371.734 237.82H378.074C379.504 237.82 380.594 237.93 381.344 238.148C382.352 238.445 383.215 238.973 383.934 239.73C384.652 240.488 385.199 241.418 385.574 242.52C385.949 243.613 386.137 244.965 386.137 246.574C386.137 247.988 385.961 249.207 385.609 250.23C385.18 251.48 384.566 252.492 383.77 253.266C383.168 253.852 382.355 254.309 381.332 254.637C380.566 254.879 379.543 255 378.262 255H371.734V237.82ZM375.203 240.727V252.105H377.793C378.762 252.105 379.461 252.051 379.891 251.941C380.453 251.801 380.918 251.562 381.285 251.227C381.66 250.891 381.965 250.34 382.199 249.574C382.434 248.801 382.551 247.75 382.551 246.422C382.551 245.094 382.434 244.074 382.199 243.363C381.965 242.652 381.637 242.098 381.215 241.699C380.793 241.301 380.258 241.031 379.609 240.891C379.125 240.781 378.176 240.727 376.762 240.727H375.203ZM396.273 251.039L399.555 251.59C399.133 252.793 398.465 253.711 397.551 254.344C396.645 254.969 395.508 255.281 394.141 255.281C391.977 255.281 390.375 254.574 389.336 253.16C388.516 252.027 388.105 250.598 388.105 248.871C388.105 246.809 388.645 245.195 389.723 244.031C390.801 242.859 392.164 242.273 393.812 242.273C395.664 242.273 397.125 242.887 398.195 244.113C399.266 245.332 399.777 247.203 399.73 249.727H391.48C391.504 250.703 391.77 251.465 392.277 252.012C392.785 252.551 393.418 252.82 394.176 252.82C394.691 252.82 395.125 252.68 395.477 252.398C395.828 252.117 396.094 251.664 396.273 251.039ZM396.461 247.711C396.438 246.758 396.191 246.035 395.723 245.543C395.254 245.043 394.684 244.793 394.012 244.793C393.293 244.793 392.699 245.055 392.23 245.578C391.762 246.102 391.531 246.812 391.539 247.711H396.461ZM400.984 242.555H402.812V241.617C402.812 240.57 402.922 239.789 403.141 239.273C403.367 238.758 403.777 238.34 404.371 238.02C404.973 237.691 405.73 237.527 406.645 237.527C407.582 237.527 408.5 237.668 409.398 237.949L408.953 240.246C408.43 240.121 407.926 240.059 407.441 240.059C406.965 240.059 406.621 240.172 406.41 240.398C406.207 240.617 406.105 241.043 406.105 241.676V242.555H408.566V245.145H406.105V255H402.812V245.145H400.984V242.555ZM412.879 246.352L409.891 245.812C410.227 244.609 410.805 243.719 411.625 243.141C412.445 242.562 413.664 242.273 415.281 242.273C416.75 242.273 417.844 242.449 418.562 242.801C419.281 243.145 419.785 243.586 420.074 244.125C420.371 244.656 420.52 245.637 420.52 247.066L420.484 250.91C420.484 252.004 420.535 252.812 420.637 253.336C420.746 253.852 420.945 254.406 421.234 255H417.977C417.891 254.781 417.785 254.457 417.66 254.027C417.605 253.832 417.566 253.703 417.543 253.641C416.98 254.188 416.379 254.598 415.738 254.871C415.098 255.145 414.414 255.281 413.688 255.281C412.406 255.281 411.395 254.934 410.652 254.238C409.918 253.543 409.551 252.664 409.551 251.602C409.551 250.898 409.719 250.273 410.055 249.727C410.391 249.172 410.859 248.75 411.461 248.461C412.07 248.164 412.945 247.906 414.086 247.688C415.625 247.398 416.691 247.129 417.285 246.879V246.551C417.285 245.918 417.129 245.469 416.816 245.203C416.504 244.93 415.914 244.793 415.047 244.793C414.461 244.793 414.004 244.91 413.676 245.145C413.348 245.371 413.082 245.773 412.879 246.352ZM417.285 249.023C416.863 249.164 416.195 249.332 415.281 249.527C414.367 249.723 413.77 249.914 413.488 250.102C413.059 250.406 412.844 250.793 412.844 251.262C412.844 251.723 413.016 252.121 413.359 252.457C413.703 252.793 414.141 252.961 414.672 252.961C415.266 252.961 415.832 252.766 416.371 252.375C416.77 252.078 417.031 251.715 417.156 251.285C417.242 251.004 417.285 250.469 417.285 249.68V249.023ZM431.969 255V253.137C431.516 253.801 430.918 254.324 430.176 254.707C429.441 255.09 428.664 255.281 427.844 255.281C427.008 255.281 426.258 255.098 425.594 254.73C424.93 254.363 424.449 253.848 424.152 253.184C423.855 252.52 423.707 251.602 423.707 250.43V242.555H427V248.273C427 250.023 427.059 251.098 427.176 251.496C427.301 251.887 427.523 252.199 427.844 252.434C428.164 252.66 428.57 252.773 429.062 252.773C429.625 252.773 430.129 252.621 430.574 252.316C431.02 252.004 431.324 251.621 431.488 251.168C431.652 250.707 431.734 249.586 431.734 247.805V242.555H435.027V255H431.969ZM438.449 255V237.82H441.742V255H438.449ZM450.836 242.555V245.18H448.586V250.195C448.586 251.211 448.605 251.805 448.645 251.977C448.691 252.141 448.789 252.277 448.938 252.387C449.094 252.496 449.281 252.551 449.5 252.551C449.805 252.551 450.246 252.445 450.824 252.234L451.105 254.789C450.34 255.117 449.473 255.281 448.504 255.281C447.91 255.281 447.375 255.184 446.898 254.988C446.422 254.785 446.07 254.527 445.844 254.215C445.625 253.895 445.473 253.465 445.387 252.926C445.316 252.543 445.281 251.77 445.281 250.605V245.18H443.77V242.555H445.281V240.082L448.586 238.16V242.555H450.836ZM462.953 255H459.66V242.555H462.719V244.324C463.242 243.488 463.711 242.938 464.125 242.672C464.547 242.406 465.023 242.273 465.555 242.273C466.305 242.273 467.027 242.48 467.723 242.895L466.703 245.766C466.148 245.406 465.633 245.227 465.156 245.227C464.695 245.227 464.305 245.355 463.984 245.613C463.664 245.863 463.41 246.32 463.223 246.984C463.043 247.648 462.953 249.039 462.953 251.156V255ZM476.359 251.039L479.641 251.59C479.219 252.793 478.551 253.711 477.637 254.344C476.73 254.969 475.594 255.281 474.227 255.281C472.062 255.281 470.461 254.574 469.422 253.16C468.602 252.027 468.191 250.598 468.191 248.871C468.191 246.809 468.73 245.195 469.809 244.031C470.887 242.859 472.25 242.273 473.898 242.273C475.75 242.273 477.211 242.887 478.281 244.113C479.352 245.332 479.863 247.203 479.816 249.727H471.566C471.59 250.703 471.855 251.465 472.363 252.012C472.871 252.551 473.504 252.82 474.262 252.82C474.777 252.82 475.211 252.68 475.562 252.398C475.914 252.117 476.18 251.664 476.359 251.039ZM476.547 247.711C476.523 246.758 476.277 246.035 475.809 245.543C475.34 245.043 474.77 244.793 474.098 244.793C473.379 244.793 472.785 245.055 472.316 245.578C471.848 246.102 471.617 246.812 471.625 247.711H476.547ZM493.363 246.234L490.117 246.82C490.008 246.172 489.758 245.684 489.367 245.355C488.984 245.027 488.484 244.863 487.867 244.863C487.047 244.863 486.391 245.148 485.898 245.719C485.414 246.281 485.172 247.227 485.172 248.555C485.172 250.031 485.418 251.074 485.91 251.684C486.41 252.293 487.078 252.598 487.914 252.598C488.539 252.598 489.051 252.422 489.449 252.07C489.848 251.711 490.129 251.098 490.293 250.23L493.527 250.781C493.191 252.266 492.547 253.387 491.594 254.145C490.641 254.902 489.363 255.281 487.762 255.281C485.941 255.281 484.488 254.707 483.402 253.559C482.324 252.41 481.785 250.82 481.785 248.789C481.785 246.734 482.328 245.137 483.414 243.996C484.5 242.848 485.969 242.273 487.82 242.273C489.336 242.273 490.539 242.602 491.43 243.258C492.328 243.906 492.973 244.898 493.363 246.234ZM495.871 240.867V237.82H499.164V240.867H495.871ZM495.871 255V242.555H499.164V255H495.871ZM502.457 242.555H505.527V244.383C505.926 243.758 506.465 243.25 507.145 242.859C507.824 242.469 508.578 242.273 509.406 242.273C510.852 242.273 512.078 242.84 513.086 243.973C514.094 245.105 514.598 246.684 514.598 248.707C514.598 250.785 514.09 252.402 513.074 253.559C512.059 254.707 510.828 255.281 509.383 255.281C508.695 255.281 508.07 255.145 507.508 254.871C506.953 254.598 506.367 254.129 505.75 253.465V259.734H502.457V242.555ZM505.715 248.566C505.715 249.965 505.992 251 506.547 251.672C507.102 252.336 507.777 252.668 508.574 252.668C509.34 252.668 509.977 252.363 510.484 251.754C510.992 251.137 511.246 250.129 511.246 248.73C511.246 247.426 510.984 246.457 510.461 245.824C509.938 245.191 509.289 244.875 508.516 244.875C507.711 244.875 507.043 245.188 506.512 245.812C505.98 246.43 505.715 247.348 505.715 248.566ZM517.223 240.867V237.82H520.516V240.867H517.223ZM517.223 255V242.555H520.516V255H517.223ZM531.109 251.039L534.391 251.59C533.969 252.793 533.301 253.711 532.387 254.344C531.48 254.969 530.344 255.281 528.977 255.281C526.812 255.281 525.211 254.574 524.172 253.16C523.352 252.027 522.941 250.598 522.941 248.871C522.941 246.809 523.48 245.195 524.559 244.031C525.637 242.859 527 242.273 528.648 242.273C530.5 242.273 531.961 242.887 533.031 244.113C534.102 245.332 534.613 247.203 534.566 249.727H526.316C526.34 250.703 526.605 251.465 527.113 252.012C527.621 252.551 528.254 252.82 529.012 252.82C529.527 252.82 529.961 252.68 530.312 252.398C530.664 252.117 530.93 251.664 531.109 251.039ZM531.297 247.711C531.273 246.758 531.027 246.035 530.559 245.543C530.09 245.043 529.52 244.793 528.848 244.793C528.129 244.793 527.535 245.055 527.066 245.578C526.598 246.102 526.367 246.812 526.375 247.711H531.297ZM548.582 255H545.289V248.648C545.289 247.305 545.219 246.438 545.078 246.047C544.938 245.648 544.707 245.34 544.387 245.121C544.074 244.902 543.695 244.793 543.25 244.793C542.68 244.793 542.168 244.949 541.715 245.262C541.262 245.574 540.949 245.988 540.777 246.504C540.613 247.02 540.531 247.973 540.531 249.363V255H537.238V242.555H540.297V244.383C541.383 242.977 542.75 242.273 544.398 242.273C545.125 242.273 545.789 242.406 546.391 242.672C546.992 242.93 547.445 243.262 547.75 243.668C548.062 244.074 548.277 244.535 548.395 245.051C548.52 245.566 548.582 246.305 548.582 247.266V255ZM557.641 242.555V245.18H555.391V250.195C555.391 251.211 555.41 251.805 555.449 251.977C555.496 252.141 555.594 252.277 555.742 252.387C555.898 252.496 556.086 252.551 556.305 252.551C556.609 252.551 557.051 252.445 557.629 252.234L557.91 254.789C557.145 255.117 556.277 255.281 555.309 255.281C554.715 255.281 554.18 255.184 553.703 254.988C553.227 254.785 552.875 254.527 552.648 254.215C552.43 253.895 552.277 253.465 552.191 252.926C552.121 252.543 552.086 251.77 552.086 250.605V245.18H550.574V242.555H552.086V240.082L555.391 238.16V242.555H557.641Z" fill="#DBE7FF"/>
<path d="M853 225H679C665.193 225 654 236.193 654 250C654 263.807 665.193 275 679 275H853C866.807 275 878 263.807 878 250C878 236.193 866.807 225 853 225Z" fill="url(#paint1_linear_105_1296)"/>
<path d="M679.477 245.555H682.512V247.254C683.598 245.934 684.891 245.273 686.391 245.273C687.188 245.273 687.879 245.438 688.465 245.766C689.051 246.094 689.531 246.59 689.906 247.254C690.453 246.59 691.043 246.094 691.676 245.766C692.309 245.438 692.984 245.273 693.703 245.273C694.617 245.273 695.391 245.461 696.023 245.836C696.656 246.203 697.129 246.746 697.441 247.465C697.668 247.996 697.781 248.855 697.781 250.043V258H694.488V250.887C694.488 249.652 694.375 248.855 694.148 248.496C693.844 248.027 693.375 247.793 692.742 247.793C692.281 247.793 691.848 247.934 691.441 248.215C691.035 248.496 690.742 248.91 690.562 249.457C690.383 249.996 690.293 250.852 690.293 252.023V258H687V251.18C687 249.969 686.941 249.188 686.824 248.836C686.707 248.484 686.523 248.223 686.273 248.051C686.031 247.879 685.699 247.793 685.277 247.793C684.77 247.793 684.312 247.93 683.906 248.203C683.5 248.477 683.207 248.871 683.027 249.387C682.855 249.902 682.77 250.758 682.77 251.953V258H679.477V245.555ZM708.281 254.039L711.562 254.59C711.141 255.793 710.473 256.711 709.559 257.344C708.652 257.969 707.516 258.281 706.148 258.281C703.984 258.281 702.383 257.574 701.344 256.16C700.523 255.027 700.113 253.598 700.113 251.871C700.113 249.809 700.652 248.195 701.73 247.031C702.809 245.859 704.172 245.273 705.82 245.273C707.672 245.273 709.133 245.887 710.203 247.113C711.273 248.332 711.785 250.203 711.738 252.727H703.488C703.512 253.703 703.777 254.465 704.285 255.012C704.793 255.551 705.426 255.82 706.184 255.82C706.699 255.82 707.133 255.68 707.484 255.398C707.836 255.117 708.102 254.664 708.281 254.039ZM708.469 250.711C708.445 249.758 708.199 249.035 707.73 248.543C707.262 248.043 706.691 247.793 706.02 247.793C705.301 247.793 704.707 248.055 704.238 248.578C703.77 249.102 703.539 249.812 703.547 250.711H708.469ZM733.535 257.777H736.031C735.25 259.363 734.051 260.605 732.434 261.504C730.582 262.535 728.324 263.051 725.66 263.051C723.082 263.051 720.855 262.613 718.98 261.738C717.105 260.871 715.711 259.59 714.797 257.895C713.883 256.191 713.426 254.34 713.426 252.34C713.426 250.145 713.945 248.102 714.984 246.211C716.023 244.312 717.445 242.891 719.25 241.945C721.055 240.992 723.117 240.516 725.438 240.516C727.406 240.516 729.156 240.898 730.688 241.664C732.219 242.43 733.387 243.52 734.191 244.934C735.004 246.34 735.41 247.879 735.41 249.551C735.41 251.543 734.797 253.344 733.57 254.953C732.031 256.984 730.059 258 727.652 258C727.004 258 726.516 257.887 726.188 257.66C725.859 257.434 725.641 257.102 725.531 256.664C724.609 257.555 723.547 258 722.344 258C721.047 258 719.969 257.555 719.109 256.664C718.258 255.766 717.832 254.574 717.832 253.09C717.832 251.254 718.348 249.578 719.379 248.062C720.629 246.219 722.23 245.297 724.184 245.297C725.574 245.297 726.602 245.828 727.266 246.891L727.559 245.59H730.652L728.883 253.992C728.773 254.523 728.719 254.867 728.719 255.023C728.719 255.219 728.762 255.367 728.848 255.469C728.941 255.562 729.051 255.609 729.176 255.609C729.551 255.609 730.035 255.383 730.629 254.93C731.426 254.336 732.07 253.539 732.562 252.539C733.055 251.539 733.301 250.504 733.301 249.434C733.301 247.512 732.605 245.906 731.215 244.617C729.824 243.32 727.883 242.672 725.391 242.672C723.273 242.672 721.477 243.105 720 243.973C718.531 244.832 717.422 246.047 716.672 247.617C715.93 249.18 715.559 250.809 715.559 252.504C715.559 254.152 715.973 255.652 716.801 257.004C717.637 258.355 718.805 259.34 720.305 259.957C721.812 260.582 723.535 260.895 725.473 260.895C727.34 260.895 728.945 260.633 730.289 260.109C731.633 259.594 732.715 258.816 733.535 257.777ZM720.867 252.961C720.867 253.953 721.066 254.684 721.465 255.152C721.871 255.621 722.371 255.855 722.965 255.855C723.41 255.855 723.828 255.746 724.219 255.527C724.516 255.371 724.809 255.125 725.098 254.789C725.512 254.312 725.867 253.617 726.164 252.703C726.469 251.789 726.621 250.938 726.621 250.148C726.621 249.266 726.414 248.59 726 248.121C725.594 247.645 725.078 247.406 724.453 247.406C723.781 247.406 723.16 247.668 722.59 248.191C722.02 248.707 721.59 249.445 721.301 250.406C721.012 251.367 720.867 252.219 720.867 252.961ZM737.543 258.82L741.305 259.277C741.367 259.715 741.512 260.016 741.738 260.18C742.051 260.414 742.543 260.531 743.215 260.531C744.074 260.531 744.719 260.402 745.148 260.145C745.438 259.973 745.656 259.695 745.805 259.312C745.906 259.039 745.957 258.535 745.957 257.801V255.984C744.973 257.328 743.73 258 742.23 258C740.559 258 739.234 257.293 738.258 255.879C737.492 254.762 737.109 253.371 737.109 251.707C737.109 249.621 737.609 248.027 738.609 246.926C739.617 245.824 740.867 245.273 742.359 245.273C743.898 245.273 745.168 245.949 746.168 247.301V245.555H749.25V256.723C749.25 258.191 749.129 259.289 748.887 260.016C748.645 260.742 748.305 261.312 747.867 261.727C747.43 262.141 746.844 262.465 746.109 262.699C745.383 262.934 744.461 263.051 743.344 263.051C741.234 263.051 739.738 262.688 738.855 261.961C737.973 261.242 737.531 260.328 737.531 259.219C737.531 259.109 737.535 258.977 737.543 258.82ZM740.484 251.52C740.484 252.84 740.738 253.809 741.246 254.426C741.762 255.035 742.395 255.34 743.145 255.34C743.949 255.34 744.629 255.027 745.184 254.402C745.738 253.77 746.016 252.836 746.016 251.602C746.016 250.312 745.75 249.355 745.219 248.73C744.688 248.105 744.016 247.793 743.203 247.793C742.414 247.793 741.762 248.102 741.246 248.719C740.738 249.328 740.484 250.262 740.484 251.52ZM752.273 245.555H755.309V247.254C756.395 245.934 757.688 245.273 759.188 245.273C759.984 245.273 760.676 245.438 761.262 245.766C761.848 246.094 762.328 246.59 762.703 247.254C763.25 246.59 763.84 246.094 764.473 245.766C765.105 245.438 765.781 245.273 766.5 245.273C767.414 245.273 768.188 245.461 768.82 245.836C769.453 246.203 769.926 246.746 770.238 247.465C770.465 247.996 770.578 248.855 770.578 250.043V258H767.285V250.887C767.285 249.652 767.172 248.855 766.945 248.496C766.641 248.027 766.172 247.793 765.539 247.793C765.078 247.793 764.645 247.934 764.238 248.215C763.832 248.496 763.539 248.91 763.359 249.457C763.18 249.996 763.09 250.852 763.09 252.023V258H759.797V251.18C759.797 249.969 759.738 249.188 759.621 248.836C759.504 248.484 759.32 248.223 759.07 248.051C758.828 247.879 758.496 247.793 758.074 247.793C757.566 247.793 757.109 247.93 756.703 248.203C756.297 248.477 756.004 248.871 755.824 249.387C755.652 249.902 755.566 250.758 755.566 251.953V258H752.273V245.555ZM776.332 249.352L773.344 248.812C773.68 247.609 774.258 246.719 775.078 246.141C775.898 245.562 777.117 245.273 778.734 245.273C780.203 245.273 781.297 245.449 782.016 245.801C782.734 246.145 783.238 246.586 783.527 247.125C783.824 247.656 783.973 248.637 783.973 250.066L783.938 253.91C783.938 255.004 783.988 255.812 784.09 256.336C784.199 256.852 784.398 257.406 784.688 258H781.43C781.344 257.781 781.238 257.457 781.113 257.027C781.059 256.832 781.02 256.703 780.996 256.641C780.434 257.188 779.832 257.598 779.191 257.871C778.551 258.145 777.867 258.281 777.141 258.281C775.859 258.281 774.848 257.934 774.105 257.238C773.371 256.543 773.004 255.664 773.004 254.602C773.004 253.898 773.172 253.273 773.508 252.727C773.844 252.172 774.312 251.75 774.914 251.461C775.523 251.164 776.398 250.906 777.539 250.688C779.078 250.398 780.145 250.129 780.738 249.879V249.551C780.738 248.918 780.582 248.469 780.27 248.203C779.957 247.93 779.367 247.793 778.5 247.793C777.914 247.793 777.457 247.91 777.129 248.145C776.801 248.371 776.535 248.773 776.332 249.352ZM780.738 252.023C780.316 252.164 779.648 252.332 778.734 252.527C777.82 252.723 777.223 252.914 776.941 253.102C776.512 253.406 776.297 253.793 776.297 254.262C776.297 254.723 776.469 255.121 776.812 255.457C777.156 255.793 777.594 255.961 778.125 255.961C778.719 255.961 779.285 255.766 779.824 255.375C780.223 255.078 780.484 254.715 780.609 254.285C780.695 254.004 780.738 253.469 780.738 252.68V252.023ZM787.23 243.867V240.82H790.523V243.867H787.23ZM787.23 258V245.555H790.523V258H787.23ZM793.91 258V240.82H797.203V258H793.91ZM800.59 258V254.707H803.883V258H800.59ZM818.121 249.234L814.875 249.82C814.766 249.172 814.516 248.684 814.125 248.355C813.742 248.027 813.242 247.863 812.625 247.863C811.805 247.863 811.148 248.148 810.656 248.719C810.172 249.281 809.93 250.227 809.93 251.555C809.93 253.031 810.176 254.074 810.668 254.684C811.168 255.293 811.836 255.598 812.672 255.598C813.297 255.598 813.809 255.422 814.207 255.07C814.605 254.711 814.887 254.098 815.051 253.23L818.285 253.781C817.949 255.266 817.305 256.387 816.352 257.145C815.398 257.902 814.121 258.281 812.52 258.281C810.699 258.281 809.246 257.707 808.16 256.559C807.082 255.41 806.543 253.82 806.543 251.789C806.543 249.734 807.086 248.137 808.172 246.996C809.258 245.848 810.727 245.273 812.578 245.273C814.094 245.273 815.297 245.602 816.188 246.258C817.086 246.906 817.73 247.898 818.121 249.234ZM819.867 251.602C819.867 250.508 820.137 249.449 820.676 248.426C821.215 247.402 821.977 246.621 822.961 246.082C823.953 245.543 825.059 245.273 826.277 245.273C828.16 245.273 829.703 245.887 830.906 247.113C832.109 248.332 832.711 249.875 832.711 251.742C832.711 253.625 832.102 255.188 830.883 256.43C829.672 257.664 828.145 258.281 826.301 258.281C825.16 258.281 824.07 258.023 823.031 257.508C822 256.992 821.215 256.238 820.676 255.246C820.137 254.246 819.867 253.031 819.867 251.602ZM823.242 251.777C823.242 253.012 823.535 253.957 824.121 254.613C824.707 255.27 825.43 255.598 826.289 255.598C827.148 255.598 827.867 255.27 828.445 254.613C829.031 253.957 829.324 253.004 829.324 251.754C829.324 250.535 829.031 249.598 828.445 248.941C827.867 248.285 827.148 247.957 826.289 247.957C825.43 247.957 824.707 248.285 824.121 248.941C823.535 249.598 823.242 250.543 823.242 251.777ZM835.055 245.555H838.09V247.254C839.176 245.934 840.469 245.273 841.969 245.273C842.766 245.273 843.457 245.438 844.043 245.766C844.629 246.094 845.109 246.59 845.484 247.254C846.031 246.59 846.621 246.094 847.254 245.766C847.887 245.438 848.562 245.273 849.281 245.273C850.195 245.273 850.969 245.461 851.602 245.836C852.234 246.203 852.707 246.746 853.02 247.465C853.246 247.996 853.359 248.855 853.359 250.043V258H850.066V250.887C850.066 249.652 849.953 248.855 849.727 248.496C849.422 248.027 848.953 247.793 848.32 247.793C847.859 247.793 847.426 247.934 847.02 248.215C846.613 248.496 846.32 248.91 846.141 249.457C845.961 249.996 845.871 250.852 845.871 252.023V258H842.578V251.18C842.578 249.969 842.52 249.188 842.402 248.836C842.285 248.484 842.102 248.223 841.852 248.051C841.609 247.879 841.277 247.793 840.855 247.793C840.348 247.793 839.891 247.93 839.484 248.203C839.078 248.477 838.785 248.871 838.605 249.387C838.434 249.902 838.348 250.758 838.348 251.953V258H835.055V245.555Z" fill="white"/>
<path d="M298.276 348.002C299.057 348.561 299.906 349.005 300.822 349.334L299.651 351.579C299.172 351.436 298.702 351.239 298.244 350.988C298.144 350.938 297.438 350.473 296.128 349.592C295.097 350.043 293.954 350.269 292.701 350.269C290.281 350.269 288.383 349.556 287.008 348.131C285.64 346.706 284.956 344.704 284.956 342.126C284.956 339.555 285.644 337.557 287.019 336.132C288.394 334.7 290.259 333.983 292.615 333.983C294.95 333.983 296.801 334.7 298.169 336.132C299.537 337.557 300.221 339.555 300.221 342.126C300.221 343.487 300.031 344.683 299.651 345.714C299.365 346.502 298.907 347.264 298.276 348.002ZM295.72 346.208C296.128 345.728 296.432 345.148 296.633 344.468C296.84 343.787 296.944 343.007 296.944 342.126C296.944 340.307 296.543 338.95 295.741 338.055C294.939 337.152 293.89 336.701 292.594 336.701C291.298 336.701 290.245 337.152 289.436 338.055C288.633 338.957 288.232 340.314 288.232 342.126C288.232 343.966 288.633 345.345 289.436 346.262C290.245 347.171 291.265 347.626 292.497 347.626C292.955 347.626 293.389 347.551 293.797 347.4C293.152 346.978 292.497 346.648 291.831 346.412L292.723 344.597C293.768 344.955 294.767 345.492 295.72 346.208ZM310.211 350V348.292C309.796 348.901 309.248 349.381 308.567 349.731C307.894 350.082 307.182 350.258 306.43 350.258C305.663 350.258 304.976 350.09 304.367 349.753C303.758 349.416 303.318 348.944 303.046 348.335C302.774 347.726 302.638 346.885 302.638 345.811V338.592H305.656V343.834C305.656 345.438 305.71 346.423 305.817 346.788C305.932 347.146 306.136 347.433 306.43 347.647C306.723 347.855 307.096 347.959 307.547 347.959C308.062 347.959 308.524 347.819 308.933 347.54C309.341 347.254 309.62 346.903 309.771 346.487C309.921 346.065 309.996 345.037 309.996 343.404V338.592H313.015V350H310.211ZM316.151 337.045V334.252H319.17V337.045H316.151ZM316.151 350V338.592H319.17V350H316.151ZM332.222 341.965L329.246 342.502C329.146 341.908 328.917 341.46 328.559 341.159C328.208 340.858 327.749 340.708 327.184 340.708C326.432 340.708 325.83 340.969 325.379 341.492C324.935 342.008 324.713 342.874 324.713 344.092C324.713 345.445 324.938 346.401 325.39 346.96C325.848 347.519 326.46 347.798 327.227 347.798C327.799 347.798 328.269 347.637 328.634 347.314C328.999 346.985 329.257 346.423 329.407 345.628L332.372 346.133C332.064 347.493 331.473 348.521 330.6 349.216C329.726 349.91 328.555 350.258 327.087 350.258C325.418 350.258 324.086 349.731 323.091 348.679C322.103 347.626 321.608 346.169 321.608 344.307C321.608 342.423 322.106 340.959 323.102 339.913C324.097 338.86 325.443 338.334 327.141 338.334C328.53 338.334 329.633 338.635 330.449 339.236C331.273 339.831 331.864 340.74 332.222 341.965ZM334.413 350V334.252H337.432V342.609L340.966 338.592H344.683L340.783 342.76L344.962 350H341.707L338.839 344.876L337.432 346.348V350H334.413ZM351.826 346.745L354.855 346.283C354.984 346.87 355.246 347.318 355.64 347.626C356.034 347.927 356.585 348.077 357.294 348.077C358.075 348.077 358.662 347.934 359.056 347.647C359.321 347.447 359.453 347.178 359.453 346.842C359.453 346.613 359.382 346.423 359.238 346.272C359.088 346.129 358.751 345.997 358.229 345.875C355.794 345.338 354.25 344.847 353.599 344.403C352.696 343.787 352.245 342.932 352.245 341.836C352.245 340.848 352.635 340.017 353.416 339.344C354.197 338.671 355.407 338.334 357.047 338.334C358.608 338.334 359.768 338.588 360.527 339.097C361.286 339.605 361.809 340.357 362.096 341.353L359.249 341.879C359.127 341.435 358.895 341.095 358.551 340.858C358.214 340.622 357.731 340.504 357.101 340.504C356.306 340.504 355.736 340.615 355.393 340.837C355.163 340.994 355.049 341.199 355.049 341.449C355.049 341.664 355.149 341.847 355.35 341.997C355.622 342.198 356.56 342.48 358.164 342.846C359.775 343.211 360.9 343.659 361.537 344.188C362.167 344.726 362.482 345.474 362.482 346.434C362.482 347.479 362.046 348.378 361.172 349.13C360.298 349.882 359.006 350.258 357.294 350.258C355.74 350.258 354.508 349.943 353.599 349.312C352.696 348.682 352.105 347.826 351.826 346.745ZM367.263 350L363.653 338.592H366.586L368.724 346.068L370.689 338.592H373.601L375.502 346.068L377.683 338.592H380.658L376.995 350H374.095L372.129 342.663L370.195 350H367.263ZM382.259 337.045V334.252H385.277V337.045H382.259ZM382.259 350V338.592H385.277V350H382.259ZM393.613 338.592V340.998H391.551V345.596C391.551 346.527 391.569 347.071 391.604 347.229C391.647 347.379 391.737 347.504 391.873 347.604C392.016 347.705 392.188 347.755 392.389 347.755C392.668 347.755 393.073 347.658 393.603 347.465L393.86 349.807C393.159 350.107 392.364 350.258 391.476 350.258C390.931 350.258 390.441 350.168 390.004 349.989C389.567 349.803 389.245 349.567 389.037 349.28C388.837 348.987 388.697 348.593 388.618 348.099C388.554 347.748 388.521 347.039 388.521 345.972V340.998H387.136V338.592H388.521V336.325L391.551 334.563V338.592H393.613ZM405.655 341.965L402.68 342.502C402.579 341.908 402.35 341.46 401.992 341.159C401.641 340.858 401.183 340.708 400.617 340.708C399.865 340.708 399.264 340.969 398.812 341.492C398.368 342.008 398.146 342.874 398.146 344.092C398.146 345.445 398.372 346.401 398.823 346.96C399.282 347.519 399.894 347.798 400.66 347.798C401.233 347.798 401.702 347.637 402.067 347.314C402.433 346.985 402.69 346.423 402.841 345.628L405.806 346.133C405.498 347.493 404.907 348.521 404.033 349.216C403.16 349.91 401.989 350.258 400.521 350.258C398.852 350.258 397.52 349.731 396.524 348.679C395.536 347.626 395.042 346.169 395.042 344.307C395.042 342.423 395.54 340.959 396.535 339.913C397.531 338.86 398.877 338.334 400.574 338.334C401.964 338.334 403.066 338.635 403.883 339.236C404.706 339.831 405.297 340.74 405.655 341.965ZM410.962 334.252V340.042C411.936 338.903 413.1 338.334 414.453 338.334C415.148 338.334 415.774 338.463 416.333 338.721C416.892 338.979 417.311 339.308 417.59 339.709C417.876 340.11 418.07 340.554 418.17 341.041C418.277 341.528 418.331 342.284 418.331 343.308V350H415.312V343.974C415.312 342.778 415.255 342.019 415.141 341.696C415.026 341.374 414.822 341.12 414.528 340.934C414.242 340.74 413.88 340.644 413.443 340.644C412.942 340.644 412.494 340.765 412.101 341.009C411.707 341.252 411.417 341.621 411.23 342.115C411.051 342.602 410.962 343.326 410.962 344.285V350H407.943V334.252H410.962Z" fill="#B6C9F3"/>
<path d="M350 482C378.719 482 402 458.719 402 430C402 401.281 378.719 378 350 378C321.281 378 298 401.281 298 430C298 458.719 321.281 482 350 482Z" fill="#22365D"/>
<path d="M350 433C359.941 433 368 424.941 368 415C368 405.059 359.941 397 350 397C340.059 397 332 405.059 332 415C332 424.941 340.059 433 350 433Z" fill="#6A88C6"/>
<path d="M361 438H339C331.82 438 326 443.82 326 451C326 458.18 331.82 464 339 464H361C368.18 464 374 458.18 374 451C374 443.82 368.18 438 361 438Z" fill="#6A88C6"/>
<path d="M316.751 494.115H321.506C322.578 494.115 323.396 494.197 323.958 494.361C324.714 494.584 325.361 494.979 325.9 495.548C326.439 496.116 326.85 496.813 327.131 497.64C327.412 498.46 327.553 499.474 327.553 500.681C327.553 501.741 327.421 502.655 327.157 503.423C326.835 504.36 326.375 505.119 325.777 505.699C325.326 506.139 324.717 506.481 323.949 506.728C323.375 506.909 322.607 507 321.646 507H316.751V494.115ZM319.353 496.295V504.829H321.295C322.021 504.829 322.546 504.788 322.868 504.706C323.29 504.601 323.639 504.422 323.914 504.17C324.195 503.918 324.424 503.505 324.6 502.931C324.775 502.351 324.863 501.562 324.863 500.566C324.863 499.57 324.775 498.806 324.6 498.272C324.424 497.739 324.178 497.323 323.861 497.024C323.545 496.726 323.144 496.523 322.657 496.418C322.294 496.336 321.582 496.295 320.521 496.295H319.353ZM331.596 500.514L329.354 500.109C329.606 499.207 330.04 498.539 330.655 498.105C331.271 497.672 332.185 497.455 333.397 497.455C334.499 497.455 335.319 497.587 335.858 497.851C336.397 498.108 336.775 498.439 336.992 498.844C337.215 499.242 337.326 499.978 337.326 501.05L337.3 503.933C337.3 504.753 337.338 505.359 337.414 505.752C337.496 506.139 337.646 506.555 337.862 507H335.419C335.354 506.836 335.275 506.593 335.182 506.271C335.141 506.124 335.111 506.027 335.094 505.98C334.672 506.391 334.221 506.698 333.74 506.903C333.26 507.108 332.747 507.211 332.202 507.211C331.241 507.211 330.482 506.95 329.926 506.429C329.375 505.907 329.1 505.248 329.1 504.451C329.1 503.924 329.226 503.455 329.478 503.045C329.729 502.629 330.081 502.312 330.532 502.096C330.989 501.873 331.646 501.68 332.501 501.516C333.655 501.299 334.455 501.097 334.9 500.909V500.663C334.9 500.188 334.783 499.852 334.549 499.652C334.314 499.447 333.872 499.345 333.222 499.345C332.782 499.345 332.439 499.433 332.193 499.608C331.947 499.778 331.748 500.08 331.596 500.514ZM334.9 502.518C334.584 502.623 334.083 502.749 333.397 502.896C332.712 503.042 332.264 503.186 332.053 503.326C331.73 503.555 331.569 503.845 331.569 504.196C331.569 504.542 331.698 504.841 331.956 505.093C332.214 505.345 332.542 505.471 332.94 505.471C333.386 505.471 333.811 505.324 334.215 505.031C334.514 504.809 334.71 504.536 334.804 504.214C334.868 504.003 334.9 503.602 334.9 503.01V502.518ZM348.26 507H345.79V502.236C345.79 501.229 345.737 500.578 345.632 500.285C345.526 499.986 345.354 499.755 345.113 499.591C344.879 499.427 344.595 499.345 344.261 499.345C343.833 499.345 343.449 499.462 343.109 499.696C342.77 499.931 342.535 500.241 342.406 500.628C342.283 501.015 342.222 501.729 342.222 502.772V507H339.752V497.666H342.046V499.037C342.86 497.982 343.886 497.455 345.122 497.455C345.667 497.455 346.165 497.555 346.616 497.754C347.067 497.947 347.407 498.196 347.636 498.501C347.87 498.806 348.031 499.151 348.119 499.538C348.213 499.925 348.26 500.479 348.26 501.199V507ZM350.773 496.4V494.115H353.243V496.4H350.773ZM350.773 507V497.666H353.243V507H350.773ZM361.188 504.029L363.649 504.442C363.333 505.345 362.832 506.033 362.146 506.508C361.467 506.977 360.614 507.211 359.589 507.211C357.966 507.211 356.765 506.681 355.985 505.62C355.37 504.771 355.062 503.698 355.062 502.403C355.062 500.856 355.467 499.646 356.275 498.773C357.084 497.895 358.106 497.455 359.343 497.455C360.731 497.455 361.827 497.915 362.63 498.835C363.433 499.749 363.816 501.152 363.781 503.045H357.594C357.611 503.777 357.811 504.349 358.191 504.759C358.572 505.163 359.047 505.365 359.615 505.365C360.002 505.365 360.327 505.26 360.591 505.049C360.854 504.838 361.054 504.498 361.188 504.029ZM361.329 501.533C361.312 500.818 361.127 500.276 360.775 499.907C360.424 499.532 359.996 499.345 359.492 499.345C358.953 499.345 358.508 499.541 358.156 499.934C357.805 500.326 357.632 500.859 357.638 501.533H361.329ZM365.803 507V494.115H368.272V507H365.803ZM370.812 507V494.115H373.282V507H370.812ZM381.228 504.029L383.688 504.442C383.372 505.345 382.871 506.033 382.186 506.508C381.506 506.977 380.653 507.211 379.628 507.211C378.005 507.211 376.804 506.681 376.024 505.62C375.409 504.771 375.102 503.698 375.102 502.403C375.102 500.856 375.506 499.646 376.314 498.773C377.123 497.895 378.146 497.455 379.382 497.455C380.771 497.455 381.866 497.915 382.669 498.835C383.472 499.749 383.855 501.152 383.82 503.045H377.633C377.65 503.777 377.85 504.349 378.23 504.759C378.611 505.163 379.086 505.365 379.654 505.365C380.041 505.365 380.366 505.26 380.63 505.049C380.894 504.838 381.093 504.498 381.228 504.029ZM381.368 501.533C381.351 500.818 381.166 500.276 380.814 499.907C380.463 499.532 380.035 499.345 379.531 499.345C378.992 499.345 378.547 499.541 378.195 499.934C377.844 500.326 377.671 500.859 377.677 501.533H381.368Z" fill="#C5D6FF"/>
<path d="M476 482C504.719 482 528 458.719 528 430C528 401.281 504.719 378 476 378C447.281 378 424 401.281 424 430C424 458.719 447.281 482 476 482Z" fill="#21345B"/>
<path d="M476 433C485.941 433 494 424.941 494 415C494 405.059 485.941 397 476 397C466.059 397 458 405.059 458 415C458 424.941 466.059 433 476 433Z" fill="#5D86E3"/>
<path d="M487 438H465C457.82 438 452 443.82 452 451C452 458.18 457.82 464 465 464H487C494.18 464 500 458.18 500 451C500 443.82 494.18 438 487 438Z" fill="#5D86E3"/>
<path d="M456.769 507V494.115H460.662L463 502.904L465.312 494.115H469.214V507H466.797V496.857L464.239 507H461.734L459.186 496.857V507H456.769ZM471.209 502.201C471.209 501.381 471.411 500.587 471.815 499.819C472.22 499.052 472.791 498.466 473.529 498.062C474.273 497.657 475.103 497.455 476.017 497.455C477.429 497.455 478.586 497.915 479.488 498.835C480.391 499.749 480.842 500.906 480.842 502.307C480.842 503.719 480.385 504.891 479.471 505.822C478.562 506.748 477.417 507.211 476.034 507.211C475.179 507.211 474.361 507.018 473.582 506.631C472.809 506.244 472.22 505.679 471.815 504.935C471.411 504.185 471.209 503.273 471.209 502.201ZM473.74 502.333C473.74 503.259 473.96 503.968 474.399 504.46C474.839 504.952 475.381 505.198 476.025 505.198C476.67 505.198 477.209 504.952 477.643 504.46C478.082 503.968 478.302 503.253 478.302 502.315C478.302 501.401 478.082 500.698 477.643 500.206C477.209 499.714 476.67 499.468 476.025 499.468C475.381 499.468 474.839 499.714 474.399 500.206C473.96 500.698 473.74 501.407 473.74 502.333ZM482.6 497.666H484.876V498.94C485.69 497.95 486.66 497.455 487.785 497.455C488.383 497.455 488.901 497.578 489.341 497.824C489.78 498.07 490.141 498.442 490.422 498.94C490.832 498.442 491.274 498.07 491.749 497.824C492.224 497.578 492.73 497.455 493.27 497.455C493.955 497.455 494.535 497.596 495.01 497.877C495.484 498.152 495.839 498.56 496.073 499.099C496.243 499.497 496.328 500.142 496.328 501.032V507H493.858V501.665C493.858 500.739 493.773 500.142 493.604 499.872C493.375 499.521 493.023 499.345 492.549 499.345C492.203 499.345 491.878 499.45 491.573 499.661C491.269 499.872 491.049 500.183 490.914 500.593C490.779 500.997 490.712 501.639 490.712 502.518V507H488.242V501.885C488.242 500.977 488.198 500.391 488.11 500.127C488.022 499.863 487.885 499.667 487.697 499.538C487.516 499.409 487.267 499.345 486.95 499.345C486.569 499.345 486.227 499.447 485.922 499.652C485.617 499.857 485.397 500.153 485.263 500.54C485.134 500.927 485.069 501.568 485.069 502.465V507H482.6V497.666Z" fill="#C5D6FF"/>
<path d="M602 482C630.719 482 654 458.719 654 430C654 401.281 630.719 378 602 378C573.281 378 550 401.281 550 430C550 458.719 573.281 482 602 482Z" fill="#1F3359"/>
<path d="M602 433C611.941 433 620 424.941 620 415C620 405.059 611.941 397 602 397C592.059 397 584 405.059 584 415C584 424.941 592.059 433 602 433Z" fill="#4A76DA"/>
<path d="M613 438H591C583.82 438 578 443.82 578 451C578 458.18 583.82 464 591 464H613C620.18 464 626 458.18 626 451C626 443.82 620.18 438 613 438Z" fill="#4A76DA"/>
<path d="M577.427 494.115H580.02V502.271C580.02 503.338 579.926 504.158 579.738 504.732C579.486 505.482 579.029 506.086 578.367 506.543C577.705 506.994 576.832 507.22 575.748 507.22C574.477 507.22 573.498 506.865 572.812 506.156C572.127 505.441 571.781 504.396 571.775 503.019L574.228 502.737C574.257 503.476 574.365 503.997 574.553 504.302C574.834 504.765 575.262 504.996 575.836 504.996C576.416 504.996 576.826 504.832 577.066 504.504C577.307 504.17 577.427 503.481 577.427 502.438V494.115ZM582.208 502.201C582.208 501.381 582.41 500.587 582.814 499.819C583.219 499.052 583.79 498.466 584.528 498.062C585.272 497.657 586.102 497.455 587.016 497.455C588.428 497.455 589.585 497.915 590.487 498.835C591.39 499.749 591.841 500.906 591.841 502.307C591.841 503.719 591.384 504.891 590.47 505.822C589.562 506.748 588.416 507.211 587.033 507.211C586.178 507.211 585.36 507.018 584.581 506.631C583.808 506.244 583.219 505.679 582.814 504.935C582.41 504.185 582.208 503.273 582.208 502.201ZM584.739 502.333C584.739 503.259 584.959 503.968 585.398 504.46C585.838 504.952 586.38 505.198 587.024 505.198C587.669 505.198 588.208 504.952 588.642 504.46C589.081 503.968 589.301 503.253 589.301 502.315C589.301 501.401 589.081 500.698 588.642 500.206C588.208 499.714 587.669 499.468 587.024 499.468C586.38 499.468 585.838 499.714 585.398 500.206C584.959 500.698 584.739 501.407 584.739 502.333ZM596.147 507H593.678V497.666H595.972V498.993C596.364 498.366 596.716 497.953 597.026 497.754C597.343 497.555 597.7 497.455 598.099 497.455C598.661 497.455 599.203 497.61 599.725 497.921L598.96 500.074C598.544 499.805 598.157 499.67 597.8 499.67C597.454 499.67 597.161 499.767 596.921 499.96C596.681 500.147 596.49 500.49 596.35 500.988C596.215 501.486 596.147 502.529 596.147 504.117V507ZM609.357 507H607.063V505.629C606.683 506.162 606.231 506.561 605.71 506.824C605.194 507.082 604.673 507.211 604.146 507.211C603.073 507.211 602.153 506.78 601.386 505.919C600.624 505.052 600.243 503.845 600.243 502.298C600.243 500.716 600.615 499.515 601.359 498.694C602.104 497.868 603.044 497.455 604.181 497.455C605.224 497.455 606.126 497.889 606.888 498.756V494.115H609.357V507ZM602.766 502.131C602.766 503.127 602.903 503.848 603.179 504.293C603.577 504.938 604.134 505.26 604.849 505.26C605.417 505.26 605.9 505.02 606.299 504.539C606.697 504.053 606.896 503.329 606.896 502.368C606.896 501.296 606.703 500.525 606.316 500.057C605.93 499.582 605.435 499.345 604.831 499.345C604.245 499.345 603.753 499.579 603.354 500.048C602.962 500.511 602.766 501.205 602.766 502.131ZM613.646 500.514L611.405 500.109C611.657 499.207 612.091 498.539 612.706 498.105C613.321 497.672 614.235 497.455 615.448 497.455C616.55 497.455 617.37 497.587 617.909 497.851C618.448 498.108 618.826 498.439 619.043 498.844C619.266 499.242 619.377 499.978 619.377 501.05L619.351 503.933C619.351 504.753 619.389 505.359 619.465 505.752C619.547 506.139 619.696 506.555 619.913 507H617.47C617.405 506.836 617.326 506.593 617.232 506.271C617.191 506.124 617.162 506.027 617.145 505.98C616.723 506.391 616.271 506.698 615.791 506.903C615.311 507.108 614.798 507.211 614.253 507.211C613.292 507.211 612.533 506.95 611.977 506.429C611.426 505.907 611.15 505.248 611.15 504.451C611.15 503.924 611.276 503.455 611.528 503.045C611.78 502.629 612.132 502.312 612.583 502.096C613.04 501.873 613.696 501.68 614.552 501.516C615.706 501.299 616.506 501.097 616.951 500.909V500.663C616.951 500.188 616.834 499.852 616.6 499.652C616.365 499.447 615.923 499.345 615.272 499.345C614.833 499.345 614.49 499.433 614.244 499.608C613.998 499.778 613.799 500.08 613.646 500.514ZM616.951 502.518C616.635 502.623 616.134 502.749 615.448 502.896C614.763 503.042 614.314 503.186 614.104 503.326C613.781 503.555 613.62 503.845 613.62 504.196C613.62 504.542 613.749 504.841 614.007 505.093C614.265 505.345 614.593 505.471 614.991 505.471C615.437 505.471 615.861 505.324 616.266 505.031C616.564 504.809 616.761 504.536 616.854 504.214C616.919 504.003 616.951 503.602 616.951 503.01V502.518ZM630.311 507H627.841V502.236C627.841 501.229 627.788 500.578 627.683 500.285C627.577 499.986 627.404 499.755 627.164 499.591C626.93 499.427 626.646 499.345 626.312 499.345C625.884 499.345 625.5 499.462 625.16 499.696C624.82 499.931 624.586 500.241 624.457 500.628C624.334 501.015 624.272 501.729 624.272 502.772V507H621.803V497.666H624.097V499.037C624.911 497.982 625.937 497.455 627.173 497.455C627.718 497.455 628.216 497.555 628.667 497.754C629.118 497.947 629.458 498.196 629.687 498.501C629.921 498.806 630.082 499.151 630.17 499.538C630.264 499.925 630.311 500.479 630.311 501.199V507Z" fill="#C5D6FF"/>
<path d="M728 482C756.719 482 780 458.719 780 430C780 401.281 756.719 378 728 378C699.281 378 676 401.281 676 430C676 458.719 699.281 482 728 482Z" fill="#1D3056"/>
<path d="M728 433C737.941 433 746 424.941 746 415C746 405.059 737.941 397 728 397C718.059 397 710 405.059 710 415C710 424.941 718.059 433 728 433Z" fill="#3A65CC"/>
<path d="M739 438H717C709.82 438 704 443.82 704 451C704 458.18 709.82 464 717 464H739C746.18 464 752 458.18 752 451C752 443.82 746.18 438 739 438Z" fill="#3A65CC"/>
<path d="M711.131 502.808L713.662 502.562C713.814 503.411 714.122 504.035 714.585 504.434C715.054 504.832 715.684 505.031 716.475 505.031C717.312 505.031 717.942 504.855 718.364 504.504C718.792 504.146 719.006 503.73 719.006 503.256C719.006 502.951 718.915 502.693 718.733 502.482C718.558 502.266 718.247 502.078 717.802 501.92C717.497 501.814 716.803 501.627 715.719 501.357C714.324 501.012 713.346 500.587 712.783 500.083C711.992 499.374 711.597 498.51 711.597 497.49C711.597 496.834 711.781 496.222 712.15 495.653C712.525 495.079 713.062 494.643 713.759 494.344C714.462 494.045 715.309 493.896 716.299 493.896C717.916 493.896 719.132 494.25 719.946 494.959C720.767 495.668 721.197 496.614 721.238 497.798L718.637 497.912C718.525 497.25 718.285 496.775 717.916 496.488C717.553 496.195 717.005 496.049 716.272 496.049C715.517 496.049 714.925 496.204 714.497 496.515C714.222 496.714 714.084 496.98 714.084 497.314C714.084 497.619 714.213 497.88 714.471 498.097C714.799 498.372 715.596 498.659 716.861 498.958C718.127 499.257 719.062 499.567 719.665 499.89C720.274 500.206 720.749 500.643 721.089 501.199C721.435 501.75 721.607 502.433 721.607 503.247C721.607 503.985 721.402 504.677 720.992 505.321C720.582 505.966 720.002 506.446 719.252 506.763C718.502 507.073 717.567 507.229 716.448 507.229C714.819 507.229 713.568 506.854 712.695 506.104C711.822 505.348 711.301 504.249 711.131 502.808ZM725.624 500.514L723.383 500.109C723.635 499.207 724.068 498.539 724.684 498.105C725.299 497.672 726.213 497.455 727.426 497.455C728.527 497.455 729.348 497.587 729.887 497.851C730.426 498.108 730.804 498.439 731.021 498.844C731.243 499.242 731.354 499.978 731.354 501.05L731.328 503.933C731.328 504.753 731.366 505.359 731.442 505.752C731.524 506.139 731.674 506.555 731.891 507H729.447C729.383 506.836 729.304 506.593 729.21 506.271C729.169 506.124 729.14 506.027 729.122 505.98C728.7 506.391 728.249 506.698 727.769 506.903C727.288 507.108 726.775 507.211 726.23 507.211C725.27 507.211 724.511 506.95 723.954 506.429C723.403 505.907 723.128 505.248 723.128 504.451C723.128 503.924 723.254 503.455 723.506 503.045C723.758 502.629 724.109 502.312 724.561 502.096C725.018 501.873 725.674 501.68 726.529 501.516C727.684 501.299 728.483 501.097 728.929 500.909V500.663C728.929 500.188 728.812 499.852 728.577 499.652C728.343 499.447 727.9 499.345 727.25 499.345C726.811 499.345 726.468 499.433 726.222 499.608C725.976 499.778 725.776 500.08 725.624 500.514ZM728.929 502.518C728.612 502.623 728.111 502.749 727.426 502.896C726.74 503.042 726.292 503.186 726.081 503.326C725.759 503.555 725.598 503.845 725.598 504.196C725.598 504.542 725.727 504.841 725.984 505.093C726.242 505.345 726.57 505.471 726.969 505.471C727.414 505.471 727.839 505.324 728.243 505.031C728.542 504.809 728.738 504.536 728.832 504.214C728.896 504.003 728.929 503.602 728.929 503.01V502.518ZM733.613 497.666H735.89V498.94C736.704 497.95 737.674 497.455 738.799 497.455C739.396 497.455 739.915 497.578 740.354 497.824C740.794 498.07 741.154 498.442 741.436 498.94C741.846 498.442 742.288 498.07 742.763 497.824C743.237 497.578 743.744 497.455 744.283 497.455C744.969 497.455 745.549 497.596 746.023 497.877C746.498 498.152 746.853 498.56 747.087 499.099C747.257 499.497 747.342 500.142 747.342 501.032V507H744.872V501.665C744.872 500.739 744.787 500.142 744.617 499.872C744.389 499.521 744.037 499.345 743.562 499.345C743.217 499.345 742.892 499.45 742.587 499.661C742.282 499.872 742.062 500.183 741.928 500.593C741.793 500.997 741.726 501.639 741.726 502.518V507H739.256V501.885C739.256 500.977 739.212 500.391 739.124 500.127C739.036 499.863 738.898 499.667 738.711 499.538C738.529 499.409 738.28 499.345 737.964 499.345C737.583 499.345 737.24 499.447 736.936 499.652C736.631 499.857 736.411 500.153 736.276 500.54C736.147 500.927 736.083 501.568 736.083 502.465V507H733.613V497.666Z" fill="#C5D6FF"/>
<path d="M854 482C882.719 482 906 458.719 906 430C906 401.281 882.719 378 854 378C825.281 378 802 401.281 802 430C802 458.719 825.281 482 854 482Z" fill="#1C2E53"/>
<path d="M854 433C863.941 433 872 424.941 872 415C872 405.059 863.941 397 854 397C844.059 397 836 405.059 836 415C836 424.941 844.059 433 854 433Z" fill="#2C56BF"/>
<path d="M865 438H843C835.82 438 830 443.82 830 451C830 458.18 835.82 464 843 464H865C872.18 464 878 458.18 878 451C878 443.82 872.18 438 865 438Z" fill="#2C56BF"/>
<path d="M834.761 507V494.115H838.654L840.992 502.904L843.304 494.115H847.206V507H844.789V496.857L842.231 507H839.727L837.178 496.857V507H834.761ZM849.772 496.4V494.115H852.242V496.4H849.772ZM849.772 507V497.666H852.242V507H849.772ZM863.272 507H860.803V502.236C860.803 501.229 860.75 500.578 860.645 500.285C860.539 499.986 860.366 499.755 860.126 499.591C859.892 499.427 859.607 499.345 859.273 499.345C858.846 499.345 858.462 499.462 858.122 499.696C857.782 499.931 857.548 500.241 857.419 500.628C857.296 501.015 857.234 501.729 857.234 502.772V507H854.765V497.666H857.059V499.037C857.873 497.982 858.898 497.455 860.135 497.455C860.68 497.455 861.178 497.555 861.629 497.754C862.08 497.947 862.42 498.196 862.648 498.501C862.883 498.806 863.044 499.151 863.132 499.538C863.226 499.925 863.272 500.479 863.272 501.199V507ZM867.632 500.514L865.391 500.109C865.643 499.207 866.076 498.539 866.691 498.105C867.307 497.672 868.221 497.455 869.434 497.455C870.535 497.455 871.355 497.587 871.895 497.851C872.434 498.108 872.812 498.439 873.028 498.844C873.251 499.242 873.362 499.978 873.362 501.05L873.336 503.933C873.336 504.753 873.374 505.359 873.45 505.752C873.532 506.139 873.682 506.555 873.898 507H871.455C871.391 506.836 871.312 506.593 871.218 506.271C871.177 506.124 871.147 506.027 871.13 505.98C870.708 506.391 870.257 506.698 869.776 506.903C869.296 507.108 868.783 507.211 868.238 507.211C867.277 507.211 866.519 506.95 865.962 506.429C865.411 505.907 865.136 505.248 865.136 504.451C865.136 503.924 865.262 503.455 865.514 503.045C865.766 502.629 866.117 502.312 866.568 502.096C867.025 501.873 867.682 501.68 868.537 501.516C869.691 501.299 870.491 501.097 870.937 500.909V500.663C870.937 500.188 870.819 499.852 870.585 499.652C870.351 499.447 869.908 499.345 869.258 499.345C868.818 499.345 868.476 499.433 868.229 499.608C867.983 499.778 867.784 500.08 867.632 500.514ZM870.937 502.518C870.62 502.623 870.119 502.749 869.434 502.896C868.748 503.042 868.3 503.186 868.089 503.326C867.767 503.555 867.605 503.845 867.605 504.196C867.605 504.542 867.734 504.841 867.992 505.093C868.25 505.345 868.578 505.471 868.977 505.471C869.422 505.471 869.847 505.324 870.251 505.031C870.55 504.809 870.746 504.536 870.84 504.214C870.904 504.003 870.937 503.602 870.937 503.01V502.518Z" fill="#C5D6FF"/>
<path d="M602 558H312C296.536 558 284 570.536 284 586C284 601.464 296.536 614 312 614H602C617.464 614 630 601.464 630 586C630 570.536 617.464 558 602 558Z" fill="url(#paint2_linear_105_1296)"/>
<path d="M358.867 588.41L362.242 588.082C362.445 589.215 362.855 590.047 363.473 590.578C364.098 591.109 364.938 591.375 365.992 591.375C367.109 591.375 367.949 591.141 368.512 590.672C369.082 590.195 369.367 589.641 369.367 589.008C369.367 588.602 369.246 588.258 369.004 587.977C368.77 587.688 368.355 587.438 367.762 587.227C367.355 587.086 366.43 586.836 364.984 586.477C363.125 586.016 361.82 585.449 361.07 584.777C360.016 583.832 359.488 582.68 359.488 581.32C359.488 580.445 359.734 579.629 360.227 578.871C360.727 578.105 361.441 577.523 362.371 577.125C363.309 576.727 364.438 576.527 365.758 576.527C367.914 576.527 369.535 577 370.621 577.945C371.715 578.891 372.289 580.152 372.344 581.73L368.875 581.883C368.727 581 368.406 580.367 367.914 579.984C367.43 579.594 366.699 579.398 365.723 579.398C364.715 579.398 363.926 579.605 363.355 580.02C362.988 580.285 362.805 580.641 362.805 581.086C362.805 581.492 362.977 581.84 363.32 582.129C363.758 582.496 364.82 582.879 366.508 583.277C368.195 583.676 369.441 584.09 370.246 584.52C371.059 584.941 371.691 585.523 372.145 586.266C372.605 587 372.836 587.91 372.836 588.996C372.836 589.98 372.562 590.902 372.016 591.762C371.469 592.621 370.695 593.262 369.695 593.684C368.695 594.098 367.449 594.305 365.957 594.305C363.785 594.305 362.117 593.805 360.953 592.805C359.789 591.797 359.094 590.332 358.867 588.41ZM378.051 594L374.113 581.555H377.312L379.645 589.711L381.789 581.555H384.965L387.039 589.711L389.418 581.555H392.664L388.668 594H385.504L383.359 585.996L381.25 594H378.051ZM394.41 579.867V576.82H397.703V579.867H394.41ZM394.41 594V581.555H397.703V594H394.41ZM406.797 581.555V584.18H404.547V589.195C404.547 590.211 404.566 590.805 404.605 590.977C404.652 591.141 404.75 591.277 404.898 591.387C405.055 591.496 405.242 591.551 405.461 591.551C405.766 591.551 406.207 591.445 406.785 591.234L407.066 593.789C406.301 594.117 405.434 594.281 404.465 594.281C403.871 594.281 403.336 594.184 402.859 593.988C402.383 593.785 402.031 593.527 401.805 593.215C401.586 592.895 401.434 592.465 401.348 591.926C401.277 591.543 401.242 590.77 401.242 589.605V584.18H399.73V581.555H401.242V579.082L404.547 577.16V581.555H406.797ZM419.934 585.234L416.688 585.82C416.578 585.172 416.328 584.684 415.938 584.355C415.555 584.027 415.055 583.863 414.438 583.863C413.617 583.863 412.961 584.148 412.469 584.719C411.984 585.281 411.742 586.227 411.742 587.555C411.742 589.031 411.988 590.074 412.48 590.684C412.98 591.293 413.648 591.598 414.484 591.598C415.109 591.598 415.621 591.422 416.02 591.07C416.418 590.711 416.699 590.098 416.863 589.23L420.098 589.781C419.762 591.266 419.117 592.387 418.164 593.145C417.211 593.902 415.934 594.281 414.332 594.281C412.512 594.281 411.059 593.707 409.973 592.559C408.895 591.41 408.355 589.82 408.355 587.789C408.355 585.734 408.898 584.137 409.984 582.996C411.07 581.848 412.539 581.273 414.391 581.273C415.906 581.273 417.109 581.602 418 582.258C418.898 582.906 419.543 583.898 419.934 585.234ZM425.723 576.82V583.137C426.785 581.895 428.055 581.273 429.531 581.273C430.289 581.273 430.973 581.414 431.582 581.695C432.191 581.977 432.648 582.336 432.953 582.773C433.266 583.211 433.477 583.695 433.586 584.227C433.703 584.758 433.762 585.582 433.762 586.699V594H430.469V587.426C430.469 586.121 430.406 585.293 430.281 584.941C430.156 584.59 429.934 584.312 429.613 584.109C429.301 583.898 428.906 583.793 428.43 583.793C427.883 583.793 427.395 583.926 426.965 584.191C426.535 584.457 426.219 584.859 426.016 585.398C425.82 585.93 425.723 586.719 425.723 587.766V594H422.43V576.82H425.723ZM443.793 579.867V576.82H447.086V579.867H443.793ZM443.793 594V581.555H447.086V594H443.793ZM461.793 594H458.5V587.648C458.5 586.305 458.43 585.438 458.289 585.047C458.148 584.648 457.918 584.34 457.598 584.121C457.285 583.902 456.906 583.793 456.461 583.793C455.891 583.793 455.379 583.949 454.926 584.262C454.473 584.574 454.16 584.988 453.988 585.504C453.824 586.02 453.742 586.973 453.742 588.363V594H450.449V581.555H453.508V583.383C454.594 581.977 455.961 581.273 457.609 581.273C458.336 581.273 459 581.406 459.602 581.672C460.203 581.93 460.656 582.262 460.961 582.668C461.273 583.074 461.488 583.535 461.605 584.051C461.73 584.566 461.793 585.305 461.793 586.266V594ZM471.062 587.602C471.062 586.508 471.332 585.449 471.871 584.426C472.41 583.402 473.172 582.621 474.156 582.082C475.148 581.543 476.254 581.273 477.473 581.273C479.355 581.273 480.898 581.887 482.102 583.113C483.305 584.332 483.906 585.875 483.906 587.742C483.906 589.625 483.297 591.188 482.078 592.43C480.867 593.664 479.34 594.281 477.496 594.281C476.355 594.281 475.266 594.023 474.227 593.508C473.195 592.992 472.41 592.238 471.871 591.246C471.332 590.246 471.062 589.031 471.062 587.602ZM474.438 587.777C474.438 589.012 474.73 589.957 475.316 590.613C475.902 591.27 476.625 591.598 477.484 591.598C478.344 591.598 479.062 591.27 479.641 590.613C480.227 589.957 480.52 589.004 480.52 587.754C480.52 586.535 480.227 585.598 479.641 584.941C479.062 584.285 478.344 583.957 477.484 583.957C476.625 583.957 475.902 584.285 475.316 584.941C474.73 585.598 474.438 586.543 474.438 587.777ZM497.816 594H494.523V587.648C494.523 586.305 494.453 585.438 494.312 585.047C494.172 584.648 493.941 584.34 493.621 584.121C493.309 583.902 492.93 583.793 492.484 583.793C491.914 583.793 491.402 583.949 490.949 584.262C490.496 584.574 490.184 584.988 490.012 585.504C489.848 586.02 489.766 586.973 489.766 588.363V594H486.473V581.555H489.531V583.383C490.617 581.977 491.984 581.273 493.633 581.273C494.359 581.273 495.023 581.406 495.625 581.672C496.227 581.93 496.68 582.262 496.984 582.668C497.297 583.074 497.512 583.535 497.629 584.051C497.754 584.566 497.816 585.305 497.816 586.266V594ZM508.375 590.039L511.656 590.59C511.234 591.793 510.566 592.711 509.652 593.344C508.746 593.969 507.609 594.281 506.242 594.281C504.078 594.281 502.477 593.574 501.438 592.16C500.617 591.027 500.207 589.598 500.207 587.871C500.207 585.809 500.746 584.195 501.824 583.031C502.902 581.859 504.266 581.273 505.914 581.273C507.766 581.273 509.227 581.887 510.297 583.113C511.367 584.332 511.879 586.203 511.832 588.727H503.582C503.605 589.703 503.871 590.465 504.379 591.012C504.887 591.551 505.52 591.82 506.277 591.82C506.793 591.82 507.227 591.68 507.578 591.398C507.93 591.117 508.195 590.664 508.375 590.039ZM508.562 586.711C508.539 585.758 508.293 585.035 507.824 584.543C507.355 584.043 506.785 583.793 506.113 583.793C505.395 583.793 504.801 584.055 504.332 584.578C503.863 585.102 503.633 585.812 503.641 586.711H508.562ZM526.914 581.555V584.18H524.664V589.195C524.664 590.211 524.684 590.805 524.723 590.977C524.77 591.141 524.867 591.277 525.016 591.387C525.172 591.496 525.359 591.551 525.578 591.551C525.883 591.551 526.324 591.445 526.902 591.234L527.184 593.789C526.418 594.117 525.551 594.281 524.582 594.281C523.988 594.281 523.453 594.184 522.977 593.988C522.5 593.785 522.148 593.527 521.922 593.215C521.703 592.895 521.551 592.465 521.465 591.926C521.395 591.543 521.359 590.77 521.359 589.605V584.18H519.848V581.555H521.359V579.082L524.664 577.16V581.555H526.914ZM531.66 585.352L528.672 584.812C529.008 583.609 529.586 582.719 530.406 582.141C531.227 581.562 532.445 581.273 534.062 581.273C535.531 581.273 536.625 581.449 537.344 581.801C538.062 582.145 538.566 582.586 538.855 583.125C539.152 583.656 539.301 584.637 539.301 586.066L539.266 589.91C539.266 591.004 539.316 591.812 539.418 592.336C539.527 592.852 539.727 593.406 540.016 594H536.758C536.672 593.781 536.566 593.457 536.441 593.027C536.387 592.832 536.348 592.703 536.324 592.641C535.762 593.188 535.16 593.598 534.52 593.871C533.879 594.145 533.195 594.281 532.469 594.281C531.188 594.281 530.176 593.934 529.434 593.238C528.699 592.543 528.332 591.664 528.332 590.602C528.332 589.898 528.5 589.273 528.836 588.727C529.172 588.172 529.641 587.75 530.242 587.461C530.852 587.164 531.727 586.906 532.867 586.688C534.406 586.398 535.473 586.129 536.066 585.879V585.551C536.066 584.918 535.91 584.469 535.598 584.203C535.285 583.93 534.695 583.793 533.828 583.793C533.242 583.793 532.785 583.91 532.457 584.145C532.129 584.371 531.863 584.773 531.66 585.352ZM536.066 588.023C535.645 588.164 534.977 588.332 534.062 588.527C533.148 588.723 532.551 588.914 532.27 589.102C531.84 589.406 531.625 589.793 531.625 590.262C531.625 590.723 531.797 591.121 532.141 591.457C532.484 591.793 532.922 591.961 533.453 591.961C534.047 591.961 534.613 591.766 535.152 591.375C535.551 591.078 535.812 590.715 535.938 590.285C536.023 590.004 536.066 589.469 536.066 588.68V588.023ZM542.465 581.555H545.535V583.383C545.934 582.758 546.473 582.25 547.152 581.859C547.832 581.469 548.586 581.273 549.414 581.273C550.859 581.273 552.086 581.84 553.094 582.973C554.102 584.105 554.605 585.684 554.605 587.707C554.605 589.785 554.098 591.402 553.082 592.559C552.066 593.707 550.836 594.281 549.391 594.281C548.703 594.281 548.078 594.145 547.516 593.871C546.961 593.598 546.375 593.129 545.758 592.465V598.734H542.465V581.555ZM545.723 587.566C545.723 588.965 546 590 546.555 590.672C547.109 591.336 547.785 591.668 548.582 591.668C549.348 591.668 549.984 591.363 550.492 590.754C551 590.137 551.254 589.129 551.254 587.73C551.254 586.426 550.992 585.457 550.469 584.824C549.945 584.191 549.297 583.875 548.523 583.875C547.719 583.875 547.051 584.188 546.52 584.812C545.988 585.43 545.723 586.348 545.723 587.566Z" fill="white"/>
<path d="M844 558H676C660.536 558 648 570.536 648 586C648 601.464 660.536 614 676 614H844C859.464 614 872 601.464 872 586C872 570.536 859.464 558 844 558Z" fill="#233B64"/>
<path d="M677.644 594V578.252H680.823V585.245L687.247 578.252H691.522L685.593 584.386L691.845 594H687.73L683.401 586.609L680.823 589.241V594H677.644ZM700.084 590.369L703.092 590.874C702.705 591.977 702.093 592.818 701.255 593.398C700.424 593.971 699.382 594.258 698.129 594.258C696.145 594.258 694.677 593.61 693.725 592.313C692.973 591.275 692.597 589.965 692.597 588.382C692.597 586.491 693.091 585.012 694.079 583.945C695.067 582.871 696.317 582.334 697.828 582.334C699.525 582.334 700.865 582.896 701.846 584.021C702.827 585.138 703.296 586.853 703.253 589.166H695.69C695.712 590.061 695.955 590.759 696.421 591.261C696.886 591.755 697.466 592.002 698.161 592.002C698.634 592.002 699.031 591.873 699.354 591.615C699.676 591.357 699.919 590.942 700.084 590.369ZM700.256 587.318C700.234 586.445 700.009 585.782 699.579 585.331C699.149 584.873 698.627 584.644 698.011 584.644C697.352 584.644 696.808 584.883 696.378 585.363C695.948 585.843 695.737 586.495 695.744 587.318H700.256ZM712.33 590.369L715.338 590.874C714.951 591.977 714.339 592.818 713.501 593.398C712.67 593.971 711.628 594.258 710.375 594.258C708.391 594.258 706.923 593.61 705.971 592.313C705.219 591.275 704.843 589.965 704.843 588.382C704.843 586.491 705.337 585.012 706.325 583.945C707.313 582.871 708.563 582.334 710.074 582.334C711.771 582.334 713.111 582.896 714.092 584.021C715.073 585.138 715.542 586.853 715.499 589.166H707.937C707.958 590.061 708.201 590.759 708.667 591.261C709.132 591.755 709.713 592.002 710.407 592.002C710.88 592.002 711.277 591.873 711.6 591.615C711.922 591.357 712.165 590.942 712.33 590.369ZM712.502 587.318C712.48 586.445 712.255 585.782 711.825 585.331C711.396 584.873 710.873 584.644 710.257 584.644C709.598 584.644 709.054 584.883 708.624 585.363C708.194 585.843 707.983 586.495 707.99 587.318H712.502ZM717.884 582.592H720.698V584.268C721.063 583.695 721.558 583.229 722.181 582.871C722.804 582.513 723.495 582.334 724.254 582.334C725.579 582.334 726.703 582.853 727.627 583.892C728.551 584.93 729.013 586.377 729.013 588.231C729.013 590.136 728.547 591.619 727.616 592.679C726.685 593.731 725.557 594.258 724.232 594.258C723.602 594.258 723.029 594.132 722.514 593.882C722.005 593.631 721.468 593.201 720.902 592.593V598.34H717.884V582.592ZM720.87 588.103C720.87 589.384 721.124 590.333 721.633 590.949C722.141 591.558 722.761 591.862 723.491 591.862C724.193 591.862 724.777 591.583 725.242 591.024C725.708 590.459 725.94 589.535 725.94 588.253C725.94 587.057 725.701 586.169 725.221 585.589C724.741 585.009 724.146 584.719 723.438 584.719C722.7 584.719 722.088 585.005 721.601 585.578C721.114 586.144 720.87 586.985 720.87 588.103ZM730.355 590.745L733.385 590.283C733.514 590.87 733.775 591.318 734.169 591.626C734.563 591.927 735.114 592.077 735.823 592.077C736.604 592.077 737.191 591.934 737.585 591.647C737.85 591.447 737.982 591.178 737.982 590.842C737.982 590.613 737.911 590.423 737.768 590.272C737.617 590.129 737.281 589.997 736.758 589.875C734.323 589.338 732.78 588.847 732.128 588.403C731.226 587.787 730.774 586.932 730.774 585.836C730.774 584.848 731.165 584.017 731.945 583.344C732.726 582.671 733.936 582.334 735.576 582.334C737.137 582.334 738.298 582.588 739.057 583.097C739.816 583.605 740.339 584.357 740.625 585.353L737.778 585.879C737.657 585.435 737.424 585.095 737.08 584.858C736.743 584.622 736.26 584.504 735.63 584.504C734.835 584.504 734.266 584.615 733.922 584.837C733.693 584.994 733.578 585.199 733.578 585.449C733.578 585.664 733.678 585.847 733.879 585.997C734.151 586.198 735.089 586.48 736.693 586.846C738.305 587.211 739.429 587.659 740.066 588.188C740.697 588.726 741.012 589.474 741.012 590.434C741.012 591.479 740.575 592.378 739.701 593.13C738.827 593.882 737.535 594.258 735.823 594.258C734.269 594.258 733.037 593.943 732.128 593.312C731.226 592.682 730.635 591.826 730.355 590.745ZM749.788 594V578.252H752.807V594H749.788ZM758.167 586.072L755.428 585.578C755.736 584.475 756.266 583.659 757.018 583.129C757.77 582.599 758.887 582.334 760.369 582.334C761.715 582.334 762.718 582.495 763.377 582.817C764.036 583.132 764.498 583.537 764.763 584.031C765.035 584.518 765.171 585.417 765.171 586.728L765.139 590.251C765.139 591.254 765.185 591.995 765.278 592.475C765.379 592.947 765.561 593.456 765.826 594H762.84C762.761 593.799 762.664 593.502 762.55 593.108C762.5 592.929 762.464 592.811 762.442 592.754C761.927 593.255 761.375 593.631 760.788 593.882C760.201 594.132 759.574 594.258 758.908 594.258C757.734 594.258 756.806 593.939 756.126 593.302C755.453 592.664 755.116 591.859 755.116 590.885C755.116 590.24 755.27 589.667 755.578 589.166C755.886 588.658 756.316 588.271 756.867 588.006C757.426 587.734 758.228 587.497 759.273 587.297C760.684 587.032 761.662 586.785 762.206 586.556V586.255C762.206 585.675 762.063 585.263 761.776 585.02C761.49 584.769 760.949 584.644 760.154 584.644C759.617 584.644 759.198 584.751 758.897 584.966C758.597 585.174 758.353 585.542 758.167 586.072ZM762.206 588.521C761.819 588.65 761.207 588.804 760.369 588.983C759.531 589.162 758.983 589.338 758.726 589.51C758.332 589.789 758.135 590.144 758.135 590.573C758.135 590.996 758.292 591.361 758.607 591.669C758.923 591.977 759.324 592.131 759.811 592.131C760.355 592.131 760.874 591.952 761.368 591.594C761.733 591.322 761.973 590.989 762.088 590.595C762.167 590.337 762.206 589.846 762.206 589.123V588.521ZM767.094 590.745L770.123 590.283C770.252 590.87 770.513 591.318 770.907 591.626C771.301 591.927 771.853 592.077 772.562 592.077C773.342 592.077 773.929 591.934 774.323 591.647C774.588 591.447 774.721 591.178 774.721 590.842C774.721 590.613 774.649 590.423 774.506 590.272C774.355 590.129 774.019 589.997 773.496 589.875C771.061 589.338 769.518 588.847 768.866 588.403C767.964 587.787 767.513 586.932 767.513 585.836C767.513 584.848 767.903 584.017 768.684 583.344C769.464 582.671 770.674 582.334 772.314 582.334C773.876 582.334 775.036 582.588 775.795 583.097C776.554 583.605 777.077 584.357 777.363 585.353L774.517 585.879C774.395 585.435 774.162 585.095 773.818 584.858C773.482 584.622 772.998 584.504 772.368 584.504C771.573 584.504 771.004 584.615 770.66 584.837C770.431 584.994 770.316 585.199 770.316 585.449C770.316 585.664 770.417 585.847 770.617 585.997C770.889 586.198 771.827 586.48 773.432 586.846C775.043 587.211 776.167 587.659 776.805 588.188C777.435 588.726 777.75 589.474 777.75 590.434C777.75 591.479 777.313 592.378 776.439 593.13C775.566 593.882 774.273 594.258 772.562 594.258C771.007 594.258 769.776 593.943 768.866 593.312C767.964 592.682 767.373 591.826 767.094 590.745ZM785.635 582.592V584.998H783.572V589.596C783.572 590.527 783.59 591.071 783.626 591.229C783.669 591.379 783.758 591.504 783.895 591.604C784.038 591.705 784.21 591.755 784.41 591.755C784.689 591.755 785.094 591.658 785.624 591.465L785.882 593.807C785.18 594.107 784.385 594.258 783.497 594.258C782.953 594.258 782.462 594.168 782.025 593.989C781.589 593.803 781.266 593.567 781.059 593.28C780.858 592.987 780.718 592.593 780.64 592.099C780.575 591.748 780.543 591.039 780.543 589.972V584.998H779.157V582.592H780.543V580.325L783.572 578.563V582.592H785.635ZM801.361 594V592.292C800.946 592.901 800.398 593.381 799.718 593.731C799.045 594.082 798.332 594.258 797.58 594.258C796.814 594.258 796.126 594.09 795.518 593.753C794.909 593.416 794.468 592.944 794.196 592.335C793.924 591.726 793.788 590.885 793.788 589.811V582.592H796.807V587.834C796.807 589.438 796.86 590.423 796.968 590.788C797.082 591.146 797.286 591.433 797.58 591.647C797.874 591.855 798.246 591.959 798.697 591.959C799.213 591.959 799.675 591.819 800.083 591.54C800.491 591.254 800.771 590.903 800.921 590.487C801.071 590.065 801.146 589.037 801.146 587.404V582.592H804.165V594H801.361ZM806.238 590.745L809.268 590.283C809.396 590.87 809.658 591.318 810.052 591.626C810.446 591.927 810.997 592.077 811.706 592.077C812.487 592.077 813.074 591.934 813.468 591.647C813.733 591.447 813.865 591.178 813.865 590.842C813.865 590.613 813.794 590.423 813.65 590.272C813.5 590.129 813.163 589.997 812.641 589.875C810.206 589.338 808.662 588.847 808.011 588.403C807.108 587.787 806.657 586.932 806.657 585.836C806.657 584.848 807.048 584.017 807.828 583.344C808.609 582.671 809.819 582.334 811.459 582.334C813.02 582.334 814.18 582.588 814.939 583.097C815.699 583.605 816.221 584.357 816.508 585.353L813.661 585.879C813.539 585.435 813.307 585.095 812.963 584.858C812.626 584.622 812.143 584.504 811.513 584.504C810.718 584.504 810.148 584.615 809.805 584.837C809.576 584.994 809.461 585.199 809.461 585.449C809.461 585.664 809.561 585.847 809.762 585.997C810.034 586.198 810.972 586.48 812.576 586.846C814.188 587.211 815.312 587.659 815.949 588.188C816.579 588.726 816.895 589.474 816.895 590.434C816.895 591.479 816.458 592.378 815.584 593.13C814.71 593.882 813.418 594.258 811.706 594.258C810.152 594.258 808.92 593.943 808.011 593.312C807.108 592.682 806.518 591.826 806.238 590.745ZM826.154 590.369L829.162 590.874C828.775 591.977 828.163 592.818 827.325 593.398C826.494 593.971 825.452 594.258 824.199 594.258C822.215 594.258 820.747 593.61 819.795 592.313C819.043 591.275 818.667 589.965 818.667 588.382C818.667 586.491 819.161 585.012 820.149 583.945C821.138 582.871 822.387 582.334 823.898 582.334C825.596 582.334 826.935 582.896 827.916 584.021C828.897 585.138 829.366 586.853 829.323 589.166H821.761C821.782 590.061 822.026 590.759 822.491 591.261C822.957 591.755 823.537 592.002 824.231 592.002C824.704 592.002 825.102 591.873 825.424 591.615C825.746 591.357 825.99 590.942 826.154 590.369ZM826.326 587.318C826.305 586.445 826.079 585.782 825.649 585.331C825.22 584.873 824.697 584.644 824.081 584.644C823.422 584.644 822.878 584.883 822.448 585.363C822.019 585.843 821.807 586.495 821.814 587.318H826.326ZM842.257 594H839.453V592.324C838.988 592.976 838.436 593.463 837.799 593.785C837.169 594.1 836.531 594.258 835.887 594.258C834.576 594.258 833.452 593.731 832.514 592.679C831.583 591.619 831.117 590.144 831.117 588.253C831.117 586.319 831.572 584.851 832.481 583.849C833.391 582.839 834.54 582.334 835.93 582.334C837.204 582.334 838.307 582.864 839.238 583.924V578.252H842.257V594ZM834.2 588.049C834.2 589.266 834.368 590.147 834.705 590.691C835.192 591.479 835.872 591.873 836.746 591.873C837.441 591.873 838.032 591.579 838.519 590.992C839.006 590.398 839.249 589.513 839.249 588.339C839.249 587.028 839.013 586.087 838.54 585.514C838.067 584.934 837.462 584.644 836.725 584.644C836.008 584.644 835.407 584.93 834.92 585.503C834.44 586.069 834.2 586.917 834.2 588.049Z" fill="#D0DEFF"/>
</g>
<defs>
<linearGradient id="paint0_linear_105_1296" x1="0" y1="0" x2="1200" y2="800" gradientUnits="userSpaceOnUse">
<stop stop-color="#0C1223"/>
<stop offset="1" stop-color="#111B31"/>
</linearGradient>
<linearGradient id="paint1_linear_105_1296" x1="228" y1="174" x2="975" y2="648" gradientUnits="userSpaceOnUse">
<stop stop-color="#3D8BFF"/>
<stop offset="1" stop-color="#A65AFF"/>
</linearGradient>
<linearGradient id="paint2_linear_105_1296" x1="228" y1="174" x2="975" y2="648" gradientUnits="userSpaceOnUse">
<stop stop-color="#3D8BFF"/>
<stop offset="1" stop-color="#A65AFF"/>
</linearGradient>
<clipPath id="clip0_105_1296">
<rect width="1200" height="800" fill="white"/>
</clipPath>
</defs>
</svg>
