<svg fill="none" height="800" viewBox="0 0 1200 800" width="1200" xmlns="http://www.w3.org/2000/svg" xmlns:xlink="http://www.w3.org/1999/xlink"><linearGradient id="a" gradientUnits="userSpaceOnUse" x1="0" x2="1200" y1="0" y2="800"><stop offset="0" stop-color="#f8faff"/><stop offset="1" stop-color="#eef3ff"/></linearGradient><linearGradient id="b"><stop offset="0" stop-color="#1f6dff"/><stop offset="1" stop-color="#8e2dff"/></linearGradient><linearGradient id="c" gradientUnits="userSpaceOnUse" x1="246" x2="993" xlink:href="#b" y1="174" y2="648"/><linearGradient id="d" gradientUnits="userSpaceOnUse" x1="228" x2="975" xlink:href="#b" y1="174" y2="648"/><clipPath id="e"><path d="m0 0h1200v800h-1200z"/></clipPath><g clip-path="url(#e)"><path d="m1160 0h-1120c-22.0914 0-40 17.9086-40 40v720c0 22.091 17.9086 40 40 40h1120c22.09 0 40-17.909 40-40v-720c0-22.0914-17.91-40-40-40z" fill="url(#a)"/><path d="m332 68h-242c-12.1503 0-22 9.8497-22 22 0 12.15 9.8497 22 22 22h242c12.15 0 22-9.85 22-22 0-12.1503-9.85-22-22-22z" fill="#e7eeff"/><path d="m103.758 94v-17.1797h7.301c1.836 0 3.168.1563 3.996.4688.836.3047 1.504.8515 2.004 1.6406s.75 1.6914.75 2.707c0 1.2891-.379 2.3555-1.137 3.1992-.758.836-1.891 1.3633-3.399 1.5821.75.4375 1.368.9179 1.852 1.4414.492.5234 1.152 1.4531 1.98 2.789l2.098 3.3516h-4.148l-2.508-3.7383c-.891-1.3359-1.5-2.1758-1.828-2.5195-.328-.3516-.676-.5899-1.043-.7149-.367-.1328-.949-.1992-1.746-.1992h-.703v7.1719zm3.469-9.9141h2.566c1.664 0 2.703-.0703 3.117-.2109s.738-.3828.973-.7266c.234-.3437.351-.7734.351-1.289 0-.5782-.156-1.043-.468-1.3946-.305-.3593-.739-.5859-1.301-.6796-.281-.0391-1.125-.0586-2.531-.0586h-2.707zm21.046 5.9532 3.282.5507c-.422 1.2032-1.09 2.1211-2.004 2.754-.906.625-2.043.9374-3.41.9374-2.164 0-3.766-.707-4.805-2.121-.82-1.1329-1.231-2.5625-1.231-4.2891 0-2.0625.54-3.6758 1.618-4.8399 1.078-1.1718 2.441-1.7578 4.089-1.7578 1.852 0 3.313.6133 4.383 1.8399 1.071 1.2187 1.582 3.0898 1.535 5.6133h-8.25c.024.9765.29 1.7382.797 2.2851.508.5391 1.141.8086 1.899.8086.515 0 .949-.1406 1.301-.4219.351-.2812.617-.7343.796-1.3593zm.188-3.3282c-.023-.9531-.27-1.6757-.738-2.1679-.469-.5-1.039-.75-1.711-.75-.719 0-1.313.2617-1.782.7851-.468.5235-.699 1.2344-.691 2.1328zm16.816-1.4765-3.246.5859c-.109-.6484-.359-1.1367-.75-1.4648-.383-.3282-.883-.4922-1.5-.4922-.82 0-1.476.2851-1.969.8555-.484.5624-.726 1.5078-.726 2.8359 0 1.4765.246 2.5195.738 3.1289.5.6094 1.168.9141 2.004.9141.625 0 1.137-.1758 1.535-.5274.399-.3594.68-.9726.844-1.8398l3.234.5507c-.336 1.4844-.98 2.6055-1.933 3.3633s-2.231 1.1367-3.832 1.1367c-1.821 0-3.274-.5742-4.36-1.7226-1.078-1.1484-1.617-2.7383-1.617-4.7695 0-2.0547.543-3.6524 1.629-4.793 1.086-1.1484 2.555-1.7227 4.406-1.7227 1.516 0 2.719.3282 3.61.9844.898.6484 1.543 1.6406 1.933 2.9766zm9.715 4.8047 3.281.5507c-.421 1.2032-1.089 2.1211-2.003 2.754-.907.625-2.043.9374-3.411.9374-2.164 0-3.765-.707-4.804-2.121-.821-1.1329-1.231-2.5625-1.231-4.2891 0-2.0625.539-3.6758 1.617-4.8399 1.079-1.1718 2.442-1.7578 4.09-1.7578 1.852 0 3.313.6133 4.383 1.8399 1.07 1.2187 1.582 3.0898 1.535 5.6133h-8.25c.024.9765.289 1.7382.797 2.2851.508.5391 1.141.8086 1.899.8086.515 0 .949-.1406 1.3-.4219.352-.2812.617-.7343.797-1.3593zm.188-3.3282c-.024-.9531-.27-1.6757-.739-2.1679-.468-.5-1.039-.75-1.711-.75-.718 0-1.312.2617-1.781.7851-.469.5235-.699 1.2344-.691 2.1328zm17.285 7.2891h-3.293v-6.3516c0-1.3437-.07-2.2109-.211-2.6015-.141-.3985-.371-.7071-.691-.9258-.313-.2188-.692-.3281-1.137-.3281-.571 0-1.082.1562-1.535.4687s-.766.7266-.938 1.2422c-.164.5156-.246 1.4688-.246 2.8594v5.6367h-3.293v-12.4453h3.059v1.8281c1.086-1.4062 2.453-2.1094 4.101-2.1094.727 0 1.391.1328 1.992.3985.602.2578 1.055.5898 1.36.9961.312.4062.527.8672.644 1.3828.125.5156.188 1.2539.188 2.2148zm9.058-12.4453v2.625h-2.25v5.0156c0 1.0156.02 1.6094.059 1.7813.047.164.145.3007.293.4101.156.1094.344.1641.563.1641.304 0 .746-.1055 1.324-.3164l.281 2.5547c-.766.3281-1.633.4921-2.602.4921-.593 0-1.129-.0976-1.605-.2929-.477-.2031-.828-.461-1.055-.7735-.219-.3203-.371-.75-.457-1.289-.07-.3828-.105-1.1563-.105-2.3203v-5.4258h-1.512v-2.625h1.512v-2.4727l3.304-1.9218v4.3945zm12.118 12.4453h-3.293v-12.4453h3.058v1.7695c.524-.8359.992-1.3867 1.406-1.6523.422-.2657.899-.3985 1.43-.3985.75 0 1.473.2071 2.168.6211l-1.019 2.8711c-.555-.3594-1.071-.539-1.547-.539-.461 0-.852.1289-1.172.3867-.32.25-.574.707-.762 1.3711-.18.664-.269 2.0547-.269 4.1718zm13.406-3.9609 3.281.5507c-.422 1.2032-1.09 2.1211-2.004 2.754-.906.625-2.043.9374-3.41.9374-2.164 0-3.766-.707-4.805-2.121-.82-1.1329-1.23-2.5625-1.23-4.2891 0-2.0625.539-3.6758 1.617-4.8399 1.078-1.1718 2.442-1.7578 4.09-1.7578 1.852 0 3.312.6133 4.383 1.8399 1.07 1.2187 1.582 3.0898 1.535 5.6133h-8.25c.023.9765.289 1.7382.797 2.2851.508.5391 1.14.8086 1.898.8086.516 0 .949-.1406 1.301-.4219.352-.2812.617-.7343.797-1.3593zm.187-3.3282c-.023-.9531-.269-1.6757-.738-2.1679-.469-.5-1.039-.75-1.711-.75-.719 0-1.312.2617-1.781.7851-.469.5235-.699 1.2344-.692 2.1328zm16.817-1.4765-3.246.5859c-.11-.6484-.36-1.1367-.75-1.4648-.383-.3282-.883-.4922-1.5-.4922-.821 0-1.477.2851-1.969.8555-.484.5624-.727 1.5078-.727 2.8359 0 1.4765.246 2.5195.739 3.1289.5.6094 1.168.9141 2.004.9141.625 0 1.136-.1758 1.535-.5274.398-.3594.679-.9726.843-1.8398l3.235.5507c-.336 1.4844-.981 2.6055-1.934 3.3633s-2.23 1.1367-3.832 1.1367c-1.82 0-3.273-.5742-4.359-1.7226-1.078-1.1484-1.617-2.7383-1.617-4.7695 0-2.0547.543-3.6524 1.629-4.793 1.086-1.1484 2.554-1.7227 4.406-1.7227 1.515 0 2.719.3282 3.609.9844.899.6484 1.543 1.6406 1.934 2.9766zm2.508-5.3672v-3.0469h3.293v3.0469zm0 14.1328v-12.4453h3.293v12.4453zm6.586-12.4453h3.07v1.8281c.398-.625.937-1.1328 1.617-1.5234s1.434-.586 2.262-.586c1.445 0 2.672.5664 3.679 1.6993 1.008 1.1328 1.512 2.7109 1.512 4.7343 0 2.0782-.508 3.6953-1.523 4.8516-1.016 1.1484-2.246 1.7226-3.692 1.7226-.687 0-1.312-.1367-1.875-.4101-.554-.2734-1.14-.7422-1.757-1.4063v6.2696h-3.293zm3.257 6.0117c0 1.3984.278 2.4336.832 3.1055.555.664 1.231.9961 2.028.9961.765 0 1.402-.3047 1.91-.9141.508-.6172.762-1.625.762-3.0234 0-1.3047-.262-2.2735-.786-2.9063-.523-.6328-1.171-.9492-1.945-.9492-.805 0-1.473.3125-2.004.9375-.531.6172-.797 1.5352-.797 2.7539zm11.508-7.6992v-3.0469h3.293v3.0469zm0 14.1328v-12.4453h3.293v12.4453zm13.887-3.9609 3.281.5507c-.422 1.2032-1.09 2.1211-2.004 2.754-.906.625-2.043.9374-3.41.9374-2.164 0-3.766-.707-4.805-2.121-.82-1.1329-1.23-2.5625-1.23-4.2891 0-2.0625.539-3.6758 1.617-4.8399 1.078-1.1718 2.442-1.7578 4.09-1.7578 1.852 0 3.312.6133 4.383 1.8399 1.07 1.2187 1.582 3.0898 1.535 5.6133h-8.25c.023.9765.289 1.7382.797 2.2851.508.5391 1.14.8086 1.898.8086.516 0 .949-.1406 1.301-.4219.352-.2812.617-.7343.797-1.3593zm.187-3.3282c-.023-.9531-.269-1.6757-.738-2.1679-.469-.5-1.039-.75-1.711-.75-.719 0-1.312.2617-1.781.7851-.469.5235-.699 1.2344-.692 2.1328zm17.286 7.2891h-3.293v-6.3516c0-1.3437-.071-2.2109-.211-2.6015-.141-.3985-.371-.7071-.692-.9258-.312-.2188-.691-.3281-1.136-.3281-.571 0-1.083.1562-1.536.4687s-.765.7266-.937 1.2422c-.164.5156-.246 1.4688-.246 2.8594v5.6367h-3.293v-12.4453h3.058v1.8281c1.086-1.4062 2.454-2.1094 4.102-2.1094.726 0 1.391.1328 1.992.3985.602.2578 1.055.5898 1.36.9961.312.4062.527.8672.644 1.3828.125.5156.188 1.2539.188 2.2148zm9.058-12.4453v2.625h-2.25v5.0156c0 1.0156.02 1.6094.059 1.7813.047.164.144.3007.293.4101.156.1094.343.1641.562.1641.305 0 .746-.1055 1.324-.3164l.282 2.5547c-.766.3281-1.633.4921-2.602.4921-.594 0-1.129-.0976-1.605-.2929-.477-.2031-.829-.461-1.055-.7735-.219-.3203-.371-.75-.457-1.289-.07-.3828-.106-1.1563-.106-2.3203v-5.4258h-1.511v-2.625h1.511v-2.4727l3.305-1.9218v4.3945zm1.125 8.8945 3.305-.5039c.14.6406.426 1.1289.855 1.4649.43.3281 1.032.4921 1.805.4921.852 0 1.492-.1562 1.922-.4687.289-.2188.433-.5117.433-.8789 0-.25-.078-.457-.234-.6211-.164-.1563-.531-.3008-1.101-.4336-2.657-.5859-4.34-1.1211-5.051-1.6055-.985-.6718-1.477-1.6054-1.477-2.8007 0-1.0782.426-1.9844 1.278-2.7188.851-.7344 2.171-1.1016 3.96-1.1016 1.704 0 2.969.2774 3.797.8321s1.399 1.375 1.711 2.4609l-3.105.5742c-.133-.4844-.387-.8554-.762-1.1133-.367-.2578-.894-.3867-1.582-.3867-.867 0-1.488.1211-1.863.3633-.25.1719-.375.3945-.375.668 0 .2343.109.4336.328.5976.297.2188 1.32.5274 3.07.9258 1.758.3985 2.985.8867 3.68 1.4649.687.5859 1.031 1.4023 1.031 2.4492 0 1.1406-.476 2.1211-1.43 2.9414-.953.8203-2.363 1.2304-4.23 1.2304-1.695 0-3.039-.3437-4.031-1.0312-.985-.6875-1.629-1.6211-1.934-2.8008z" fill="#2d58d1"/><path d="m930 146h-660c-23.196 0-42 18.804-42 42v428c0 23.196 18.804 42 42 42h660c23.196 0 42-18.804 42-42v-428c0-23.196-18.804-42-42-42z" fill="#fff" stroke="#dde6ff"/><path d="m894 204h-588c-13.255 0-24 10.745-24 24v44c0 13.255 10.745 24 24 24h588c13.255 0 24-10.745 24-24v-44c0-13.255-10.745-24-24-24z" fill="#f4f8ff"/><path d="m334 274c13.255 0 24-10.745 24-24s-10.745-24-24-24-24 10.745-24 24 10.745 24 24 24z" fill="#b0c8ff"/><path d="m371.734 237.82h6.34c1.43 0 2.52.11 3.27.328 1.008.297 1.871.825 2.59 1.582.718.758 1.265 1.688 1.64 2.79.375 1.093.563 2.445.563 4.054 0 1.414-.176 2.633-.528 3.656-.429 1.25-1.043 2.262-1.839 3.036-.602.586-1.415 1.043-2.438 1.371-.766.242-1.789.363-3.07.363h-6.528zm3.469 2.907v11.378h2.59c.969 0 1.668-.054 2.098-.164.562-.14 1.027-.379 1.394-.714.375-.336.68-.887.914-1.653.235-.773.352-1.824.352-3.152s-.117-2.348-.352-3.059c-.234-.711-.562-1.265-.984-1.664-.422-.398-.957-.668-1.606-.808-.484-.11-1.433-.164-2.847-.164zm21.07 10.312 3.282.551c-.422 1.203-1.09 2.121-2.004 2.754-.906.625-2.043.937-3.41.937-2.164 0-3.766-.707-4.805-2.121-.82-1.133-1.231-2.562-1.231-4.289 0-2.062.54-3.676 1.618-4.84 1.078-1.172 2.441-1.758 4.089-1.758 1.852 0 3.313.614 4.383 1.84 1.071 1.219 1.582 3.09 1.535 5.614h-8.25c.024.976.29 1.738.797 2.285.508.539 1.141.808 1.899.808.515 0 .949-.14 1.301-.422.351-.281.617-.734.796-1.359zm.188-3.328c-.023-.953-.27-1.676-.738-2.168-.469-.5-1.039-.75-1.711-.75-.719 0-1.313.262-1.782.785-.468.524-.699 1.234-.691 2.133zm4.523-5.156h1.828v-.938c0-1.047.11-1.828.329-2.344.226-.515.636-.933 1.23-1.253.602-.329 1.359-.493 2.274-.493.937 0 1.855.141 2.753.422l-.445 2.297c-.523-.125-1.027-.187-1.512-.187-.476 0-.82.113-1.031.339-.203.219-.305.645-.305 1.278v.879h2.461v2.59h-2.461v9.855h-3.293v-9.855h-1.828zm11.895 3.797-2.988-.54c.336-1.203.914-2.093 1.734-2.671.82-.579 2.039-.868 3.656-.868 1.469 0 2.563.176 3.281.528.719.344 1.223.785 1.512 1.324.297.531.446 1.512.446 2.941l-.036 3.844c0 1.094.051 1.902.153 2.426.109.516.308 1.07.597 1.664h-3.257c-.086-.219-.192-.543-.317-.973-.055-.195-.094-.324-.117-.386-.563.547-1.164.957-1.805 1.23-.64.274-1.324.41-2.05.41-1.282 0-2.293-.347-3.036-1.043-.734-.695-1.101-1.574-1.101-2.636 0-.704.168-1.329.504-1.875.336-.555.804-.977 1.406-1.266.609-.297 1.484-.555 2.625-.773 1.539-.29 2.605-.559 3.199-.809v-.328c0-.633-.156-1.082-.469-1.348-.312-.273-.902-.41-1.769-.41-.586 0-1.043.117-1.371.352-.328.226-.594.628-.797 1.207zm4.406 2.671c-.422.141-1.09.309-2.004.504-.914.196-1.511.387-1.793.575-.429.304-.644.691-.644 1.16 0 .461.172.859.515 1.195.344.336.782.504 1.313.504.594 0 1.16-.195 1.699-.586.399-.297.66-.66.785-1.09.086-.281.129-.816.129-1.605zm14.684 5.977v-1.863c-.453.664-1.051 1.187-1.793 1.57-.735.383-1.512.574-2.332.574-.836 0-1.586-.183-2.25-.551-.664-.367-1.145-.882-1.442-1.546s-.445-1.582-.445-2.754v-7.875h3.293v5.718c0 1.75.059 2.825.176 3.223.125.391.347.703.668.938.32.226.726.339 1.218.339.563 0 1.067-.152 1.512-.457.446-.312.75-.695.914-1.148.164-.461.246-1.582.246-3.363v-5.25h3.293v12.445zm6.48 0v-17.18h3.293v17.18zm12.387-12.445v2.625h-2.25v5.015c0 1.016.019 1.61.059 1.782.046.164.144.3.293.41.156.109.343.164.562.164.305 0 .746-.106 1.324-.317l.281 2.555c-.765.328-1.632.492-2.601.492-.594 0-1.129-.097-1.606-.293-.476-.203-.828-.461-1.054-.773-.219-.32-.371-.75-.457-1.289-.071-.383-.106-1.156-.106-2.321v-5.425h-1.511v-2.625h1.511v-2.473l3.305-1.922v4.395zm12.117 12.445h-3.293v-12.445h3.059v1.769c.523-.836.992-1.386 1.406-1.652.422-.266.898-.399 1.43-.399.75 0 1.472.207 2.168.622l-1.02 2.871c-.555-.36-1.07-.539-1.547-.539-.461 0-.851.128-1.172.386-.32.25-.574.707-.761 1.371-.18.664-.27 2.055-.27 4.172zm13.406-3.961 3.282.551c-.422 1.203-1.09 2.121-2.004 2.754-.907.625-2.043.937-3.41.937-2.165 0-3.766-.707-4.805-2.121-.82-1.133-1.231-2.562-1.231-4.289 0-2.062.539-3.676 1.618-4.84 1.078-1.172 2.441-1.758 4.089-1.758 1.852 0 3.313.614 4.383 1.84 1.071 1.219 1.582 3.09 1.535 5.614h-8.25c.024.976.289 1.738.797 2.285.508.539 1.141.808 1.899.808.515 0 .949-.14 1.3-.422.352-.281.618-.734.797-1.359zm.188-3.328c-.024-.953-.27-1.676-.738-2.168-.469-.5-1.039-.75-1.711-.75-.719 0-1.313.262-1.782.785-.468.524-.699 1.234-.691 2.133zm16.816-1.477-3.246.586c-.109-.648-.359-1.136-.75-1.465-.383-.328-.883-.492-1.5-.492-.82 0-1.476.285-1.969.856-.484.562-.726 1.508-.726 2.836 0 1.476.246 2.519.738 3.129.5.609 1.168.914 2.004.914.625 0 1.137-.176 1.535-.528.399-.359.68-.972.844-1.84l3.234.551c-.336 1.485-.98 2.606-1.933 3.364-.953.757-2.231 1.136-3.832 1.136-1.821 0-3.274-.574-4.36-1.722-1.078-1.149-1.617-2.739-1.617-4.77 0-2.055.543-3.652 1.629-4.793 1.086-1.148 2.555-1.723 4.406-1.723 1.516 0 2.719.329 3.61.985.898.648 1.543 1.64 1.933 2.976zm2.508-5.367v-3.047h3.293v3.047zm0 14.133v-12.445h3.293v12.445zm6.586-12.445h3.07v1.828c.399-.625.938-1.133 1.618-1.524.679-.39 1.433-.586 2.261-.586 1.446 0 2.672.567 3.68 1.7 1.008 1.132 1.512 2.711 1.512 4.734 0 2.078-.508 3.695-1.524 4.852-1.015 1.148-2.246 1.722-3.691 1.722-.688 0-1.313-.136-1.875-.41-.555-.273-1.141-.742-1.758-1.406v6.269h-3.293zm3.258 6.011c0 1.399.277 2.434.832 3.106.555.664 1.23.996 2.027.996.766 0 1.403-.305 1.91-.914.508-.617.762-1.625.762-3.024 0-1.304-.262-2.273-.785-2.906s-1.172-.949-1.945-.949c-.805 0-1.473.313-2.004.937-.532.618-.797 1.536-.797 2.754zm11.508-7.699v-3.047h3.293v3.047zm0 14.133v-12.445h3.293v12.445zm13.886-3.961 3.282.551c-.422 1.203-1.09 2.121-2.004 2.754-.907.625-2.043.937-3.41.937-2.165 0-3.766-.707-4.805-2.121-.82-1.133-1.231-2.562-1.231-4.289 0-2.062.539-3.676 1.618-4.84 1.078-1.172 2.441-1.758 4.089-1.758 1.852 0 3.313.614 4.383 1.84 1.071 1.219 1.582 3.09 1.535 5.614h-8.25c.024.976.289 1.738.797 2.285.508.539 1.141.808 1.899.808.515 0 .949-.14 1.3-.422.352-.281.618-.734.797-1.359zm.188-3.328c-.024-.953-.27-1.676-.738-2.168-.469-.5-1.039-.75-1.711-.75-.719 0-1.313.262-1.782.785-.468.524-.699 1.234-.691 2.133zm17.285 7.289h-3.293v-6.352c0-1.343-.07-2.21-.211-2.601-.14-.399-.371-.707-.691-.926-.313-.219-.692-.328-1.137-.328-.57 0-1.082.156-1.535.469-.453.312-.766.726-.938 1.242-.164.516-.246 1.469-.246 2.859v5.637h-3.293v-12.445h3.059v1.828c1.086-1.406 2.453-2.11 4.101-2.11.727 0 1.391.133 1.993.399.601.258 1.054.59 1.359.996.312.406.527.867.645 1.383.125.515.187 1.254.187 2.215zm9.059-12.445v2.625h-2.25v5.015c0 1.016.019 1.61.058 1.782.047.164.145.3.293.41.156.109.344.164.563.164.304 0 .746-.106 1.324-.317l.281 2.555c-.765.328-1.633.492-2.601.492-.594 0-1.129-.097-1.606-.293-.476-.203-.828-.461-1.055-.773-.218-.32-.371-.75-.457-1.289-.07-.383-.105-1.156-.105-2.321v-5.425h-1.512v-2.625h1.512v-2.473l3.305-1.922v4.395z" fill="#27395d"/><path d="m871 225h-174c-13.807 0-25 11.193-25 25s11.193 25 25 25h174c13.807 0 25-11.193 25-25s-11.193-25-25-25z" fill="url(#c)"/><path d="m696.477 245.555h3.035v1.699c1.086-1.32 2.379-1.981 3.879-1.981.797 0 1.488.165 2.074.493s1.066.824 1.441 1.488c.547-.664 1.137-1.16 1.77-1.488s1.308-.493 2.027-.493c.914 0 1.688.188 2.32.563.633.367 1.106.91 1.418 1.629.227.531.34 1.39.34 2.578v7.957h-3.293v-7.113c0-1.235-.113-2.032-.34-2.391-.304-.469-.773-.703-1.406-.703-.461 0-.894.141-1.301.422-.406.281-.699.695-.879 1.242-.179.539-.269 1.395-.269 2.566v5.977h-3.293v-6.82c0-1.211-.059-1.992-.176-2.344s-.301-.613-.551-.785c-.242-.172-.574-.258-.996-.258-.507 0-.965.137-1.371.41-.406.274-.699.668-.879 1.184-.172.515-.257 1.371-.257 2.566v6.047h-3.293zm28.804 8.484 3.281.551c-.421 1.203-1.089 2.121-2.003 2.754-.907.625-2.043.937-3.411.937-2.164 0-3.765-.707-4.804-2.121-.821-1.133-1.231-2.562-1.231-4.289 0-2.062.539-3.676 1.617-4.84 1.079-1.172 2.442-1.758 4.09-1.758 1.852 0 3.313.614 4.383 1.84 1.07 1.219 1.582 3.09 1.535 5.614h-8.25c.024.976.289 1.738.797 2.285.508.539 1.141.808 1.899.808.515 0 .949-.14 1.3-.422.352-.281.618-.734.797-1.359zm.188-3.328c-.024-.953-.27-1.676-.739-2.168-.468-.5-1.039-.75-1.71-.75-.719 0-1.313.262-1.782.785-.468.524-.699 1.234-.691 2.133zm25.066 7.066h2.496c-.781 1.586-1.98 2.828-3.597 3.727-1.852 1.031-4.11 1.547-6.774 1.547-2.578 0-4.805-.438-6.68-1.313-1.875-.867-3.269-2.148-4.183-3.843-.914-1.704-1.371-3.555-1.371-5.555 0-2.195.519-4.238 1.558-6.129 1.039-1.899 2.461-3.32 4.266-4.266 1.805-.953 3.867-1.429 6.188-1.429 1.968 0 3.718.382 5.25 1.148 1.531.766 2.699 1.856 3.503 3.27.813 1.406 1.219 2.945 1.219 4.617 0 1.992-.613 3.793-1.84 5.402-1.539 2.031-3.511 3.047-5.918 3.047-.648 0-1.136-.113-1.464-.34-.329-.226-.547-.558-.657-.996-.922.891-1.984 1.336-3.187 1.336-1.297 0-2.375-.445-3.235-1.336-.851-.898-1.277-2.09-1.277-3.574 0-1.836.516-3.512 1.547-5.028 1.25-1.843 2.851-2.765 4.805-2.765 1.39 0 2.418.531 3.082 1.594l.293-1.301h3.093l-1.769 8.402c-.11.531-.164.875-.164 1.031 0 .196.043.344.129.446.093.093.203.14.328.14.375 0 .859-.226 1.453-.679.797-.594 1.441-1.391 1.933-2.391.493-1 .739-2.035.739-3.105 0-1.922-.696-3.528-2.086-4.817-1.391-1.297-3.332-1.945-5.824-1.945-2.118 0-3.914.433-5.391 1.301-1.469.859-2.578 2.074-3.328 3.644-.742 1.563-1.113 3.192-1.113 4.887 0 1.648.414 3.148 1.242 4.5.836 1.351 2.004 2.336 3.504 2.953 1.507.625 3.23.938 5.168.938 1.867 0 3.472-.262 4.816-.786 1.344-.515 2.426-1.293 3.246-2.332zm-12.668-4.816c0 .992.199 1.723.598 2.191.406.469.906.703 1.5.703.445 0 .863-.109 1.254-.328.297-.156.59-.402.879-.738.414-.477.769-1.172 1.066-2.086.305-.914.457-1.765.457-2.555 0-.882-.207-1.558-.621-2.027-.406-.476-.922-.715-1.547-.715-.672 0-1.293.262-1.863.785-.57.516-1 1.254-1.289 2.215s-.434 1.813-.434 2.555zm16.676 5.859 3.762.457c.062.438.207.739.433.903.313.234.805.351 1.477.351.859 0 1.504-.129 1.933-.386.29-.172.508-.45.657-.833.101-.273.152-.777.152-1.511v-1.817c-.984 1.344-2.227 2.016-3.727 2.016-1.671 0-2.996-.707-3.972-2.121-.766-1.117-1.149-2.508-1.149-4.172 0-2.086.5-3.68 1.5-4.781 1.008-1.102 2.258-1.653 3.75-1.653 1.539 0 2.809.676 3.809 2.028v-1.746h3.082v11.168c0 1.468-.121 2.566-.363 3.293-.242.726-.582 1.296-1.02 1.711-.437.414-1.023.738-1.758.972-.726.235-1.648.352-2.765.352-2.11 0-3.606-.363-4.489-1.09-.882-.719-1.324-1.633-1.324-2.742 0-.11.004-.242.012-.399zm2.941-7.3c0 1.32.254 2.289.762 2.906.516.609 1.149.914 1.899.914.804 0 1.484-.313 2.039-.938.554-.632.832-1.566.832-2.8 0-1.29-.266-2.247-.797-2.872s-1.203-.937-2.016-.937c-.789 0-1.441.309-1.957.926-.508.609-.762 1.543-.762 2.801zm11.789-5.965h3.036v1.699c1.086-1.32 2.379-1.981 3.879-1.981.796 0 1.488.165 2.074.493s1.066.824 1.441 1.488c.547-.664 1.137-1.16 1.77-1.488.632-.328 1.308-.493 2.027-.493.914 0 1.688.188 2.32.563.633.367 1.106.91 1.418 1.629.227.531.34 1.39.34 2.578v7.957h-3.293v-7.113c0-1.235-.113-2.032-.34-2.391-.304-.469-.773-.703-1.406-.703-.461 0-.894.141-1.301.422-.406.281-.699.695-.879 1.242-.179.539-.269 1.395-.269 2.566v5.977h-3.293v-6.82c0-1.211-.059-1.992-.176-2.344s-.301-.613-.551-.785c-.242-.172-.574-.258-.996-.258-.508 0-.965.137-1.371.41-.406.274-.699.668-.879 1.184-.172.515-.258 1.371-.258 2.566v6.047h-3.293zm24.059 3.797-2.988-.54c.336-1.203.914-2.093 1.734-2.671.82-.579 2.039-.868 3.656-.868 1.469 0 2.563.176 3.282.528.718.344 1.222.785 1.511 1.324.297.531.446 1.512.446 2.941l-.035 3.844c0 1.094.05 1.902.152 2.426.109.516.308 1.07.598 1.664h-3.258c-.086-.219-.192-.543-.317-.973-.054-.195-.093-.324-.117-.386-.562.547-1.164.957-1.805 1.23-.64.274-1.324.41-2.05.41-1.282 0-2.293-.347-3.036-1.043-.734-.695-1.101-1.574-1.101-2.636 0-.704.168-1.329.504-1.875.336-.555.804-.977 1.406-1.266.609-.297 1.484-.555 2.625-.773 1.539-.29 2.606-.559 3.199-.809v-.328c0-.633-.156-1.082-.468-1.348-.313-.273-.903-.41-1.77-.41-.586 0-1.043.117-1.371.352-.328.226-.594.628-.797 1.207zm4.406 2.671c-.422.141-1.09.309-2.004.504-.914.196-1.511.387-1.793.575-.429.304-.644.691-.644 1.16 0 .461.172.859.515 1.195.344.336.782.504 1.313.504.594 0 1.16-.195 1.699-.586.399-.297.66-.66.785-1.09.086-.281.129-.816.129-1.605zm6.492-8.156v-3.047h3.293v3.047zm0 14.133v-12.445h3.293v12.445zm6.68 0v-17.18h3.293v17.18zm6.68 0v-3.293h3.293v3.293zm17.531-8.766-3.246.586c-.109-.648-.359-1.136-.75-1.465-.383-.328-.883-.492-1.5-.492-.82 0-1.477.285-1.969.856-.484.562-.726 1.508-.726 2.836 0 1.476.246 2.519.738 3.129.5.609 1.168.914 2.004.914.625 0 1.137-.176 1.535-.528.398-.359.68-.972.844-1.84l3.234.551c-.336 1.485-.98 2.606-1.933 3.364-.954.757-2.231 1.136-3.832 1.136-1.821 0-3.274-.574-4.36-1.722-1.078-1.149-1.617-2.739-1.617-4.77 0-2.055.543-3.652 1.629-4.793 1.086-1.148 2.555-1.723 4.406-1.723 1.516 0 2.719.329 3.61.985.898.648 1.542 1.64 1.933 2.976zm1.746 2.368c0-1.094.27-2.153.809-3.176.539-1.024 1.301-1.805 2.285-2.344.992-.539 2.098-.809 3.316-.809 1.883 0 3.426.614 4.629 1.84 1.203 1.219 1.805 2.762 1.805 4.629 0 1.883-.609 3.446-1.828 4.688-1.211 1.234-2.738 1.851-4.582 1.851-1.141 0-2.231-.258-3.27-.773-1.031-.516-1.816-1.27-2.355-2.262-.539-1-.809-2.215-.809-3.644zm3.375.175c0 1.235.293 2.18.879 2.836.586.657 1.309.985 2.168.985s1.578-.328 2.156-.985c.586-.656.879-1.609.879-2.859 0-1.219-.293-2.156-.879-2.813-.578-.656-1.297-.984-2.156-.984s-1.582.328-2.168.984c-.586.657-.879 1.602-.879 2.836zm11.813-6.222h3.035v1.699c1.086-1.32 2.379-1.981 3.879-1.981.797 0 1.488.165 2.074.493s1.066.824 1.441 1.488c.547-.664 1.137-1.16 1.77-1.488s1.308-.493 2.027-.493c.914 0 1.688.188 2.321.563.632.367 1.105.91 1.418 1.629.226.531.339 1.39.339 2.578v7.957h-3.293v-7.113c0-1.235-.113-2.032-.339-2.391-.305-.469-.774-.703-1.407-.703-.461 0-.894.141-1.3.422-.407.281-.7.695-.879 1.242-.18.539-.27 1.395-.27 2.566v5.977h-3.293v-6.82c0-1.211-.058-1.992-.176-2.344-.117-.352-.3-.613-.55-.785-.243-.172-.575-.258-.997-.258-.507 0-.964.137-1.371.41-.406.274-.699.668-.879 1.184-.171.515-.257 1.371-.257 2.566v6.047h-3.293z" fill="#fff"/><path d="m298.276 348.002c.781.559 1.63 1.003 2.546 1.332l-1.171 2.245c-.479-.143-.949-.34-1.407-.591-.1-.05-.806-.515-2.116-1.396-1.031.451-2.174.677-3.427.677-2.42 0-4.318-.713-5.693-2.138-1.368-1.425-2.052-3.427-2.052-6.005 0-2.571.688-4.569 2.063-5.994 1.375-1.432 3.24-2.149 5.596-2.149 2.335 0 4.186.717 5.554 2.149 1.368 1.425 2.052 3.423 2.052 5.994 0 1.361-.19 2.557-.57 3.588-.286.788-.744 1.55-1.375 2.288zm-2.556-1.794c.408-.48.712-1.06.913-1.74.207-.681.311-1.461.311-2.342 0-1.819-.401-3.176-1.203-4.071-.802-.903-1.851-1.354-3.147-1.354s-2.349.451-3.158 1.354c-.803.902-1.204 2.259-1.204 4.071 0 1.84.401 3.219 1.204 4.136.809.909 1.829 1.364 3.061 1.364.458 0 .892-.075 1.3-.226-.645-.422-1.3-.752-1.966-.988l.892-1.815c1.045.358 2.044.895 2.997 1.611zm14.491 3.792v-1.708c-.415.609-.963 1.089-1.644 1.439-.673.351-1.385.527-2.137.527-.767 0-1.454-.168-2.063-.505s-1.049-.809-1.321-1.418-.408-1.45-.408-2.524v-7.219h3.018v5.242c0 1.604.054 2.589.161 2.954.115.358.319.645.613.859.293.208.666.312 1.117.312.515 0 .977-.14 1.386-.419.408-.286.687-.637.838-1.053.15-.422.225-1.45.225-3.083v-4.812h3.019v11.408zm5.94-12.955v-2.793h3.019v2.793zm0 12.955v-11.408h3.019v11.408zm16.071-8.035-2.976.537c-.1-.594-.329-1.042-.687-1.343-.351-.301-.81-.451-1.375-.451-.752 0-1.354.261-1.805.784-.444.516-.666 1.382-.666 2.6 0 1.353.225 2.309.677 2.868.458.559 1.07.838 1.837.838.572 0 1.042-.161 1.407-.484.365-.329.623-.891.773-1.686l2.965.505c-.308 1.36-.899 2.388-1.772 3.083-.874.694-2.045 1.042-3.513 1.042-1.669 0-3.001-.527-3.996-1.579-.988-1.053-1.483-2.51-1.483-4.372 0-1.884.498-3.348 1.494-4.394.995-1.053 2.341-1.579 4.039-1.579 1.389 0 2.492.301 3.308.902.824.595 1.415 1.504 1.773 2.729zm2.191 8.035v-15.748h3.019v8.357l3.534-4.017h3.717l-3.9 4.168 4.179 7.24h-3.255l-2.868-5.124-1.407 1.472v3.652zm17.413-3.255 3.029-.462c.129.587.391 1.035.785 1.343.394.301.945.451 1.654.451.781 0 1.368-.143 1.762-.43.265-.2.397-.469.397-.805 0-.229-.071-.419-.215-.57-.15-.143-.487-.275-1.009-.397-2.435-.537-3.979-1.028-4.63-1.472-.903-.616-1.354-1.471-1.354-2.567 0-.988.39-1.819 1.171-2.492s1.991-1.01 3.631-1.01c1.561 0 2.721.254 3.48.763.759.508 1.282 1.26 1.569 2.256l-2.847.526c-.122-.444-.354-.784-.698-1.021-.337-.236-.82-.354-1.45-.354-.795 0-1.365.111-1.708.333-.23.157-.344.362-.344.612 0 .215.1.398.301.548.272.201 1.21.483 2.814.849 1.611.365 2.736.813 3.373 1.342.63.538.945 1.286.945 2.246 0 1.045-.436 1.944-1.31 2.696s-2.166 1.128-3.878 1.128c-1.554 0-2.786-.315-3.695-.946-.903-.63-1.494-1.486-1.773-2.567zm15.437 3.255-3.61-11.408h2.933l2.138 7.476 1.965-7.476h2.912l1.901 7.476 2.181-7.476h2.975l-3.663 11.408h-2.9l-1.966-7.337-1.934 7.337zm14.996-12.955v-2.793h3.018v2.793zm0 12.955v-11.408h3.018v11.408zm11.354-11.408v2.406h-2.062v4.598c0 .931.018 1.475.053 1.633.043.15.133.275.269.375.143.101.315.151.516.151.279 0 .684-.097 1.214-.29l.257 2.342c-.701.3-1.496.451-2.384.451-.545 0-1.035-.09-1.472-.269-.437-.186-.759-.422-.967-.709-.2-.293-.34-.687-.419-1.181-.064-.351-.097-1.06-.097-2.127v-4.974h-1.385v-2.406h1.385v-2.267l3.03-1.762v4.029zm12.042 3.373-2.975.537c-.101-.594-.33-1.042-.688-1.343-.351-.301-.809-.451-1.375-.451-.752 0-1.353.261-1.805.784-.444.516-.666 1.382-.666 2.6 0 1.353.226 2.309.677 2.868.459.559 1.071.838 1.837.838.573 0 1.042-.161 1.407-.484.366-.329.623-.891.774-1.686l2.965.505c-.308 1.36-.899 2.388-1.773 3.083-.873.694-2.044 1.042-3.512 1.042-1.669 0-3.001-.527-3.997-1.579-.988-1.053-1.482-2.51-1.482-4.372 0-1.884.498-3.348 1.493-4.394.996-1.053 2.342-1.579 4.039-1.579 1.39 0 2.492.301 3.309.902.823.595 1.414 1.504 1.772 2.729zm5.307-7.713v5.79c.974-1.139 2.138-1.708 3.491-1.708.695 0 1.321.129 1.88.387s.978.587 1.257.988c.286.401.48.845.58 1.332.107.487.161 1.243.161 2.267v6.692h-3.019v-6.026c0-1.196-.057-1.955-.171-2.278-.115-.322-.319-.576-.613-.762-.286-.194-.648-.29-1.085-.29-.501 0-.949.121-1.342.365-.394.243-.684.612-.871 1.106-.179.487-.268 1.211-.268 2.17v5.715h-3.019v-15.748z" fill="#51618e"/><path d="m350 482c28.719 0 52-23.281 52-52s-23.281-52-52-52-52 23.281-52 52 23.281 52 52 52z" fill="#e2ecff"/><path d="m350 433c9.941 0 18-8.059 18-18s-8.059-18-18-18-18 8.059-18 18 8.059 18 18 18z" fill="#a8bef5"/><path d="m361 438h-22c-7.18 0-13 5.82-13 13s5.82 13 13 13h22c7.18 0 13-5.82 13-13s-5.82-13-13-13z" fill="#a8bef5"/><path d="m314.751 494.115h4.755c1.072 0 1.89.082 2.452.246.756.223 1.403.618 1.942 1.187.539.568.95 1.265 1.231 2.092.281.82.422 1.834.422 3.041 0 1.06-.132 1.974-.396 2.742-.322.937-.782 1.696-1.38 2.276-.451.44-1.06.782-1.828 1.029-.574.181-1.342.272-2.303.272h-4.895zm2.602 2.18v8.534h1.942c.726 0 1.251-.041 1.573-.123.422-.105.771-.284 1.046-.536.281-.252.51-.665.686-1.239.175-.58.263-1.369.263-2.365s-.088-1.76-.263-2.294c-.176-.533-.422-.949-.739-1.248-.316-.298-.717-.501-1.204-.606-.363-.082-1.075-.123-2.136-.123zm12.243 4.219-2.242-.405c.252-.902.686-1.57 1.301-2.004.616-.433 1.53-.65 2.742-.65 1.102 0 1.922.132 2.461.396.539.257.917.588 1.134.993.223.398.334 1.134.334 2.206l-.026 2.883c0 .82.038 1.426.114 1.819.082.387.232.803.448 1.248h-2.443c-.065-.164-.144-.407-.237-.729-.041-.147-.071-.244-.088-.291-.422.411-.873.718-1.354.923-.48.205-.993.308-1.538.308-.961 0-1.72-.261-2.276-.782-.551-.522-.826-1.181-.826-1.978 0-.527.126-.996.378-1.406.251-.416.603-.733 1.054-.949.457-.223 1.114-.416 1.969-.58 1.154-.217 1.954-.419 2.399-.607v-.246c0-.475-.117-.811-.351-1.011-.235-.205-.677-.307-1.327-.307-.44 0-.783.088-1.029.263-.246.17-.445.472-.597.906zm3.304 2.004c-.316.105-.817.231-1.503.378-.685.146-1.133.29-1.344.43-.323.229-.484.519-.484.87 0 .346.129.645.387.897s.586.378.984.378c.446 0 .871-.147 1.275-.44.299-.222.495-.495.589-.817.064-.211.096-.612.096-1.204zm13.36 4.482h-2.47v-4.764c0-1.007-.053-1.658-.158-1.951-.106-.299-.278-.53-.519-.694-.234-.164-.518-.246-.852-.246-.428 0-.812.117-1.152.351-.339.235-.574.545-.703.932-.123.387-.184 1.101-.184 2.144v4.228h-2.47v-9.334h2.294v1.371c.814-1.055 1.84-1.582 3.076-1.582.545 0 1.043.1 1.494.299.451.193.791.442 1.02.747.234.305.395.65.483 1.037.094.387.141.941.141 1.661zm2.513-10.6v-2.285h2.47v2.285zm0 10.6v-9.334h2.47v9.334zm10.415-2.971 2.461.413c-.316.903-.817 1.591-1.503 2.066-.679.469-1.532.703-2.557.703-1.623 0-2.824-.53-3.604-1.591-.615-.849-.923-1.922-.923-3.217 0-1.547.405-2.757 1.213-3.63.809-.878 1.831-1.318 3.068-1.318 1.388 0 2.484.46 3.287 1.38.803.914 1.186 2.317 1.151 4.21h-6.187c.017.732.217 1.304.597 1.714.381.404.856.606 1.424.606.387 0 .712-.105.976-.316.263-.211.463-.551.597-1.02zm.141-2.496c-.017-.715-.202-1.257-.554-1.626-.351-.375-.779-.562-1.283-.562-.539 0-.984.196-1.336.589-.351.392-.524.925-.518 1.599zm4.474 5.467v-12.885h2.469v12.885zm5.009 0v-12.885h2.47v12.885zm10.416-2.971 2.46.413c-.316.903-.817 1.591-1.502 2.066-.68.469-1.533.703-2.558.703-1.623 0-2.824-.53-3.604-1.591-.615-.849-.922-1.922-.922-3.217 0-1.547.404-2.757 1.212-3.63.809-.878 1.832-1.318 3.068-1.318 1.389 0 2.484.46 3.287 1.38.803.914 1.186 2.317 1.151 4.21h-6.187c.017.732.217 1.304.597 1.714.381.404.856.606 1.424.606.387 0 .712-.105.976-.316s.463-.551.598-1.02zm.14-2.496c-.017-.715-.202-1.257-.554-1.626-.351-.375-.779-.562-1.283-.562-.539 0-.984.196-1.336.589-.351.392-.524.925-.518 1.599z" fill="#4f618f"/><path d="m476 482c28.719 0 52-23.281 52-52s-23.281-52-52-52-52 23.281-52 52 23.281 52 52 52z" fill="#ddebff"/><path d="m476 433c9.941 0 18-8.059 18-18s-8.059-18-18-18-18 8.059-18 18 8.059 18 18 18z" fill="#8db1ff"/><path d="m487 438h-22c-7.18 0-13 5.82-13 13s5.82 13 13 13h22c7.18 0 13-5.82 13-13s-5.82-13-13-13z" fill="#8db1ff"/><path d="m454.769 507v-12.885h3.893l2.338 8.789 2.312-8.789h3.902v12.885h-2.417v-10.143l-2.558 10.143h-2.505l-2.548-10.143v10.143zm14.44-4.799c0-.82.202-1.614.606-2.382.405-.767.976-1.353 1.714-1.757.744-.405 1.574-.607 2.488-.607 1.412 0 2.569.46 3.471 1.38.903.914 1.354 2.071 1.354 3.472 0 1.412-.457 2.584-1.371 3.515-.909.926-2.054 1.389-3.437 1.389-.855 0-1.673-.193-2.452-.58-.773-.387-1.362-.952-1.767-1.696-.404-.75-.606-1.662-.606-2.734zm2.531.132c0 .926.22 1.635.659 2.127.44.492.982.738 1.626.738.645 0 1.184-.246 1.618-.738.439-.492.659-1.207.659-2.145 0-.914-.22-1.617-.659-2.109-.434-.492-.973-.738-1.618-.738-.644 0-1.186.246-1.626.738-.439.492-.659 1.201-.659 2.127zm8.86-4.667h2.276v1.274c.814-.99 1.784-1.485 2.909-1.485.598 0 1.116.123 1.556.369.439.246.8.618 1.081 1.116.41-.498.852-.87 1.327-1.116s.981-.369 1.521-.369c.685 0 1.265.141 1.74.422.474.275.829.683 1.063 1.222.17.398.255 1.043.255 1.933v5.968h-2.47v-5.335c0-.926-.085-1.523-.254-1.793-.229-.351-.581-.527-1.055-.527-.346 0-.671.105-.976.316-.304.211-.524.522-.659.932-.135.404-.202 1.046-.202 1.925v4.482h-2.47v-5.115c0-.908-.044-1.494-.132-1.758s-.225-.46-.413-.589c-.181-.129-.43-.193-.747-.193-.381 0-.723.102-1.028.307s-.525.501-.659.888c-.129.387-.194 1.028-.194 1.925v4.535h-2.469z" fill="#4f618f"/><path d="m602 482c28.719 0 52-23.281 52-52s-23.281-52-52-52-52 23.281-52 52 23.281 52 52 52z" fill="#d6e8ff"/><path d="m602 433c9.941 0 18-8.059 18-18s-8.059-18-18-18-18 8.059-18 18 8.059 18 18 18z" fill="#6b9aff"/><path d="m613 438h-22c-7.18 0-13 5.82-13 13s5.82 13 13 13h22c7.18 0 13-5.82 13-13s-5.82-13-13-13z" fill="#6b9aff"/><path d="m577.427 494.115h2.593v8.156c0 1.067-.094 1.887-.282 2.461-.252.75-.709 1.354-1.371 1.811-.662.451-1.535.677-2.619.677-1.271 0-2.25-.355-2.936-1.064-.685-.715-1.031-1.76-1.037-3.137l2.453-.282c.029.739.137 1.26.325 1.565.281.463.709.694 1.283.694.58 0 .99-.164 1.23-.492.241-.334.361-1.023.361-2.066zm4.781 8.086c0-.82.202-1.614.606-2.382.405-.767.976-1.353 1.714-1.757.744-.405 1.574-.607 2.488-.607 1.412 0 2.569.46 3.471 1.38.903.914 1.354 2.071 1.354 3.472 0 1.412-.457 2.584-1.371 3.515-.908.926-2.054 1.389-3.437 1.389-.855 0-1.673-.193-2.452-.58-.773-.387-1.362-.952-1.767-1.696-.404-.75-.606-1.662-.606-2.734zm2.531.132c0 .926.22 1.635.659 2.127.44.492.982.738 1.626.738.645 0 1.184-.246 1.618-.738.439-.492.659-1.207.659-2.145 0-.914-.22-1.617-.659-2.109-.434-.492-.973-.738-1.618-.738-.644 0-1.186.246-1.626.738-.439.492-.659 1.201-.659 2.127zm11.408 4.667h-2.469v-9.334h2.294v1.327c.392-.627.744-1.04 1.054-1.239.317-.199.674-.299 1.073-.299.562 0 1.104.155 1.626.466l-.765 2.153c-.416-.269-.803-.404-1.16-.404-.346 0-.639.097-.879.29-.24.187-.431.53-.571 1.028-.135.498-.203 1.541-.203 3.129zm13.21 0h-2.294v-1.371c-.38.533-.832.932-1.353 1.195-.516.258-1.037.387-1.564.387-1.073 0-1.993-.431-2.76-1.292-.762-.867-1.143-2.074-1.143-3.621 0-1.582.372-2.783 1.116-3.604.745-.826 1.685-1.239 2.822-1.239 1.043 0 1.945.434 2.707 1.301v-4.641h2.469zm-6.591-4.869c0 .996.137 1.717.413 2.162.398.645.955.967 1.67.967.568 0 1.051-.24 1.45-.721.398-.486.597-1.21.597-2.171 0-1.072-.193-1.843-.58-2.311-.386-.475-.881-.712-1.485-.712-.586 0-1.078.234-1.477.703-.392.463-.588 1.157-.588 2.083zm10.88-1.617-2.241-.405c.252-.902.686-1.57 1.301-2.004.615-.433 1.529-.65 2.742-.65 1.102 0 1.922.132 2.461.396.539.257.917.588 1.134.993.223.398.334 1.134.334 2.206l-.026 2.883c0 .82.038 1.426.114 1.819.082.387.231.803.448 1.248h-2.443c-.065-.164-.144-.407-.238-.729-.041-.147-.07-.244-.087-.291-.422.411-.874.718-1.354.923s-.993.308-1.538.308c-.961 0-1.72-.261-2.276-.782-.551-.522-.827-1.181-.827-1.978 0-.527.126-.996.378-1.406.252-.416.604-.733 1.055-.949.457-.223 1.113-.416 1.969-.58 1.154-.217 1.954-.419 2.399-.607v-.246c0-.475-.117-.811-.351-1.011-.235-.205-.677-.307-1.328-.307-.439 0-.782.088-1.028.263-.246.17-.445.472-.598.906zm3.305 2.004c-.316.105-.817.231-1.503.378-.685.146-1.134.29-1.344.43-.323.229-.484.519-.484.87 0 .346.129.645.387.897s.586.378.984.378c.446 0 .87-.147 1.275-.44.298-.222.495-.495.588-.817.065-.211.097-.612.097-1.204zm13.36 4.482h-2.47v-4.764c0-1.007-.053-1.658-.158-1.951-.106-.299-.279-.53-.519-.694-.234-.164-.518-.246-.852-.246-.428 0-.812.117-1.152.351-.34.235-.574.545-.703.932-.123.387-.185 1.101-.185 2.144v4.228h-2.469v-9.334h2.294v1.371c.814-1.055 1.84-1.582 3.076-1.582.545 0 1.043.1 1.494.299.451.193.791.442 1.02.747.234.305.395.65.483 1.037.094.387.141.941.141 1.661z" fill="#4f618f"/><path d="m728 482c28.719 0 52-23.281 52-52s-23.281-52-52-52-52 23.281-52 52 23.281 52 52 52z" fill="#d2e6ff"/><path d="m728 433c9.941 0 18-8.059 18-18s-8.059-18-18-18-18 8.059-18 18 8.059 18 18 18z" fill="#4c82ff"/><path d="m739 438h-22c-7.18 0-13 5.82-13 13s5.82 13 13 13h22c7.18 0 13-5.82 13-13s-5.82-13-13-13z" fill="#4c82ff"/><path d="m709.131 502.808 2.531-.246c.152.849.46 1.473.923 1.872.469.398 1.099.597 1.89.597.837 0 1.467-.176 1.889-.527.428-.358.642-.774.642-1.248 0-.305-.091-.563-.273-.774-.175-.216-.486-.404-.931-.562-.305-.106-.999-.293-2.083-.563-1.395-.345-2.373-.77-2.936-1.274-.791-.709-1.186-1.573-1.186-2.593 0-.656.184-1.268.553-1.837.375-.574.912-1.01 1.609-1.309.703-.299 1.55-.448 2.54-.448 1.617 0 2.833.354 3.647 1.063.821.709 1.251 1.655 1.292 2.839l-2.601.114c-.112-.662-.352-1.137-.721-1.424-.363-.293-.911-.439-1.644-.439-.755 0-1.347.155-1.775.466-.275.199-.413.465-.413.799 0 .305.129.566.387.783.328.275 1.125.562 2.39.861 1.266.299 2.201.609 2.804.932.609.316 1.084.753 1.424 1.309.346.551.518 1.234.518 2.048 0 .738-.205 1.43-.615 2.074-.41.645-.99 1.125-1.74 1.442-.75.31-1.685.466-2.804.466-1.629 0-2.88-.375-3.753-1.125-.873-.756-1.394-1.855-1.564-3.296zm14.493-2.294-2.241-.405c.252-.902.685-1.57 1.301-2.004.615-.433 1.529-.65 2.742-.65 1.101 0 1.922.132 2.461.396.539.257.917.588 1.134.993.222.398.333 1.134.333 2.206l-.026 2.883c0 .82.038 1.426.114 1.819.082.387.232.803.449 1.248h-2.444c-.064-.164-.143-.407-.237-.729-.041-.147-.07-.244-.088-.291-.422.411-.873.718-1.353.923-.481.205-.994.308-1.539.308-.96 0-1.719-.261-2.276-.782-.551-.522-.826-1.181-.826-1.978 0-.527.126-.996.378-1.406.252-.416.603-.733 1.055-.949.457-.223 1.113-.416 1.968-.58 1.155-.217 1.954-.419 2.4-.607v-.246c0-.475-.117-.811-.352-1.011-.234-.205-.677-.307-1.327-.307-.439 0-.782.088-1.028.263-.246.17-.446.472-.598.906zm3.305 2.004c-.317.105-.818.231-1.503.378-.686.146-1.134.29-1.345.43-.322.229-.483.519-.483.87 0 .346.129.645.386.897.258.252.586.378.985.378.445 0 .87-.147 1.274-.44.299-.222.495-.495.589-.817.064-.211.097-.612.097-1.204zm4.684-4.852h2.277v1.274c.814-.99 1.784-1.485 2.909-1.485.597 0 1.116.123 1.555.369.44.246.8.618 1.082 1.116.41-.498.852-.87 1.327-1.116.474-.246.981-.369 1.52-.369.686 0 1.266.141 1.74.422.475.275.83.683 1.064 1.222.17.398.255 1.043.255 1.933v5.968h-2.47v-5.335c0-.926-.085-1.523-.255-1.793-.228-.351-.58-.527-1.055-.527-.345 0-.67.105-.975.316s-.525.522-.659.932c-.135.404-.202 1.046-.202 1.925v4.482h-2.47v-5.115c0-.908-.044-1.494-.132-1.758s-.226-.46-.413-.589c-.182-.129-.431-.193-.747-.193-.381 0-.724.102-1.028.307-.305.205-.525.501-.66.888-.129.387-.193 1.028-.193 1.925v4.535h-2.47z" fill="#4f618f"/><path d="m854 482c28.719 0 52-23.281 52-52s-23.281-52-52-52-52 23.281-52 52 23.281 52 52 52z" fill="#cce2ff"/><path d="m854 433c9.941 0 18-8.059 18-18s-8.059-18-18-18-18 8.059-18 18 8.059 18 18 18z" fill="#2d6dff"/><path d="m865 438h-22c-7.18 0-13 5.82-13 13s5.82 13 13 13h22c7.18 0 13-5.82 13-13s-5.82-13-13-13z" fill="#2d6dff"/><path d="m834.761 507v-12.885h3.893l2.338 8.789 2.312-8.789h3.902v12.885h-2.417v-10.143l-2.558 10.143h-2.504l-2.549-10.143v10.143zm15.011-10.6v-2.285h2.47v2.285zm0 10.6v-9.334h2.47v9.334zm13.5 0h-2.469v-4.764c0-1.007-.053-1.658-.158-1.951-.106-.299-.279-.53-.519-.694-.234-.164-.519-.246-.853-.246-.427 0-.811.117-1.151.351-.34.235-.574.545-.703.932-.123.387-.185 1.101-.185 2.144v4.228h-2.469v-9.334h2.294v1.371c.814-1.055 1.839-1.582 3.076-1.582.545 0 1.043.1 1.494.299.451.193.791.442 1.019.747.235.305.396.65.484 1.037.094.387.14.941.14 1.661zm4.36-6.486-2.241-.405c.252-.902.685-1.57 1.3-2.004.616-.433 1.53-.65 2.743-.65 1.101 0 1.921.132 2.461.396.539.257.917.588 1.133.993.223.398.334 1.134.334 2.206l-.026 2.883c0 .82.038 1.426.114 1.819.082.387.232.803.448 1.248h-2.443c-.064-.164-.143-.407-.237-.729-.041-.147-.071-.244-.088-.291-.422.411-.873.718-1.354.923-.48.205-.993.308-1.538.308-.961 0-1.719-.261-2.276-.782-.551-.522-.826-1.181-.826-1.978 0-.527.126-.996.378-1.406.252-.416.603-.733 1.054-.949.457-.223 1.114-.416 1.969-.58 1.154-.217 1.954-.419 2.4-.607v-.246c0-.475-.118-.811-.352-1.011-.234-.205-.677-.307-1.327-.307-.44 0-.782.088-1.029.263-.246.17-.445.472-.597.906zm3.305 2.004c-.317.105-.818.231-1.503.378-.686.146-1.134.29-1.345.43-.322.229-.484.519-.484.87 0 .346.129.645.387.897s.586.378.985.378c.445 0 .87-.147 1.274-.44.299-.222.495-.495.589-.817.064-.211.097-.612.097-1.204z" fill="#4f618f"/><path d="m602 558h-290c-15.464 0-28 12.536-28 28s12.536 28 28 28h290c15.464 0 28-12.536 28-28s-12.536-28-28-28z" fill="url(#d)"/><path d="m358.867 588.41 3.375-.328c.203 1.133.613 1.965 1.231 2.496.625.531 1.465.797 2.519.797 1.117 0 1.957-.234 2.52-.703.57-.477.855-1.031.855-1.664 0-.406-.121-.75-.363-1.031-.234-.289-.649-.539-1.242-.75-.407-.141-1.332-.391-2.778-.75-1.859-.461-3.164-1.028-3.914-1.7-1.054-.945-1.582-2.097-1.582-3.457 0-.875.246-1.691.739-2.449.5-.766 1.214-1.348 2.144-1.746.938-.398 2.067-.598 3.387-.598 2.156 0 3.777.473 4.863 1.418 1.094.946 1.668 2.207 1.723 3.785l-3.469.153c-.148-.883-.469-1.516-.961-1.899-.484-.39-1.215-.586-2.191-.586-1.008 0-1.797.207-2.368.622-.367.265-.55.621-.55 1.066 0 .406.172.754.515 1.043.438.367 1.5.75 3.188 1.148 1.687.399 2.933.813 3.738 1.243.813.421 1.445 1.003 1.899 1.746.46.734.691 1.644.691 2.73 0 .984-.274 1.906-.82 2.766-.547.859-1.321 1.5-2.321 1.922-1 .414-2.246.621-3.738.621-2.172 0-3.84-.5-5.004-1.5-1.164-1.008-1.859-2.473-2.086-4.395zm19.184 5.59-3.938-12.445h3.199l2.333 8.156 2.144-8.156h3.176l2.074 8.156 2.379-8.156h3.246l-3.996 12.445h-3.164l-2.145-8.004-2.109 8.004zm16.359-14.133v-3.047h3.293v3.047zm0 14.133v-12.445h3.293v12.445zm12.387-12.445v2.625h-2.25v5.015c0 1.016.019 1.61.058 1.782.047.164.145.3.293.41.157.109.344.164.563.164.305 0 .746-.106 1.324-.317l.281 2.555c-.765.328-1.632.492-2.601.492-.594 0-1.129-.097-1.606-.293-.476-.203-.828-.461-1.054-.773-.219-.32-.371-.75-.457-1.289-.071-.383-.106-1.156-.106-2.321v-5.425h-1.512v-2.625h1.512v-2.473l3.305-1.922v4.395zm13.137 3.679-3.246.586c-.11-.648-.36-1.136-.75-1.465-.383-.328-.883-.492-1.5-.492-.821 0-1.477.285-1.969.856-.485.562-.727 1.508-.727 2.836 0 1.476.246 2.519.738 3.129.5.609 1.168.914 2.004.914.625 0 1.137-.176 1.536-.528.398-.359.679-.972.843-1.84l3.235.551c-.336 1.485-.981 2.606-1.934 3.364-.953.757-2.23 1.136-3.832 1.136-1.82 0-3.273-.574-4.359-1.722-1.078-1.149-1.618-2.739-1.618-4.77 0-2.055.543-3.652 1.629-4.793 1.086-1.148 2.555-1.723 4.407-1.723 1.515 0 2.718.329 3.609.985.898.648 1.543 1.64 1.934 2.976zm5.789-8.414v6.317c1.062-1.242 2.332-1.864 3.808-1.864.758 0 1.442.141 2.051.422.609.282 1.066.641 1.371 1.078.313.438.524.922.633 1.454.117.531.176 1.355.176 2.472v7.301h-3.293v-6.574c0-1.305-.063-2.133-.188-2.485-.125-.351-.347-.629-.668-.832-.312-.211-.707-.316-1.183-.316-.547 0-1.035.133-1.465.398-.43.266-.746.668-.949 1.207-.196.532-.293 1.321-.293 2.368v6.234h-3.293v-17.18zm18.07 3.047v-3.047h3.293v3.047zm0 14.133v-12.445h3.293v12.445zm18 0h-3.293v-6.352c0-1.343-.07-2.21-.211-2.601-.141-.399-.371-.707-.691-.926-.313-.219-.692-.328-1.137-.328-.57 0-1.082.156-1.535.469-.453.312-.766.726-.938 1.242-.164.516-.246 1.469-.246 2.859v5.637h-3.293v-12.445h3.059v1.828c1.086-1.406 2.453-2.11 4.101-2.11.727 0 1.391.133 1.993.399.601.258 1.054.59 1.359.996.312.406.527.867.644 1.383.125.515.188 1.254.188 2.215zm9.269-6.398c0-1.094.27-2.153.809-3.176.539-1.024 1.301-1.805 2.285-2.344.992-.539 2.098-.809 3.317-.809 1.882 0 3.425.614 4.629 1.84 1.203 1.219 1.804 2.762 1.804 4.629 0 1.883-.609 3.446-1.828 4.688-1.211 1.234-2.738 1.851-4.582 1.851-1.141 0-2.23-.258-3.269-.773-1.032-.516-1.817-1.27-2.356-2.262-.539-1-.809-2.215-.809-3.644zm3.376.175c0 1.235.292 2.18.878 2.836.586.657 1.309.985 2.168.985.86 0 1.578-.328 2.157-.985.586-.656.879-1.609.879-2.859 0-1.219-.293-2.156-.879-2.813-.579-.656-1.297-.984-2.157-.984-.859 0-1.582.328-2.168.984-.586.657-.878 1.602-.878 2.836zm23.378 6.223h-3.293v-6.352c0-1.343-.07-2.21-.211-2.601-.14-.399-.371-.707-.691-.926-.312-.219-.691-.328-1.137-.328-.57 0-1.082.156-1.535.469-.453.312-.765.726-.937 1.242-.164.516-.246 1.469-.246 2.859v5.637h-3.293v-12.445h3.058v1.828c1.086-1.406 2.453-2.11 4.102-2.11.726 0 1.39.133 1.992.399.602.258 1.055.59 1.359.996.313.406.528.867.645 1.383.125.515.187 1.254.187 2.215zm10.559-3.961 3.281.551c-.422 1.203-1.09 2.121-2.004 2.754-.906.625-2.043.937-3.41.937-2.164 0-3.765-.707-4.804-2.121-.821-1.133-1.231-2.562-1.231-4.289 0-2.062.539-3.676 1.617-4.84 1.078-1.172 2.442-1.758 4.09-1.758 1.852 0 3.313.614 4.383 1.84 1.07 1.219 1.582 3.09 1.535 5.614h-8.25c.023.976.289 1.738.797 2.285.508.539 1.141.808 1.898.808.516 0 .95-.14 1.301-.422.352-.281.617-.734.797-1.359zm.187-3.328c-.023-.953-.269-1.676-.738-2.168-.469-.5-1.039-.75-1.711-.75-.718 0-1.312.262-1.781.785-.469.524-.699 1.234-.691 2.133zm18.352-5.156v2.625h-2.25v5.015c0 1.016.02 1.61.059 1.782.047.164.144.3.293.41.156.109.343.164.562.164.305 0 .746-.106 1.324-.317l.282 2.555c-.766.328-1.633.492-2.602.492-.594 0-1.129-.097-1.605-.293-.477-.203-.829-.461-1.055-.773-.219-.32-.371-.75-.457-1.289-.07-.383-.106-1.156-.106-2.321v-5.425h-1.511v-2.625h1.511v-2.473l3.305-1.922v4.395zm4.746 3.797-2.988-.54c.336-1.203.914-2.093 1.734-2.671.821-.579 2.039-.868 3.656-.868 1.469 0 2.563.176 3.282.528.718.344 1.222.785 1.511 1.324.297.531.446 1.512.446 2.941l-.035 3.844c0 1.094.05 1.902.152 2.426.109.516.309 1.07.598 1.664h-3.258c-.086-.219-.192-.543-.317-.973-.054-.195-.093-.324-.117-.386-.562.547-1.164.957-1.804 1.23-.641.274-1.325.41-2.051.41-1.281 0-2.293-.347-3.035-1.043-.735-.695-1.102-1.574-1.102-2.636 0-.704.168-1.329.504-1.875.336-.555.805-.977 1.406-1.266.61-.297 1.485-.555 2.625-.773 1.539-.29 2.606-.559 3.199-.809v-.328c0-.633-.156-1.082-.468-1.348-.313-.273-.903-.41-1.77-.41-.586 0-1.043.117-1.371.352-.328.226-.594.628-.797 1.207zm4.406 2.671c-.421.141-1.089.309-2.004.504-.914.196-1.511.387-1.792.575-.43.304-.645.691-.645 1.16 0 .461.172.859.516 1.195.343.336.781.504 1.312.504.594 0 1.16-.195 1.699-.586.399-.297.66-.66.786-1.09.085-.281.128-.816.128-1.605zm6.399-6.468h3.07v1.828c.399-.625.938-1.133 1.617-1.524.68-.39 1.434-.586 2.262-.586 1.445 0 2.672.567 3.68 1.7 1.008 1.132 1.511 2.711 1.511 4.734 0 2.078-.507 3.695-1.523 4.852-1.016 1.148-2.246 1.722-3.691 1.722-.688 0-1.313-.136-1.875-.41-.555-.273-1.141-.742-1.758-1.406v6.269h-3.293zm3.258 6.011c0 1.399.277 2.434.832 3.106.554.664 1.23.996 2.027.996.766 0 1.402-.305 1.91-.914.508-.617.762-1.625.762-3.024 0-1.304-.262-2.273-.785-2.906-.524-.633-1.172-.949-1.946-.949-.804 0-1.472.313-2.003.937-.532.618-.797 1.536-.797 2.754z" fill="#fff"/><path d="m844 558h-168c-15.464 0-28 12.536-28 28s12.536 28 28 28h168c15.464 0 28-12.536 28-28s-12.536-28-28-28z" fill="#eef3ff"/><path d="m677.644 594v-15.748h3.179v6.993l6.424-6.993h4.275l-5.929 6.134 6.252 9.614h-4.115l-4.329-7.391-2.578 2.632v4.759zm22.44-3.631 3.008.505c-.387 1.103-.999 1.944-1.837 2.524-.831.573-1.873.86-3.126.86-1.984 0-3.452-.648-4.404-1.945-.752-1.038-1.128-2.348-1.128-3.931 0-1.891.494-3.37 1.482-4.437.988-1.074 2.238-1.611 3.749-1.611 1.697 0 3.037.562 4.018 1.687.981 1.117 1.45 2.832 1.407 5.145h-7.563c.022.895.265 1.593.731 2.095.465.494 1.045.741 1.74.741.473 0 .87-.129 1.193-.387.322-.258.565-.673.73-1.246zm.172-3.051c-.022-.873-.247-1.536-.677-1.987-.43-.458-.952-.687-1.568-.687-.659 0-1.203.239-1.633.719s-.641 1.132-.634 1.955zm12.074 3.051 3.008.505c-.387 1.103-.999 1.944-1.837 2.524-.831.573-1.873.86-3.126.86-1.984 0-3.452-.648-4.404-1.945-.752-1.038-1.128-2.348-1.128-3.931 0-1.891.494-3.37 1.482-4.437.988-1.074 2.238-1.611 3.749-1.611 1.697 0 3.037.562 4.018 1.687.981 1.117 1.45 2.832 1.407 5.145h-7.562c.021.895.264 1.593.73 2.095.465.494 1.046.741 1.74.741.473 0 .87-.129 1.193-.387.322-.258.565-.673.73-1.246zm.172-3.051c-.022-.873-.247-1.536-.677-1.987-.429-.458-.952-.687-1.568-.687-.659 0-1.203.239-1.633.719s-.641 1.132-.634 1.955zm5.382-4.726h2.814v1.676c.365-.573.86-1.039 1.483-1.397s1.314-.537 2.073-.537c1.325 0 2.449.519 3.373 1.558.924 1.038 1.386 2.485 1.386 4.339 0 1.905-.466 3.388-1.397 4.448-.931 1.052-2.059 1.579-3.384 1.579-.63 0-1.203-.126-1.718-.376-.509-.251-1.046-.681-1.612-1.289v5.747h-3.018zm2.986 5.511c0 1.281.254 2.23.763 2.846.508.609 1.128.913 1.858.913.702 0 1.286-.279 1.751-.838.466-.565.698-1.489.698-2.771 0-1.196-.239-2.084-.719-2.664s-1.075-.87-1.783-.87c-.738 0-1.35.286-1.837.859-.487.566-.731 1.407-.731 2.525zm9.485 2.642 3.03-.462c.129.587.39 1.035.784 1.343.394.301.945.451 1.654.451.781 0 1.368-.143 1.762-.43.265-.2.397-.469.397-.805 0-.229-.071-.419-.214-.57-.151-.143-.487-.275-1.01-.397-2.435-.537-3.978-1.028-4.63-1.472-.902-.616-1.354-1.471-1.354-2.567 0-.988.391-1.819 1.171-2.492.781-.673 1.991-1.01 3.631-1.01 1.561 0 2.722.254 3.481.763.759.508 1.282 1.26 1.568 2.256l-2.847.526c-.121-.444-.354-.784-.698-1.021-.337-.236-.82-.354-1.45-.354-.795 0-1.364.111-1.708.333-.229.157-.344.362-.344.612 0 .215.1.398.301.548.272.201 1.21.483 2.814.849 1.612.365 2.736.813 3.373 1.342.631.538.946 1.286.946 2.246 0 1.045-.437 1.944-1.311 2.696s-2.166 1.128-3.878 1.128c-1.554 0-2.786-.315-3.695-.946-.902-.63-1.493-1.486-1.773-2.567zm19.433 3.255v-15.748h3.019v15.748zm8.379-7.928-2.739-.494c.308-1.103.838-1.919 1.59-2.449s1.869-.795 3.351-.795c1.346 0 2.349.161 3.008.483.659.315 1.121.72 1.386 1.214.272.487.408 1.386.408 2.697l-.032 3.523c0 1.003.046 1.744.139 2.224.101.472.283.981.548 1.525h-2.986c-.079-.201-.176-.498-.29-.892-.05-.179-.086-.297-.108-.354-.515.501-1.067.877-1.654 1.128-.587.25-1.214.376-1.88.376-1.174 0-2.102-.319-2.782-.956-.673-.638-1.01-1.443-1.01-2.417 0-.645.154-1.218.462-1.719.308-.508.738-.895 1.289-1.16.559-.272 1.361-.509 2.406-.709 1.411-.265 2.389-.512 2.933-.741v-.301c0-.58-.143-.992-.43-1.235-.286-.251-.827-.376-1.622-.376-.537 0-.956.107-1.257.322-.3.208-.544.576-.73 1.106zm4.039 2.449c-.387.129-.999.283-1.837.462s-1.386.355-1.643.527c-.394.279-.591.634-.591 1.063 0 .423.157.788.472 1.096.316.308.717.462 1.204.462.544 0 1.063-.179 1.557-.537.365-.272.605-.605.72-.999.079-.258.118-.749.118-1.472zm4.888 2.224 3.029-.462c.129.587.39 1.035.784 1.343.394.301.946.451 1.655.451.78 0 1.367-.143 1.761-.43.265-.2.398-.469.398-.805 0-.229-.072-.419-.215-.57-.151-.143-.487-.275-1.01-.397-2.435-.537-3.978-1.028-4.63-1.472-.902-.616-1.353-1.471-1.353-2.567 0-.988.39-1.819 1.171-2.492.78-.673 1.99-1.01 3.63-1.01 1.562 0 2.722.254 3.481.763.759.508 1.282 1.26 1.568 2.256l-2.846.526c-.122-.444-.355-.784-.699-1.021-.336-.236-.82-.354-1.45-.354-.795 0-1.364.111-1.708.333-.229.157-.344.362-.344.612 0 .215.101.398.301.548.272.201 1.21.483 2.815.849 1.611.365 2.735.813 3.373 1.342.63.538.945 1.286.945 2.246 0 1.045-.437 1.944-1.311 2.696-.873.752-2.166 1.128-3.877 1.128-1.555 0-2.786-.315-3.696-.946-.902-.63-1.493-1.486-1.772-2.567zm18.541-8.153v2.406h-2.063v4.598c0 .931.018 1.475.054 1.633.043.15.132.275.269.375.143.101.315.151.515.151.279 0 .684-.097 1.214-.29l.258 2.342c-.702.3-1.497.451-2.385.451-.544 0-1.035-.09-1.472-.269-.436-.186-.759-.422-.966-.709-.201-.293-.341-.687-.419-1.181-.065-.351-.097-1.06-.097-2.127v-4.974h-1.386v-2.406h1.386v-2.267l3.029-1.762v4.029zm15.726 11.408v-1.708c-.415.609-.963 1.089-1.643 1.439-.673.351-1.386.527-2.138.527-.766 0-1.454-.168-2.062-.505-.609-.337-1.05-.809-1.322-1.418s-.408-1.45-.408-2.524v-7.219h3.019v5.242c0 1.604.053 2.589.161 2.954.114.358.318.645.612.859.294.208.666.312 1.117.312.516 0 .978-.14 1.386-.419.408-.286.688-.637.838-1.053.15-.422.225-1.45.225-3.083v-4.812h3.019v11.408zm4.877-3.255 3.03-.462c.128.587.39 1.035.784 1.343.394.301.945.451 1.654.451.781 0 1.368-.143 1.762-.43.265-.2.397-.469.397-.805 0-.229-.071-.419-.215-.57-.15-.143-.487-.275-1.009-.397-2.435-.537-3.979-1.028-4.63-1.472-.903-.616-1.354-1.471-1.354-2.567 0-.988.391-1.819 1.171-2.492.781-.673 1.991-1.01 3.631-1.01 1.561 0 2.721.254 3.48.763.76.508 1.282 1.26 1.569 2.256l-2.847.526c-.122-.444-.354-.784-.698-1.021-.337-.236-.82-.354-1.45-.354-.795 0-1.365.111-1.708.333-.229.157-.344.362-.344.612 0 .215.1.398.301.548.272.201 1.21.483 2.814.849 1.612.365 2.736.813 3.373 1.342.63.538.946 1.286.946 2.246 0 1.045-.437 1.944-1.311 2.696s-2.166 1.128-3.878 1.128c-1.554 0-2.786-.315-3.695-.946-.903-.63-1.493-1.486-1.773-2.567zm19.916-.376 3.008.505c-.387 1.103-.999 1.944-1.837 2.524-.831.573-1.873.86-3.126.86-1.984 0-3.452-.648-4.404-1.945-.752-1.038-1.128-2.348-1.128-3.931 0-1.891.494-3.37 1.482-4.437.989-1.074 2.238-1.611 3.749-1.611 1.698 0 3.037.562 4.018 1.687.981 1.117 1.45 2.832 1.407 5.145h-7.562c.021.895.265 1.593.73 2.095.466.494 1.046.741 1.74.741.473 0 .871-.129 1.193-.387s.566-.673.73-1.246zm.172-3.051c-.021-.873-.247-1.536-.677-1.987-.429-.458-.952-.687-1.568-.687-.659 0-1.203.239-1.633.719-.429.48-.641 1.132-.634 1.955zm15.931 6.682h-2.804v-1.676c-.465.652-1.017 1.139-1.654 1.461-.63.315-1.268.473-1.912.473-1.311 0-2.435-.527-3.373-1.579-.931-1.06-1.397-2.535-1.397-4.426 0-1.934.455-3.402 1.364-4.404.91-1.01 2.059-1.515 3.449-1.515 1.274 0 2.377.53 3.308 1.59v-5.672h3.019zm-8.057-5.951c0 1.217.168 2.098.505 2.642.487.788 1.167 1.182 2.041 1.182.695 0 1.286-.294 1.773-.881.487-.594.73-1.479.73-2.653 0-1.311-.236-2.252-.709-2.825-.473-.58-1.078-.87-1.815-.87-.717 0-1.318.286-1.805.859-.48.566-.72 1.414-.72 2.546z" fill="#4e5e8c"/></g></svg>