<svg fill="none" height="1024" viewBox="0 0 1024 1024" width="1024" xmlns="http://www.w3.org/2000/svg"><g fill="#fff"><path d="m251.313 847.289-76.64-76.639 15.882-15.882 11.875 11.875.291-.292c-2.38-5.682-2.914-11.607-1.603-17.775 1.312-6.169 4.469-11.754 9.471-16.756 3.497-3.497 7.237-6.071 11.219-7.722 4.031-1.7 8.208-2.429 12.531-2.186 4.274.194 8.499 1.408 12.676 3.643l.364-.365c-1.797-4.419-2.647-8.912-2.55-13.477.097-4.663 1.093-9.155 2.987-13.478 1.943-4.371 4.735-8.378 8.378-12.02 5.051-5.051 10.515-8.378 16.392-9.981 5.828-1.651 11.68-1.627 17.557.073 5.876 1.7 11.365 5.1 16.464 10.199l52.744 52.745-15.881 15.881-48.883-48.883c-3.352-3.351-6.776-5.61-10.272-6.775-3.449-1.214-6.873-1.336-10.272-.364-3.352.922-6.606 2.962-9.763 6.119-3.108 3.108-5.148 6.557-6.119 10.345-.923 3.74-.801 7.552.364 11.438 1.214 3.836 3.424 7.358 6.63 10.563l47.936 47.936-15.517 15.518-50.049-50.049c-2.963-2.963-6.12-4.906-9.471-5.828-3.351-1.02-6.678-1.045-9.981-.073-3.351.922-6.532 2.889-9.543 5.901-3.06 3.059-5.051 6.556-5.974 10.49-.923 3.837-.777 7.722.437 11.656s3.497 7.577 6.848 10.928l47.354 47.354z"/><path d="m412.572 689.09c-7.334 7.334-15.348 12.142-24.041 14.425-8.694 2.185-17.509 1.821-26.445-1.093-8.985-2.963-17.582-8.548-25.79-16.756l-.145-.145c-8.16-8.16-13.696-16.708-16.611-25.644-2.865-8.985-3.181-17.8-.947-26.445 2.283-8.694 7.043-16.659 14.279-23.895 7.285-7.286 15.25-12.045 23.896-14.279 8.645-2.332 17.435-2.04 26.372.874 8.985 2.865 17.581 8.402 25.789 16.61l.146.146c8.256 8.256 13.817 16.877 16.683 25.862 2.914 8.936 3.278 17.751 1.092 26.445-2.234 8.645-6.993 16.61-14.278 23.895zm-13.186-13.332c4.079-4.079 6.58-8.669 7.503-13.768.923-5.1.243-10.442-2.04-16.028-2.331-5.634-6.313-11.267-11.947-16.901l-.146-.146c-5.585-5.585-11.17-9.519-16.756-11.802-5.634-2.331-11-2.987-16.1-1.967-5.148.971-9.762 3.497-13.842 7.577-4.031 4.031-6.532 8.62-7.503 13.769-.923 5.099-.267 10.466 1.967 16.1s6.143 11.243 11.729 16.828l.145.146c5.634 5.634 11.268 9.616 16.902 11.948 5.634 2.234 11.025 2.865 16.173 1.894 5.148-.972 9.786-3.521 13.915-7.65z"/><path d="m463.752 634.85-76.64-76.639 15.882-15.882 76.64 76.64zm-80.501-96.382c-2.525 2.525-5.561 3.812-9.106 3.861-3.594 0-6.63-1.239-9.107-3.715-2.574-2.575-3.836-5.634-3.788-9.18.049-3.545 1.336-6.581 3.861-9.106 2.574-2.574 5.61-3.861 9.107-3.861 3.545-.049 6.605 1.214 9.179 3.788 2.477 2.477 3.715 5.512 3.715 9.106 0 3.497-1.287 6.533-3.861 9.107z"/></g></svg>